<svg width="945" height="593" viewBox="0 0 945 593" fill="none" xmlns="http://www.w3.org/2000/svg">
<path d="M915.943 587.477C915.644 588.306 863.393 589.3 863.018 590.129H773.973L768.556 590.11L747.912 590.045H514.554L495.373 590.022L492.992 590.019L460.994 589.981L446.402 589.961H266.742L191.699 589.881H55.9989C55.9989 589.881 55.7769 589.216 55.3252 587.886L55.2526 587.718C55.2526 587.718 55.1759 587.553 55.1759 587.473C54.8772 586.808 -101.872 257.117 117.169 197.204C201.008 174.271 236.612 162.806 323.897 51.5834C397.772 -42.5521 657.604 7.76792 731.269 82.26C740.926 92.0281 823.659 152.797 789.036 222.278C767.174 266.143 831.702 277.031 864.078 279.588C974.816 288.328 916.693 585.815 915.943 587.477Z" fill="#E9F3FE"/>
<path d="M293.411 103.999C305.186 85.0938 338.035 101.958 338.035 101.958C338.035 101.958 350.817 145.056 357.43 147.974C364.043 150.892 353.709 108.996 353.709 108.996C367.408 111.702 396.431 138.17 396.431 138.17C396.431 138.17 381.641 179.542 388.77 180.745C395.899 181.948 399.994 143.445 399.994 143.445C411.715 151.168 419.225 169.78 419.225 169.78C426.901 198.726 389.275 207.073 389.275 207.073C389.275 207.073 384.459 221.521 388.446 240.946L388.446 240.947C388.446 240.947 389.552 244.644 390.042 250.512L386.53 249.459C386.526 248.433 386.483 247.429 386.396 246.451C386.398 246.444 386.397 246.439 386.394 246.433C386.393 246.419 386.391 246.405 386.39 246.391C386.312 245.777 386.198 244.902 386.05 243.834C386.05 243.832 386.05 243.831 386.049 243.83C386.05 243.827 386.048 243.827 386.049 243.824C385.607 241.406 385.348 239.639 385.226 238.383C385.225 238.379 385.225 238.375 385.226 238.371C383.992 230.824 381.941 220.857 379.393 218.131C379.393 218.131 379.946 217.702 380.628 216.748C380.234 217.189 379.824 217.649 379.393 218.131C369.51 229.19 338.805 222.318 323.089 213.865C307.373 205.412 316.092 202.885 327.414 197.936C338.735 192.986 357.023 200.671 363.509 199.344C369.995 198.018 362.738 192.569 351.315 190.078C339.892 187.586 330.955 197.059 312.402 193.364C293.85 189.67 290.3 151.678 290.3 151.678C301.592 159.272 325.987 159.109 328.136 155.08C330.285 151.05 297.09 141.561 292.324 138.729C287.557 135.898 281.635 122.904 293.411 103.999Z" fill="#DFEBFD"/>
<path d="M543.768 156.471C535.344 142.946 511.842 155.012 511.842 155.012C511.842 155.012 502.698 185.845 497.967 187.933C493.236 190.021 500.629 160.047 500.629 160.047C490.828 161.983 470.064 180.919 470.064 180.919C470.064 180.919 480.645 210.518 475.545 211.379C470.445 212.239 467.515 184.693 467.515 184.693C459.129 190.218 453.757 203.533 453.757 203.533C448.265 224.242 475.184 230.214 475.184 230.214C475.184 230.214 478.629 240.55 475.777 254.448L475.777 254.448C475.777 254.448 474.985 257.094 474.635 261.292L477.148 260.538C477.15 259.804 477.181 259.086 477.244 258.386C477.242 258.381 477.242 258.378 477.245 258.373C477.246 258.363 477.247 258.353 477.248 258.343C477.303 257.904 477.385 257.278 477.491 256.514C477.491 256.513 477.491 256.512 477.491 256.511C477.491 256.51 477.492 256.509 477.492 256.507C477.808 254.777 477.993 253.513 478.08 252.614C478.081 252.612 478.081 252.609 478.08 252.606C478.964 247.206 480.431 240.076 482.253 238.126C482.253 238.126 481.858 237.819 481.37 237.137C481.651 237.452 481.945 237.781 482.253 238.126C489.324 246.038 511.292 241.121 522.535 235.073C533.779 229.026 527.541 227.218 519.441 223.677C511.341 220.136 498.258 225.634 493.617 224.685C488.977 223.736 494.169 219.838 502.341 218.056C510.514 216.273 516.907 223.05 530.18 220.407C543.454 217.764 545.993 190.583 545.993 190.583C537.914 196.016 520.461 195.9 518.924 193.017C517.386 190.134 541.136 183.346 544.546 181.32C547.956 179.293 552.193 169.997 543.768 156.471Z" fill="#CDE0FB"/>
<path d="M432.154 496.85C432.154 496.85 420.199 476.671 405.297 469.815C405.297 469.815 407.361 515.003 398.912 514.865C390.468 514.731 400.252 464.346 400.252 464.346C400.252 464.346 362.064 438.883 345.765 438.164C345.765 438.164 365.089 484.735 356.939 482.526C348.785 480.317 326.423 432.791 326.423 432.791C326.423 432.791 285.51 419.086 275.243 442.991C264.977 466.895 274.11 480.859 280.113 483.294C286.119 485.724 326.128 490.849 324.36 495.882C322.587 500.915 294.441 505.391 280.059 498.603C280.059 498.603 290.858 541.857 312.937 542.866C335.017 543.871 343.667 531.359 357.299 532.23C370.934 533.098 380.274 538.116 373.017 540.787C365.763 543.458 343.285 537.798 331.082 545.506C318.878 553.211 309.255 557.663 328.896 564.661C348.537 571.662 385.212 574.204 394.675 559.692C398.101 562.394 402.223 573.546 404.984 582.045V582.057C405.347 583.486 405.956 585.481 406.894 588.198C406.894 588.202 406.898 588.202 406.898 588.202C406.898 588.206 406.898 588.206 406.898 588.21C407.093 588.86 407.265 589.448 407.414 589.96H411.223C410.901 588.955 410.595 588.072 410.32 587.327C409.639 585.473 409.156 584.453 409.156 584.453C401.126 562.72 404.138 545.186 404.138 545.186C404.138 545.186 446.122 528.933 432.154 496.85ZM394.698 559.667C395.1 559.047 395.486 558.447 395.858 557.882C395.314 558.952 394.809 559.541 394.698 559.667Z" fill="#AFCDFB"/>
<path d="M460.994 417.913V589.98L446.402 589.961H445.854V417.913H460.994Z" fill="#94B0ED"/>
<path d="M296.514 417.912H468.959V319.074C468.959 271.533 430.356 232.993 382.736 232.993C335.117 232.993 296.514 271.533 296.514 319.074V417.912Z" fill="#AFCDFB"/>
<path d="M517.998 232.993H377.473V345.08H500.834L517.998 232.993Z" fill="#AFCDFB"/>
<path d="M431.776 417.912H604.22V319.074C604.22 271.533 565.617 232.993 517.998 232.993C470.378 232.993 431.775 271.533 431.775 319.074L431.776 417.912Z" fill="#628AD3"/>
<path d="M441.056 407.961H594.94V319.761C594.94 277.336 560.492 242.945 517.998 242.945C475.504 242.945 441.056 277.336 441.056 319.761V407.961Z" fill="#233862"/>
<path d="M741.174 417.912H429.184C426.431 417.912 424.2 415.685 424.2 412.937C424.2 410.189 426.431 407.961 429.184 407.961H741.174C743.926 407.961 746.158 410.189 746.158 412.937C746.158 415.685 743.926 417.912 741.174 417.912Z" fill="#628AD3"/>
<path d="M418.096 427.037H491.176C493.762 427.037 495.858 424.944 495.858 422.363V417.689H413.144V422.093C413.144 424.824 415.361 427.037 418.096 427.037Z" fill="#94B0ED"/>
<path d="M818.717 246.213C818.717 246.213 825.31 257.06 812.915 263.89C812.915 263.89 822.443 267.32 825.761 266.026C825.761 266.026 824.938 266.88 824.313 267.192C824.313 267.192 833.267 270.031 837.731 268.481C842.195 266.932 851.807 223.646 825.377 221.362C825.377 221.362 804.529 213.91 800.121 237.137C795.713 260.365 787.684 258.11 787.684 258.11C787.684 258.11 789.631 259.752 790.709 260.054C790.709 260.054 792.441 259.943 792.978 259.228C792.978 259.228 792.311 260.402 791.794 260.689C791.794 260.689 800.247 263.88 805.424 262.081C810.6 260.283 818.634 251.238 818.717 246.213Z" fill="#163560"/>
<path d="M792.183 587.935H825.903C825.903 587.935 826.711 582.804 824.95 578.912C823.262 575.177 820.635 572.871 820.396 570.01C818.254 572.212 815.617 573.629 810.742 572.974C810.145 573.941 806.886 579.115 804.891 580.546C802.688 582.127 792.862 581.564 792.183 587.935Z" fill="#233862"/>
<path d="M820.047 575.077C820.047 575.077 817.169 576.008 814.168 576.274C808.856 576.747 808.082 575.167 808.082 575.167C808.082 575.167 802.804 528.26 785.719 438.596C783.254 425.646 782.281 418.479 781.391 406.969C781.124 403.522 780.865 399.689 780.58 395.192C779.806 383.108 781.643 362.769 790.726 357.424C794.855 354.99 800.482 355.658 808.048 361.606C808.642 362.075 809.254 362.578 809.874 363.114C832.012 382.234 822.936 437.142 823.83 462.956C823.981 467.236 824.405 470.716 825.288 473.101C826.43 476.184 828.883 480.46 829.439 484.488C834.086 517.969 820.047 575.077 820.047 575.077Z" fill="#2B478B"/>
<path d="M823.83 462.956L781.391 406.968C781.124 403.522 780.865 399.689 780.58 395.192C779.806 383.108 781.643 362.768 790.726 357.424L808.048 361.606C808.642 362.075 809.254 362.578 809.874 363.114C832.012 382.234 822.936 437.141 823.83 462.956Z" fill="#233862"/>
<path d="M943.788 517.087L929.754 486.477C929.754 486.477 924.745 487.878 921.933 491.097C919.234 494.184 917.28 493.635 911.13 489.374C913.445 492.944 913.758 495.047 915.191 499.745C916.32 499.884 922.749 506.095 929.335 507.807C931.96 508.489 937.703 519.122 943.788 517.087Z" fill="#233862"/>
<path d="M796.649 370.859C796.649 370.859 826.865 475.727 837.936 482.477C849.007 489.228 907.215 498.511 919.048 503.574C919.048 503.574 920.489 501.511 919.643 497.104C919.456 496.126 917.786 492.603 917.786 492.603C917.786 492.603 881.638 465.474 857.847 462.737C851.943 462.057 869.868 372.04 829.97 368.445C793.524 365.161 796.649 370.859 796.649 370.859Z" fill="#2B478B"/>
<path d="M751.861 198.914C751.861 198.914 752.536 195.552 753.296 192.987C753.633 191.852 751.287 184.396 749.665 183.479C748.042 182.561 743.815 187.582 745.011 191.437C745.625 193.418 746.635 199.862 746.635 199.862L751.861 198.914Z" fill="#FFB27D"/>
<path d="M751.861 198.914C751.861 198.914 752.742 196.965 753.539 196.649C754.336 196.333 755.19 193.146 755.775 191.882C755.775 191.882 755.21 191.055 754.221 192.119C753.618 192.768 752.275 194.67 752.275 194.67L751.861 198.914Z" fill="#FFB27D"/>
<path d="M891.379 212.062C891.586 212.488 891.873 213.249 892.129 213.965C892.133 213.77 892.136 213.577 892.138 213.387C892.151 211.962 897.481 204.206 899.673 203.72C901.864 203.235 904.957 210.501 902.221 214.517C900.814 216.58 896.567 223.933 896.567 223.933L891.864 221.099C891.864 221.099 891.835 219.121 890.565 217.516C889.926 216.708 889.902 212.904 889.674 211.244C889.674 211.244 890.616 210.49 891.379 212.062Z" fill="#FFB27D"/>
<path d="M802.691 273.981C802.619 274.002 808.761 278.441 813.972 277.817C818.873 277.235 822.859 271.595 822.796 271.571C820.86 270.88 820.693 268.058 822.487 256.305L821.559 256.348L805.951 257.094C805.951 257.094 805.586 261.909 804.928 266.398C804.377 270.167 803.616 273.707 802.691 273.981Z" fill="#FFB27D"/>
<path d="M805.951 257.094C805.951 257.094 805.586 261.909 804.928 266.398C813.448 267.419 819.083 260.358 821.559 256.348L805.951 257.094Z" fill="#ED975D"/>
<path d="M823.37 254.933C823.37 254.933 828.862 248.58 830.822 242.741C832.222 238.572 832.402 222.377 816.087 222.291C816.087 222.291 811.379 222.058 806.58 224.351C802.763 226.174 797.006 230.48 800.539 245.16L801.295 250.055L823.37 254.933Z" fill="#163560"/>
<path d="M783.114 366.819C783.114 366.819 798.423 376.465 823.924 370.269C824.224 370.196 838.423 367.935 838.423 367.935C838.067 366.963 823.147 342.351 822.797 341.458C818.273 329.802 828.749 274.157 821.841 271.036C820.077 272.954 815.036 274.266 810.721 273.884C805.753 273.446 804.09 271.303 804.502 268.998C799.004 271.593 794.779 274.006 794.779 274.006C789.754 281.523 783.114 366.819 783.114 366.819Z" fill="#FFB27D"/>
<path d="M802.485 260.922C802.485 260.922 822.509 264.234 824.383 251.753C826.256 239.271 830.103 231.293 817.397 228.651C804.691 226.009 801.487 230.399 799.846 234.413C798.206 238.427 797.324 259.739 802.485 260.922Z" fill="#FFB27D"/>
<path d="M808.3 226.987C808.3 226.987 811.614 242.449 819.726 245.867C827.838 249.285 831.833 247.572 831.833 247.572C831.833 247.572 826.128 241.48 826.12 232.324C826.12 232.324 813.484 220.632 808.3 226.987Z" fill="#163560"/>
<path d="M809.485 228.379C809.485 228.379 804.893 231.039 803.419 234.069C801.945 237.099 800.519 243.576 798.642 243.07C798.642 243.07 795.984 232.501 801.477 227.561C807.301 222.322 809.485 228.379 809.485 228.379Z" fill="#163560"/>
<path d="M897.437 223.996C897.437 223.996 884.526 263.182 881.088 269.242C879.018 272.899 855.757 287.357 842.256 296.887C842.109 296.989 841.937 297.198 841.737 297.506C841.734 297.513 841.73 297.518 841.722 297.525C838.353 302.727 827.879 334.929 830.381 340.708C840.911 365.001 848.127 374.395 850.753 381.21C852.065 384.608 850.314 388.415 846.876 389.637C842.549 391.175 836.177 393.11 828.657 394.396C827.221 394.644 825.745 394.865 824.235 395.056C803.483 397.686 789.433 392.825 782.3 389.232C778.926 387.533 776.89 383.996 777.101 380.231C777.529 372.546 781.379 364.94 783.115 346.458C784.429 332.435 772.31 311.094 772.821 303.63C773.024 300.679 775.35 297.146 776.608 294.858C776.608 294.858 776.608 294.854 776.612 294.851C778.84 290.8 780.064 287.14 778.58 285.107C768.704 271.575 747.381 252.917 746.51 248.258C745.237 241.41 745.812 199.093 745.812 199.093C746.627 198.808 747.825 198.129 749.391 197.99C750.785 197.867 752.536 198.317 752.536 198.317C752.536 198.317 758.186 233.38 758.607 235.237C759.028 237.093 782.837 263.876 789.257 263.767C795.054 263.669 803.228 268.14 804.502 268.999C804.502 268.999 799.299 278.206 797.999 290.639C797.094 299.337 802.913 295.47 806.568 289.514C811.515 281.45 821.474 269.97 821.474 269.97C821.474 269.97 829.577 267.866 835.615 270.053C841.652 272.235 872.888 254.627 873.887 253.006C874.89 251.386 891.618 220.265 891.618 220.265C891.618 220.265 893.005 219.462 895.229 220.617C897.426 221.761 897.437 223.996 897.437 223.996Z" fill="#F99746"/>
<path d="M808.3 254.145C808.3 254.145 807.443 255.87 806.292 255.901C805.14 255.933 802.213 255.656 802.013 255.358C801.814 255.06 801.328 253.258 801.328 253.258C801.328 253.258 806.168 253.065 808.3 254.145Z" fill="white"/>
<path d="M846.877 389.637C842.549 391.175 836.178 393.11 828.657 394.396C821.497 384.54 809.379 372.141 812.497 349.334C815.72 325.758 838.935 300.945 841.722 297.524C838.353 302.726 827.879 334.928 830.381 340.708C840.911 365 848.127 374.395 850.753 381.21C852.065 384.608 850.314 388.415 846.877 389.637Z" fill="#ED7D2B"/>
<path d="M776.613 294.851C778.84 290.8 780.065 287.14 778.581 285.107C768.705 271.575 747.382 252.917 746.511 248.258C748.626 253.321 774.449 268.447 781.711 274.951C788.889 281.371 776.905 294.536 776.613 294.851Z" fill="#ED7D2B"/>
<path d="M579.786 156.027C579.786 156.027 578.749 144.743 591.378 144.743C591.378 144.743 587.551 145.779 585.572 147.852C585.572 147.852 593.626 143.131 602.392 150.385C611.158 157.639 605.711 175.833 608.377 179.287C611.042 182.741 621.423 183.432 620.154 194.602C618.885 205.771 587.209 219.761 589.243 229.001C589.243 229.001 576.83 210.784 585.707 202.47C585.707 202.47 581.38 206.539 580.94 211.375C580.94 211.375 579.766 201.933 585.784 198.913C591.109 196.24 595.472 186.466 595.01 184.719C594.549 182.972 579.786 156.027 579.786 156.027Z" fill="#2C3A64"/>
<path d="M597.611 203.412C597.611 203.412 579.644 248.678 575.772 247.001C571.899 245.324 549.081 238.089 549.081 238.089L547.58 243.634C547.58 243.634 569.294 260.339 580.467 261.07C591.64 261.801 606.775 228.934 606.775 228.934L597.611 203.412Z" fill="#FFB27D"/>
<path d="M597.801 235.892L615.521 297.718C615.783 298.629 615.87 299.553 615.809 300.444C615.595 303.695 613.366 306.61 610.051 307.557L502.503 338.281C499.171 339.233 495.728 337.91 493.827 335.245C493.314 334.526 492.913 333.711 492.657 332.818L474.944 271.017C473.732 266.788 476.178 262.389 480.405 261.181L587.954 230.457C592.172 229.252 596.574 231.677 597.801 235.892Z" fill="#ED8537"/>
<path d="M615.809 300.444C615.595 303.695 613.366 306.61 610.051 307.557L502.503 338.281C499.171 339.233 495.728 337.91 493.827 335.245L548.604 285.423L615.809 300.444Z" fill="#DD6D22"/>
<path d="M597.801 235.892L549.654 295.584L475.85 274.181L474.944 271.018C473.732 266.789 476.178 262.389 480.405 261.181L587.953 230.457C592.172 229.252 596.574 231.677 597.801 235.892Z" fill="#F99746"/>
<path d="M557.041 239.246C557.041 239.246 547.202 235.096 545.838 240.348C545.117 243.123 543.427 246.791 546.463 246.515C549.499 246.24 552.546 244.206 552.884 242.552C553.223 240.899 557.041 239.246 557.041 239.246Z" fill="#FFB27D"/>
<path d="M680.89 278.667C680.808 278.816 680.719 278.97 680.631 279.124C678.567 282.706 673.83 291.486 668.613 301.092C666.146 305.649 663.562 310.394 661.112 314.859C656.889 322.563 653.047 329.424 650.805 333.051C648.525 336.737 646.847 339.328 646.168 340.364C646.163 340.37 646.163 340.37 646.163 340.37C645.958 340.689 645.914 341.064 645.942 341.439C646.179 344.69 646.113 347.92 645.793 351.1C642.646 382.353 621.537 399.102 621.537 399.102L615.261 400.027C615.261 400.027 624.142 367.175 626.759 348.603C627.201 345.456 627.394 342.904 627.24 341.24C626.776 336.401 627.637 329.297 629.266 321.141C632.164 306.646 637.48 288.857 642.1 274.616C642.393 273.706 651.219 241.83 651.219 241.83C658.627 248.294 685.648 250.962 685.648 250.962C685.648 250.962 690.23 262.084 680.89 278.667Z" fill="#2B478B"/>
<path d="M602.088 407.956H628.284C628.284 407.956 628.911 403.97 627.543 400.947C626.232 398.045 624.364 397.953 627.305 393.404C625.64 395.115 620.289 395.823 616.502 395.315C616.038 396.066 613.511 401.104 611.961 402.216C610.249 403.444 602.616 403.007 602.088 407.956Z" fill="#233862"/>
<path d="M680.89 278.667C680.808 278.816 680.719 278.97 680.631 279.124C678.567 282.706 667.401 303.296 662.185 312.902C668.229 288.074 664.025 263.246 664.025 263.246L680.89 278.667Z" fill="#233862"/>
<path d="M583.359 154.441C583.188 153.754 598.32 161.269 599.087 162.119C606.184 169.978 604.161 180.235 600.1 180.333C597.495 180.396 598 184.719 598 184.719L568.985 172.465C568.985 172.465 572.479 152.127 583.359 154.441Z" fill="#2C3A64"/>
<path d="M593.109 204.355C593.109 204.355 589.245 208.351 589.245 220.308C589.245 220.308 594.569 228.698 608.377 230.822C608.377 230.822 596.505 204.348 593.109 204.355Z" fill="#F9DDBF"/>
<path d="M660.469 252.91L660.38 248.019C670.142 249.248 694.038 236.373 694.038 236.373C694.038 236.373 704.25 243.154 705.647 262.52C706.33 271.972 710.646 311.946 711.124 323.883C711.298 328.209 711.356 331.296 711.376 332.53C711.373 332.536 711.374 332.539 711.374 332.542C711.38 332.919 711.557 333.251 711.789 333.549C713.809 336.112 715.561 338.827 717.078 341.643C731.973 369.311 724.184 406.906 724.184 406.906L720.725 406.027C720.725 406.027 708.131 367.054 699.9 350.196C698.502 347.338 697.233 345.114 696.171 343.826C693.076 340.073 689.813 333.7 686.596 326.029C680.516 311.528 660.469 252.91 660.469 252.91Z" fill="#2B478B"/>
<path d="M703.354 407.957H729.549C729.549 407.957 730.177 403.971 728.809 400.947C727.497 398.045 725.444 396.726 725.936 393.216C724.271 394.927 721.558 396.843 717.771 396.334C717.307 397.085 714.776 401.104 713.226 402.216C711.514 403.444 703.881 403.007 703.354 407.957Z" fill="#233862"/>
<path d="M610.145 236.438C613.664 237.037 609.57 239.83 614.41 240.355C621.298 241.105 628.409 241.619 632.135 243.102C633.494 243.643 634.403 244.311 634.686 245.165C636.301 250.013 646.528 258.343 646.528 258.343C692.141 256.27 694.038 236.373 694.038 236.373C664.435 207.668 637.216 190.741 616.432 188.501C612.874 188.117 608.377 190.371 605.173 191.795C597.893 195.03 593.109 204.355 593.109 204.355C593.109 204.355 596.776 234.161 610.145 236.438Z" fill="#F9DDBF"/>
<path d="M614.41 240.354C621.298 241.105 628.409 241.619 632.135 243.102C633.657 220.39 622.922 203.307 622.922 203.307C622.922 203.307 615.919 231.76 614.41 240.354Z" fill="#F2CCAA"/>
<path d="M608.467 199.462C608.467 199.462 625.789 198.518 628.866 209.375C631.944 220.232 623.092 263.569 621.184 268.042C617.711 276.185 600.803 299.427 600.803 299.427L594.586 297.536C594.586 297.536 605.86 262.031 608.377 258.517C612.328 253.002 603.283 204.186 608.467 199.462Z" fill="#FFB27D"/>
<path d="M594.586 297.536C594.586 297.536 594.266 300.289 593.101 301.711C591.935 303.132 588.545 306.571 588.486 308.584C588.486 308.584 588.657 309.478 589.384 309.315C590.11 309.151 592.635 306.656 593.931 306.835C593.931 306.835 593.24 310.87 592.554 312.006C591.869 313.142 592.414 317.962 592.826 318.942C593.237 319.922 598.291 313.677 600.368 310.888C602.446 308.099 600.401 296.78 600.401 296.78L594.586 297.536Z" fill="#FFB27D"/>
<path d="M632.283 223.894C632.237 224.148 615.891 226.896 605.667 221.715C605.667 221.715 597.126 195.001 609.332 196.279C621.538 197.557 628.765 201.395 629.073 207.23C629.381 213.064 632.283 223.894 632.283 223.894Z" fill="#F9DDBF"/>
<path d="M605.173 191.795C605.173 191.795 600.357 209.734 593.109 204.355C593.313 203.49 592.049 200.971 590.559 198.414C588.654 195.146 586.385 191.806 586.385 191.806L596.189 183.231L596.774 182.718C599.777 187.954 602.722 190.009 605.173 191.795Z" fill="#FFB27D"/>
<path d="M586.386 191.81C586.386 191.81 588.653 195.142 590.558 198.415C596.651 194.664 596.658 187.133 596.188 183.231L586.386 191.81Z" fill="#ED985F"/>
<path d="M586.115 196.107C586.115 196.107 600.91 187.887 595.641 178.767C590.373 169.647 588.734 162.444 579.064 167.306C569.394 172.168 569.586 176.696 570.603 180.167C571.62 183.639 582.13 198.01 586.115 196.107Z" fill="#FFB27D"/>
<path d="M568.104 174.848C568.782 170.799 570.842 170.412 572.278 170.682C577.743 161.661 586.67 165.182 586.67 165.182C591.437 171.156 598.331 172.175 598.331 172.175C598.331 172.175 596.614 175.364 589.54 177.338C587.379 177.941 584.927 177.576 582.561 176.782C587.469 179.514 592.602 180.56 592.602 180.56C583.279 181.412 574.41 172.903 573.49 171.993C573.06 173.312 572.306 176.072 572.757 178.09C573.37 180.833 575.81 185.801 574.32 186.443C574.32 186.443 567.088 180.921 568.104 174.848Z" fill="#2C3A64"/>
<path d="M387.055 307.857C387.976 308.911 388.093 310.088 387.638 311.345C387.637 311.351 387.634 311.358 387.629 311.363C386.786 313.688 384.002 316.284 380.768 318.877C380.355 319.21 379.987 319.513 379.667 319.793C379.583 319.867 379.499 319.94 379.42 320.015C379.355 320.072 379.292 320.131 379.229 320.186C376.214 322.962 377.349 323.597 371.931 329.229C365.753 335.646 361.5 335.762 360.29 335.177C359.266 334.679 361.346 331.275 363.651 327.45C363.762 327.266 363.872 327.079 363.986 326.892C364.293 326.384 364.598 325.868 364.903 325.356C367.604 320.752 366.91 318.592 366.27 311.74C365.75 306.172 357.594 280.634 357.594 280.634L369.433 278.598C369.433 278.598 372.998 298.934 376.926 302.065C379.026 303.734 381.378 303.755 383.397 304.993C383.539 305.079 383.68 305.167 383.817 305.258C384.964 306.018 386.132 306.801 387.055 307.857Z" fill="#FFB27D"/>
<path d="M387.055 307.858C387.976 308.911 388.093 310.088 387.638 311.345C387.637 311.351 387.634 311.358 387.629 311.363C386.597 313.686 383.883 316.268 380.757 318.853C380.348 319.192 379.988 319.503 379.667 319.793C379.583 319.867 379.499 319.94 379.42 320.015C379.355 320.072 379.292 320.131 379.229 320.186C376.214 322.962 377.349 323.597 371.931 329.229C365.753 335.646 361.5 335.762 360.29 335.177C359.266 334.679 361.346 331.275 363.651 327.45C364.853 327.01 370.439 324.745 374.663 319.349C378.383 314.61 380.863 308.521 383.396 304.993C383.539 305.079 383.679 305.168 383.816 305.258C384.964 306.018 386.132 306.801 387.055 307.858Z" fill="#233862"/>
<path d="M291.594 300.476C290.863 304.124 285.654 303.515 279.834 302.096C274.014 300.676 275.398 302.364 267.115 301.448C258.832 300.533 256.323 297.449 256.071 296.22C255.844 295.129 259.937 294.744 264.327 294.239C264.879 294.178 265.433 294.11 265.988 294.041C270.944 293.421 274.574 290.227 279.076 287.605C283.34 285.122 289.704 275.002 289.704 275.002L301.063 275.9C301.063 275.9 295.102 284.938 292.797 288.868C291.441 291.18 291.513 294.236 291.682 296.597C291.769 297.879 291.853 299.191 291.594 300.476Z" fill="#FFB27D"/>
<path d="M279.834 302.095C274.014 300.676 275.398 302.363 267.115 301.448C258.832 300.532 256.323 297.449 256.071 296.22C255.844 295.129 259.937 294.744 264.327 294.239L264.368 294.324C264.368 294.324 269.335 297.84 276.23 298.004C281.849 298.14 287.801 296.533 291.682 296.596C291.769 297.879 291.854 299.19 291.594 300.475C290.863 304.124 285.654 303.515 279.834 302.095Z" fill="#233862"/>
<path d="M335.124 227.963L345.743 256.489L359.606 293.737C359.606 293.737 363.368 294.099 366.971 293.065C370.288 292.107 374.094 289.604 374.094 289.604C374.094 289.604 370.245 249.61 363.064 226.653C361.224 220.76 359.161 215.993 356.885 213.31C345.753 200.176 335.124 227.963 335.124 227.963Z" fill="#233862"/>
<path d="M345.921 182.658C352.877 180.418 372.718 183.295 392.65 187.189L396.823 180.318L439.873 176.961C439.873 176.961 454.079 208.413 446.302 228.454C445.159 231.399 442.888 233.289 439.016 233.35C439.014 233.352 438.389 233.349 438.387 233.35C438.387 233.35 412.765 233.336 404.444 233.336C383.035 233.336 359.134 218.643 356.042 218.025C350.982 217.015 348.957 227.12 343.897 237.73C338.836 248.34 296.326 284.717 296.326 284.717C296.326 284.717 289.793 284.782 287.094 283.772C284.191 282.685 283.129 281.273 283.129 281.273C283.129 281.273 330.233 187.711 345.921 182.658Z" fill="#2B478B"/>
<path d="M384.829 120.562C398.407 131.586 431.118 150.689 431.297 150.607C431.297 150.607 441.776 156.875 448.925 153.799C460.841 148.674 469.992 130.729 453.51 110.876C445.289 100.974 438.473 97.7121 440.074 84.5485C441.808 70.2857 435.357 52.354 418.914 51.6014C417.54 51.5385 409.213 50.428 403.27 52.2904C388.125 57.0362 362.799 113.259 384.829 120.562Z" fill="#A9453D"/>
<path d="M429.36 103.895C429.429 103.904 426.051 111.258 421.133 113.042C415.907 114.946 408.485 111.853 408.555 111.811C409.444 111.304 410.077 107.959 409.732 103.936C409.714 103.746 409.7 103.55 409.677 103.356C409.216 98.8541 407.913 93.9249 407.829 93.6044C407.824 93.5952 407.824 93.5907 407.824 93.5907L423.757 89.0428L424.702 88.7734C425.702 101.344 427.196 103.653 429.36 103.895Z" fill="#FFB27D"/>
<path d="M423.757 89.043C422.212 93.6654 418.271 102.018 409.677 103.356C409.216 98.8544 407.913 93.9251 407.829 93.6046C407.824 93.5954 407.824 93.5909 407.824 93.5909L423.757 89.043Z" fill="#ED975D"/>
<path d="M405.174 98.3813C405.174 98.3813 426.65 96.9555 425.555 83.617C424.46 70.2782 426.494 61.1109 412.736 61.4575C398.978 61.8037 396.735 67.1115 396.016 71.6522C395.296 76.193 399.559 98.4085 405.174 98.3813Z" fill="#FFB27D"/>
<path d="M401.313 61.2182C401.313 61.2182 406.65 76.8496 419.319 78.6667C428.561 79.9922 432.232 77.4977 432.232 77.4977C432.232 77.4977 427.073 72.6036 424.278 65.0754C423.453 62.8564 421.506 61.2413 419.163 60.8802C412.584 59.8669 404.092 55.5192 401.313 61.2182Z" fill="#A9453D"/>
<path d="M405.866 63.9862C405.866 63.9862 402.032 65.5323 399.357 71.2481C397.895 74.3716 396.838 81.809 397.74 84.8744C397.74 84.8744 391.565 70.612 396.037 64.1834C400.777 57.3663 405.866 63.9862 405.866 63.9862Z" fill="#A9453D"/>
<path d="M447.238 153.12C446.856 154.74 446.529 156.23 446.263 157.605C445.827 159.823 445.526 161.735 445.315 163.423C444.661 168.683 444.859 171.8 444.415 175.209C444.17 177.114 443.72 179.115 442.814 181.626C441.928 184.068 418.652 186.246 405.408 185.368C401.203 185.096 398 184.504 396.862 183.524C392.138 179.428 392.609 188.437 391.961 145.329C391.647 124.303 409.832 105.576 409.832 105.576C409.832 105.576 411.284 114.558 429.318 103.868C429.959 103.494 437.061 113.994 443.898 126.923C451.429 141.205 449.364 144.226 447.238 153.12Z" fill="#AEC3FF"/>
<path d="M345.743 256.489L359.606 293.736C359.606 293.736 363.368 294.099 366.971 293.064C370.288 292.107 374.094 289.603 374.094 289.603C374.094 289.603 370.245 249.61 363.064 226.652L345.743 256.489Z" fill="#2B478B"/>
<path d="M409.831 105.573C409.831 105.573 391.274 108.713 389.095 116.69C386.916 124.666 371.862 169.276 371.862 169.276C371.862 169.276 383.527 173.25 387.885 168.899C392.243 164.548 403.049 128.533 403.049 128.533L409.831 105.573Z" fill="#AEC3FF"/>
<path d="M408.759 89.8132C408.759 89.8132 408.234 92.1236 405.894 92.5118C403.555 92.8999 402.864 92.6557 402.339 92.2342C401.814 91.8127 401.216 90.933 401.216 90.933C401.216 90.933 404.966 89.5254 408.759 89.8132Z" fill="white"/>
<path d="M445.315 163.423C444.661 168.683 444.859 171.799 444.415 175.208C427.567 175.263 405.04 162.218 405.04 162.218L445.315 163.423Z" fill="#94B0ED"/>
<path d="M405.04 151.186C405.04 151.186 431.288 150.405 435.712 135.51C440.573 119.147 446.017 142.239 446.017 142.239L443.12 156.978H414.324L405.04 151.186Z" fill="#94B0ED"/>
<path d="M410.37 175.886L369.646 176.266L349.607 129.249L390.33 128.869L410.37 175.886Z" fill="#F9DDBF"/>
<path d="M405.044 154.639L402.059 150.977C402.059 150.977 400.039 149.178 398.573 148.872C397.107 148.567 394.012 146.784 393.712 147.286C393.412 147.789 396.09 151.371 396.09 151.371L396.226 151.391C393.151 153.699 385.389 151.661 384.431 152.603C383.269 153.745 386.029 156.212 387.51 157.598C388.991 158.984 393.225 161.294 396.526 160.268C398.939 159.518 402.737 158.755 402.737 158.755L405.044 154.639Z" fill="#FFB27D"/>
<path d="M429.32 103.871C429.32 103.871 446.358 104.984 450.618 111.618C454.878 118.253 460.16 151.936 457.945 163.504C455.73 175.072 401.167 161.292 401.167 161.292L402.907 151.256C402.907 151.256 434.397 151.437 436.191 147.343C438.577 141.899 429.32 103.871 429.32 103.871Z" fill="#AEC3FF"/>
<path d="M352.67 137.52C352.67 137.52 355.229 134.616 356.858 136.01C358.487 137.403 356.431 144.256 354.88 143.559C353.329 142.862 351.778 138.371 352.67 137.52Z" fill="#FFB27D"/>
<path d="M161.382 303.434C160.475 300.705 191.799 296.378 188.302 321.335C188.302 321.335 244.486 328.862 222.734 293.469C215.203 281.217 217.577 272.454 219.178 264.2C220.784 255.946 218.589 230.866 197.487 230C197.487 230 192.413 226.933 185.084 229.363C168.415 234.889 121.62 306.519 161.382 303.434Z" fill="#163560"/>
<path d="M206.971 337.109C206.971 337.109 208.976 341.073 212.613 345.628C216.996 351.108 240.004 338.098 238.022 337.109C236.04 336.119 224.478 302.866 221.727 298.688C218.972 294.509 209.59 292.339 209.59 292.339L206.971 337.109Z" fill="#F9DDBF"/>
<path d="M129.328 561.385C129.328 561.385 122.978 567.171 124.217 571.282C125.456 575.393 131.187 578.134 131.961 583.158C132.736 588.183 135.833 590.923 138.621 590.923C141.409 590.923 151.913 590.923 151.913 590.923C151.913 590.923 153.965 587.388 149.009 586.322C144.053 585.256 142.184 579.351 142.494 573.87C142.803 568.389 142.029 561.081 142.029 561.081L131.497 558.645L129.328 561.385Z" fill="#233862"/>
<path d="M183.076 563.842C183.076 563.842 180.792 588.352 183.58 589.723L219.259 589.65C219.259 589.65 219.259 585.539 213.528 584.625C207.797 583.712 197.73 580.362 196.026 572.901C194.322 565.441 183.076 563.842 183.076 563.842Z" fill="#233862"/>
<path d="M157.651 387.999C164.993 371.56 169.486 366.841 168.628 361.739C167.99 357.942 170.572 290.936 170.572 290.936C171.443 290.667 173.189 290.425 174.144 290.214C177.156 289.546 179.648 287.434 180.686 284.534C181.935 281.04 182.929 275.881 182.906 269.415L183.846 269.6L199.66 272.727C199.66 272.727 199.3 277.695 199.289 282.376C199.289 282.415 199.289 282.454 199.289 282.492C199.27 286.558 201.941 290.145 205.853 291.273C207.851 291.848 209.588 292.34 209.588 292.34C209.588 292.34 215.395 308.892 216.504 325.895C217.613 342.899 205.945 350.285 216.592 384.263C227.463 418.966 153.595 397.082 157.651 387.999Z" fill="#FFB27D"/>
<path d="M199.66 272.727C199.66 272.727 199.301 277.695 199.29 282.376C190.44 282.127 185.763 274.068 183.846 269.6L199.66 272.727Z" fill="#E8945B"/>
<path d="M200.615 279.328C200.615 279.328 179.884 276.38 181.922 263.519C183.959 250.658 182.656 241.616 195.978 242.955C209.3 244.293 211.088 249.606 211.453 254.063C211.819 258.521 206.06 279.763 200.615 279.328Z" fill="#FFB27D"/>
<path d="M205.445 244.137C205.445 244.137 197.377 258.323 188.333 259.171C179.289 260.02 175.891 257.096 175.891 257.096C175.891 257.096 183.399 252.871 186.254 243.865C186.254 243.865 202.32 236.278 205.445 244.137Z" fill="#163560"/>
<path d="M203.847 245.139C203.847 245.139 207.795 247.374 209.035 250.705C210.247 253.963 211.055 258.15 209.946 262.954C209.946 262.954 215.847 253.379 211.98 246.816C207.878 239.857 203.847 245.139 203.847 245.139Z" fill="#163560"/>
<path d="M155.63 320.576C155.63 320.576 155.099 328.06 155.63 337.04C155.984 342.993 162.015 350.967 162.871 352.939C165.018 357.886 167.439 358.691 167.439 358.691L186.173 363.275L192.759 364.884L213.531 358.691C213.531 358.691 222.991 332.327 219.193 317.486C215.394 302.646 209.59 292.34 209.59 292.34C209.59 292.34 192.64 308.908 170.571 290.935L155.63 320.576Z" fill="#F9DDBF"/>
<path d="M153.846 337.249C154.199 343.202 162.016 350.967 162.871 352.939C165.019 357.886 167.44 358.691 167.44 358.691L186.173 363.275L191.17 356.239C191.17 356.239 160.844 347.819 166.586 321.125L153.846 337.249Z" fill="#F2CCAA"/>
<path d="M212.21 362.692C212.21 362.692 222.496 394.658 223.157 405.541C223.817 416.424 203.494 560.146 202.676 565.161C201.905 569.888 196.026 572.901 196.026 572.901C196.026 572.901 193.322 574.494 189.463 573.406C184.108 571.897 182.416 570.089 182.416 570.089C182.416 570.089 174.409 467.588 179.364 430.972C184.319 394.357 184.377 362.693 184.377 362.693L212.21 362.692Z" fill="#ED7D2B"/>
<path d="M168.628 361.739C168.628 361.739 152.937 382.757 151.475 396.966C150.012 411.175 149.18 461.083 146.063 474.935C142.947 488.786 131.497 515.442 131.497 558.645C131.497 558.645 132.687 561.121 136.362 562.44C137.537 562.862 139.112 563.271 140.64 563.621C143.671 564.315 146.78 562.836 148.164 560.055C155.905 544.495 180.563 494.308 181.827 483.89C182.722 476.518 190.508 427.724 207.491 399.093C211.568 392.219 204.989 364.884 204.989 364.884L168.628 361.739Z" fill="#F99746"/>
<path d="M197.793 271.052C197.793 271.052 197.909 272.624 201.722 272.991C201.722 272.991 204.923 273.299 205.092 271.619C205.092 271.619 202.207 269.945 197.793 271.052Z" fill="white"/>
<path d="M213.853 357.757C213.853 357.757 209.723 361.019 201.52 361.184C191.721 361.381 167.441 358.69 167.441 358.69C167.441 358.69 166.362 361.699 166.406 364.877C166.406 364.877 196.061 372.345 213.242 365.967C213.242 365.967 215.458 361.805 213.853 357.757Z" fill="#233862"/>
<path d="M199.4 364.562C199.4 361.776 201.405 359.51 203.871 359.51C206.337 359.51 208.342 361.776 208.342 364.562C208.342 367.348 206.336 369.614 203.871 369.614C201.405 369.614 199.4 367.348 199.4 364.562ZM200.882 364.562C200.882 366.532 202.222 368.134 203.871 368.134C205.519 368.134 206.86 366.532 206.86 364.562C206.86 362.592 205.519 360.989 203.871 360.989C202.223 360.989 200.882 362.592 200.882 364.562Z" fill="white"/>
<path d="M182.447 378.805L227.018 379.221L248.951 327.762L204.38 327.345L182.447 378.805Z" fill="#C5D9EA"/>
<path d="M188.276 355.551L191.543 351.543C191.543 351.543 193.754 349.574 195.358 349.239C196.963 348.904 200.351 346.954 200.679 347.503C201.008 348.053 198.076 351.974 198.076 351.974L197.927 351.996C201.292 354.522 209.788 352.291 210.837 353.322C212.108 354.572 209.087 357.272 207.467 358.789C205.846 360.305 201.212 362.834 197.599 361.711C194.958 360.89 190.801 360.055 190.801 360.055L188.276 355.551Z" fill="#FFB27D"/>
<path d="M245.598 336.814C245.598 336.814 242.797 333.636 241.014 335.161C239.232 336.687 241.481 344.186 243.179 343.424C244.876 342.661 246.574 337.746 245.598 336.814Z" fill="#FFB27D"/>
<path d="M170.571 290.935C170.571 290.935 155.709 291.975 150.012 305.801C144.315 319.628 133.748 349.109 133.748 353.014C133.748 356.919 145.412 371.287 191.05 360.18C191.05 360.18 192.605 355.806 189.555 353.596C189.555 353.596 157.739 343.398 157.794 341.369C157.896 337.532 162.093 334.216 179.865 316.467C184.697 311.642 170.571 290.935 170.571 290.935Z" fill="#F9DDBF"/>
<g opacity="0.7">
<path d="M681.599 164.293L726.121 178.826L699.452 152.875L696.745 159.215L685.284 159.271L681.599 164.293Z" fill="#9EC3F6"/>
<path d="M726.121 178.826L691.567 152.582L654.649 144.164L726.121 178.826Z" fill="white"/>
<path d="M699.452 152.875L726.121 178.826L708.344 142.47L699.452 152.875Z" fill="white"/>
</g>
<g opacity="0.7">
<path d="M539.533 89.4262L492.563 96.1155L523.733 74.905L525.318 81.7046L536.74 83.7701L539.533 89.4262Z" fill="#9EC3F6"/>
<path d="M492.563 96.1153L531.649 75.9959L569.958 74.0723L492.563 96.1153Z" fill="white"/>
<path d="M523.733 74.905L492.563 96.1154L516.692 62.9663L523.733 74.905Z" fill="white"/>
</g>
<path d="M298.108 589.961H295.371C281.073 587.187 230.48 576.272 230.909 560.81C231.375 544.094 289.767 584.152 298.108 589.961Z" fill="#CDE0FB"/>
<path d="M320.18 589.961H309.775C283.493 572.825 244.142 543.402 247.212 522.577C251.786 491.515 278.248 531.616 286.865 547.346C292.228 557.137 308.592 576.639 320.18 589.961Z" fill="#CDE0FB"/>
<path d="M99.7479 325.673L84.293 346.383C84.0652 346.688 83.7913 346.941 83.4913 347.138C82.3996 347.862 80.9246 347.861 79.8143 347.036L43.7889 320.239C42.6728 319.409 42.2568 317.989 42.6466 316.734C42.7512 316.395 42.9139 316.069 43.1376 315.769L58.586 295.068C59.6433 293.652 61.6461 293.36 63.0619 294.413L99.0873 321.21C100.5 322.261 100.797 324.255 99.7479 325.673Z" fill="#CDE0FB"/>
<path d="M83.4908 347.138C82.3991 347.862 80.9241 347.862 79.8138 347.036L43.7884 320.239C42.6723 319.409 42.2563 317.989 42.6461 316.734L71.9231 322.057L83.4908 347.138Z" fill="#BED7FB"/>
<path d="M99.7478 325.673L68.9291 324.867L57.7949 296.128L58.5855 295.068C59.6428 293.652 61.6456 293.36 63.0614 294.413L99.0868 321.21C100.5 322.261 100.797 324.255 99.7478 325.673Z" fill="#DFEBFD"/>
<path d="M653.003 444.546L670.822 542.523C671.085 543.967 671.079 545.403 670.847 546.768C670.019 551.743 666.137 555.895 660.884 556.847L490.45 587.743C485.17 588.7 480.067 586.136 477.547 581.739C476.867 580.554 476.373 579.236 476.116 577.819L458.304 479.883C457.085 473.181 461.529 466.776 468.228 465.561L638.662 434.665C645.348 433.453 651.76 437.863 653.003 444.546Z" fill="#ED8537"/>
<path d="M670.847 546.767C670.019 551.743 666.137 555.895 660.885 556.847L490.45 587.743C485.17 588.7 480.067 586.136 477.547 581.738L569.596 513.344L670.847 546.767Z" fill="#DD6D22"/>
<path d="M653.003 444.546L569.654 529.163L459.216 484.896L458.304 479.883C457.085 473.181 461.529 466.776 468.228 465.561L638.662 434.665C645.348 433.453 651.76 437.863 653.003 444.546Z" fill="#F99746"/>
<path d="M771.4 563.599C775.519 561.417 781.031 550.747 771.921 534.378C762.807 518.014 734.518 530.832 734.518 530.832C734.518 530.832 722.001 566.507 716.324 568.69C710.651 570.868 721.059 536.098 721.059 536.098C709.442 537.81 683.967 558.849 683.967 558.849C683.967 558.849 690.432 580.185 690.493 590.045H747.912L768.556 590.11C771.485 582.103 772.564 574.559 772.564 574.559C762.765 580.475 742.281 579.336 740.639 575.862C739.001 572.389 767.278 565.785 771.4 563.599ZM663.514 584.466C662.89 586.426 662.527 588.287 662.385 590.045H684.794C681.781 581.125 680.755 563.133 680.755 563.133C670.592 569.14 663.514 584.466 663.514 584.466Z" fill="#CDE0FB"/>
<path d="M942.763 592.334H24.0465C23.2747 592.334 22.6434 591.704 22.6434 590.934V589.329C22.6434 588.559 23.2747 587.928 24.0465 587.928H942.763C943.535 587.928 944.166 588.559 944.166 589.329V590.934C944.166 591.704 943.535 592.334 942.763 592.334Z" fill="#2E3552"/>
<path d="M558.581 513.058C559.442 509.904 560.837 507.787 563.797 507.755C568.246 507.707 569.8 510.245 570.543 513.105C571.548 516.975 567.506 518.394 564.562 518.694C560.351 519.124 557.802 515.908 558.581 513.058Z" fill="#2B478B"/>
</svg>
