<svg viewBox="0 0 137 88" fill="none" xmlns="http://www.w3.org/2000/svg">
<path d="M3.59552 49.2385C3.79164 49.9963 3.14898 50.3397 3.68013 51.3375C5.07055 54.0181 6.23967 56.8238 7.6237 59.5392L8.0916 60.3861L8.32414 60.809L8.44005 61.0199L8.50496 61.1408L8.64794 61.4409C9.24428 62.7285 9.74459 63.9597 10.2863 65.2026C11.3397 67.6868 12.4113 70.0632 13.329 72.5873C15.1568 77.4473 16.9654 82.2544 18.7737 87.0625C20.972 85.4058 23.1703 83.7491 25.3755 82.0874C25.3136 82.0835 25.2896 82.0512 25.3077 81.9876C27.842 80.103 30.3744 78.2113 32.9285 76.3776C35.4822 74.5733 37.1839 72.6613 39.6333 70.9666C42.218 69.1705 44.777 67.3912 47.3196 65.6233C49.5227 64.0652 51.7129 62.5176 53.898 60.9725C58.2423 57.8462 62.5667 54.7353 66.9373 51.5904C67.4672 50.8632 68.0752 50.139 68.7493 49.419C68.2031 49.7642 67.6164 50.0947 66.9824 50.403C70.9135 44.4314 80.8325 38.7055 85.7157 34.1399C88.511 31.5717 91.6743 29.1925 95.0543 26.8902C98.4171 24.5579 102.061 22.4199 105.799 20.2948C109.166 17.6286 112.789 15.1231 116.508 12.5958C113.231 15.1174 109.748 17.4631 106.045 20.1559C110.008 17.869 114.195 15.8194 118.329 13.6657C120.538 12.2405 122.804 11.0444 125.062 9.8106C127.325 8.58472 129.594 7.35569 131.938 6.08538C132.971 5.39524 134.081 4.86812 134.668 4.18751C134.994 3.51618 135.321 2.84455 135.592 2.19493C134.145 2.94463 132.716 3.83918 131.511 4.63839C131.65 4.49858 131.565 4.37194 131.522 4.2773C129.505 5.25638 128.211 6.26411 126.142 7.31772C128.628 4.92636 132.296 3.24162 135.888 1.40715C135.984 1.11958 136.061 0.839558 136.115 0.567711C132.277 2.24578 128.44 4.04149 124.782 6.14493C121.102 8.20722 117.489 10.3639 114.064 12.7122C112.857 13.6278 111.622 14.5332 110.367 15.4389C111.061 15.1307 111.762 14.8257 112.478 14.5356L110.3 15.6959C109.952 15.8776 109.607 16.0581 109.254 16.2424C107.15 17.7579 104.99 19.3158 102.703 20.9647C104.488 19.5722 106.318 18.1674 108.198 16.7816C104.089 18.9575 99.6654 21.0234 96.0228 23.8377C94.1976 25.5142 91.5172 27.2812 89.3308 29.1508C89.312 29.2383 89.2991 29.3269 89.292 29.4173L88.7162 29.7061C88.4623 29.9912 88.2194 30.3442 88.0659 30.5595C85.7287 32.4196 83.4388 34.3557 80.8983 36.1582C80.6965 36.3383 80.4931 36.5201 80.2872 36.703C79.6754 37.2751 78.5426 37.7747 77.8436 38.2015C78.9109 37.5418 79.9151 36.8471 80.8987 36.1572C83.5256 33.7699 85.3124 31.5163 88.7155 29.7048C88.8876 29.5094 89.0581 29.3409 89.1996 29.2587L89.3301 29.1495C89.6502 27.7369 91.9727 26.392 93.9793 25.231C93.4401 25.1218 94.6003 24.6599 94.4191 24.3449C96.1824 22.4663 97.97 20.6158 99.5117 19.1459C102.043 16.9144 105.089 15.6044 107.11 13.27C107.668 12.5605 109.215 11.9429 110.225 11.1992C110.605 10.8016 111.035 10.4005 111.478 9.99662C110.911 10.2314 110.338 10.4588 109.759 10.674C109.301 10.7025 118.514 4.72191 117.854 4.31391C117.833 4.27307 117.341 4.54465 116.525 5.01955C115.703 5.48528 114.584 6.19613 113.286 6.998C110.696 8.6087 107.405 10.5981 104.61 12.141C103.261 12.2673 104.262 9.25442 104.925 8.71217C104.982 8.62469 105.056 8.53438 105.124 8.4485C104.259 8.8607 103.394 9.27733 102.555 9.71203C101.323 10.5959 100.085 11.4843 98.8458 12.3732C96.8409 13.79 94.8192 15.219 92.7896 16.6528C93.2794 16.1864 93.7737 15.7163 94.2696 15.2445C94.4917 15.0005 94.7338 14.7632 94.9825 14.5312C96.9763 12.6698 99.6875 11.1726 102.555 9.71203C103.955 8.70609 105.346 7.70582 106.729 6.71091L106.825 6.61655C104.921 7.61894 102.921 8.53641 101.024 9.523C97.8078 11.8171 94.545 14.1439 91.2588 16.4872C91.7483 16.0154 92.2385 15.5449 92.7343 15.0668C94.7551 12.8516 97.7971 11.17 101.024 9.52205C104.054 7.28674 107.109 5.16785 109.979 2.92842C107.829 4.07389 105.381 5.38509 103.34 6.6696C99.3249 9.40857 95.5092 12.0721 91.8034 14.726C88.1322 17.4305 84.5024 20.0276 80.9383 22.7523C80.2326 23.6737 79.4899 24.5257 78.6265 25.1811C76.6814 26.7719 74.1827 28.2519 72.1714 29.7255C72.7142 29.818 71.6551 30.472 71.7499 30.6262C70.0213 32.5555 67.454 33.9038 65.0014 35.4478C64.6531 35.6684 64.5573 35.5139 64.1166 35.6139C61.7064 39.1593 57.1734 41.7603 52.8738 44.4892C51.8224 45.2397 50.7328 45.9532 49.5927 46.6349C50.6393 45.8986 51.7539 45.1956 52.8738 44.4892C55.2809 42.7855 57.4761 40.8957 59.6951 39.0266C54.0848 43.3166 48.7227 47.2943 43.0406 51.2512C40.3579 53.1821 37.8201 55.1404 35.3987 57.1758L34.4924 57.9371L34.0581 58.3071L33.7714 58.5769L32.582 59.7041L29.9792 62.1765C29.2372 62.8663 28.4615 63.4899 27.697 64.0455C27.3138 64.323 26.9367 64.5889 26.563 64.8379L26.007 65.203L25.7334 65.3802L25.5975 65.4675C25.5763 65.4773 25.5484 65.5069 25.533 65.4996L25.5072 65.4098L25.484 65.3281L25.5375 65.3134C25.5606 65.3042 25.5789 65.3093 25.6065 65.2869L25.7184 65.1167L25.9367 64.7744L25.791 64.8658L25.7188 64.9112L25.6909 64.8184C25.0729 62.6491 24.4051 60.8829 23.4551 59.0241C23.365 58.8462 23.2807 58.6639 23.1789 58.4863C22.6124 57.4745 22.0886 56.4422 21.5199 55.3706C20.7838 53.9622 20.1292 52.5528 19.3958 51.1738C17.9882 48.3904 16.5324 45.6182 14.9197 42.6225C14.1052 41.1614 13.1356 39.7918 12.2733 38.36C11.4796 37.3807 11.6071 39.7229 10.3867 38.0413C10.4032 38.1618 10.4073 38.2877 10.3979 38.4037C11.3951 39.6349 12.4014 40.6625 12.2703 41.245C11.902 42.113 10.0721 39.7268 8.41804 38.5578C8.27188 38.5879 8.11313 38.5958 7.93828 38.5825C7.93828 38.5825 7.79865 38.3573 7.63223 38.0895C7.55639 38.0609 7.484 38.0345 7.41069 38.0078C7.23352 38.2057 6.97125 38.2674 6.68502 38.2906L7.79737 40.0868C6.94564 39.8337 6.29622 39.4617 5.46796 38.7049C5.46796 38.7049 5.45845 38.7144 5.45338 38.7201L5.41177 38.6555C5.24417 38.5011 5.07026 38.3405 4.87835 38.1643L4.87421 38.1702C6.11902 42.8061 3.19685 39.4691 0.608257 39.2839C0.771999 39.6289 1.01816 40.0301 1.35476 40.4321C1.20246 40.5308 0.895629 40.7284 0.895629 40.7284C2.42223 43.7796 2.93672 46.1536 3.59552 49.2385ZM79.9962 29.8757C81.7044 28.1864 83.6657 26.5946 85.735 25.0613C87.8236 23.5587 90.0195 22.1133 92.175 20.6784C92.525 20.3772 92.8747 20.0768 93.22 19.7803C93.991 19.1709 94.7308 18.7673 95.4828 18.4469L95.7896 18.2429L95.6271 18.3877C96.7668 17.9273 97.9314 17.6125 99.2532 16.9992L99.5237 16.6396L99.7909 17.1163C97.1522 20.0102 92.7846 21.5022 89.4847 24.0465C87.3389 25.6913 85.0619 27.3058 82.8338 28.9979C80.6045 30.6874 78.3935 32.4042 76.4533 34.3542C75.8478 34.9422 74.7011 35.436 74.0029 35.8663C76.1614 33.8819 77.7945 31.8161 79.9962 29.8757ZM49.4034 47.8529C52.9251 45.7321 56.7627 42.7986 60.0275 39.8153C62.3545 40.8019 58.1032 43.5786 53.1523 46.8685C48.1961 50.1491 42.5421 53.9593 41.9714 56.7508C39.3678 55.8528 46.6321 49.6612 49.4034 47.8529ZM19.776 83.8368C20.2332 83.5588 20.7486 83.101 21.2316 82.7368C22.49 81.599 23.7967 79.9775 24.3516 79.5751C26.6916 77.4459 29.438 75.4257 32.1602 73.2919C34.2674 71.3599 37.0628 69.797 39.7296 67.7532C39.9775 67.5833 40.2828 67.2617 40.3042 67.1096C40.3656 66.9298 40.3713 66.7587 40.3206 66.6837C42.8717 65.3648 43.6078 63.5486 46.0811 62.1002L44.8613 62.4851C46.1141 61.4204 46.9237 60.4316 48.5179 59.1386C49.8811 58.2353 50.4978 56.954 51.5209 56.2752C54.7191 53.6977 58.1625 51.4863 60.4145 48.9373C60.2673 49.467 59.5799 49.9125 59.3353 50.2892C57.9675 52.6867 54.0979 54.9861 51.4426 57.637C50.5232 58.4656 49.7013 59.4439 48.7847 60.2734C46.6138 62.1629 44.4435 64.0537 42.2412 65.9707C41.6856 66.4445 41.129 66.9212 40.569 67.3989C39.6372 68.1262 38.7022 68.8567 37.7618 69.5907C35.7563 71.1444 33.728 72.7157 31.6696 74.3107C28.3266 76.905 24.2717 80.3162 20.569 83.4447C20.2741 83.6791 19.95 83.9975 19.685 84.1396C19.2926 83.1778 18.9225 82.1338 18.5654 81.0826C18.5682 80.9485 18.5716 80.8094 18.5751 80.6639L19.776 83.8368ZM15.0822 70.4025L15.079 70.5723L15.0254 70.49L15.0822 70.4025ZM9.38254 46.5562L9.35897 46.7836C9.08199 46.4522 8.80532 46.1231 8.54033 45.8063C8.87554 45.9579 9.20012 46.2166 9.38254 46.5562ZM7.80448 45.648C9.71026 48.5311 11.715 51.5624 12.5677 54.1828C10.9574 51.2491 8.90465 48.3009 7.66651 45.6882C7.70387 45.6681 7.75166 45.6546 7.80448 45.648Z" fill="white"/>
</svg>
