<svg width="74" height="73" viewBox="0 0 74 73" fill="none" xmlns="http://www.w3.org/2000/svg">
<g clip-path="url(#clip0_307_1945)">
<path d="M50.875 0H23.125C16.9919 0 11.1099 2.40345 6.77316 6.68163C2.43638 10.9598 0 16.7622 0 22.8125L0 50.1875C0 56.2378 2.43638 62.0402 6.77316 66.3184C11.1099 70.5965 16.9919 73 23.125 73H50.875C57.0081 73 62.8901 70.5965 67.2268 66.3184C71.5636 62.0402 74 56.2378 74 50.1875V22.8125C74 16.7622 71.5636 10.9598 67.2268 6.68163C62.8901 2.40345 57.0081 0 50.875 0ZM67.0625 50.1875C67.0625 58.9931 59.8012 66.1562 50.875 66.1562H23.125C14.1988 66.1562 6.9375 58.9931 6.9375 50.1875V22.8125C6.9375 14.0069 14.1988 6.84375 23.125 6.84375H50.875C59.8012 6.84375 67.0625 14.0069 67.0625 22.8125V50.1875Z" fill="url(#paint0_linear_307_1945)"/>
<path d="M37 18.25C32.0935 18.25 27.3879 20.1728 23.9185 23.5953C20.4491 27.0178 18.5 31.6598 18.5 36.5C18.5 41.3402 20.4491 45.9822 23.9185 49.4047C27.3879 52.8272 32.0935 54.75 37 54.75C41.9065 54.75 46.6121 52.8272 50.0815 49.4047C53.5509 45.9822 55.5 41.3402 55.5 36.5C55.5 31.6598 53.5509 27.0178 50.0815 23.5953C46.6121 20.1728 41.9065 18.25 37 18.25ZM37 47.9062C33.9346 47.9026 30.9957 46.6997 28.8281 44.5614C26.6605 42.4231 25.4412 39.524 25.4375 36.5C25.4375 30.2083 30.6267 25.0938 37 25.0938C43.3733 25.0938 48.5625 30.2083 48.5625 36.5C48.5625 42.7871 43.3733 47.9062 37 47.9062Z" fill="url(#paint1_linear_307_1945)"/>
<path d="M56.887 19.3128C58.2485 19.3128 59.3521 18.2241 59.3521 16.881C59.3521 15.538 58.2485 14.4492 56.887 14.4492C55.5255 14.4492 54.4219 15.538 54.4219 16.881C54.4219 18.2241 55.5255 19.3128 56.887 19.3128Z" fill="url(#paint2_linear_307_1945)"/>
</g>
<defs>
<linearGradient id="paint0_linear_307_1945" x1="6.771" y1="66.3205" x2="66.4065" y2="5.8681" gradientUnits="userSpaceOnUse">
<stop stop-color="#FFC107"/>
<stop offset="0.507" stop-color="#F44336"/>
<stop offset="0.99" stop-color="#9C27B0"/>
</linearGradient>
<linearGradient id="paint1_linear_307_1945" x1="23.9205" y1="49.4027" x2="49.7236" y2="23.2462" gradientUnits="userSpaceOnUse">
<stop stop-color="#FFC107"/>
<stop offset="0.507" stop-color="#F44336"/>
<stop offset="0.99" stop-color="#9C27B0"/>
</linearGradient>
<linearGradient id="paint2_linear_307_1945" x1="55.1434" y1="18.6011" x2="58.5832" y2="15.1142" gradientUnits="userSpaceOnUse">
<stop stop-color="#FFC107"/>
<stop offset="0.507" stop-color="#F44336"/>
<stop offset="0.99" stop-color="#9C27B0"/>
</linearGradient>
<clipPath id="clip0_307_1945">
<rect width="74" height="73" fill="white"/>
</clipPath>
</defs>
</svg>
