<svg width="80" height="59" viewBox="0 0 80 59" fill="none" xmlns="http://www.w3.org/2000/svg">
<g clip-path="url(#clip0_307_1939)">
<path fill-rule="evenodd" clip-rule="evenodd" d="M31.74 40.3803L31.7367 16.8115L53.3533 28.6358L31.74 40.3803ZM79.2 12.7266C79.2 12.7266 78.4167 6.94812 76.02 4.40071C72.9767 1.05853 69.5683 1.04291 68.005 0.848559C56.81 0 40.0183 0 40.0183 0H39.9817C39.9817 0 23.19 0 11.995 0.850294C10.43 1.04291 7.02333 1.05853 3.97833 4.40071C1.58 6.94638 0.8 12.7266 0.8 12.7266C0.8 12.7266 0 19.5169 0 26.3036V32.6686C0 39.4571 0.8 46.2439 0.8 46.2439C0.8 46.2439 1.58 52.0241 3.97833 54.5698C7.02333 57.912 11.02 57.8079 12.8 58.1566C19.2 58.8004 40 59 40 59C40 59 56.81 58.974 68.005 58.1237C69.5683 57.9276 72.9767 57.912 76.02 54.5698C78.4183 52.0241 79.2 46.2439 79.2 46.2439C79.2 46.2439 80 39.4589 80 32.6686V26.3036C80 19.5169 79.2 12.7266 79.2 12.7266Z" fill="#CE1312"/>
</g>
<defs>
<clipPath id="clip0_307_1939">
<rect width="80" height="59" fill="white"/>
</clipPath>
</defs>
</svg>
