<svg width="21" height="21" viewBox="0 0 21 21" fill="none" xmlns="http://www.w3.org/2000/svg">
<g clip-path="url(#clip0_457_284)">
<path d="M14.4375 0H6.5625C4.82202 0 3.15282 0.691404 1.92211 1.92211C0.691404 3.15282 0 4.82202 0 6.5625L0 14.4375C0 16.178 0.691404 17.8472 1.92211 19.0779C3.15282 20.3086 4.82202 21 6.5625 21H14.4375C16.178 21 17.8472 20.3086 19.0779 19.0779C20.3086 17.8472 21 16.178 21 14.4375V6.5625C21 4.82202 20.3086 3.15282 19.0779 1.92211C17.8472 0.691404 16.178 0 14.4375 0ZM19.0312 14.4375C19.0312 16.9706 16.9706 19.0312 14.4375 19.0312H6.5625C4.02938 19.0312 1.96875 16.9706 1.96875 14.4375V6.5625C1.96875 4.02938 4.02938 1.96875 6.5625 1.96875H14.4375C16.9706 1.96875 19.0312 4.02938 19.0312 6.5625V14.4375Z" fill="url(#paint0_linear_457_284)"/>
<path d="M10.5 5.25C9.10761 5.25 7.77226 5.80312 6.78769 6.78769C5.80312 7.77226 5.25 9.10761 5.25 10.5C5.25 11.8924 5.80312 13.2277 6.78769 14.2123C7.77226 15.1969 9.10761 15.75 10.5 15.75C11.8924 15.75 13.2277 15.1969 14.2123 14.2123C15.1969 13.2277 15.75 11.8924 15.75 10.5C15.75 9.10761 15.1969 7.77226 14.2123 6.78769C13.2277 5.80312 11.8924 5.25 10.5 5.25ZM10.5 13.7812C9.63008 13.7802 8.79608 13.4342 8.18096 12.819C7.56583 12.2039 7.21979 11.3699 7.21875 10.5C7.21875 8.69006 8.69137 7.21875 10.5 7.21875C12.3086 7.21875 13.7812 8.69006 13.7812 10.5C13.7812 12.3086 12.3086 13.7812 10.5 13.7812Z" fill="url(#paint1_linear_457_284)"/>
<path d="M16.1439 5.55586C16.5303 5.55586 16.8435 5.24266 16.8435 4.8563C16.8435 4.46994 16.5303 4.15674 16.1439 4.15674C15.7575 4.15674 15.4443 4.46994 15.4443 4.8563C15.4443 5.24266 15.7575 5.55586 16.1439 5.55586Z" fill="url(#paint2_linear_457_284)"/>
</g>
<defs>
<linearGradient id="paint0_linear_457_284" x1="1.9215" y1="19.0785" x2="19.0785" y2="1.9215" gradientUnits="userSpaceOnUse">
<stop stop-color="#FFC107"/>
<stop offset="0.507" stop-color="#F44336"/>
<stop offset="0.99" stop-color="#9C27B0"/>
</linearGradient>
<linearGradient id="paint1_linear_457_284" x1="6.78825" y1="14.2117" x2="14.2117" y2="6.78825" gradientUnits="userSpaceOnUse">
<stop stop-color="#FFC107"/>
<stop offset="0.507" stop-color="#F44336"/>
<stop offset="0.99" stop-color="#9C27B0"/>
</linearGradient>
<linearGradient id="paint2_linear_457_284" x1="15.6491" y1="5.35111" x2="16.6387" y2="4.36149" gradientUnits="userSpaceOnUse">
<stop stop-color="#FFC107"/>
<stop offset="0.507" stop-color="#F44336"/>
<stop offset="0.99" stop-color="#9C27B0"/>
</linearGradient>
<clipPath id="clip0_457_284">
<rect width="21" height="21" fill="white"/>
</clipPath>
</defs>
</svg>
