<svg width="23" height="17" viewBox="0 0 23 17" fill="none" xmlns="http://www.w3.org/2000/svg">
<g clip-path="url(#clip0_456_272)">
<path fill-rule="evenodd" clip-rule="evenodd" d="M9.12525 11.635L9.12429 4.844L15.3391 8.251L9.12525 11.635ZM22.77 3.667C22.77 3.667 22.5448 2.002 21.8557 1.268C20.9808 0.305 20.0009 0.3005 19.5514 0.2445C16.3329 0 11.5053 0 11.5053 0H11.4947C11.4947 0 6.66712 0 3.44856 0.245C2.99862 0.3005 2.01921 0.305 1.14377 1.268C0.45425 2.0015 0.23 3.667 0.23 3.667C0.23 3.667 0 5.6235 0 7.579V9.413C0 11.369 0.23 13.3245 0.23 13.3245C0.23 13.3245 0.45425 14.99 1.14377 15.7235C2.01921 16.6865 3.16825 16.6565 3.68 16.757C5.52 16.9425 11.5 17 11.5 17C11.5 17 16.3329 16.9925 19.5514 16.7475C20.0009 16.691 20.9808 16.6865 21.8557 15.7235C22.5453 14.99 22.77 13.3245 22.77 13.3245C22.77 13.3245 23 11.3695 23 9.413V7.579C23 5.6235 22.77 3.667 22.77 3.667Z" fill="#333333"/>
</g>
<defs>
<clipPath id="clip0_456_272">
<rect width="23" height="17" fill="white"/>
</clipPath>
</defs>
</svg>
