<?xml version="1.0" encoding="utf-8"?>
<!-- Generator: Adobe Illustrator 27.5.0, SVG Export Plug-In . SVG Version: 6.00 Build 0)  -->
<svg version="1.1" id="Слой_1" xmlns="http://www.w3.org/2000/svg" xmlns:xlink="http://www.w3.org/1999/xlink" x="0px" y="0px"
	 viewBox="0 0 3200 2000" style="enable-background:new 0 0 3200 2000;" xml:space="preserve">
<rect style="fill:#FFFFFF;" width="3200" height="2000"/>
<g>
	<g>
		<path style="fill:#EBF3FA;" d="M1058.403,766.412v716.076l-861.483,3.028c2.163-31.304-139.638-444.156,42.121-680.013
			c257.928-334.812,478.346-64.047,769.307-40.536C1024.791,766.268,1041.382,766.845,1058.403,766.412z"/>
		<path style="fill:#F3F8FC;" d="M3037.853,1468.639c-1.153,8.945-94.487-1.442-95.783,7.356l-582.354,2.021H1058.403V766.412
			c16.445-0.433,33.035-1.731,50.055-4.039c57.124-7.791,116.992-27.407,180.462-64.337
			c656.932-380.975,1191.824-277.544,1492.16,19.907c36.93,36.639,70.398,76.309,100.113,118.288
			C3008.857,1016.981,3066.559,1242.16,3037.853,1468.639z"/>
		<path style="opacity:0.6;fill:#EBF3FA;" d="M3045.065,1355.977c0.144,39.093-2.163,78.331-7.213,117.712
			c-1.153,8.942-94.487-1.443-95.783,7.357l-582.354,2.018H1058.403v-0.575l1301.313-4.473l582.354-2.021
			c1.296-8.799,94.63,1.589,95.783-7.356C3042.614,1430.99,3045.065,1393.338,3045.065,1355.977z"/>
		<polygon style="fill:#E8F0FD;" points="2788.965,933.836 2788.965,1478.032 1108.461,1478.032 1108.461,1004.477 
			1237.28,1004.477 1237.28,875.237 1366.1,875.237 1366.1,1049.843 1470.387,1049.843 1470.387,1010.828 1652.053,1010.828 
			1652.053,1076.784 1731.116,1076.784 1731.116,928.66 1942.752,928.66 1942.752,674.642 2110.096,674.642 2110.096,810.121 
			2148.262,810.121 2148.262,696.632 2315.605,696.632 2315.605,871.447 2467.275,871.447 2467.275,764.169 2629.486,764.169 
			2629.486,871.447 2659.731,871.447 2659.731,933.836 		"/>
		<g>
			<path style="fill:#C0D8FB;" d="M864.531,981.518H715.095c-6.86,0-12.473-5.613-12.473-12.473V824.812
				c0-6.86,5.613-12.473,12.473-12.473h149.437c6.86,0,12.473,5.613,12.473,12.473v144.232
				C877.004,975.905,871.392,981.518,864.531,981.518z"/>
			<path style="fill:#DFEBFD;" d="M858.058,974.188H721.568c-6.266,0-11.393-5.126-11.393-11.392V831.06
				c0-6.266,5.127-11.392,11.393-11.392h136.489c6.266,0,11.392,5.126,11.392,11.392v131.736
				C869.45,969.062,864.323,974.188,858.058,974.188z"/>
			<g>
				<g>
					<circle style="fill:#B7D3F3;" cx="789.813" cy="835.108" r="3.612"/>
					<path style="fill:#B7D3F3;" d="M815.349,840.214c0.969-1.744,3.168-2.372,4.912-1.403c1.744,0.969,2.372,3.169,1.402,4.913
						c-0.969,1.744-3.168,2.372-4.912,1.402C815.007,844.157,814.379,841.958,815.349,840.214z"/>
					<path style="fill:#B7D3F3;" d="M840.32,860.053c1.677-1.082,3.912-0.599,4.994,1.077c1.082,1.676,0.6,3.912-1.077,4.994
						c-1.676,1.082-3.912,0.6-4.994-1.077C838.161,863.371,838.644,861.135,840.32,860.053z"/>
					
						<ellipse transform="matrix(0.3807 -0.9247 0.9247 0.3807 -298.9704 1342.3236)" style="fill:#B7D3F3;" cx="852.689" cy="894.372" rx="3.612" ry="3.612"/>
					<path style="fill:#B7D3F3;" d="M846.373,926.396c1.411,1.411,1.411,3.698,0,5.109c-1.411,1.411-3.698,1.411-5.108,0
						c-1.411-1.411-1.411-3.698,0-5.109C842.676,924.985,844.963,924.985,846.373,926.396z"/>
					<path style="fill:#B7D3F3;" d="M823.69,949.138c1.411,1.411,1.411,3.698,0,5.108c-1.411,1.411-3.698,1.411-5.109,0
						c-1.411-1.411-1.411-3.698,0-5.108C819.992,947.727,822.28,947.727,823.69,949.138z"/>
					<circle style="fill:#B7D3F3;" cx="789.813" cy="960.861" r="3.612"/>
				</g>
				<g>
					<path style="fill:#B7D3F3;" d="M764.162,840.214c-0.969-1.744-3.168-2.372-4.912-1.403c-1.744,0.969-2.372,3.169-1.403,4.913
						c0.969,1.744,3.168,2.372,4.912,1.402C764.503,844.157,765.131,841.958,764.162,840.214z"/>
					<path style="fill:#B7D3F3;" d="M739.191,860.053c-1.676-1.082-3.912-0.599-4.994,1.077c-1.082,1.676-0.6,3.912,1.077,4.994
						c1.676,1.082,3.912,0.6,4.994-1.077C741.35,863.371,740.867,861.135,739.191,860.053z"/>
					<circle style="fill:#B7D3F3;" cx="726.822" cy="894.372" r="3.612"/>
					<path style="fill:#B7D3F3;" d="M733.137,926.396c-1.411,1.411-1.411,3.698,0,5.109s3.698,1.411,5.108,0
						c1.411-1.411,1.411-3.698,0-5.109C736.835,924.985,734.548,924.985,733.137,926.396z"/>
					<path style="fill:#B7D3F3;" d="M755.82,949.138c-1.41,1.411-1.41,3.698,0,5.108c1.411,1.411,3.698,1.411,5.109,0
						c1.411-1.411,1.411-3.698,0-5.108C759.519,947.727,757.231,947.727,755.82,949.138z"/>
				</g>
			</g>
			<g>
				<circle style="fill:#B7D3F3;" cx="792.451" cy="894.372" r="3.612"/>
				<g>
					<rect x="791.958" y="849.245" style="fill:#B7D3F3;" width="0.986" height="45.127"/>
				</g>
				<g>
					
						<rect x="788.751" y="883.439" transform="matrix(0.7865 -0.6175 0.6175 0.7865 -374.8607 685.3817)" style="fill:#B7D3F3;" width="30.415" height="2.959"/>
				</g>
			</g>
		</g>
		<path style="fill:#DEEDFF;" d="M1108.461,762.372v711.904h-100.134V764.932C1040.774,767.578,1074.099,767.102,1108.461,762.372z"
			/>
		<path style="fill:#DEEDFF;" d="M2881.202,836.241v638.035h-100.135V717.938C2818.075,754.604,2851.522,794.222,2881.202,836.241z"
			/>
		<path style="fill:#2E3552;" d="M3112.647,1484.503H103.659c-2.394,0-4.353-1.959-4.353-4.353v-4.268
			c0-2.395,1.959-4.354,4.353-4.354h3008.989c2.394,0,4.353,1.959,4.353,4.354v4.268
			C3117,1482.544,3115.041,1484.503,3112.647,1484.503z"/>
		<g>
			<polygon style="fill:#B7D3F3;" points="1190.562,1222.994 1174.501,1222.994 1194.169,1471.903 1233.232,1471.903 			"/>
			<g>
				<path style="fill:#122544;" d="M1509.941,1150.362l-3.446,0.696c-15.352,3.102-30.449-6.921-33.551-22.271l-3.641-18.021
					c-3.102-15.352,6.92-30.449,22.271-33.552l3.446-0.695c15.352-3.103,30.45,6.92,33.551,22.271l3.641,18.021
					C1535.315,1132.162,1525.293,1147.261,1509.941,1150.362z"/>
				<path style="fill:#B7D3F3;" d="M1174.501,1222.994c0,0,87.706-41.17,207.87-13.779l-191.81,13.779H1174.501z"/>
				<path style="fill:#D2E3FC;" d="M1233.232,1474.276l-42.671-251.282c0,0,134.38-45.129,238.639,0l62.016,249.699
					L1233.232,1474.276z"/>
				<g>
					<path style="fill:#82B378;" d="M2162.328,1396.469c-2.384,27.263-17.78,35.682-24.548,34.956
						c-6.772-0.721-46.364-15.839-47.222-10.293c-0.863,5.547,22.969,23.669,39.655,24.517c0,0-31.51,34.751-52.448,24.721
						c-20.942-10.029-22.727-25.926-35.781-31.888c-13.056-5.962-24.195-5.946-18.808,0.137
						c5.389,6.077,29.016,11.987,36.478,25.195c1.763,3.114,3.483,5.993,4.799,8.529l-44.092-0.089
						c-13.98-6.946-25.758-16.529-26.637-26.858c-0.068-0.789-0.131-1.542-0.189-2.263c-1.357-15.892-1.357-15.892-1.357-15.892
						s-22.643-26.41-10.871-48.321c1.952-3.642,4.856-7.157,8.972-10.409c0,0,21.101-12.776,38.308-11.734
						c0,0-13.334,22.358-17.086,35.646c-1.326,4.684-1.457,8.24,0.595,9.299c2.247,1.162,5.157-2.211,8.167-7.62
						c7.541-13.545,15.713-39.892,15.713-39.892s12.687-1.231,27.126-1.416c6.478-0.084,13.308,0.042,19.501,0.584
						c6.841,0.6,12.898,1.71,16.839,3.604c0,0-0.862,0.705-2.31,1.916c-2.152,1.805-5.604,4.73-9.44,8.124
						c-11.388,10.072-26.185,24.274-20.653,25.553c4.478,1.037,18.533-7.314,31.041-15.602
						c11.645-7.709,21.943-15.371,21.943-15.371S2164.712,1369.205,2162.328,1396.469z"/>
					<g>
						<path style="fill:#82B378;" d="M2140.37,1397.205c0,0-121.386-4.678-148.193,30.037c0,0-5.929,17.756-24.171,33.924
							l-2.844,7.75c0,0,21.034-22.179,28.561-23.521C1993.723,1445.396,1981.952,1402.387,2140.37,1397.205z"/>
						<path style="fill:#82B378;" d="M1973.107,1460.967c-1.041,1.142-2.599,2.693-4.83,4.751l-0.047,0.048
							c-0.773,0.715-1.526,1.489-2.258,2.31c-1.126,1.247-2.205,2.61-3.236,4.063l-5.672-0.011
							c5.84-7.188,10.939-10.961,10.939-10.961s0.005-0.005,0.016-0.011C1968.462,1460.888,1978.918,1454.567,1973.107,1460.967z"/>
					</g>
				</g>
				<g>
					<path style="fill:#A8D29F;" d="M1859.666,1382.073c0,0,48.974-27.425,26.119-64.645c0,0-18.283-22.854-37.872-28.731
						c0,0,10.447,55.503,0,56.809c-10.448,1.307-7.183-62.686-7.183-62.686s-51.586-24.813-71.828-22.854
						c0,0,31.996,54.197,21.549,52.892c-10.448-1.306-46.361-56.156-46.361-56.156s-52.892-9.795-61.381,21.549
						c-8.488,31.343,5.225,47.014,13.061,48.973c7.835,1.959,58.114,1.307,56.809,7.836s-35.261,16.978-54.197,11.101
						c0,0,20.896,51.585,48.32,48.974c27.425-2.612,35.914-19.59,52.892-20.896s29.384,3.265,20.896,7.836
						c-8.489,4.57-37.221,1.498-50.933,13.155c-13.713,11.658-24.813,18.84,0.653,24.064c25.466,5.224,71.174,1.959,80.315-17.631
						C1859.666,1382.073,1859.666,1382.073,1859.666,1382.073z"/>
					<g>
						<path style="fill:#82B378;" d="M1706.869,1288.044c0,0,137.126,44.403,152.797,94.029c0,0-0.652,22.201,13.061,47.667v9.795
							c0,0-14.366-33.302-22.202-37.873C1850.524,1401.662,1881.215,1358.566,1706.869,1288.044z"/>
						<path style="fill:#82B378;" d="M1885.429,1472.032l-7.835-0.016c-0.248-11.335-1.558-24.059-5.426-33.751
							c0-0.006,0-0.006,0-0.006c-0.484-1.215-1.005-2.378-1.573-3.488c-0.005-0.011-0.011-0.026-0.016-0.037
							c-1.626-3.184-2.726-5.53-3.42-7.229l-0.006-0.006c-4.01-9.829,5.573,2.242,5.573,2.242S1884.219,1447.195,1885.429,1472.032z
							"/>
					</g>
				</g>
				<g>
					<path style="fill:#A8D29F;" d="M1937.579,1344.25c0,0-64.556-36.151-34.43-85.214c0,0,24.101-30.126,49.923-37.872
						c0,0-13.771,73.163,0,74.885c13.772,1.721,9.469-82.632,9.469-82.632s67.998-32.708,94.682-30.126
						c0,0-42.177,71.441-28.404,69.721c13.771-1.722,61.113-74.024,61.113-74.024s69.72-12.911,80.909,28.404
						c11.19,41.315-6.886,61.974-17.214,64.556c-10.33,2.582-76.607,1.722-74.886,10.329s46.48,22.38,71.442,14.633
						c0,0-27.544,67.999-63.695,64.556c-36.151-3.442-47.341-25.822-69.721-27.544c-22.379-1.721-38.733,4.304-27.544,10.329
						c11.19,6.025,49.063,1.975,67.139,17.342c18.075,15.367,32.708,24.835-0.861,31.721c-33.569,6.887-93.821,2.582-105.871-23.24
						C1937.579,1344.25,1937.579,1344.25,1937.579,1344.25z"/>
					<g>
						<path style="fill:#82B378;" d="M2138.993,1220.303c0,0-180.756,58.531-201.414,123.947c0,0,0.86,29.266-17.215,62.835v12.911
							c0,0,18.937-43.898,29.266-49.924C1949.63,1370.072,1909.174,1313.264,2138.993,1220.303z"/>
						<path style="fill:#82B378;" d="M1927.715,1404.114c-0.005,0.011-0.011,0.016-0.011,0.021
							c-0.915,2.247-2.367,5.352-4.515,9.556c-0.005,0.011-0.01,0.016-0.016,0.026c-0.747,1.458-1.432,2.994-2.068,4.589
							c-0.005,0-0.005,0.005-0.005,0.01c-6.188,15.508-7.414,36.909-7.183,53.774l-10.372-0.021
							c-1.236-37.566,16.818-64.987,16.818-64.987s0,0,0.005-0.005C1920.643,1406.735,1932.93,1391.327,1927.715,1404.114z"/>
					</g>
				</g>
				<path style="fill:#2B478B;" d="M1616.179,1472.693h-245.54c-3.63-8.797-6.814-18.2-9.602-27.988
					c-7-24.482-11.535-51.467-14.421-77.895c-0.037-0.334-0.074-0.682-0.112-1.016c-4.956-45.842-4.98-89.937-4.312-116.426
					c0.384-15.326,0.991-24.768,1.028-25.226v-0.013c0.521-0.223,1.053-0.434,1.574-0.645c13.021-5.464,25.51-10.172,37.479-14.248
					c0.062-0.012,0.099-0.024,0.099-0.024c10.061-3.432,19.749-6.394,29.066-8.945c16.379-4.497,31.619-7.731,45.718-9.974
					c16.614-2.627,31.655-3.878,45.135-4.163c0.607-0.024,1.202-0.024,1.81-0.037c3.556-0.062,7-0.05,10.332,0.024
					c33.613,0.719,55.978,7.409,67.289,11.869c1.573,0.62,2.924,1.202,4.051,1.723c0.149,0.062,0.298,0.124,0.447,0.186
					c1.275,0.57,2.267,1.054,2.961,1.4c0.086,0.037,0.186,0.087,0.271,0.148c0.335,0.174,0.657,0.359,0.967,0.545l17.705,186.081
					L1616.179,1472.693z"/>
				<path style="fill:#2B478B;" d="M1860.86,1432.467c-24.603,11.422-170.927,21.008-184.982,16.961
					c-7.207-2.082-37.375-28.652-67.726-61.341c-0.027-0.021-0.027-0.021-0.027-0.021c-28.721-30.918-57.677-67.312-67.444-93.502
					c-20.089-53.819-2.82-101.604-2.82-101.604s37.336-0.157,52.558,9.032c15.225,9.213,102.247,169.485,113.881,173.714
					c11.637,4.252,149.491,12.133,165.272,19.624C1869.571,1395.331,1885.439,1421.049,1860.86,1432.467z"/>
				<path style="fill:#EA9E6A;" d="M1504.074,1192.604l-0.035,9.061c0,0,2.512,28.334-32.376,32.525
					c-34.888,4.204-61.346-10.956-60.434-32.824c3.117-16.937,6.549-28.568,6.761-42.578c0.078-5.206-0.287-10.73-1.266-16.967
					l67.613-1.454l19.92,3.223L1504.074,1192.604z"/>
				<path style="fill:#D88D59;" d="M1504.257,1143.59l-0.183,49.015c-7.177,3.351-15.277,5.401-24.363,5.415
					c-31.076,0.048-62.007-49.962-62.987-56.198L1504.257,1143.59z"/>
				<path style="fill:#EA9E6A;" d="M1508.24,1167.401c0,0-86.571,17.627-96.718-36.454c-10.147-54.08-28.155-88.228,26.689-101.769
					c54.844-13.541,69.485,5.074,77.264,22.302C1523.253,1068.708,1530.498,1161.422,1508.24,1167.401z"/>
				<path style="fill:#8E342E;" d="M1532.252,1011.265c0,0-24.152-1.821-52.654-14.161c-23.133-10.016-52.283,1.099-61.743,6.102
					c0.252-1.526,0.858-3.61,2.3-5.7c0,0-4.247,3.021-4.867,7.235c-0.437,0.323-0.632,0.546-0.519,0.62c0,0-4.82-0.874-7.914,0.524
					c0,0,2.167-0.314,2.943,1.079c0.082,0.146,0.205,0.271,0.348,0.382c-36.036,17.48-39.278,74.479-27.653,87.647
					c13.986,15.845,30.783,51.549,30.783,51.549s6.092-8.45,3.532-22.408s9.498-13.977,24.72-20.347
					c15.221-6.37,2.501-24.12,15.812-34.93c13.311-10.809,62.187-4.537,61.54-12.787
					C1537.009,1049.435,1532.254,1013.122,1532.252,1011.265z"/>
				<path style="fill:#233862;" d="M1370.639,1472.693c-3.63-8.797-6.814-18.2-9.602-27.988c-7-24.482-11.535-51.467-14.421-77.895
					c-0.037-0.334-0.074-0.682-0.112-1.016c0.186,0.087,0.493,0.591,0.694,0.347c9.562-11.613,35.657-24.318,67.264,21.945
					c6.306,9.218,33.96,73.815,38.371,84.606H1370.639z"/>
				<path style="fill:#EA9E6A;" d="M1396.298,1472.693c-0.707-4.176,0.075-9.429,3.333-15.982c0,0,4.052-2.627,9.429-5.688
					c8.017-4.522,18.981-9.998,23.949-9.119c0.893,0.162,2.094,0.422,3.519,0.769c11.783,2.825,39.25,11.287,43.401,16.243
					c3.42,4.076,8.078,9.268,11.287,13.777H1396.298z"/>
				<path style="fill:#2B478B;" d="M1414.462,1472.693h-231.354c-0.619-2.974-0.644-5.712,0.174-7.781
					c6.901-17.432,20.369-46.127,35.88-76.915c11.411-22.648,23.913-46.437,35.72-67.71c16.392-29.537,31.408-54.242,40.229-64.377
					c6.95-7.966,15.735-14.656,24.891-20.17c7.768-4.684,15.809-8.524,23.218-11.597v-0.013c0.521-0.223,1.053-0.434,1.574-0.645
					c16.106-6.529,28.88-9.391,28.88-9.391s0.173,7.31,0.186,18.547c0.05,32.609-1.202,98.325-11.609,114.357
					c-2.899,4.473-8.301,11.225-15.053,19.142c-0.199,0.224-0.384,0.446-0.583,0.669c-3.655,4.287-7.707,8.896-11.956,13.642
					c-24.147,27.047-54.725,58.813-58.455,62.679c-0.26,0.261-0.384,0.396-0.384,0.396h0.446l64.873,0.905l19.897,0.272
					l41.258,0.569c2.85,1.227,5.067,3.246,6.765,5.749C1413.049,1456.859,1414.276,1465.358,1414.462,1472.693z"/>
				<path style="fill:#233862;" d="M1860.86,1432.467c-24.603,11.422-170.927,21.008-184.982,16.961
					c-7.207-2.082-37.375-28.652-67.726-61.341c1.498,0.198,15.377-22.938,78.663,32.425c0,0,16.573,7.376,61.678,3.247
					C1793.599,1419.63,1851.521,1418.111,1860.86,1432.467z"/>
				<g>
					<path style="fill:#B24940;" d="M1717.111,1472.251h-167.277l0,0c0-7.364,5.97-13.335,13.334-13.335h153.943V1472.251z"/>
					<polygon style="fill:#B24940;" points="1716.631,1290.07 1975.254,1290.07 1913.22,1472.251 1652.92,1472.251 					"/>
					<polygon style="fill:#C65447;" points="1979.062,1290.066 1917.028,1472.25 1656.728,1472.25 1720.44,1290.066 					"/>
					<path style="fill:#F9DDBF;" d="M1839.628,1379.476c-1.606,6.961-8.552,12.604-15.513,12.604s-11.301-5.643-9.694-12.604
						c1.607-6.961,8.553-12.604,15.514-12.604S1841.235,1372.515,1839.628,1379.476z"/>
					<polygon style="fill:#B24940;" points="1979.062,1290.066 1917.028,1472.25 1795.938,1472.25 1940.976,1290.066 					"/>
				</g>
				<path style="fill:#122544;" d="M1436.682,1150.362l-3.446,0.696c-15.352,3.102-30.45-6.921-33.551-22.271l-3.641-18.021
					c-3.102-15.352,6.92-30.449,22.272-33.552l3.446-0.695c15.351-3.103,30.449,6.92,33.551,22.271l3.641,18.021
					C1462.055,1132.162,1452.033,1147.261,1436.682,1150.362z"/>
				<g>
					<path style="fill:#122544;" d="M1409.853,1085.463c-2.306-4.168-5.695-37.709,3.525-64.415
						c4.457-12.908,11.661-20.268,20.7-25.236c3.269-1.796,6.934-2.755,10.664-2.755l9.085,0.151
						c-29.917,12.667-36.853,80.43-34.523,87.658c-0.072-0.223-0.166-0.385-0.231-0.504L1409.853,1085.463z"/>
				</g>
				<g>
					<path style="fill:#122544;" d="M1497.165,1156.006c-50.281,0-75.166-39.732-75.413-40.136l4.494-2.749l-2.247,1.374
						l2.245-1.376c0.233,0.378,23.67,37.619,70.923,37.619c0.316,0,0.631-0.002,0.95-0.005l0.056,5.268
						C1497.838,1156.004,1497.499,1156.006,1497.165,1156.006z"/>
				</g>
				<path style="fill:#2B478B;" d="M1428.575,1132.718l-1.717,0.348c-7.648,1.545-15.171-3.448-16.716-11.097l-1.814-8.979
					c-1.545-7.649,3.448-15.172,11.097-16.717l1.717-0.347c7.648-1.546,15.171,3.448,16.716,11.097l1.814,8.979
					C1441.217,1123.65,1436.224,1131.173,1428.575,1132.718z"/>
				<path style="fill:#122544;" d="M1503.414,1157.758h-4.742c-2.415,0-4.39-1.977-4.39-4.391l0,0c0-2.415,1.976-4.391,4.39-4.391
					h4.742c2.414,0,4.39,1.976,4.39,4.391l0,0C1507.804,1155.781,1505.828,1157.758,1503.414,1157.758z"/>
			</g>
		</g>
		<g>
			<path style="fill:#8E342E;" d="M497.497,1079.07c0,0-42.188,21.568-11.446,67.902c0,0-36.245,4.188-45.361-6.231
				c0,0,1.374,4.563,2.977,6.782c0,0-35.113-4.604-47.694-17.909c-12.582-13.306,26.651-190.331,120.175-154.104
				c0,0,83.152,7.584,59.554,101.309c-23.598,93.725,7.404,98.932,7.404,98.932s-9.336,2.803-13.499,2.104
				c0,0-5.694-3.342-6.331-6.906c0,0,0.314,5.485,1.593,7.428c0,0-33.997-2.447-48.585-17.884
				C501.696,1145.055,489.437,1097.871,497.497,1079.07z"/>
			<path style="fill:#ED7D2B;" d="M557.714,1125.38l-3.376,0.468c-15.04,2.087-29.053-8.512-31.139-23.552l-2.449-17.654
				c-2.086-15.04,8.512-29.053,23.552-31.14l3.377-0.468c15.04-2.087,29.052,8.512,31.139,23.552l2.449,17.654
				C583.352,1109.28,572.754,1123.293,557.714,1125.38z"/>
			<path style="fill:#FFB27D;" d="M567.349,1266.904c-12.586,9.718-20.552,44.799-40.849,50.586
				c-76.082,21.716-116.922-68.629-130.282-112.73c10.192-6.544,20.004-8.372,25.675-9.345c5.531-0.94,11.361-1.675,16.195-2.162
				c8.307-7.063,19.807-34.819,20.508-77.043l3.671,0.786l61.524,13.512c0,0-1.795,19.43-2.227,37.729
				c-0.326,14.319-0.788,17.743,0.316,19.448c4.787,0.785,10.424,13.022,10.424,13.022s0.004,0.021,0.033,0.056
				C533.222,1202.057,552.302,1230.108,567.349,1266.904z"/>
			<path style="fill:#ED985F;" d="M523.797,1130.519c0,0-1.807,19.414-2.227,37.729c-34.552-1.688-52.175-33.604-59.302-51.238
				L523.797,1130.519z"/>
			<g>
				<path style="fill:#D2E3FC;" d="M836.72,1449.595c0,0-36.179,1.329-75.467,1.464c-4.646,0.024-9.352,0.024-14.035,0
					c-31.996-0.135-63.443-1.256-76.82-4.707c-13.072-3.365-63.358-37.447-103.598-78.734c-0.012-0.013-0.012-0.024-0.012-0.024
					c-3.122,7.438-5.475,13.12-5.536,13.571c-1.183,9.268-3.158,18.559-5.548,27.473c-9.121,34.021-24.326,62.578-24.851,63.565
					l-21.546-0.036l-168.224-0.244c0,0,31.777-48.945,23.241-174.333c-0.219-3.171,29.29-104.342,29.29-104.342
					s22.924-4.011,49.421-6.146c2.499,2.28,7.645,68.834,40.788,72.687c5.39,0.622,39.971,53.445,39.971,53.445l10.474-53.957
					l-12.389-71.589c15.9,4.657,24.619,6.328,37.837,11.608c8.999,3.608,16.449,10.242,21.095,18.741
					c23.156,42.313,98.305,178.796,105.975,181.979c7.182,2.976,34.252,8.39,62.895,13.62h0.024
					c38.325,6.999,79.466,13.645,79.466,13.645L836.72,1449.595z"/>
				<path style="fill:#D2E3FC;" d="M542.864,1472.215l-12.047,0.036c0,0,0.024-0.036,0.037-0.049L542.864,1472.215z"/>
			</g>
			<path style="fill:#FFB27D;" d="M534.051,1149.013c0,0-81.809-1.604-80.026-52.535c1.783-50.931-7.575-85.439,44.733-86.569
				c52.309-1.129,61.771,18.661,65.311,35.806C567.609,1062.858,555.377,1148.117,534.051,1149.013z"/>
			<path style="fill:#B7D3F3;" d="M761.253,1451.059c-4.646,0.024-9.352,0.024-14.035,0c-31.996-0.135-63.443-1.256-76.82-4.707
				c-13.072-3.365-63.358-37.447-103.598-78.734c-0.012-0.013-0.012-0.024-0.012-0.024s8.487-32.496,12.145-37.935
				c3.658-5.451,18.095,47.421,51.823,68.931c33.728,21.51,86.514,36.581,112.145,30.484
				C760.167,1424.964,761.935,1440.486,761.253,1451.059z"/>
			<path style="fill:#FFFFFF;" d="M517.983,1120.665c0,0,0.522,6.099,13.938,7.061c0,0,11.264,0.81,11.732-5.746
				C543.652,1121.979,533.399,1115.823,517.983,1120.665z"/>
			<g>
				<path style="fill:#122544;" d="M522.411,1141.264c-46.483-14.686-57.884-58.686-57.995-59.13l4.958-1.229l-2.479,0.614
					l2.478-0.616c0.105,0.418,10.895,41.69,54.58,55.491c0.292,0.093,0.583,0.183,0.879,0.272l-1.487,4.887
					C523.034,1141.458,522.721,1141.361,522.411,1141.264z"/>
			</g>
			<path style="fill:#ED7D2B;" d="M527.677,1144.707l-4.383-1.385c-2.232-0.705-3.481-3.108-2.776-5.341l0,0
				c0.705-2.232,3.108-3.481,5.341-2.776l4.383,1.385c2.232,0.705,3.481,3.108,2.776,5.341l0,0
				C532.313,1144.163,529.909,1145.412,527.677,1144.707z"/>
			<path style="fill:#8E342E;" d="M538.698,1003.152c0,0-20.946,62.042-52.364,72.566c-31.418,10.525-41.838-1.935-41.838-1.935
				s23.154-21.264,25.809-55.675C470.305,1018.109,521.067,977.785,538.698,1003.152z"/>
			<path style="fill:#8E342E;" d="M499.582,1021.414c0,0,42.655-2.392,55.401,9.751c9.194,8.759,8.977,13.33,9.692,25.007
				c0,0,18.653-28.773-0.539-48.912C543.783,985.905,499.582,1021.414,499.582,1021.414z"/>
			<path style="fill:#8E342E;" d="M536.881,1009.716c0,0-10.682,59.36-49.731,80.924c0,0,37.82-38.71,38.492-77.438
				C526.313,974.474,536.881,1009.716,536.881,1009.716z"/>
			<path style="fill:#8E342E;" d="M395.971,1129.607c12.577,13.31,47.69,17.921,47.69,17.921c-1.606-2.218-2.967-6.79-2.967-6.79
				c18.047,14.63,62.365,4.006,62.365,4.006c-35.354-7.809-23.905-58.829-11.881-61.002c7.008-38.479,20.905-86.383,27.414-107.897
				c-1.564-0.256-2.452-0.338-2.452-0.338C422.625,939.281,383.394,1116.313,395.971,1129.607z"/>
			<g>
				<path style="fill:#ED7D2B;" d="M472.766,1120.147l-3.376,0.468c-15.04,2.087-29.053-8.512-31.139-23.552l-2.449-17.654
					c-2.087-15.04,8.512-29.053,23.552-31.14l3.376-0.469c15.04-2.086,29.053,8.513,31.139,23.553l2.449,17.654
					C498.404,1104.048,487.806,1118.061,472.766,1120.147z"/>
				<g>
					<path style="fill:#ED7D2B;" d="M450.672,1055.746c-2.008-3.764,5.034-33.007,15.387-55.687
						c5.004-10.963,17.633-25.637,26.646-29.419c3.26-1.368,7.586-0.809,11.113-0.011c2.564,0.58,9.752,3.932,9.752,3.932
						c-29.628,9.235-55.374,71.323-53.507,77.749c-0.058-0.198-0.14-0.345-0.197-0.452L450.672,1055.746z"/>
				</g>
				<path style="fill:#F99746;" d="M465.973,1102.59l-1.682,0.233c-7.494,1.04-14.476-4.241-15.515-11.734l-1.22-8.796
					c-1.04-7.494,4.241-14.476,11.734-15.516l1.683-0.232c7.493-1.04,14.475,4.24,15.515,11.734l1.22,8.796
					C478.747,1094.568,473.467,1101.551,465.973,1102.59z"/>
			</g>
			<path style="fill:#FFB27D;" d="M664.482,1420.102c0,0,35.082-2.018,38.492-0.18c5.536,2.983,24.38,15.119,27.334,18.645
				c2.955,3.525,10.687,17.675,10.687,17.675s-3.347,0.93-4.86-0.429c-1.513-1.357-12.957-13.521-12.957-13.521l11.758,17.863
				c0,0-4.065-0.18-5.678-1.954s-12.6-12.946-12.6-12.946l-3.744-0.737c0,0,3.811,3.057,5.881,5.823
				c2.069,2.768,3.439,5.745,3.439,5.745s-3.351-0.567-4.396-1.067c-1.044-0.5-10.896-9.123-10.896-9.123l5.222,7.126
				c0,0-3.521-0.174-4.677-0.956c-1.156-0.782-8.831-7.853-10.193-7.836c-1.362,0.016-11.158-0.393-15.364-2.623
				c-4.207-2.23-17.414-7.34-17.414-7.34L664.482,1420.102z"/>
			<path style="fill:#B7D3F3;" d="M447.866,1177.339c0,0-23.461,6.839-28.809,12.228c0,0,24.526,62.698,59.888,91.963l9.451-6.706
				v15.243l35.401,23.167C523.797,1313.233,446.052,1196.305,447.866,1177.339z"/>
			<path style="fill:#B7D3F3;" d="M555.704,1408.637c-9.121,34.021-24.326,62.578-24.851,63.565l12.011,0.013l-12.047,0.036h-111.76
				c0,0,12.966-0.024,12.942-0.085c-0.305-1.135,18.9-53.196-12.942-74.535c-31.899-21.377-43.466-73.936-43.466-73.936
				l101.5-24.795c0,0,41.823,61.025,53.726,72.659c9.138,8.933,30.435,9.604,30.435,9.604L555.704,1408.637z"/>
			<path style="fill:#B7D3F3;" d="M521.881,1187.686c0,0,10.796,85.309,1.916,125.548c0,0,14.491-26.623,16.523-31.501
				l-2.439-14.632l9.349,3.251c0,0-8.245-68.014-15.707-79.936c-7.461-11.923-10.208-13.077-10.208-13.077L521.881,1187.686z"/>
			<path style="fill:#FFB27D;" d="M836.72,1449.595c0,0-45.263,1.671-89.502,1.464c-10.974-17.022,2.463-37.423,2.463-37.423h0.024
				c38.325,6.999,79.466,13.645,79.466,13.645L836.72,1449.595z"/>
			<path style="fill:#ED7D2B;" d="M841.012,1472.251H673.734l0,0c0-7.364,5.97-13.335,13.334-13.335h153.943V1472.251z"/>
			<polygon style="fill:#ED7D2B;" points="1099.151,1290.066 1037.123,1472.252 776.82,1472.252 840.534,1290.066 			"/>
			<polygon style="fill:#F99746;" points="1099.151,1290.066 1037.691,1470.566 1037.123,1472.252 780.624,1472.252 
				844.337,1290.066 			"/>
			<path style="fill:#FFC397;" d="M963.529,1379.476c-1.607,6.961-8.553,12.604-15.514,12.604c-6.961,0-11.301-5.643-9.694-12.604
				c1.607-6.961,8.553-12.604,15.513-12.604C960.796,1366.872,965.136,1372.515,963.529,1379.476z"/>
			<polygon style="fill:#ED7D2B;" points="1099.151,1290.066 1037.691,1470.566 919.842,1470.566 1063.538,1290.066 			"/>
			<path style="fill:#FFB27D;" d="M664.521,1434.268c0,0-86.112,7.523-133.704,5.402v-46.764
				c31.179,8.609,133.667,27.192,133.667,27.192L664.521,1434.268z"/>
			<path style="fill:#D2E3FC;" d="M419.057,1189.566c0,0-49.246,1.12-64.488,17.582c-15.242,16.461,15.124,109.501,15.124,109.501
				s91.793,112.424,137.713,120.35c0,0,20.068,2.742,29.436,2.892c0,0-9.185-26.74,7.898-43.522c0,0-19.663-5.502-20.476-7.94
				C523.452,1385.988,419.057,1189.566,419.057,1189.566z"/>
		</g>
		<g>
			<g>
				<path style="fill:#2C3A64;" d="M2477.01,977.687c0,0-49.875-18.558-81.04,17.876
					c-17.866,20.888-132.116,238.695-130.755,257.764c1.362,19.068,12.259,28.603,12.259,28.603s-4.768-16.685-1.192-25.368
					c0,0-2.298,29.369,15.834,41.883c9.447,6.52,244.647-6.245,265.084-34.731c44.437-61.937-52.607-93.98-50.225-160.89
					C2508.357,1064.024,2546.474,981.602,2477.01,977.687z"/>
				<path style="fill:#ED7D2B;" d="M2524.539,1116.415l-3.341,0.675c-14.883,3.008-29.521-6.709-32.528-21.593l-3.53-17.471
					c-3.007-14.884,6.71-29.521,21.593-32.528l3.342-0.675c14.883-3.008,29.521,6.709,32.528,21.593l3.53,17.471
					C2549.14,1098.77,2539.423,1113.408,2524.539,1116.415z"/>
				<path style="fill:#F99746;" d="M2737.938,1471.919H2581.89c-26.468-42.016-49.737-98.751-55.162-142.932
					c-2.584-20.961-1.144-39.093,5.863-51.484c21.8-38.501-12.778-83.703-12.778-83.703s47.603,13.474,58.666,52.721
					c11.277,39.982,41.545,172.974,41.545,172.974l115.871,23.832C2741.339,1456.953,2737.938,1471.919,2737.938,1471.919z"/>
				<path style="fill:#ED7D2B;" d="M2737.938,1471.919H2581.89c-26.468-42.016-49.737-98.751-55.162-142.932l23.147-7.089
					c0,0,29.287,133.686,46.316,135.729C2613.209,1459.671,2737.938,1471.919,2737.938,1471.919z"/>
				<path style="fill:#FFB27D;" d="M2542.856,1257.079c-11.965,10.474-27.404,19.74-47.307,26.765
					c-74.604,26.353-111.274-35.073-127.32-78.27c9.771-7.159,19.452-9.587,25.053-10.906c5.462-1.278,11.236-2.369,16.031-3.153
					c7.857-7.561,17.628-35.972,15.733-78.158l3.713,0.56l62.238,9.702c0,0-0.598,19.504,0.096,37.796
					c0.556,14.313,1.924,27.896,4.988,30.911c4.825,0.49,7.729,0.838,7.729,0.838s0.006,0.02,0.037,0.054
					C2504.809,1194.453,2525.576,1221.278,2542.856,1257.079z"/>
				<path style="fill:#ED985F;" d="M2491.002,1123.629c0,0-0.609,19.489,0.098,37.795c-34.59,0.439-54.143-30.331-62.34-47.495
					L2491.002,1123.629z"/>
				<path style="fill:#F99746;" d="M2572.522,1321.898c-0.173,1.338-16.804,55.417-16.978,56.776
					c-5.771,45.273-16.222,93.581-16.222,93.581l-22.852-0.041l-150.807-0.296c0,0,18.192-54.896-29.798-139.06
					c-1.573-2.758-3.218-5.547-4.934-8.366c-6.834-11.227,36.289-131.248,36.289-131.248s18.883-3.337,45.371-5.473
					c2.502,2.288,20.9,69.597,54.201,71.649c43.466,2.677,26.988-72.323,26.988-72.323c17.703,3.555,24.088,4.853,46.816,15.741
					C2540.6,1202.84,2573.441,1314.513,2572.522,1321.898z"/>
				<path style="fill:#FFB27D;" d="M2502.374,1141.459c0,0-81.753,3.428-83.104-47.517s-12.813-84.813,39.327-89.155
					c52.14-4.343,62.802,14.827,67.388,31.722C2530.572,1053.403,2523.605,1139.254,2502.374,1141.459z"/>
				<path style="fill:#FFFFFF;" d="M2484.594,1114.151c0,0,0.896,6.056,14.346,6.19c0,0,11.292,0.116,11.356-6.456
					C2510.296,1113.886,2499.684,1108.371,2484.594,1114.151z"/>
				<g>
					<path style="fill:#122544;" d="M2490.28,1134.439c-47.298-11.8-61.383-55.016-61.521-55.453l4.873-1.531l-2.437,0.766
						l2.435-0.769c0.131,0.411,13.438,40.942,57.889,52.032c0.297,0.074,0.594,0.146,0.895,0.218l-1.184,4.969
						C2490.914,1134.595,2490.595,1134.518,2490.28,1134.439z"/>
				</g>
				<path style="fill:#2C3A64;" d="M2495.748,1137.553l-4.461-1.113c-2.271-0.566-3.666-2.889-3.1-5.16l0,0
					c0.566-2.271,2.889-3.666,5.16-3.1l4.46,1.113c2.271,0.566,3.667,2.889,3.1,5.16l0,0
					C2500.341,1136.725,2498.02,1138.119,2495.748,1137.553z"/>
				<path style="fill:#2C3A64;" d="M2456.053,973.093c0,0,52.64-8.218,74.417,35.606c16.577,33.358,2.754,54.188-3.745,60.572
					c0,0-8.598-47.915-24.688-52.001c0,0-10.371-3.165-17.443,5.058c-7.072,8.223-17.303,44.889-29.051,50.507
					c0,0-36.478,9.007-38.266-3.722c-1.787-12.729-0.792-52.353,8.402-58.738C2434.873,1003.991,2456.053,973.093,2456.053,973.093z
					"/>
				<g>
					<path style="fill:#ED7D2B;" d="M2439.431,1116.415l-3.342,0.675c-14.883,3.008-29.521-6.709-32.528-21.593l-3.529-17.471
						c-3.008-14.884,6.709-29.521,21.593-32.528l3.341-0.675c14.884-3.008,29.521,6.709,32.529,21.593l3.529,17.471
						C2464.031,1098.77,2454.314,1113.408,2439.431,1116.415z"/>
					<g>
						<path style="fill:#ED7D2B;" d="M2413.42,1053.494c-2.236-3.633-5.521-32.863,3.417-56.138
							c4.321-11.25,11.306-17.664,20.068-21.994c3.169-1.565,6.724-2.401,10.339-2.401l8.809,0.132
							c-29.005,11.039-35.729,70.096-33.471,76.395c-0.069-0.194-0.16-0.335-0.225-0.439L2413.42,1053.494z"/>
					</g>
					<path style="fill:#F99746;" d="M2431.571,1099.309l-1.665,0.337c-7.416,1.498-14.709-3.344-16.207-10.759l-1.759-8.705
						c-1.498-7.415,3.343-14.708,10.759-16.207l1.665-0.336c7.415-1.498,14.708,3.343,16.206,10.759l1.76,8.704
						C2443.828,1090.518,2438.986,1097.811,2431.571,1099.309z"/>
				</g>
				<path style="fill:#ED7D2B;" d="M2365.665,1471.919c0,0,18.192-54.896-29.798-139.06l17.877-22.331
					c0,0,31.646,89.639,71.199,115.779c39.472,26.079,85.92,20.635,91.528,45.907L2365.665,1471.919z"/>
				<path style="fill:#F99746;" d="M2367.223,1193.245c0,0-32.544,2.834-54.336,41.333
					c-21.793,38.498-63.164,182.362-63.164,237.339h174.169c0,0,3.405-14.967-2.043-28.587l-107.781-20.799
					c0,0,64.877-96.336,65.558-137.878C2380.307,1243.111,2367.223,1193.245,2367.223,1193.245z"/>
				<path style="fill:#FFB27D;" d="M2424.942,1454.226c0,0,33.937-3.319,39.555-1.787s21.707,8.172,25.282,10.471
					c3.575,2.298,10.471,9.008,10.471,9.008s-4.342,0.821-6.896,0.248s-10.215-1.084-12.258-1.255
					c-2.043-0.17-9.364,1.344-9.364,1.344h-52.608L2424.942,1454.226z"/>
			</g>
			<g>
				<path style="fill:#233862;" d="M2732.26,1472.251h-167.276l0,0c0-7.364,5.97-13.335,13.334-13.335h153.942V1472.251z"/>
				<polygon style="fill:#233862;" points="2990.399,1290.066 2928.371,1472.252 2668.068,1472.252 2731.782,1290.066 				"/>
				<polygon style="fill:#2B478B;" points="2990.399,1290.066 2928.94,1470.566 2928.371,1472.252 2671.872,1472.252 
					2735.586,1290.066 				"/>
				<path style="fill:#F99746;" d="M2854.777,1379.476c-1.607,6.961-8.553,12.604-15.513,12.604c-6.961,0-11.301-5.643-9.694-12.604
					c1.607-6.961,8.553-12.604,15.514-12.604S2856.385,1372.515,2854.777,1379.476z"/>
				<polygon style="fill:#233862;" points="2990.399,1290.066 2928.94,1470.566 2811.09,1470.566 2954.786,1290.066 				"/>
			</g>
		</g>
	</g>
</g>
</svg>
