<svg width="1327" height="456" viewBox="0 0 1327 456" fill="none" xmlns="http://www.w3.org/2000/svg">
<path d="M422.036 139.221V454.295L43.5217 455.627C44.4721 441.853 -17.8317 260.198 62.0286 156.421C175.356 9.10404 272.202 128.241 400.043 138.585C407.268 139.158 414.557 139.412 422.036 139.221Z" fill="#EBF3FA"/>
<path d="M1291.76 448.201C1291.25 452.137 1250.24 447.567 1249.67 451.438L993.8 452.327H422.036V139.221C429.261 139.031 436.551 138.46 444.029 137.444C469.128 134.016 495.432 125.385 523.319 109.136C811.959 -58.4932 1046.98 -12.9835 1178.94 117.895C1195.16 134.016 1209.87 151.471 1222.92 169.942C1279.02 249.472 1304.37 348.55 1291.76 448.201Z" fill="#F3F8FC"/>
<path opacity="0.6" d="M1294.93 398.63C1294.99 415.831 1293.98 433.095 1291.76 450.423C1291.25 454.358 1250.24 449.788 1249.67 453.66L993.8 454.548H422.036V454.295L993.8 452.327L1249.67 451.438C1250.24 447.566 1291.25 452.137 1291.76 448.201C1293.85 431.636 1294.93 415.069 1294.93 398.63Z" fill="#EBF3FA"/>
<path d="M1182.4 212.888V452.334H444.03V243.97H500.63V187.104H557.23V263.931H603.051V246.764H682.871V275.785H717.609V210.61H810.597V98.8425H884.123V158.453H900.893V108.518H974.419V185.437H1041.06V138.234H1112.33V185.437H1125.62V212.888H1182.4Z" fill="#E8F0FD"/>
<path d="M336.853 233.868H271.195C268.181 233.868 265.715 231.398 265.715 228.38V164.917C265.715 161.899 268.181 159.429 271.195 159.429H336.854C339.868 159.429 342.334 161.899 342.334 164.917V228.379C342.334 231.398 339.868 233.868 336.853 233.868Z" fill="#C0D8FB"/>
<path d="M334.009 230.643H274.039C271.286 230.643 269.033 228.387 269.033 225.63V167.666C269.033 164.909 271.286 162.654 274.039 162.654H334.009C336.762 162.654 339.014 164.909 339.014 167.666V225.63C339.015 228.387 336.762 230.643 334.009 230.643Z" fill="#DFEBFD"/>
<path d="M304.024 171.037C304.901 171.037 305.611 170.325 305.611 169.447C305.611 168.57 304.901 167.858 304.024 167.858C303.148 167.858 302.437 168.57 302.437 169.447C302.437 170.325 303.148 171.037 304.024 171.037Z" fill="#B7D3F3"/>
<path d="M315.244 171.694C315.67 170.927 316.636 170.65 317.402 171.077C318.168 171.503 318.444 172.471 318.018 173.239C317.592 174.006 316.626 174.282 315.86 173.855C315.094 173.429 314.818 172.462 315.244 171.694Z" fill="#B7D3F3"/>
<path d="M326.216 180.423C326.953 179.947 327.935 180.16 328.41 180.897C328.885 181.635 328.674 182.618 327.937 183.095C327.2 183.571 326.218 183.359 325.742 182.621C325.267 181.883 325.479 180.899 326.216 180.423Z" fill="#B7D3F3"/>
<path d="M333.111 196.11C333.445 195.298 333.058 194.37 332.248 194.035C331.437 193.701 330.51 194.088 330.176 194.9C329.843 195.712 330.229 196.64 331.04 196.975C331.85 197.309 332.778 196.922 333.111 196.11Z" fill="#B7D3F3"/>
<path d="M328.875 209.614C329.495 210.235 329.495 211.241 328.875 211.862C328.255 212.483 327.25 212.483 326.631 211.862C326.011 211.241 326.011 210.235 326.631 209.614C327.251 208.993 328.256 208.993 328.875 209.614Z" fill="#B7D3F3"/>
<path d="M318.909 219.621C319.529 220.242 319.529 221.248 318.909 221.868C318.289 222.489 317.284 222.489 316.664 221.868C316.044 221.247 316.044 220.241 316.664 219.621C317.284 219 318.289 219 318.909 219.621Z" fill="#B7D3F3"/>
<path d="M304.024 226.368C304.901 226.368 305.611 225.657 305.611 224.779C305.611 223.901 304.901 223.19 304.024 223.19C303.148 223.19 302.437 223.901 302.437 224.779C302.437 225.657 303.148 226.368 304.024 226.368Z" fill="#B7D3F3"/>
<path d="M292.754 171.694C292.328 170.927 291.362 170.65 290.596 171.077C289.829 171.503 289.553 172.471 289.979 173.239C290.405 174.006 291.371 174.282 292.137 173.855C292.904 173.429 293.18 172.462 292.754 171.694Z" fill="#B7D3F3"/>
<path d="M281.782 180.423C281.046 179.947 280.063 180.16 279.588 180.897C279.113 181.635 279.324 182.619 280.061 183.095C280.798 183.571 281.78 183.359 282.255 182.621C282.731 181.883 282.519 180.899 281.782 180.423Z" fill="#B7D3F3"/>
<path d="M276.348 197.113C277.224 197.113 277.935 196.401 277.935 195.524C277.935 194.646 277.224 193.934 276.348 193.934C275.471 193.934 274.76 194.646 274.76 195.524C274.76 196.401 275.471 197.113 276.348 197.113Z" fill="#B7D3F3"/>
<path d="M279.122 209.614C278.502 210.235 278.502 211.241 279.122 211.862C279.742 212.483 280.747 212.483 281.367 211.862C281.986 211.241 281.986 210.235 281.367 209.614C280.747 208.993 279.742 208.993 279.122 209.614Z" fill="#B7D3F3"/>
<path d="M289.089 219.621C288.469 220.242 288.469 221.248 289.089 221.868C289.708 222.489 290.713 222.489 291.333 221.868C291.953 221.247 291.953 220.241 291.333 219.621C290.714 219 289.708 219 289.089 219.621Z" fill="#B7D3F3"/>
<path d="M305.183 197.113C306.06 197.113 306.77 196.401 306.77 195.524C306.77 194.646 306.06 193.934 305.183 193.934C304.307 193.934 303.596 194.646 303.596 195.524C303.596 196.401 304.307 197.113 305.183 197.113Z" fill="#B7D3F3"/>
<path d="M305.4 175.668H304.967V195.524H305.4V175.668Z" fill="#B7D3F3"/>
<path d="M315.063 186.723L304.552 194.987L305.355 196.011L315.866 187.747L315.063 186.723Z" fill="#B7D3F3"/>
<path d="M444.03 137.444V450.681H400.034V138.57C414.29 139.734 428.932 139.525 444.03 137.444Z" fill="#DEEDFF"/>
<path d="M1222.93 169.946V450.681H1178.93V117.893C1195.19 134.026 1209.89 151.458 1222.93 169.946Z" fill="#DEEDFF"/>
<path d="M1324.62 455.181H2.54517C1.4933 455.181 0.632568 454.319 0.632568 453.266V451.388C0.632568 450.334 1.4933 449.472 2.54517 449.472H1324.62C1325.67 449.472 1326.53 450.334 1326.53 451.388V453.266C1326.53 454.319 1325.67 455.181 1324.62 455.181Z" fill="#2E3552"/>
<path d="M480.103 340.117H473.046L481.688 449.637H498.851L480.103 340.117Z" fill="#B7D3F3"/>
<path d="M620.43 308.159L618.916 308.465C612.171 309.83 605.538 305.42 604.175 298.666L602.575 290.737C601.212 283.982 605.615 277.339 612.36 275.974L613.874 275.668C620.62 274.303 627.253 278.713 628.616 285.468L630.216 293.397C631.579 300.151 627.176 306.795 620.43 308.159Z" fill="#122544"/>
<path d="M473.046 340.117C473.046 340.117 511.582 322.003 564.379 334.055L480.103 340.117H473.046Z" fill="#B7D3F3"/>
<path d="M498.851 450.681L480.103 340.117C480.103 340.117 539.146 320.261 584.955 340.117L612.203 449.985L498.851 450.681Z" fill="#D2E3FC"/>
<path d="M907.073 416.446C906.025 428.442 899.261 432.146 896.287 431.827C893.312 431.51 875.916 424.858 875.539 427.298C875.16 429.739 885.631 437.712 892.962 438.086C892.962 438.086 879.118 453.376 869.918 448.963C860.717 444.55 859.932 437.555 854.197 434.932C848.46 432.309 843.566 432.316 845.933 434.992C848.301 437.666 858.682 440.267 861.961 446.078C862.735 447.448 863.491 448.715 864.069 449.831L844.696 449.792C838.554 446.736 833.379 442.519 832.993 437.974C832.963 437.627 832.935 437.296 832.91 436.979C832.313 429.986 832.313 429.986 832.313 429.986C832.313 429.986 822.365 418.366 827.537 408.725C828.394 407.122 829.67 405.576 831.479 404.145C831.479 404.145 840.75 398.523 848.31 398.982C848.31 398.982 842.452 408.819 840.803 414.666C840.221 416.727 840.163 418.292 841.065 418.758C842.052 419.269 843.331 417.785 844.653 415.405C847.966 409.445 851.557 397.852 851.557 397.852C851.557 397.852 857.131 397.311 863.476 397.229C866.322 397.192 869.323 397.248 872.044 397.486C875.05 397.75 877.711 398.239 879.442 399.072C879.442 399.072 879.064 399.382 878.427 399.915C877.482 400.709 875.965 401.996 874.28 403.49C869.276 407.921 862.775 414.17 865.205 414.733C867.173 415.189 873.348 411.515 878.844 407.868C883.961 404.476 888.485 401.105 888.485 401.105C888.485 401.105 908.12 404.45 907.073 416.446Z" fill="#82B378"/>
<path d="M897.425 416.77C897.425 416.77 844.091 414.712 832.313 429.987C832.313 429.987 829.708 437.799 821.693 444.913L820.443 448.323C820.443 448.323 829.685 438.564 832.992 437.974C832.992 437.974 827.82 419.05 897.425 416.77Z" fill="#82B378"/>
<path d="M823.934 444.826C823.477 445.328 822.792 446.01 821.812 446.916L821.791 446.937C821.451 447.252 821.121 447.592 820.799 447.954C820.304 448.502 819.83 449.102 819.377 449.741L816.885 449.736C819.451 446.574 821.691 444.914 821.691 444.914C821.691 444.914 821.694 444.911 821.698 444.909C821.893 444.791 826.487 442.01 823.934 444.826Z" fill="#82B378"/>
<path d="M774.091 410.112C774.091 410.112 795.609 398.045 785.567 381.668C785.567 381.668 777.534 371.613 768.927 369.027C768.927 369.027 773.517 393.448 768.927 394.023C764.336 394.598 765.771 366.441 765.771 366.441C765.771 366.441 743.105 355.523 734.211 356.385C734.211 356.385 748.27 380.232 743.679 379.657C739.089 379.083 723.31 354.949 723.31 354.949C723.31 354.949 700.07 350.639 696.34 364.43C692.611 378.221 698.636 385.117 702.079 385.978C705.521 386.84 727.613 386.554 727.039 389.426C726.466 392.299 711.547 396.897 703.227 394.311C703.227 394.311 712.408 417.008 724.457 415.859C736.507 414.71 740.237 407.24 747.697 406.665C755.156 406.09 760.607 408.102 756.878 410.113C753.148 412.124 740.524 410.772 734.499 415.901C728.474 421.031 723.597 424.191 734.786 426.489C745.975 428.788 766.058 427.351 770.074 418.732C774.091 410.112 774.091 410.112 774.091 410.112Z" fill="#A8D29F"/>
<path d="M706.956 368.739C706.956 368.739 767.205 388.277 774.091 410.112C774.091 410.112 773.804 419.88 779.829 431.086V435.395C779.829 435.395 773.517 420.742 770.074 418.731C770.074 418.731 783.559 399.769 706.956 368.739Z" fill="#82B378"/>
<path d="M785.41 449.694L781.968 449.687C781.859 444.7 781.283 439.101 779.584 434.837C779.584 434.834 779.584 434.834 779.584 434.834C779.371 434.299 779.142 433.788 778.893 433.299C778.891 433.294 778.888 433.288 778.886 433.283C778.171 431.882 777.688 430.85 777.383 430.102L777.38 430.1C775.618 425.775 779.829 431.086 779.829 431.086C779.829 431.086 784.879 438.766 785.41 449.694Z" fill="#82B378"/>
<path d="M808.324 393.47C808.324 393.47 779.959 377.564 793.196 355.976C793.196 355.976 803.785 342.72 815.131 339.312C815.131 339.312 809.08 371.504 815.131 372.261C821.182 373.019 819.291 335.903 819.291 335.903C819.291 335.903 849.168 321.512 860.892 322.648C860.892 322.648 842.361 354.082 848.412 353.325C854.463 352.568 875.264 320.755 875.264 320.755C875.264 320.755 905.897 315.074 910.813 333.252C915.73 351.431 907.788 360.521 903.25 361.657C898.711 362.793 869.591 362.415 870.347 366.202C871.103 369.989 890.769 376.049 901.737 372.64C901.737 372.64 889.634 402.56 873.751 401.045C857.867 399.53 852.95 389.683 843.117 388.926C833.284 388.168 826.099 390.819 831.015 393.47C835.931 396.121 852.572 394.339 860.514 401.101C868.456 407.862 874.885 412.028 860.136 415.058C845.386 418.088 818.913 416.194 813.619 404.832C808.324 393.47 808.324 393.47 808.324 393.47Z" fill="#A8D29F"/>
<path d="M896.82 338.933C896.82 338.933 817.4 364.687 808.324 393.47C808.324 393.47 808.702 406.347 800.76 421.117V426.798C800.76 426.798 809.08 407.483 813.619 404.832C813.619 404.832 795.843 379.836 896.82 338.933Z" fill="#82B378"/>
<path d="M803.99 419.81C803.988 419.815 803.985 419.817 803.985 419.819C803.583 420.808 802.945 422.174 802.001 424.024C801.999 424.029 801.997 424.031 801.994 424.035C801.666 424.677 801.365 425.353 801.086 426.055C801.083 426.055 801.083 426.057 801.083 426.059C798.364 432.882 797.826 442.299 797.927 449.719L793.37 449.71C792.827 433.181 800.76 421.116 800.76 421.116C800.76 421.116 800.76 421.116 800.762 421.114C800.883 420.963 806.281 414.184 803.99 419.81Z" fill="#82B378"/>
<path d="M667.109 449.985H559.225C557.63 446.114 556.231 441.977 555.006 437.67C551.93 426.898 549.937 415.025 548.669 403.396C548.653 403.25 548.637 403.096 548.62 402.949C546.443 382.779 546.432 363.377 546.726 351.722C546.894 344.979 547.161 340.824 547.177 340.623V340.617C547.406 340.519 547.64 340.426 547.869 340.333C553.59 337.929 559.077 335.857 564.336 334.064C564.363 334.059 564.38 334.053 564.38 334.053C568.8 332.543 573.057 331.24 577.151 330.118C584.347 328.139 591.043 326.716 597.238 325.729C604.538 324.573 611.146 324.023 617.069 323.897C617.336 323.887 617.597 323.887 617.864 323.881C619.427 323.854 620.94 323.859 622.404 323.891C637.173 324.208 646.999 327.151 651.969 329.114C652.66 329.387 653.254 329.643 653.749 329.872C653.814 329.899 653.88 329.927 653.945 329.954C654.506 330.205 654.941 330.418 655.246 330.57C655.284 330.586 655.328 330.608 655.365 330.635C655.513 330.712 655.654 330.793 655.79 330.875L663.569 412.75L667.109 449.985Z" fill="#2B478B"/>
<path d="M774.615 432.286C763.805 437.311 699.514 441.529 693.339 439.748C690.172 438.832 676.917 427.141 663.582 412.758C663.57 412.749 663.57 412.749 663.57 412.749C650.951 399.145 638.228 383.132 633.937 371.608C625.11 347.928 632.698 326.902 632.698 326.902C632.698 326.902 649.102 326.833 655.79 330.876C662.48 334.93 700.715 405.45 705.827 407.311C710.94 409.182 771.509 412.649 778.443 415.945C778.443 415.945 785.415 427.262 774.615 432.286Z" fill="#2B478B"/>
<path d="M617.853 326.746L617.837 330.733C617.837 330.733 618.941 343.2 603.612 345.044C588.283 346.893 576.658 340.223 577.059 330.601C578.428 323.149 579.936 318.031 580.029 311.867C580.064 309.576 579.903 307.146 579.473 304.401L609.181 303.761L617.933 305.18L617.853 326.746Z" fill="#EA9E6A"/>
<path d="M617.933 305.18L617.853 326.746C614.699 328.221 611.14 329.123 607.148 329.129C593.494 329.15 579.904 307.146 579.473 304.402L617.933 305.18Z" fill="#D88D59"/>
<path d="M619.683 315.656C619.683 315.656 581.646 323.412 577.187 299.617C572.729 275.821 564.817 260.796 588.914 254.838C613.011 248.88 619.444 257.071 622.862 264.651C626.279 272.231 629.463 313.026 619.683 315.656Z" fill="#EA9E6A"/>
<path d="M630.233 246.957C630.233 246.957 619.621 246.155 607.098 240.726C596.934 236.319 584.127 241.209 579.97 243.411C580.081 242.739 580.347 241.822 580.981 240.903C580.981 240.903 579.115 242.232 578.842 244.086C578.65 244.228 578.564 244.326 578.614 244.359C578.614 244.359 576.496 243.974 575.137 244.589C575.137 244.589 576.089 244.451 576.43 245.064C576.466 245.128 576.52 245.183 576.583 245.232C560.75 252.923 559.325 278.003 564.433 283.797C570.578 290.769 577.958 306.478 577.958 306.478C577.958 306.478 580.635 302.76 579.51 296.619C578.385 290.477 583.683 290.469 590.371 287.666C597.059 284.863 591.47 277.053 597.319 272.297C603.167 267.541 624.642 270.301 624.358 266.671C632.323 263.751 630.234 247.774 630.233 246.957Z" fill="#8E342E"/>
<path d="M559.225 449.985C557.63 446.114 556.231 441.977 555.006 437.67C551.93 426.898 549.937 415.025 548.669 403.396C548.653 403.249 548.637 403.096 548.62 402.949C548.702 402.988 548.837 403.209 548.925 403.102C553.126 397.992 564.592 392.402 578.479 412.758C581.25 416.814 593.4 445.236 595.339 449.984L559.225 449.985Z" fill="#233862"/>
<path d="M570.498 449.985C570.188 448.147 570.531 445.836 571.963 442.953C571.963 442.953 573.743 441.797 576.106 440.45C579.628 438.46 584.446 436.051 586.628 436.438C587.021 436.509 587.548 436.623 588.175 436.776C593.352 438.019 605.42 441.742 607.244 443.923C608.747 445.716 610.793 448.001 612.203 449.985H570.498Z" fill="#EA9E6A"/>
<path d="M578.479 449.985H476.828C476.556 448.676 476.545 447.472 476.905 446.561C479.937 438.891 485.854 426.265 492.669 412.719C497.683 402.753 503.176 392.286 508.364 382.926C515.566 369.93 522.164 359.06 526.039 354.6C529.093 351.095 532.953 348.152 536.976 345.726C540.389 343.665 543.922 341.975 547.177 340.623V340.617C547.406 340.519 547.64 340.426 547.869 340.333C554.945 337.461 560.558 336.201 560.558 336.201C560.558 336.201 560.634 339.418 560.64 344.362C560.662 358.71 560.112 387.625 555.539 394.679C554.265 396.647 551.892 399.618 548.925 403.102C548.838 403.2 548.756 403.298 548.669 403.396C547.063 405.282 545.283 407.31 543.416 409.398C532.806 421.299 519.371 435.276 517.732 436.977C517.618 437.092 517.563 437.151 517.563 437.151H517.759L546.263 437.55L555.005 437.669L573.133 437.92C574.385 438.459 575.359 439.348 576.105 440.449C577.858 443.018 578.398 446.757 578.479 449.985Z" fill="#2B478B"/>
<path d="M774.615 432.285C763.805 437.311 699.514 441.529 693.339 439.748C690.172 438.832 676.917 427.141 663.582 412.758C664.24 412.845 670.338 402.666 698.144 427.025C698.144 427.025 705.426 430.271 725.244 428.454C745.063 426.637 770.512 425.969 774.615 432.285Z" fill="#233862"/>
<path d="M711.456 449.79H637.958C637.958 446.55 640.581 443.923 643.817 443.923H711.456V449.79Z" fill="#B24940"/>
<path d="M711.245 369.631H824.877L797.621 449.79H683.252L711.245 369.631Z" fill="#B24940"/>
<path d="M826.55 369.629L799.294 449.79H684.925L712.918 369.629H826.55Z" fill="#C65447"/>
<path d="M765.287 408.969C764.581 412.032 761.529 414.515 758.471 414.515C755.412 414.515 753.505 412.032 754.211 408.969C754.917 405.907 757.969 403.424 761.028 403.424C764.086 403.424 765.993 405.907 765.287 408.969Z" fill="#F9DDBF"/>
<path d="M826.55 369.629L799.294 449.79H746.09L809.816 369.629H826.55Z" fill="#B24940"/>
<path d="M588.242 308.159L586.728 308.465C579.983 309.83 573.349 305.42 571.987 298.666L570.387 290.737C569.024 283.982 573.427 277.339 580.173 275.974L581.687 275.668C588.432 274.303 595.065 278.713 596.428 285.468L598.028 293.397C599.39 300.151 594.987 306.795 588.242 308.159Z" fill="#122544"/>
<path d="M576.454 279.604C575.441 277.77 573.952 263.012 578.003 251.261C579.961 245.582 583.126 242.343 587.098 240.157C588.534 239.367 590.145 238.945 591.783 238.945L595.775 239.012C582.63 244.585 579.583 274.401 580.607 277.581C580.575 277.483 580.534 277.412 580.505 277.359L576.454 279.604Z" fill="#122544"/>
<path d="M614.817 310.643C592.725 310.643 581.791 293.161 581.682 292.983L583.657 291.773L582.67 292.378L583.656 291.772C583.758 291.939 594.056 308.325 614.818 308.325C614.957 308.325 615.095 308.324 615.235 308.323L615.26 310.64C615.113 310.642 614.964 310.643 614.817 310.643Z" fill="#122544"/>
<path d="M584.68 300.396L583.926 300.549C580.565 301.229 577.26 299.032 576.581 295.666L575.784 291.716C575.105 288.35 577.299 285.04 580.66 284.36L581.414 284.207C584.775 283.527 588.08 285.725 588.759 289.09L589.556 293.041C590.235 296.406 588.041 299.716 584.68 300.396Z" fill="#2B478B"/>
<path d="M617.563 311.414H615.479C614.418 311.414 613.55 310.544 613.55 309.481C613.55 308.419 614.418 307.549 615.479 307.549H617.563C618.623 307.549 619.491 308.419 619.491 309.481C619.491 310.544 618.623 311.414 617.563 311.414Z" fill="#122544"/>
<path d="M175.588 276.791C175.588 276.791 157.051 286.281 170.559 306.668C170.559 306.668 154.633 308.51 150.628 303.926C150.628 303.926 151.232 305.934 151.936 306.91C151.936 306.91 136.508 304.884 130.981 299.03C125.452 293.175 142.69 215.285 183.782 231.224C183.782 231.224 220.317 234.561 209.949 275.8C199.581 317.039 213.202 319.33 213.202 319.33C213.202 319.33 209.1 320.564 207.271 320.256C207.271 320.256 204.769 318.786 204.489 317.218C204.489 317.218 204.627 319.631 205.189 320.486C205.189 320.486 190.252 319.409 183.842 312.617C177.433 305.824 172.046 285.063 175.588 276.791Z" fill="#8E342E"/>
<path d="M202.046 297.167L200.562 297.373C193.954 298.291 187.797 293.628 186.88 287.01L185.804 279.242C184.888 272.625 189.544 266.459 196.153 265.541L197.636 265.335C204.245 264.417 210.401 269.08 211.318 275.698L212.394 283.465C213.31 290.083 208.654 296.249 202.046 297.167Z" fill="#ED7D2B"/>
<path d="M206.279 359.438C200.749 363.714 197.249 379.149 188.331 381.696C154.902 391.251 136.958 351.499 131.088 332.094C135.566 329.215 139.878 328.411 142.369 327.983C144.799 327.569 147.361 327.246 149.485 327.031C153.135 323.924 158.188 311.711 158.496 293.132L160.109 293.478L187.141 299.423C187.141 299.423 186.352 307.973 186.162 316.024C186.019 322.325 185.816 323.831 186.301 324.581C188.404 324.927 190.881 330.311 190.881 330.311C190.881 330.311 190.883 330.32 190.896 330.336C191.284 330.905 199.668 343.247 206.279 359.438Z" fill="#FFB27D"/>
<path d="M187.143 299.428C187.143 299.428 186.349 307.971 186.165 316.029C170.983 315.286 163.24 301.243 160.109 293.484L187.143 299.428Z" fill="#ED985F"/>
<path d="M324.634 439.822C324.634 439.822 308.738 440.406 291.475 440.466C289.434 440.476 287.366 440.476 285.309 440.466C271.251 440.406 257.434 439.913 251.556 438.395C245.813 436.914 223.718 421.918 206.038 403.752C206.032 403.746 206.032 403.741 206.032 403.741C204.661 407.014 203.627 409.514 203.6 409.713C203.08 413.79 202.212 417.878 201.162 421.801C197.155 436.77 190.474 449.335 190.243 449.769L180.777 449.753L106.863 449.646C106.863 449.646 120.825 428.11 117.075 372.94C116.979 371.544 129.944 327.029 129.944 327.029C129.944 327.029 140.016 325.264 151.658 324.325C152.756 325.328 155.017 354.612 169.58 356.307C171.948 356.581 187.142 379.823 187.142 379.823L191.744 356.082L186.301 324.583C193.287 326.632 197.117 327.367 202.925 329.69C206.879 331.278 210.152 334.197 212.194 337.936C222.368 356.554 255.387 416.606 258.757 418.007C261.912 419.316 273.806 421.699 286.391 424H286.402C303.241 427.079 321.317 430.004 321.317 430.004L324.634 439.822Z" fill="#D2E3FC"/>
<path d="M195.521 449.774L190.228 449.79C190.228 449.79 190.238 449.775 190.244 449.769L195.521 449.774Z" fill="#D2E3FC"/>
<path d="M191.649 307.566C191.649 307.566 155.704 306.86 156.487 284.45C157.271 262.041 153.159 246.857 176.142 246.36C199.125 245.863 203.282 254.571 204.838 262.115C206.393 269.657 201.019 307.171 191.649 307.566Z" fill="#FFB27D"/>
<path d="M291.476 440.466C289.434 440.476 287.366 440.476 285.309 440.466C271.251 440.407 257.434 439.913 251.556 438.395C245.813 436.914 223.718 421.918 206.038 403.752C206.032 403.746 206.032 403.741 206.032 403.741C206.032 403.741 209.761 389.443 211.369 387.05C212.976 384.652 219.319 407.915 234.138 417.38C248.958 426.844 272.15 433.475 283.412 430.793C290.998 428.984 291.775 435.814 291.476 440.466Z" fill="#B7D3F3"/>
<path d="M184.589 295.093C184.589 295.093 184.818 297.776 190.713 298.199C190.713 298.199 195.662 298.556 195.868 295.671C195.868 295.671 191.362 292.962 184.589 295.093Z" fill="white"/>
<path d="M186.534 304.156C166.111 297.694 161.102 278.334 161.053 278.139L163.231 277.598L162.142 277.868L163.231 277.597C163.277 277.781 168.018 295.941 187.212 302.013C187.34 302.054 187.468 302.094 187.598 302.133L186.945 304.283C186.808 304.242 186.671 304.199 186.534 304.156Z" fill="#122544"/>
<path d="M188.848 305.671L186.922 305.062C185.941 304.752 185.393 303.694 185.702 302.712C186.012 301.73 187.068 301.18 188.049 301.49L189.975 302.1C190.956 302.41 191.504 303.467 191.195 304.45C190.885 305.432 189.829 305.981 188.848 305.671Z" fill="#ED7D2B"/>
<path d="M193.69 243.387C193.69 243.387 184.487 270.685 170.683 275.316C156.879 279.947 152.3 274.464 152.3 274.464C152.3 274.464 162.474 265.108 163.64 249.967C163.64 249.967 185.944 232.225 193.69 243.387Z" fill="#8E342E"/>
<path d="M176.504 251.422C176.504 251.422 195.245 250.37 200.846 255.713C204.885 259.567 204.79 261.578 205.104 266.716C205.104 266.716 213.3 254.056 204.867 245.194C195.925 235.798 176.504 251.422 176.504 251.422Z" fill="#8E342E"/>
<path d="M192.892 246.275C192.892 246.275 188.199 272.393 171.042 281.882C171.042 281.882 187.659 264.849 187.954 247.809C188.249 230.769 192.892 246.275 192.892 246.275Z" fill="#8E342E"/>
<path d="M130.98 299.027C136.506 304.883 151.933 306.912 151.933 306.912C151.228 305.936 150.63 303.925 150.63 303.925C158.559 310.362 178.031 305.687 178.031 305.687C162.498 302.251 167.528 279.803 172.811 278.846C175.89 261.916 181.996 240.838 184.856 231.372C184.169 231.259 183.779 231.223 183.779 231.223C142.691 215.284 125.454 293.178 130.98 299.027Z" fill="#8E342E"/>
<path d="M164.722 294.865L163.238 295.071C156.63 295.989 150.473 291.325 149.557 284.708L148.48 276.94C147.564 270.322 152.22 264.157 158.829 263.238L160.312 263.032C166.92 262.114 173.077 266.778 173.994 273.395L175.07 281.163C175.986 287.781 171.33 293.947 164.722 294.865Z" fill="#ED7D2B"/>
<path d="M155.014 266.528C154.132 264.872 157.226 252.005 161.775 242.026C163.973 237.202 169.522 230.746 173.482 229.082C174.915 228.48 176.815 228.726 178.365 229.077C179.492 229.332 182.65 230.807 182.65 230.807C169.632 234.87 158.32 262.189 159.14 265.016C159.115 264.929 159.079 264.865 159.054 264.818L155.014 266.528Z" fill="#ED7D2B"/>
<path d="M161.737 287.14L160.998 287.242C157.705 287.7 154.638 285.376 154.181 282.079L153.645 278.209C153.188 274.912 155.508 271.839 158.801 271.382L159.54 271.28C162.832 270.822 165.9 273.145 166.357 276.443L166.893 280.313C167.35 283.61 165.03 286.682 161.737 287.14Z" fill="#F99746"/>
<path d="M248.957 426.845C248.957 426.845 264.371 425.957 265.869 426.766C268.301 428.078 276.581 433.418 277.879 434.969C279.177 436.52 282.575 442.746 282.575 442.746C282.575 442.746 281.104 443.156 280.439 442.558C279.774 441.961 274.746 436.608 274.746 436.608L279.912 444.468C279.912 444.468 278.126 444.389 277.418 443.608C276.709 442.828 271.882 437.912 271.882 437.912L270.236 437.588C270.236 437.588 271.911 438.933 272.82 440.15C273.73 441.368 274.331 442.678 274.331 442.678C274.331 442.678 272.859 442.428 272.4 442.208C271.941 441.988 267.613 438.194 267.613 438.194L269.907 441.33C269.907 441.33 268.36 441.253 267.852 440.909C267.344 440.565 263.972 437.454 263.373 437.461C262.775 437.468 258.471 437.288 256.623 436.307C254.774 435.326 248.972 433.077 248.972 433.077L248.957 426.845Z" fill="#FFB27D"/>
<path d="M153.781 320.029C153.781 320.029 143.473 323.038 141.123 325.41C141.123 325.41 151.899 352.997 167.436 365.873L171.589 362.923V369.63L187.143 379.823C187.143 379.823 152.984 328.374 153.781 320.029Z" fill="#B7D3F3"/>
<path d="M201.162 421.8C197.155 436.769 190.474 449.335 190.244 449.769L195.521 449.775L190.228 449.79H141.123C141.123 449.79 146.82 449.78 146.81 449.753C146.676 449.254 155.114 426.347 141.123 416.958C127.108 407.552 122.025 384.426 122.025 384.426L166.622 373.516C166.622 373.516 184.998 400.367 190.228 405.486C194.243 409.416 203.6 409.712 203.6 409.712L201.162 421.8Z" fill="#B7D3F3"/>
<path d="M186.301 324.582C186.301 324.582 191.045 362.118 187.143 379.823C187.143 379.823 193.51 368.109 194.403 365.963L193.331 359.524L197.439 360.955C197.439 360.955 193.816 331.029 190.538 325.783C187.26 320.537 186.053 320.029 186.053 320.029L186.301 324.582Z" fill="#B7D3F3"/>
<path d="M324.634 439.822C324.634 439.822 304.746 440.557 285.309 440.466C280.487 432.976 286.391 424 286.391 424H286.402C303.241 427.079 321.317 430.004 321.317 430.004L324.634 439.822Z" fill="#FFB27D"/>
<path d="M326.52 449.79H253.022C253.022 446.55 255.645 443.923 258.88 443.923H326.519V449.79H326.52Z" fill="#ED7D2B"/>
<path d="M439.939 369.629L412.686 449.791H298.315L326.31 369.629H439.939Z" fill="#ED7D2B"/>
<path d="M439.939 369.629L412.935 449.049L412.686 449.791H299.987L327.98 369.629H439.939Z" fill="#F99746"/>
<path d="M380.35 408.969C379.644 412.032 376.593 414.515 373.534 414.515C370.476 414.515 368.569 412.032 369.275 408.969C369.981 405.907 373.033 403.424 376.091 403.424C379.15 403.424 381.057 405.907 380.35 408.969Z" fill="#FFC397"/>
<path d="M439.939 369.629L412.935 449.049H361.156L424.292 369.629H439.939Z" fill="#ED7D2B"/>
<path d="M248.974 433.078C248.974 433.078 211.138 436.388 190.228 435.455V414.879C203.927 418.667 248.958 426.843 248.958 426.843L248.974 433.078Z" fill="#FFB27D"/>
<path d="M141.123 325.409C141.123 325.409 119.486 325.902 112.789 333.145C106.092 340.388 119.434 381.326 119.434 381.326C119.434 381.326 159.765 430.792 179.941 434.28C179.941 434.28 188.759 435.486 192.875 435.552C192.875 435.552 188.839 423.786 196.345 416.402C196.345 416.402 187.706 413.981 187.348 412.909C186.992 411.835 141.123 325.409 141.123 325.409Z" fill="#D2E3FC"/>
<path d="M1045.34 232.182C1045.34 232.182 1023.42 224.017 1009.73 240.048C1001.88 249.238 951.681 345.074 952.279 353.464C952.877 361.854 957.665 366.049 957.665 366.049C957.665 366.049 955.57 358.708 957.141 354.887C957.141 354.887 956.132 367.81 964.099 373.316C968.249 376.185 1071.59 370.568 1080.57 358.034C1100.09 330.782 1057.46 316.683 1058.5 287.243C1059.11 270.171 1075.86 233.905 1045.34 232.182Z" fill="#2C3A64"/>
<path d="M1066.22 293.223L1064.75 293.52C1058.21 294.843 1051.78 290.568 1050.46 284.019L1048.91 276.331C1047.59 269.782 1051.86 263.342 1058.4 262.019L1059.86 261.722C1066.4 260.399 1072.84 264.674 1074.16 271.223L1075.71 278.91C1077.03 285.459 1072.76 291.9 1066.22 293.223Z" fill="#ED7D2B"/>
<path d="M1159.98 449.644H1091.42C1079.79 431.157 1069.56 406.194 1067.18 386.754C1066.05 377.532 1066.68 369.553 1069.76 364.101C1079.34 347.161 1064.14 327.272 1064.14 327.272C1064.14 327.272 1085.06 333.201 1089.92 350.469C1094.87 368.061 1108.17 426.578 1108.17 426.578L1159.08 437.064C1161.48 443.059 1159.98 449.644 1159.98 449.644Z" fill="#F99746"/>
<path d="M1159.98 449.644H1091.42C1079.79 431.157 1069.56 406.194 1067.18 386.754L1077.35 383.635C1077.35 383.635 1090.22 442.457 1097.7 443.356C1105.18 444.255 1159.98 449.644 1159.98 449.644Z" fill="#ED7D2B"/>
<path d="M1074.27 355.115C1069.01 359.723 1062.23 363.8 1053.48 366.891C1020.7 378.487 1004.59 351.459 997.541 332.453C1001.83 329.303 1006.09 328.234 1008.55 327.654C1010.95 327.092 1013.49 326.612 1015.59 326.267C1019.04 322.94 1023.34 310.439 1022.5 291.877L1024.14 292.124L1051.48 296.392C1051.48 296.392 1051.22 304.974 1051.52 313.023C1051.77 319.32 1052.37 325.297 1053.72 326.624C1055.84 326.839 1057.11 326.992 1057.11 326.992C1057.11 326.992 1057.11 327.001 1057.13 327.016C1057.55 327.559 1066.67 339.362 1074.27 355.115Z" fill="#FFB27D"/>
<path d="M1051.48 296.397C1051.48 296.397 1051.22 304.972 1051.53 313.027C1036.33 313.22 1027.74 299.681 1024.14 292.129L1051.48 296.397Z" fill="#ED985F"/>
<path d="M1087.3 383.635C1087.23 384.224 1079.92 408.019 1079.84 408.617C1077.31 428.537 1072.71 449.792 1072.71 449.792L1062.67 449.774L996.413 449.644C996.413 449.644 1004.41 425.49 983.321 388.458C982.63 387.244 981.907 386.017 981.153 384.777C978.15 379.837 997.097 327.027 997.097 327.027C997.097 327.027 1005.39 325.559 1017.03 324.619C1018.13 325.626 1026.22 355.242 1040.85 356.145C1059.94 357.323 1052.7 324.323 1052.7 324.323C1060.48 325.887 1063.29 326.458 1073.27 331.249C1073.28 331.25 1087.71 380.386 1087.3 383.635Z" fill="#F99746"/>
<path d="M1056.48 304.242C1056.48 304.242 1020.56 305.75 1019.97 283.335C1019.37 260.919 1014.34 246.017 1037.25 244.106C1060.16 242.195 1064.84 250.63 1066.85 258.064C1068.87 265.497 1065.81 303.272 1056.48 304.242Z" fill="#FFB27D"/>
<path d="M1048.67 292.226C1048.67 292.226 1049.06 294.891 1054.97 294.95C1054.97 294.95 1059.93 295.001 1059.96 292.109C1059.96 292.109 1055.3 289.683 1048.67 292.226Z" fill="white"/>
<path d="M1051.17 301.153C1030.39 295.961 1024.2 276.946 1024.14 276.754L1026.28 276.08L1025.21 276.417L1026.28 276.079C1026.33 276.26 1032.18 294.093 1051.71 298.973C1051.84 299.006 1051.97 299.037 1052.1 299.069L1051.58 301.255C1051.45 301.222 1051.31 301.188 1051.17 301.153Z" fill="#122544"/>
<path d="M1053.57 302.523L1051.61 302.034C1050.61 301.785 1050 300.763 1050.25 299.763C1050.5 298.764 1051.52 298.15 1052.51 298.399L1054.47 298.889C1055.47 299.138 1056.09 300.16 1055.84 301.159C1055.59 302.159 1054.57 302.772 1053.57 302.523Z" fill="#2C3A64"/>
<path d="M1036.13 230.161C1036.13 230.161 1059.26 226.545 1068.83 245.828C1076.11 260.505 1070.04 269.67 1067.18 272.479C1067.18 272.479 1063.4 251.397 1056.33 249.599C1056.33 249.599 1051.78 248.206 1048.67 251.824C1045.56 255.442 1041.07 271.576 1035.9 274.047C1035.9 274.047 1019.88 278.011 1019.09 272.41C1018.31 266.809 1018.74 249.374 1022.78 246.565C1026.82 243.756 1036.13 230.161 1036.13 230.161Z" fill="#2C3A64"/>
<path d="M1028.83 293.223L1027.36 293.52C1020.82 294.843 1014.39 290.568 1013.06 284.019L1011.51 276.331C1010.19 269.782 1014.46 263.342 1021 262.019L1022.47 261.722C1029.01 260.399 1035.44 264.674 1036.76 271.223L1038.31 278.91C1039.63 285.459 1035.36 291.9 1028.83 293.223Z" fill="#ED7D2B"/>
<path d="M1017.4 265.537C1016.41 263.939 1014.97 251.078 1018.9 240.837C1020.8 235.887 1023.87 233.065 1027.72 231.159C1029.11 230.471 1030.67 230.103 1032.26 230.103L1036.13 230.161C1023.38 235.018 1020.43 261.003 1021.42 263.775C1021.39 263.689 1021.35 263.627 1021.32 263.582L1017.4 265.537Z" fill="#ED7D2B"/>
<path d="M1025.37 285.696L1024.64 285.844C1021.38 286.503 1018.18 284.373 1017.52 281.11L1016.75 277.28C1016.09 274.017 1018.22 270.809 1021.47 270.149L1022.21 270.001C1025.46 269.342 1028.67 271.472 1029.33 274.735L1030.1 278.565C1030.76 281.828 1028.63 285.037 1025.37 285.696Z" fill="#F99746"/>
<path d="M996.414 449.644C996.414 449.644 1004.41 425.49 983.322 388.458L991.176 378.632C991.176 378.632 1005.08 418.074 1022.46 429.575C1039.8 441.05 1060.21 438.654 1062.67 449.774L996.414 449.644Z" fill="#ED7D2B"/>
<path d="M997.099 327.028C997.099 327.028 982.8 328.275 973.225 345.214C963.649 362.153 945.472 425.454 945.472 449.644H1022C1022 449.644 1023.49 443.058 1021.1 437.065L973.744 427.914C973.744 427.914 1002.25 385.526 1002.55 367.247C1002.85 348.969 997.099 327.028 997.099 327.028Z" fill="#F99746"/>
<path d="M1022.46 441.86C1022.46 441.86 1037.37 440.399 1039.84 441.073C1042.31 441.747 1049.38 444.669 1050.95 445.681C1052.52 446.692 1055.55 449.644 1055.55 449.644C1055.55 449.644 1053.64 450.005 1052.52 449.753C1051.4 449.501 1048.03 449.276 1047.13 449.201C1046.23 449.126 1043.02 449.792 1043.02 449.792H1019.9L1022.46 441.86Z" fill="#FFB27D"/>
<path d="M1157.49 449.79H1083.99C1083.99 446.55 1086.61 443.923 1089.85 443.923H1157.49V449.79Z" fill="#233862"/>
<path d="M1270.91 369.629L1243.65 449.791H1129.28L1157.28 369.629H1270.91Z" fill="#233862"/>
<path d="M1270.91 369.629L1243.9 449.049L1243.65 449.791H1130.95L1158.95 369.629H1270.91Z" fill="#2B478B"/>
<path d="M1211.32 408.969C1210.61 412.032 1207.56 414.515 1204.5 414.515C1201.44 414.515 1199.54 412.032 1200.24 408.969C1200.95 405.907 1204 403.424 1207.06 403.424C1210.12 403.424 1212.02 405.907 1211.32 408.969Z" fill="#F99746"/>
<path d="M1270.91 369.629L1243.9 449.049H1192.12L1255.26 369.629H1270.91Z" fill="#233862"/>
</svg>
