<svg width="44" height="56" viewBox="0 0 44 56" fill="none" xmlns="http://www.w3.org/2000/svg">
<path d="M21.5398 54.5984C31.9465 54.5984 40.3828 42.8136 40.3828 28.2764C40.3828 13.7392 31.9465 1.95441 21.5398 1.95441C11.1331 1.95441 2.69678 13.7392 2.69678 28.2764C2.69678 42.8136 11.1331 54.5984 21.5398 54.5984Z" fill="#FFE6CF"/>
<path d="M21.8629 0.30542C10.0049 0.30542 0.35791 12.7924 0.35791 28.1404C0.35791 43.4884 10.0049 55.9744 21.8629 55.9744C33.7209 55.9744 43.3679 43.4874 43.3679 28.1404C43.3679 12.7924 33.7209 0.30542 21.8629 0.30542ZM4.92291 28.1404C4.92291 19.8634 8.08893 12.5934 12.8429 8.47342C13.9879 7.48142 15.6409 8.82241 14.9839 10.1874C14.1099 12.0014 13.4869 13.9254 13.1669 15.8854C12.3589 20.8274 13.5099 25.4094 16.4079 28.7884L17.4959 30.0464C21.2489 34.3654 25.5019 39.2614 25.1329 44.1874C25.1309 44.2124 25.1289 44.2364 25.1269 44.2614C24.6969 49.3544 18.7249 51.8864 14.4739 49.0494C8.82491 45.2794 4.92291 37.3314 4.92291 28.1404ZM30.7809 47.8954C30.0769 48.4954 29.0139 47.7904 29.2639 46.8994C29.4829 46.1194 29.6249 45.3294 29.6849 44.5284C30.1959 37.7044 25.0649 31.7984 20.9419 27.0524L19.8729 25.8174C17.8669 23.4784 17.0859 20.2124 17.6719 16.6224C18.2569 13.0434 20.1289 9.62942 22.7749 7.08942C24.0989 5.81842 26.1229 5.50542 27.7569 6.34042C34.1999 9.63442 38.8039 18.1574 38.8039 28.1414C38.8029 36.4764 35.5909 43.7894 30.7809 47.8954Z" fill="#4E3D33"/>
</svg>
