<svg width="44" height="56" viewBox="0 0 44 56" fill="none" xmlns="http://www.w3.org/2000/svg">
<path d="M21.8713 54.5984C32.278 54.5984 40.7144 42.8136 40.7144 28.2764C40.7144 13.7392 32.278 1.95441 21.8713 1.95441C11.4646 1.95441 3.02832 13.7392 3.02832 28.2764C3.02832 42.8136 11.4646 54.5984 21.8713 54.5984Z" fill="#4E3D33"/>
<path d="M22.1945 0.30542C10.3365 0.30542 0.689453 12.7924 0.689453 28.1404C0.689453 43.4884 10.3365 55.9744 22.1945 55.9744C34.0525 55.9744 43.6995 43.4874 43.6995 28.1404C43.7005 12.7924 34.0525 0.30542 22.1945 0.30542ZM5.25446 28.1404C5.25446 19.8634 8.42044 12.5934 13.1744 8.47342C14.3194 7.48142 15.9725 8.82241 15.3155 10.1874C14.4415 12.0014 13.8185 13.9254 13.4985 15.8854C12.6905 20.8274 13.8414 25.4094 16.7394 28.7884L17.8275 30.0464C21.5805 34.3654 25.8335 39.2614 25.4645 44.1874C25.4625 44.2124 25.4605 44.2364 25.4585 44.2614C25.0285 49.3544 19.0565 51.8864 14.8055 49.0494C9.15748 45.2794 5.25446 37.3314 5.25446 28.1404ZM31.1135 47.8954C30.4095 48.4954 29.3465 47.7904 29.5965 46.8994C29.8155 46.1194 29.9575 45.3294 30.0175 44.5284C30.5285 37.7044 25.3975 31.7984 21.2745 27.0524L20.2054 25.8174C18.1994 23.4784 17.4185 20.2124 18.0045 16.6224C18.5895 13.0434 20.4615 9.62942 23.1075 7.08942C24.4315 5.81842 26.4555 5.50542 28.0895 6.34042C34.5325 9.63442 39.1365 18.1574 39.1365 28.1414C39.1345 36.4764 35.9235 43.7894 31.1135 47.8954Z" fill="#33251F"/>
</svg>
