<svg width="44" height="56" viewBox="0 0 44 56" fill="none" xmlns="http://www.w3.org/2000/svg">
<path d="M22.1228 54.5984C32.5295 54.5984 40.9658 42.8136 40.9658 28.2764C40.9658 13.7392 32.5295 1.95441 22.1228 1.95441C11.7161 1.95441 3.27979 13.7392 3.27979 28.2764C3.27979 42.8136 11.7161 54.5984 22.1228 54.5984Z" fill="#EFCAAC"/>
<path d="M22.4459 0.30542C10.5879 0.30542 0.940918 12.7924 0.940918 28.1404C0.940918 43.4884 10.5879 55.9744 22.4459 55.9744C34.3039 55.9744 43.9509 43.4874 43.9509 28.1404C43.9519 12.7924 34.3039 0.30542 22.4459 0.30542ZM5.50592 28.1404C5.50592 19.8634 8.6719 12.5934 13.4259 8.47342C14.5709 7.48142 16.2239 8.82241 15.5669 10.1874C14.6929 12.0014 14.0699 13.9254 13.7499 15.8854C12.9419 20.8274 14.0929 25.4094 16.9909 28.7884L18.0789 30.0464C21.8319 34.3654 26.0849 39.2614 25.7159 44.1874C25.7139 44.2124 25.7119 44.2364 25.7099 44.2614C25.2799 49.3544 19.3079 51.8864 15.0569 49.0494C9.40892 45.2794 5.50592 37.3314 5.50592 28.1404ZM31.3649 47.8954C30.6609 48.4954 29.5979 47.7904 29.8479 46.8994C30.0669 46.1194 30.2089 45.3294 30.2689 44.5284C30.7799 37.7044 25.6489 31.7984 21.5259 27.0524L20.4569 25.8174C18.4509 23.4784 17.6689 20.2124 18.2559 16.6224C18.8409 13.0434 20.7129 9.62942 23.3589 7.08942C24.6829 5.81842 26.7069 5.50542 28.3409 6.34042C34.7839 9.63442 39.3879 18.1574 39.3879 28.1414C39.3859 36.4764 36.1749 43.7894 31.3649 47.8954Z" fill="#4E3D33"/>
</svg>
