<svg width="44" height="56" viewBox="0 0 44 56" fill="none" xmlns="http://www.w3.org/2000/svg">
<path d="M21.2883 54.5984C31.695 54.5984 40.1313 42.8136 40.1313 28.2764C40.1313 13.7392 31.695 1.95441 21.2883 1.95441C10.8816 1.95441 2.44531 13.7392 2.44531 28.2764C2.44531 42.8136 10.8816 54.5984 21.2883 54.5984Z" fill="#775140"/>
<path d="M21.6114 0.30542C9.75339 0.30542 0.106445 12.7924 0.106445 28.1404C0.106445 43.4884 9.75339 55.9744 21.6114 55.9744C33.4694 55.9744 43.1164 43.4874 43.1164 28.1404C43.1164 12.7924 33.4694 0.30542 21.6114 0.30542ZM4.67145 28.1404C4.67145 19.8634 7.83743 12.5934 12.5914 8.47342C13.7364 7.48142 15.3894 8.82241 14.7324 10.1874C13.8584 12.0014 13.2354 13.9254 12.9154 15.8854C12.1074 20.8274 13.2584 25.4094 16.1564 28.7884L17.2444 30.0464C20.9974 34.3654 25.2504 39.2614 24.8814 44.1874C24.8794 44.2124 24.8774 44.2364 24.8754 44.2614C24.4454 49.3544 18.4734 51.8864 14.2224 49.0494C8.57341 45.2794 4.67145 37.3314 4.67145 28.1404ZM30.5294 47.8954C29.8264 48.4954 28.7624 47.7904 29.0124 46.8994C29.2314 46.1194 29.3734 45.3294 29.4324 44.5284C29.9434 37.7044 24.8124 31.7984 20.6894 27.0524L19.6204 25.8174C17.6144 23.4784 16.8334 20.2124 17.4194 16.6224C18.0044 13.0434 19.8764 9.62942 22.5224 7.08942C23.8464 5.81842 25.8704 5.50542 27.5044 6.34042C33.9474 9.63442 38.5514 18.1574 38.5514 28.1414C38.5514 36.4764 35.3394 43.7894 30.5294 47.8954Z" fill="#4E3D33"/>
</svg>
