<svg width="44" height="56" viewBox="0 0 44 56" fill="none" xmlns="http://www.w3.org/2000/svg">
<path d="M21.7053 54.5984C32.112 54.5984 40.5483 42.8136 40.5483 28.2764C40.5483 13.7392 32.112 1.95441 21.7053 1.95441C11.2986 1.95441 2.8623 13.7392 2.8623 28.2764C2.8623 42.8136 11.2986 54.5984 21.7053 54.5984Z" fill="#A57667"/>
<path d="M22.0284 0.30542C10.1704 0.30542 0.523438 12.7924 0.523438 28.1404C0.523438 43.4884 10.1704 55.9744 22.0284 55.9744C33.8864 55.9744 43.5334 43.4874 43.5334 28.1404C43.5334 12.7924 33.8864 0.30542 22.0284 0.30542ZM5.0874 28.1404C5.0874 19.8634 8.25345 12.5934 13.0074 8.47342C14.1524 7.48142 15.8054 8.82241 15.1484 10.1874C14.2744 12.0014 13.6514 13.9254 13.3314 15.8854C12.5234 20.8274 13.6744 25.4094 16.5724 28.7884L17.6604 30.0464C21.4134 34.3654 25.6664 39.2614 25.2974 44.1874C25.2954 44.2124 25.2934 44.2364 25.2914 44.2614C24.8614 49.3544 18.8894 51.8864 14.6384 49.0494C8.99043 45.2794 5.0874 37.3314 5.0874 28.1404ZM30.9464 47.8954C30.2434 48.4954 29.1794 47.7904 29.4294 46.8994C29.6484 46.1194 29.7904 45.3294 29.8504 44.5284C30.3614 37.7044 25.2304 31.7984 21.1074 27.0524L20.0385 25.8174C18.0325 23.4784 17.2514 20.2124 17.8374 16.6224C18.4224 13.0434 20.2944 9.62942 22.9404 7.08942C24.2644 5.81842 26.2884 5.50542 27.9224 6.34042C34.3654 9.63442 38.9694 18.1574 38.9694 28.1414C38.9684 36.4764 35.7564 43.7894 30.9464 47.8954Z" fill="#4E3D33"/>
</svg>
