<svg width="250" height="250" viewBox="0 0 250 250" fill="none" xmlns="http://www.w3.org/2000/svg">
<path d="M116.014 182.864H68.1759L63.7148 194.408H76.6324C76.6324 194.408 82.9777 191.883 92.1276 191.883C101.277 191.883 107.557 194.408 107.557 194.408H120.475L116.014 182.864Z" fill="#CE903E"/>
<path d="M76.5427 182.864V194.408H76.6324C76.6324 194.408 82.9778 191.883 92.1276 191.883C101.277 191.883 107.557 194.408 107.557 194.408H107.646V182.864H76.5427Z" fill="#7C3924"/>
<path opacity="0.2" d="M116.014 182.864H68.176L68.1243 182.997C73.2847 187.821 79.8854 191.103 87.2078 192.125C88.729 191.975 90.3762 191.882 92.1276 191.882C93.8671 191.882 95.5013 191.974 97.0096 192.121C104.321 191.094 110.911 187.814 116.065 182.996L116.014 182.864Z" fill="#8E260E"/>
<path d="M68.5054 186.351L65.8743 192.845H72.4525V189.268C72.4525 189.268 70.1051 188.14 68.5054 186.351Z" fill="#DB9D4B"/>
<path d="M115.795 186.351L118.427 192.845H111.848V189.268C111.848 189.268 114.196 188.14 115.795 186.351Z" fill="#DB9D4B"/>
<path d="M126.671 161.035C130.376 141.838 117.901 123.257 98.8058 119.532C79.7111 115.807 61.228 128.349 57.5226 147.545C53.8173 166.741 66.2928 185.323 85.3876 189.048C104.482 192.773 122.965 180.231 126.671 161.035Z" fill="#BF8237"/>
<path opacity="0.4" d="M60.2429 139.186L74.366 146.07L86.0875 133.925L80.9693 120.708C71.8117 123.773 64.3254 130.508 60.2429 139.186Z" fill="#BC9139"/>
<path d="M92.0189 156.144L91.4463 157.494V189.691C91.6627 189.695 91.8775 189.707 92.0957 189.707C92.313 189.707 92.5277 189.695 92.7442 189.691V158.341L92.0189 156.144Z" fill="#A8652D"/>
<path d="M92.1708 152.459L92.7434 151.108V118.912C92.527 118.908 92.3122 118.895 92.0949 118.895C91.8776 118.895 91.6629 118.908 91.4456 118.912V150.26L92.1708 152.459Z" fill="#A8652D"/>
<path d="M92.0187 156.144L91.8023 155.487L90.2517 156.982L77.686 186.607C78.0801 186.785 78.4768 186.957 78.8787 187.12L91.4453 157.494L92.0187 156.144Z" fill="#A8652D"/>
<path d="M92.1707 152.459L92.3871 153.115L93.9376 151.621L106.503 121.996C106.109 121.818 105.712 121.645 105.311 121.482L92.7441 151.109L92.1707 152.459Z" fill="#A8652D"/>
<path d="M92.387 153.115L92.4974 153.451L94.8353 152.562L117.95 130.269C117.655 129.95 117.36 129.633 117.054 129.325L93.9375 151.621L92.387 153.115Z" fill="#A8652D"/>
<path d="M91.8026 155.487L91.6921 155.152L89.3542 156.04L66.24 178.334C66.5341 178.653 66.8307 178.97 67.1351 179.278L90.252 156.982L91.8026 155.487Z" fill="#A8652D"/>
<path d="M92.4985 153.451L92.5701 153.668L95.2952 153.782L125.265 142.387C125.119 141.976 124.961 141.572 124.801 141.168L94.8364 152.561L92.4985 153.451Z" fill="#A8652D"/>
<path d="M91.692 155.152L91.6205 154.934L88.8953 154.821L58.926 166.216C59.0718 166.627 59.2296 167.031 59.39 167.435L89.3541 156.04L91.692 155.152Z" fill="#A8652D"/>
<path d="M92.5701 153.669L92.6244 153.832L95.2417 155.086L127.246 156.421C127.271 155.989 127.284 155.553 127.295 155.117L95.296 153.782L92.5701 153.669Z" fill="#A8652D"/>
<path d="M91.6196 154.934L91.5652 154.77L88.948 153.517L56.9434 152.182C56.9184 152.614 56.9055 153.049 56.896 153.486L88.8945 154.821L91.6196 154.934Z" fill="#A8652D"/>
<path d="M91.5663 154.77L91.5206 154.632L89.5061 152.339L60.5837 138.489C60.3905 138.877 60.206 139.271 60.0266 139.667L88.9481 153.517L91.5663 154.77Z" fill="#A8652D"/>
<path d="M92.6233 153.832L92.6681 153.97L94.6826 156.264L123.605 170.114C123.798 169.725 123.983 169.332 124.162 168.936L95.2406 155.086L92.6233 153.832Z" fill="#A8652D"/>
<path d="M91.5202 154.633L90.4793 151.476L69.2838 127.336C68.9544 127.618 68.6267 127.902 68.3076 128.195L89.5066 152.339L91.5202 154.633Z" fill="#A8652D"/>
<path d="M92.6692 153.969L93.7101 157.127L114.906 181.267C115.236 180.985 115.564 180.7 115.883 180.407L94.6837 156.264L92.6692 153.969Z" fill="#A8652D"/>
<path d="M91.5205 154.633L91.5662 154.771L91.6205 154.935L91.6921 155.153L91.8025 155.488L92.0189 156.145L92.7442 158.342L102.563 188.117C102.977 187.988 103.385 187.843 103.793 187.699L93.7109 157.127L92.67 153.969L92.6252 153.831L92.5709 153.668L92.4993 153.45L92.3889 153.115L92.1724 152.458L91.4472 150.26L81.6282 120.485C81.2142 120.614 80.8063 120.759 80.3984 120.902L90.4805 151.475L91.5205 154.633Z" fill="#A8652D"/>
<path d="M119.372 171.558C128.845 156.409 124.309 136.408 109.24 126.885C94.1707 117.362 74.2756 121.923 64.8028 137.072C55.3299 152.221 59.8665 172.222 74.9355 181.745C90.0045 191.268 109.9 186.708 119.372 171.558Z" fill="#6B2E1B"/>
<g opacity="0.2">
<path d="M92.0948 174.437C73.5675 174.437 58.3931 164.35 56.9926 151.544C56.9228 152.455 56.8762 153.372 56.8762 154.301C56.8762 173.856 72.6439 189.707 92.0948 189.707C111.546 189.707 127.313 173.856 127.313 154.301C127.313 153.373 127.267 152.456 127.197 151.544C125.796 164.35 110.622 174.437 92.0948 174.437Z" fill="#8E260E"/>
</g>
<g opacity="0.2">
<path d="M92.0948 174.437C73.5675 174.437 58.3931 164.35 56.9926 151.544C56.9228 152.455 56.8762 153.372 56.8762 154.301C56.8762 173.856 72.6439 189.707 92.0948 189.707C111.546 189.707 127.313 173.856 127.313 154.301C127.313 153.373 127.267 152.456 127.197 151.544C125.796 164.35 110.622 174.437 92.0948 174.437Z" fill="#8E260E"/>
</g>
<path d="M121.405 156.716C122.752 140.445 110.722 126.158 94.5368 124.804C78.3515 123.451 64.1392 135.544 62.7929 151.815C61.4466 168.086 73.4761 182.373 89.6614 183.727C105.847 185.08 120.059 172.987 121.405 156.716Z" fill="#BF8237"/>
<path opacity="0.15" d="M119.794 156.681C121.095 141.306 109.753 127.782 94.4594 126.473C79.1661 125.165 65.7134 136.568 64.4118 151.942C63.1103 167.317 74.4528 180.841 89.7461 182.15C105.039 183.458 118.492 172.055 119.794 156.681Z" fill="#8E260E"/>
<path d="M69.5693 137.946V170.657C69.9816 171.23 70.4136 171.786 70.8672 172.325V136.278C70.4136 136.816 69.9816 137.373 69.5693 137.946Z" fill="#A8652D"/>
<path d="M80.5081 128.908V179.695C80.9349 179.891 81.3679 180.078 81.8059 180.254V128.349C81.367 128.525 80.9349 128.71 80.5081 128.908Z" fill="#A8652D"/>
<path d="M92.0949 126.363C91.8767 126.363 91.6629 126.374 91.4456 126.379V182.224C91.662 182.229 91.8767 182.24 92.0949 182.24C92.3122 182.24 92.527 182.229 92.7434 182.224V126.379C92.5278 126.374 92.3131 126.363 92.0949 126.363Z" fill="#A8652D"/>
<path d="M102.385 128.349V180.254C102.823 180.078 103.256 179.891 103.683 179.695V128.908C103.255 128.71 102.823 128.525 102.385 128.349Z" fill="#A8652D"/>
<path d="M114.62 170.657V137.946C114.208 137.373 113.776 136.816 113.322 136.277V172.325C113.776 171.786 114.208 171.229 114.62 170.657Z" fill="#A8652D"/>
<path d="M60.7283 146.867L62.2736 150.42C64.17 135.556 76.7935 124.066 92.0946 124.066C94.6559 124.066 97.1413 124.39 99.5145 124.995L98.4435 122.533C96.391 122.121 94.2687 121.901 92.0946 121.901C76.8409 121.901 64.0717 132.558 60.7283 146.867Z" fill="#7C3924"/>
<path opacity="0.2" d="M92.0947 134.299C106.103 134.299 117.685 144.72 119.602 158.269C119.786 156.972 119.886 155.649 119.886 154.301C119.886 138.871 107.443 126.363 92.0947 126.363C76.7461 126.363 64.3037 138.871 64.3037 154.301C64.3037 155.649 64.4046 156.972 64.5874 158.269C66.5045 144.72 78.0871 134.299 92.0947 134.299Z" fill="#8E260E"/>
<path opacity="0.15" d="M86.6326 177.225C95.5204 177.225 102.725 169.981 102.725 161.046C102.725 152.111 95.5204 144.868 86.6326 144.868C77.7448 144.868 70.5398 152.111 70.5398 161.046C70.5398 169.981 77.7448 177.225 86.6326 177.225Z" fill="#BC9139"/>
<path d="M186.499 182.864H138.661L134.2 194.408H147.117C147.117 194.408 153.463 191.883 162.612 191.883C171.762 191.883 178.042 194.408 178.042 194.408H190.96L186.499 182.864Z" fill="#CE903E"/>
<path d="M147.029 182.864V194.408H147.118C147.118 194.408 153.464 191.883 162.613 191.883C171.763 191.883 178.043 194.408 178.043 194.408H178.132V182.864H147.029Z" fill="#7C3924"/>
<path opacity="0.2" d="M186.499 182.864H138.661L138.609 182.997C143.77 187.821 150.37 191.103 157.693 192.125C159.214 191.975 160.861 191.882 162.613 191.882C164.352 191.882 165.986 191.974 167.494 192.121C174.806 191.094 181.396 187.814 186.549 182.996L186.499 182.864Z" fill="#8E260E"/>
<path d="M138.991 186.351L136.36 192.845H142.938V189.268C142.938 189.268 140.591 188.14 138.991 186.351Z" fill="#DB9D4B"/>
<path d="M186.28 186.351L188.911 192.845H182.333V189.268C182.333 189.268 184.681 188.14 186.28 186.351Z" fill="#DB9D4B"/>
<path d="M197.165 160.964C200.816 141.758 188.288 123.213 169.184 119.543C150.079 115.873 131.633 128.467 127.982 147.673C124.331 166.879 136.858 185.424 155.963 189.094C175.067 192.765 193.514 180.17 197.165 160.964Z" fill="#BF8237"/>
<path opacity="0.4" d="M130.729 139.186L144.852 146.07L156.573 133.925L151.455 120.708C142.297 123.773 134.81 130.508 130.729 139.186Z" fill="#BC9139"/>
<path d="M162.504 156.144L161.931 157.494V189.691C162.148 189.695 162.362 189.707 162.581 189.707C162.798 189.707 163.013 189.695 163.229 189.691V158.341L162.504 156.144Z" fill="#A8652D"/>
<path d="M162.656 152.459L163.229 151.108V118.912C163.013 118.908 162.798 118.895 162.581 118.895C162.363 118.895 162.148 118.908 161.931 118.912V150.26L162.656 152.459Z" fill="#A8652D"/>
<path d="M162.504 156.144L162.287 155.487L160.737 156.982L148.171 186.607C148.565 186.785 148.963 186.957 149.364 187.12L161.93 157.494L162.504 156.144Z" fill="#A8652D"/>
<path d="M162.656 152.459L162.873 153.115L164.424 151.621L176.989 121.996C176.595 121.818 176.198 121.645 175.797 121.482L163.23 151.109L162.656 152.459Z" fill="#A8652D"/>
<path d="M162.873 153.115L162.983 153.451L165.321 152.562L188.435 130.269C188.141 129.95 187.845 129.633 187.539 129.325L164.422 151.621L162.873 153.115Z" fill="#A8652D"/>
<path d="M162.288 155.487L162.178 155.152L159.839 156.04L136.725 178.334C137.019 178.653 137.315 178.97 137.621 179.278L160.737 156.982L162.288 155.487Z" fill="#A8652D"/>
<path d="M162.983 153.451L163.055 153.668L165.78 153.782L195.748 142.387C195.603 141.976 195.446 141.572 195.285 141.168L165.32 152.561L162.983 153.451Z" fill="#A8652D"/>
<path d="M162.177 155.152L162.105 154.934L159.38 154.821L129.411 166.216C129.557 166.627 129.714 167.031 129.875 167.435L159.839 156.04L162.177 155.152Z" fill="#A8652D"/>
<path d="M163.055 153.669L163.109 153.832L165.726 155.086L197.731 156.421C197.756 155.989 197.769 155.553 197.778 155.117L165.78 153.782L163.055 153.669Z" fill="#A8652D"/>
<path d="M162.105 154.934L162.051 154.77L159.434 153.517L127.429 152.182C127.404 152.614 127.391 153.049 127.382 153.486L159.38 154.821L162.105 154.934Z" fill="#A8652D"/>
<path d="M162.051 154.77L162.006 154.632L159.992 152.339L131.069 138.489C130.876 138.877 130.692 139.271 130.512 139.667L159.434 153.517L162.051 154.77Z" fill="#A8652D"/>
<path d="M163.109 153.832L163.154 153.97L165.168 156.264L194.091 170.114C194.284 169.725 194.469 169.332 194.649 168.936L165.727 155.086L163.109 153.832Z" fill="#A8652D"/>
<path d="M162.006 154.633L160.965 151.476L139.77 127.336C139.44 127.618 139.113 127.902 138.793 128.195L159.992 152.339L162.006 154.633Z" fill="#A8652D"/>
<path d="M163.154 153.969L164.195 157.127L185.391 181.267C185.72 180.985 186.048 180.7 186.367 180.407L165.168 156.264L163.154 153.969Z" fill="#A8652D"/>
<path d="M162.006 154.633L162.051 154.771L162.105 154.935L162.177 155.153L162.287 155.488L162.504 156.145L163.229 158.342L173.048 188.117C173.462 187.988 173.87 187.843 174.278 187.699L164.196 157.127L163.155 153.969L163.11 153.831L163.056 153.668L162.984 153.45L162.874 153.115L162.657 152.458L161.932 150.26L152.113 120.485C151.699 120.614 151.291 120.759 150.884 120.902L160.966 151.475L162.006 154.633Z" fill="#A8652D"/>
<path d="M189.859 171.56C199.331 156.411 194.795 136.41 179.726 126.887C164.657 117.363 144.762 121.924 135.289 137.073C125.816 152.222 130.353 172.223 145.422 181.747C160.491 191.27 180.386 186.709 189.859 171.56Z" fill="#6B2E1B"/>
<g opacity="0.2">
<path d="M162.581 174.437C144.053 174.437 128.879 164.35 127.478 151.544C127.409 152.455 127.362 153.372 127.362 154.301C127.362 173.856 143.13 189.707 162.581 189.707C182.032 189.707 197.799 173.856 197.799 154.301C197.799 153.373 197.753 152.456 197.683 151.544C196.282 164.35 181.107 174.437 162.581 174.437Z" fill="#8E260E"/>
</g>
<g opacity="0.2">
<path d="M162.581 174.437C144.053 174.437 128.879 164.35 127.478 151.544C127.409 152.455 127.362 153.372 127.362 154.301C127.362 173.856 143.13 189.707 162.581 189.707C182.032 189.707 197.799 173.856 197.799 154.301C197.799 153.373 197.753 152.456 197.683 151.544C196.282 164.35 181.107 174.437 162.581 174.437Z" fill="#8E260E"/>
</g>
<path d="M191.888 156.713C193.234 140.442 181.204 126.154 165.019 124.801C148.834 123.447 134.621 135.54 133.275 151.811C131.929 168.082 143.958 182.37 160.144 183.723C176.329 185.077 190.541 172.984 191.888 156.713Z" fill="#BF8237"/>
<path opacity="0.15" d="M190.287 156.59C191.559 141.212 180.191 127.709 164.895 126.43C149.598 125.151 136.167 136.58 134.894 151.958C133.622 167.336 144.99 180.839 160.287 182.118C175.583 183.397 189.015 171.968 190.287 156.59Z" fill="#8E260E"/>
<path d="M140.054 137.946V170.657C140.467 171.23 140.899 171.786 141.352 172.325V136.278C140.9 136.816 140.467 137.373 140.054 137.946Z" fill="#A8652D"/>
<path d="M150.993 128.908V179.695C151.42 179.892 151.853 180.078 152.291 180.254V128.349C151.853 128.525 151.42 128.71 150.993 128.908Z" fill="#A8652D"/>
<path d="M162.581 126.363C162.362 126.363 162.148 126.374 161.931 126.379V182.224C162.148 182.229 162.362 182.24 162.581 182.24C162.798 182.24 163.013 182.229 163.229 182.224V126.379C163.013 126.374 162.798 126.363 162.581 126.363Z" fill="#A8652D"/>
<path d="M172.869 128.349V180.254C173.307 180.078 173.74 179.892 174.167 179.695V128.908C173.74 128.71 173.307 128.525 172.869 128.349Z" fill="#A8652D"/>
<path d="M185.106 170.657V137.946C184.694 137.373 184.262 136.816 183.808 136.277V172.325C184.262 171.786 184.694 171.229 185.106 170.657Z" fill="#A8652D"/>
<path d="M131.214 146.867L132.76 150.42C134.656 135.556 147.28 124.066 162.581 124.066C165.142 124.066 167.627 124.39 170.001 124.995L168.93 122.533C166.876 122.121 164.755 121.901 162.581 121.901C147.327 121.901 134.557 132.558 131.214 146.867Z" fill="#7C3924"/>
<path opacity="0.2" d="M162.581 134.299C176.588 134.299 188.171 144.72 190.088 158.269C190.272 156.972 190.372 155.649 190.372 154.301C190.372 138.871 177.929 126.363 162.581 126.363C147.232 126.363 134.79 138.871 134.79 154.301C134.79 155.649 134.891 156.972 135.074 158.269C136.991 144.72 148.572 134.299 162.581 134.299Z" fill="#8E260E"/>
<path opacity="0.15" d="M157.117 177.225C166.005 177.225 173.21 169.981 173.21 161.046C173.21 152.111 166.005 144.868 157.117 144.868C148.23 144.868 141.025 152.111 141.025 161.046C141.025 169.981 148.23 177.225 157.117 177.225Z" fill="#BC9139"/>
<path d="M151.359 118.45C165.112 104.623 165.112 82.2058 151.359 68.3791C137.605 54.5524 115.306 54.5523 101.552 68.3791C87.7989 82.2058 87.7989 104.623 101.552 118.45C115.306 132.277 137.605 132.277 151.359 118.45Z" fill="#BF8237"/>
<path opacity="0.4" d="M94.6094 78.299L108.733 85.1827L120.454 73.0383L115.336 59.8214C106.177 62.8861 98.691 69.6216 94.6094 78.299Z" fill="#BC9139"/>
<path d="M126.385 95.2568L125.812 96.6076V128.804C126.028 128.808 126.243 128.82 126.461 128.82C126.678 128.82 126.893 128.808 127.109 128.804V97.4546L126.385 95.2568Z" fill="#A8652D"/>
<path d="M126.536 91.5722L127.109 90.2214V58.025C126.893 58.0207 126.678 58.0085 126.461 58.0085C126.243 58.0085 126.028 58.0207 125.812 58.025V89.3744L126.536 91.5722Z" fill="#A8652D"/>
<path d="M126.384 95.2568L126.168 94.6005L124.617 96.0951L112.052 125.72C112.446 125.898 112.843 126.07 113.244 126.233L125.811 96.6066L126.384 95.2568Z" fill="#A8652D"/>
<path d="M126.537 91.5722L126.753 92.2284L128.303 90.7329L140.868 61.1079C140.474 60.9302 140.077 60.7577 139.676 60.5947L127.109 90.2214L126.537 91.5722Z" fill="#A8652D"/>
<path d="M126.753 92.2285L126.863 92.564L129.201 91.6754L152.315 69.3823C152.021 69.0633 151.725 68.7459 151.42 68.4382L128.303 90.7339L126.753 92.2285Z" fill="#A8652D"/>
<path d="M126.168 94.6005L126.058 94.265L123.72 95.1536L100.605 117.447C100.9 117.766 101.196 118.083 101.501 118.391L124.617 96.0951L126.168 94.6005Z" fill="#A8652D"/>
<path d="M126.864 92.564L126.936 92.7816L129.661 92.8952L159.629 81.4998C159.483 81.0888 159.326 80.6848 159.165 80.2808L129.201 91.6745L126.864 92.564Z" fill="#A8652D"/>
<path d="M126.058 94.2649L125.986 94.0473L123.261 93.9338L93.2927 105.329C93.4385 105.74 93.5963 106.144 93.7558 106.548L123.72 95.1545L126.058 94.2649Z" fill="#A8652D"/>
<path d="M126.936 92.7816L126.99 92.9455L129.607 94.1991L161.612 95.5342C161.638 95.1016 161.65 94.6664 161.659 94.2303L129.661 92.8952L126.936 92.7816Z" fill="#A8652D"/>
<path d="M125.986 94.0473L125.932 93.8835L123.315 92.6299L91.3101 91.2947C91.2851 91.7274 91.2722 92.1626 91.2627 92.5986L123.261 93.9338L125.986 94.0473Z" fill="#A8652D"/>
<path d="M125.932 93.8835L125.886 93.7457L123.872 91.4517L94.9492 77.6019C94.756 77.9903 94.5706 78.3831 94.3921 78.7801L123.314 92.6299L125.932 93.8835Z" fill="#A8652D"/>
<path d="M126.99 92.9454L127.035 93.0833L129.049 95.3773L157.971 109.227C158.164 108.839 158.349 108.445 158.528 108.049L129.606 94.1991L126.99 92.9454Z" fill="#A8652D"/>
<path d="M125.886 93.7465L124.845 90.5891L103.65 66.4493C103.32 66.7311 102.993 67.0155 102.674 67.3085L123.873 91.4517L125.886 93.7465Z" fill="#A8652D"/>
<path d="M127.035 93.0825L128.076 96.2399L149.272 120.38C149.602 120.098 149.929 119.814 150.248 119.521L129.049 95.3764L127.035 93.0825Z" fill="#A8652D"/>
<path d="M125.886 93.7465L125.932 93.8844L125.986 94.0482L126.058 94.2659L126.168 94.6014L126.385 95.2577L127.11 97.4554L136.929 127.23C137.343 127.101 137.751 126.957 138.159 126.813L128.076 96.2399L127.035 93.0825L126.99 92.9446L126.936 92.7807L126.864 92.5632L126.754 92.2276L126.537 91.5713L125.813 89.3727L115.994 59.5977C115.58 59.7269 115.172 59.8717 114.764 60.0156L124.846 90.5882L125.886 93.7465Z" fill="#A8652D"/>
<path d="M149.244 116.325C161.83 103.672 161.83 83.1574 149.244 70.5045C136.659 57.8515 116.253 57.8515 103.667 70.5045C91.0806 83.1574 91.0806 103.672 103.667 116.325C116.253 128.978 136.659 128.978 149.244 116.325Z" fill="#6B2E1B"/>
<g opacity="0.2">
<path d="M126.461 113.55C107.933 113.55 92.7589 103.464 91.3584 90.6576C91.2885 91.5679 91.2419 92.486 91.2419 93.4145C91.2419 112.969 107.01 128.82 126.461 128.82C145.911 128.82 161.679 112.969 161.679 93.4145C161.679 92.486 161.633 91.5688 161.563 90.6576C160.162 103.464 144.988 113.55 126.461 113.55Z" fill="#8E260E"/>
</g>
<g opacity="0.2">
<path d="M126.461 113.55C107.933 113.55 92.7589 103.464 91.3584 90.6576C91.2885 91.5679 91.2419 92.486 91.2419 93.4145C91.2419 112.969 107.01 128.82 126.461 128.82C145.911 128.82 161.679 112.969 161.679 93.4145C161.679 92.486 161.633 91.5688 161.563 90.6576C160.162 103.464 144.988 113.55 126.461 113.55Z" fill="#8E260E"/>
</g>
<path d="M126.461 122.976C142.701 122.976 155.866 109.741 155.866 93.4145C155.866 77.088 142.701 63.8528 126.461 63.8528C110.22 63.8528 97.0552 77.088 97.0552 93.4145C97.0552 109.741 110.22 122.976 126.461 122.976Z" fill="#BF8237"/>
<path opacity="0.15" d="M126.461 121.353C141.809 121.353 154.252 108.845 154.252 93.4145C154.252 77.9843 141.809 65.4757 126.461 65.4757C111.112 65.4757 98.6697 77.9843 98.6697 93.4145C98.6697 108.845 111.112 121.353 126.461 121.353Z" fill="#8E260E"/>
<path d="M103.935 77.0592V109.77C104.347 110.343 104.779 110.899 105.233 111.439V75.3912C104.779 75.9296 104.347 76.4861 103.935 77.0592Z" fill="#A8652D"/>
<path d="M114.874 68.0212V118.808C115.3 119.005 115.733 119.191 116.171 119.367V67.462C115.733 67.638 115.3 67.8235 114.874 68.0212Z" fill="#A8652D"/>
<path d="M126.46 65.4757C126.243 65.4757 126.028 65.487 125.812 65.4922V121.337C126.028 121.342 126.243 121.353 126.46 121.353C126.678 121.353 126.892 121.342 127.109 121.337V65.4922C126.893 65.487 126.678 65.4757 126.46 65.4757Z" fill="#A8652D"/>
<path d="M136.75 67.462V119.367C137.188 119.191 137.621 119.005 138.048 118.808V68.0212C137.621 67.8235 137.188 67.638 136.75 67.462Z" fill="#A8652D"/>
<path d="M148.986 109.77V77.0592C148.573 76.4862 148.141 75.9296 147.688 75.3903V111.438C148.141 110.899 148.573 110.342 148.986 109.77Z" fill="#A8652D"/>
<path d="M95.094 85.9803L96.6394 89.5323C98.5357 74.6682 111.159 63.1783 126.46 63.1783C129.022 63.1783 131.507 63.5025 133.88 64.1077L132.809 61.6455C130.756 61.2328 128.634 61.0135 126.46 61.0135C111.207 61.0144 98.4374 71.6711 95.094 85.9803Z" fill="#7C3924"/>
<path opacity="0.2" d="M126.461 73.4119C140.468 73.4119 152.051 83.8328 153.968 97.3826C154.152 96.0856 154.252 94.7626 154.252 93.4145C154.252 77.9843 141.809 65.4757 126.461 65.4757C111.112 65.4757 98.6697 77.9843 98.6697 93.4145C98.6697 94.7626 98.7706 96.0856 98.9534 97.3826C100.871 83.8328 112.453 73.4119 126.461 73.4119Z" fill="#8E260E"/>
<path opacity="0.15" d="M136.689 103.815C138.692 95.1092 133.295 86.4201 124.636 84.407C115.977 82.3939 107.333 87.8192 105.331 96.5246C103.329 105.23 108.725 113.919 117.385 115.932C126.044 117.945 134.687 112.52 136.689 103.815Z" fill="#BC9139"/>
<path d="M68.0186 78.25C79.2849 78.25 88.418 69.0683 88.418 57.742C88.418 46.4158 79.2849 37.2341 68.0186 37.2341C56.7523 37.2341 47.6191 46.4158 47.6191 57.742C47.6191 69.0683 56.7523 78.25 68.0186 78.25Z" fill="#9B4A00"/>
<path d="M68.0182 75.5954C77.8262 75.5954 85.7772 67.6022 85.7772 57.742C85.7772 47.8819 77.8262 39.8886 68.0182 39.8886C58.2102 39.8886 50.2593 47.8819 50.2593 57.742C50.2593 67.6022 58.2102 75.5954 68.0182 75.5954Z" fill="#FFEEE0"/>
<path d="M85.0407 57.742C85.0407 48.2908 77.4198 40.6293 68.0186 40.6293C67.9994 40.6293 67.9811 40.6324 67.9619 40.6324V57.5935L78.0726 71.5276C82.2909 68.4142 85.0407 63.4062 85.0407 57.742Z" fill="#EFB18F"/>
<path d="M69.0974 57.742C69.0974 58.3413 68.6147 58.8266 68.0186 58.8266C67.4224 58.8266 66.9397 58.3413 66.9397 57.742C66.9397 57.1427 67.4224 56.6574 68.0186 56.6574C68.6147 56.6574 69.0974 57.1427 69.0974 57.742Z" fill="#9B4A00"/>
<path d="M67.3939 58.2263L68.2563 57.4439C68.2563 57.4439 68.1571 57.4195 66.5539 55.5474C63.4479 51.9211 57.4604 45.5813 57.1973 45.8204C56.9331 46.0595 62.5249 52.7859 65.6916 56.3287C67.3282 58.1612 67.3939 58.2263 67.3939 58.2263Z" fill="#9B4A00"/>
<path d="M67.8162 57.3167L68.4973 58.0015C68.4973 58.0015 68.4993 57.9323 69.5549 56.9382C71.6013 55.0112 75.091 51.2425 74.8825 51.0329C74.674 50.8233 70.8524 54.2755 68.8738 56.2535C67.8526 57.275 67.8162 57.3167 67.8162 57.3167Z" fill="#9B4A00"/>
<path d="M68.6127 41.8035C68.6127 42.1332 68.3465 42.4007 68.0186 42.4007C67.6907 42.4007 67.4246 42.1332 67.4246 41.8035C67.4246 41.4738 67.6907 41.2062 68.0186 41.2062C68.3465 41.2062 68.6127 41.4738 68.6127 41.8035Z" fill="#9B4A00"/>
<path d="M68.6127 73.6806C68.6127 74.0102 68.3465 74.2778 68.0186 74.2778C67.6907 74.2778 67.4246 74.0102 67.4246 73.6806C67.4246 73.3509 67.6907 73.0833 68.0186 73.0833C68.3465 73.0833 68.6127 73.3509 68.6127 73.6806Z" fill="#9B4A00"/>
<path d="M83.8729 58.3393C83.545 58.3393 83.2788 58.0717 83.2788 57.742C83.2788 57.4124 83.545 57.1448 83.8729 57.1448C84.2008 57.1448 84.467 57.4124 84.467 57.742C84.467 58.0717 84.2008 58.3393 83.8729 58.3393Z" fill="#9B4A00"/>
<path d="M52.1642 58.3393C51.8363 58.3393 51.5701 58.0717 51.5701 57.742C51.5701 57.4124 51.8363 57.1448 52.1642 57.1448C52.4921 57.1448 52.7582 57.4124 52.7582 57.742C52.7582 58.0717 52.4931 58.3393 52.1642 58.3393Z" fill="#9B4A00"/>
<path opacity="0.3" d="M81.0976 45.6953C81.9377 47.7709 82.4103 50.0368 82.4103 52.4157C82.4103 62.2759 74.4594 70.2691 64.6514 70.2691C59.4685 70.2691 54.818 68.0225 51.5723 64.4624C54.2138 70.9894 60.5767 75.5955 68.0185 75.5955C77.8266 75.5955 85.7775 67.6023 85.7775 57.7421C85.7775 53.0933 83.9942 48.8728 81.0976 45.6953Z" fill="#DFBCB9"/>
<g opacity="0.3">
<path d="M52.1814 57.6108C53.6803 58.0839 55.2743 58.3403 56.928 58.3403C65.634 58.3403 72.6942 51.2791 72.765 42.5442C71.2661 42.0711 69.6721 41.8147 68.0184 41.8147C59.3125 41.8137 52.2522 48.8749 52.1814 57.6108Z" fill="#F9E8CA"/>
</g>
</svg>
