<svg width="250" height="250" viewBox="0 0 250 250" fill="none" xmlns="http://www.w3.org/2000/svg">
<path d="M171.332 69.4334H79.1366C79.1366 69.4334 76.0581 103.789 76.0581 142.136C76.0581 164.506 78.2605 180.483 78.2605 180.483H172.209C172.209 180.483 174.411 162.228 174.411 142.136C174.41 103.746 171.332 69.4334 171.332 69.4334Z" fill="#BF8237"/>
<g opacity="0.2">
<path d="M113.478 134.626C113.478 102.276 113.979 75.8659 114.197 69.4335H104.611C104.123 75.7451 103.007 101.457 103.007 134.609C103.007 165.576 103.981 176.5 104.507 180.483H114.153C113.919 176.353 113.478 164.99 113.478 134.626Z" fill="#BF8237"/>
<path d="M94.4206 69.4335H85.2684C84.173 75.8012 82.2163 101.92 82.2163 135.094C82.2163 165.977 83.9137 176.583 85.0312 180.484H94.2445C93.3347 176.431 91.6594 165.381 91.6594 135.094C91.6594 102.725 93.5719 75.9199 94.4206 69.4335Z" fill="#BF8237"/>
<path d="M135.972 134.626C135.972 101.472 135.459 75.7472 135.237 69.4335H125.846V180.484H135.284C135.525 176.503 135.972 165.591 135.972 134.626Z" fill="#BF8237"/>
<path d="M168.314 135.093C168.314 101.919 166.357 75.8012 165.261 69.4324H156.11C156.959 75.9188 158.872 102.724 158.872 135.093C158.872 165.38 157.196 176.43 156.286 180.483H165.5C166.616 176.582 168.314 165.977 168.314 135.093Z" fill="#BF8237"/>
<path d="M157.79 135.093C157.79 101.919 155.883 75.8012 155.021 69.4324H147.013C147.493 75.8627 148.605 102.259 148.605 134.608C148.605 164.974 147.624 176.349 147.108 180.481H155.213C156.134 176.582 157.79 165.977 157.79 135.093Z" fill="#BF8237"/>
</g>
<path d="M125.368 182.378H93.4294V191.355H125.368V182.378Z" fill="#863D14"/>
<path d="M157.162 182.378H125.224V191.355H157.162V182.378Z" fill="#7A320E"/>
<path d="M125.845 69.4334H124.744V180.484H125.845V69.4334Z" fill="#A8652D"/>
<path d="M166.345 69.4334H165.261C166.357 75.8012 168.313 101.92 168.313 135.094C168.313 165.977 166.616 176.583 165.498 180.484H166.563C167.669 176.431 169.394 165.381 169.394 135.094C169.395 102.725 167.427 75.9199 166.345 69.4334Z" fill="#A8652D"/>
<path d="M156.11 69.4334H155.021C155.881 75.8012 157.789 101.92 157.789 135.094C157.789 165.977 156.135 176.583 155.213 180.484H156.285C157.195 176.431 158.87 165.381 158.87 135.094C158.87 102.725 156.958 75.9199 156.11 69.4334Z" fill="#A8652D"/>
<path d="M147.013 69.4334H145.918C146.407 75.745 147.523 101.457 147.523 134.609C147.523 165.576 146.549 176.499 146.023 180.483H147.108C147.624 176.349 148.605 164.974 148.605 134.609C148.605 102.259 147.493 75.8637 147.013 69.4334Z" fill="#A8652D"/>
<path d="M136.334 69.4334H135.237C135.459 75.7471 135.971 101.473 135.971 134.626C135.971 165.591 135.524 176.503 135.284 180.484H136.377C136.611 176.353 137.053 164.99 137.053 134.626C137.053 102.276 136.551 75.8658 136.334 69.4334Z" fill="#A8652D"/>
<path d="M85.2682 69.4334H84.1845C83.1039 75.9199 81.1355 102.725 81.1355 135.094C81.1355 165.381 82.8603 176.431 83.9673 180.484H85.0321C83.9145 176.582 82.2172 165.977 82.2172 135.094C82.2161 101.92 84.1728 75.8012 85.2682 69.4334Z" fill="#A8652D"/>
<path d="M95.5084 69.4334H94.4193C93.5706 75.9199 91.6582 102.725 91.6582 135.094C91.6582 165.381 93.3334 176.431 94.2432 180.484H95.3155C94.393 176.582 92.7388 165.977 92.7388 135.094C92.7409 101.92 94.6481 75.8012 95.5084 69.4334Z" fill="#A8652D"/>
<path d="M104.61 69.4334H103.516C103.036 75.8637 101.924 102.26 101.924 134.609C101.924 164.975 102.904 176.35 103.421 180.483H104.506C103.98 176.499 103.006 165.576 103.006 134.609C103.007 101.456 104.123 75.745 104.61 69.4334Z" fill="#A8652D"/>
<path d="M115.294 69.4334H114.197C113.979 75.8658 113.478 102.276 113.478 134.626C113.478 164.989 113.919 176.352 114.153 180.484H115.247C115.006 176.504 114.559 165.591 114.559 134.626C114.558 101.473 115.071 75.7471 115.294 69.4334Z" fill="#A8652D"/>
<path d="M94.0411 183.607H81.8083V191.355H94.0411V183.607Z" fill="#A8652D"/>
<path d="M168.661 183.607H156.428V191.355H168.661V183.607Z" fill="#A8652D"/>
<path opacity="0.2" d="M94.041 183.607V191.355L125.224 183.607H94.041Z" fill="#6B1F0D"/>
<path opacity="0.2" d="M156.407 183.607V191.355L125.224 183.607H156.407Z" fill="#6B1F0D"/>
<path d="M114.088 65.8998H95.8132V69.585H114.088V65.8998Z" fill="#863D14"/>
<path d="M96.2741 65.8998H88.949V69.585H96.2741V65.8998Z" fill="#A8652D"/>
<path opacity="0.2" d="M96.1633 65.8998V69.585L114.006 65.8998H96.1633Z" fill="#6B1F0D"/>
<path d="M136.382 69.585H154.657V65.8997H136.382V69.585Z" fill="#863D14"/>
<path d="M154.195 69.585H161.52V65.8997H154.195V69.585Z" fill="#A8652D"/>
<path opacity="0.2" d="M154.306 65.8998V69.585L136.464 65.8998H154.306Z" fill="#6B1F0D"/>
<path opacity="0.2" d="M100.807 171.259H143.194C143.194 171.259 145.763 154.289 143.194 76.9957H101.909C101.909 76.9957 95.6917 138.424 100.807 171.259Z" fill="#BC9139"/>
<path d="M77.6956 175.564C78.0182 178.721 78.2607 180.483 78.2607 180.483H172.209C172.209 180.483 172.427 178.67 172.727 175.564H77.6956Z" fill="#6B2E1B"/>
<path d="M173.852 112.353H76.618C76.56 113.966 76.5052 115.607 76.4546 117.272H174.016C173.964 115.607 173.91 113.966 173.852 112.353Z" fill="#6B2E1B"/>
<path d="M171.332 69.4334H79.1367C79.1367 69.4334 78.9796 71.1939 78.7361 74.3523H171.734C171.49 71.1928 171.332 69.4334 171.332 69.4334Z" fill="#6B2E1B"/>
<path d="M172.418 84.0057H78.0516C77.9852 85.0275 77.9167 86.0937 77.8481 87.2034H172.621C172.552 86.0948 172.484 85.0275 172.418 84.0057Z" fill="#6B2E1B"/>
<path d="M173.221 97.8414H77.2484C77.1957 98.8865 77.143 99.9527 77.0913 101.039H173.379C173.326 99.9527 173.274 98.8865 173.221 97.8414Z" fill="#6B2E1B"/>
<path d="M173.763 162.282H76.6443C76.7086 163.39 76.7761 164.457 76.8457 165.48H173.555C173.627 164.451 173.697 163.383 173.763 162.282Z" fill="#6B2E1B"/>
<path d="M141.088 116.042H98.5671L98.7379 113.091H141.015L141.088 116.042Z" fill="#7C3924"/>
<path d="M141.088 179.376H100.234L99.959 176.425H141.016L141.088 179.376Z" fill="#7C3924"/>
<path d="M142.985 73.1229H100.463L100.709 70.1711H142.911L142.985 73.1229Z" fill="#7C3924"/>
<path d="M140.758 100.054H99.0078L99.1048 98.3947H140.758V100.054Z" fill="#7C3924"/>
<path d="M140.758 164.435H99.0078L98.8855 162.774H140.758V164.435Z" fill="#7C3924"/>
<path d="M141.431 86.2199H99.6807L99.7787 84.5601H141.431V86.2199Z" fill="#7C3924"/>
<path d="M166.459 180.484H84.0095V183.681H166.459V180.484Z" fill="#632818"/>
<path d="M147.742 65.1907H102.726V68.6958H147.742V65.1907Z" fill="#768BA5"/>
<path d="M147.036 63.0381H103.432C102.672 63.0381 102.056 63.657 102.056 64.4212H148.412C148.412 63.6581 147.796 63.0381 147.036 63.0381Z" fill="#768BA5"/>
<path d="M148.412 68.5114H102.056V69.4334H148.412V68.5114Z" fill="#5C708E"/>
<path d="M148.412 64.3301H102.056V65.2522H148.412V64.3301Z" fill="#5C708E"/>
<path d="M128.047 59.8405H122.421V63.0381H128.047V59.8405Z" fill="#5C708E"/>
<path d="M117.68 59.8405H110.586V61.1314H117.68V59.8405Z" fill="#768BA5"/>
<path d="M111.564 60.5177H110.586V63.408H111.564V60.5177Z" fill="#768BA5"/>
<path d="M117.681 60.5177H116.703V63.408H117.681V60.5177Z" fill="#768BA5"/>
<path d="M117.68 60.6714H110.586V61.1324H117.68V60.6714Z" fill="#5C708E"/>
<path d="M139.883 59.8405H132.789V61.1314H139.883V59.8405Z" fill="#768BA5"/>
<path d="M133.767 60.5177H132.789V63.408H133.767V60.5177Z" fill="#768BA5"/>
<path d="M139.883 60.5177H138.905V63.408H139.883V60.5177Z" fill="#768BA5"/>
<path d="M139.883 60.6714H132.789V61.1324H139.883V60.6714Z" fill="#5C708E"/>
<path d="M103.154 65.5903V68.0503C103.154 68.0503 125.693 68.2591 125.693 66.9067C125.693 65.5532 103.154 65.5903 103.154 65.5903Z" fill="#86A2BC"/>
<path d="M102.848 64.3301C102.848 64.3301 102.802 63.4387 103.995 63.4387C105.189 63.4387 136.198 63.408 136.198 64.3301H102.848Z" fill="#86A2BC"/>
<path d="M124.615 60.1637H122.734V62.6544H124.615V60.1637Z" fill="#768BA5"/>
<path opacity="0.2" d="M148.413 68.5114H127.849V69.4334H148.413V68.5114Z" fill="#5C708E"/>
<path opacity="0.2" d="M148.413 64.3142H127.849V65.2363H148.413V64.3142Z" fill="#5C708E"/>
<path d="M147.743 65.1907H128.858V68.5114H147.743V65.1907Z" fill="#5C708E"/>
<path opacity="0.2" d="M171.332 69.4334H150.952C151.619 77.4546 154.005 108.541 154.005 142.755C154.005 159.553 152.476 175.104 151.886 180.484H172.208C172.208 180.484 174.41 162.229 174.41 142.137C174.41 103.746 171.332 69.4334 171.332 69.4334Z" fill="#8E260E"/>
<path opacity="0.2" d="M79.1366 69.4334H99.5167C98.8494 77.4546 96.4636 108.541 96.4636 142.755C96.4636 159.553 97.9923 175.104 98.5827 180.484H78.2605C78.2605 180.484 76.0581 162.229 76.0581 142.137C76.0581 103.746 79.1366 69.4334 79.1366 69.4334Z" fill="#8E260E"/>
<path opacity="0.2" d="M136.593 125.235H113.875C111.974 125.235 110.432 126.785 110.432 128.696V157.315C110.432 159.226 111.973 160.776 113.875 160.776H114.801C115.263 161.192 115.868 161.452 116.539 161.452H133.929C134.6 161.452 135.204 161.192 135.668 160.776H136.593C138.494 160.776 140.037 159.227 140.037 157.315V128.696C140.036 126.785 138.494 125.235 136.593 125.235Z" fill="#8E260E"/>
<path d="M136.593 157.732H113.875C111.974 157.732 110.432 156.183 110.432 154.272V125.653C110.432 123.742 111.973 122.192 113.875 122.192H136.593C138.494 122.192 140.037 123.742 140.037 125.653V154.272C140.036 156.183 138.494 157.732 136.593 157.732Z" fill="#5C708E"/>
<path d="M133.93 153.428H116.539C115.092 153.428 113.919 152.248 113.919 150.794V129.13C113.919 127.675 115.093 126.496 116.539 126.496H133.93C135.377 126.496 136.549 127.676 136.549 129.13V150.794C136.549 152.248 135.377 153.428 133.93 153.428Z" fill="#768BA5"/>
<path opacity="0.2" d="M115.326 152.076L125.05 139.47L114.897 127.91L114.225 130.37C114.225 130.37 113.858 152.875 115.326 152.076Z" fill="#5C708E"/>
<path opacity="0.2" d="M134.796 152.076L125.071 139.47L135.225 127.91L135.898 130.37C135.898 130.37 136.265 152.875 134.796 152.076Z" fill="#5C708E"/>
<path d="M133.918 126.495H116.551C115.097 126.495 113.919 127.67 113.919 129.119V150.806C113.919 152.255 115.098 153.429 116.551 153.429H133.918C135.372 153.429 136.549 152.255 136.549 150.806V129.119C136.549 127.67 135.372 126.495 133.918 126.495ZM135.606 149.901C135.606 151.229 134.526 152.305 133.194 152.305H117.275C115.943 152.305 114.863 151.229 114.863 149.901V130.024C114.863 128.696 115.943 127.62 117.275 127.62H133.194C134.526 127.62 135.606 128.696 135.606 130.024V149.901Z" fill="#86A2BC"/>
<path d="M136.593 122.191H113.875C111.974 122.191 110.432 123.741 110.432 125.652V126.297C110.432 124.386 111.973 122.836 113.875 122.836H136.593C138.494 122.836 140.037 124.385 140.037 126.297V125.652C140.036 123.741 138.494 122.191 136.593 122.191Z" fill="#99BBCE"/>
<path opacity="0.2" d="M136.593 157.732H113.875C111.974 157.732 110.432 156.183 110.432 154.272V153.626C110.432 155.537 111.973 157.088 113.875 157.088H136.593C138.494 157.088 140.037 155.538 140.037 153.626V154.272C140.036 156.183 138.494 157.732 136.593 157.732Z" fill="#5C708E"/>
<path d="M113.644 124.897C113.644 125.322 113.301 125.665 112.88 125.665C112.457 125.665 112.115 125.321 112.115 124.897C112.115 124.473 112.458 124.129 112.88 124.129C113.301 124.128 113.644 124.472 113.644 124.897Z" fill="#86A2BC"/>
<path d="M119.057 125.665C119.479 125.665 119.821 125.321 119.821 124.897C119.821 124.473 119.479 124.129 119.057 124.129C118.635 124.129 118.292 124.473 118.292 124.897C118.292 125.321 118.635 125.665 119.057 125.665Z" fill="#86A2BC"/>
<path d="M125.999 124.897C125.999 125.322 125.656 125.665 125.235 125.665C124.812 125.665 124.47 125.321 124.47 124.897C124.47 124.473 124.813 124.129 125.235 124.129C125.656 124.128 125.999 124.472 125.999 124.897Z" fill="#86A2BC"/>
<path d="M132.176 124.897C132.176 125.322 131.833 125.665 131.412 125.665C130.99 125.665 130.647 125.321 130.647 124.897C130.647 124.473 130.99 124.129 131.412 124.129C131.834 124.128 132.176 124.472 132.176 124.897Z" fill="#86A2BC"/>
<path d="M137.59 125.665C138.012 125.665 138.354 125.321 138.354 124.897C138.354 124.473 138.012 124.129 137.59 124.129C137.168 124.129 136.825 124.473 136.825 124.897C136.825 125.321 137.168 125.665 137.59 125.665Z" fill="#86A2BC"/>
<path d="M113.644 154.965C113.644 155.39 113.301 155.733 112.88 155.733C112.457 155.733 112.115 155.389 112.115 154.965C112.115 154.541 112.458 154.196 112.88 154.196C113.301 154.196 113.644 154.541 113.644 154.965Z" fill="#86A2BC"/>
<path d="M119.057 155.733C119.479 155.733 119.821 155.389 119.821 154.965C119.821 154.541 119.479 154.196 119.057 154.196C118.635 154.196 118.292 154.541 118.292 154.965C118.292 155.389 118.635 155.733 119.057 155.733Z" fill="#86A2BC"/>
<path d="M125.999 154.965C125.999 155.39 125.656 155.733 125.235 155.733C124.812 155.733 124.47 155.389 124.47 154.965C124.47 154.541 124.813 154.196 125.235 154.196C125.656 154.196 125.999 154.541 125.999 154.965Z" fill="#86A2BC"/>
<path d="M132.176 154.965C132.176 155.39 131.833 155.733 131.412 155.733C130.99 155.733 130.647 155.389 130.647 154.965C130.647 154.541 130.99 154.196 131.412 154.196C131.834 154.196 132.176 154.541 132.176 154.965Z" fill="#86A2BC"/>
<path d="M137.59 155.733C138.012 155.733 138.354 155.389 138.354 154.965C138.354 154.541 138.012 154.196 137.59 154.196C137.168 154.196 136.825 154.541 136.825 154.965C136.825 155.389 137.168 155.733 137.59 155.733Z" fill="#86A2BC"/>
<path d="M112.023 131.414C112.445 131.414 112.787 131.07 112.787 130.646C112.787 130.221 112.445 129.877 112.023 129.877C111.6 129.877 111.258 130.221 111.258 130.646C111.258 131.07 111.6 131.414 112.023 131.414Z" fill="#86A2BC"/>
<path d="M112.023 137.625C112.445 137.625 112.787 137.281 112.787 136.857C112.787 136.432 112.445 136.088 112.023 136.088C111.6 136.088 111.258 136.432 111.258 136.857C111.258 137.281 111.6 137.625 112.023 137.625Z" fill="#86A2BC"/>
<path d="M112.023 143.835C112.445 143.835 112.787 143.491 112.787 143.067C112.787 142.642 112.445 142.298 112.023 142.298C111.6 142.298 111.258 142.642 111.258 143.067C111.258 143.491 111.6 143.835 112.023 143.835Z" fill="#86A2BC"/>
<path d="M112.023 150.046C112.445 150.046 112.787 149.702 112.787 149.278C112.787 148.853 112.445 148.509 112.023 148.509C111.6 148.509 111.258 148.853 111.258 149.278C111.258 149.702 111.6 150.046 112.023 150.046Z" fill="#86A2BC"/>
<path d="M138.446 131.414C138.023 131.414 137.681 131.07 137.681 130.646C137.681 130.222 138.024 129.877 138.446 129.877C138.868 129.877 139.21 130.222 139.21 130.646C139.21 131.07 138.867 131.414 138.446 131.414Z" fill="#86A2BC"/>
<path d="M138.446 137.625C138.023 137.625 137.681 137.281 137.681 136.857C137.681 136.433 138.024 136.088 138.446 136.088C138.868 136.088 139.21 136.433 139.21 136.857C139.21 137.281 138.867 137.625 138.446 137.625Z" fill="#86A2BC"/>
<path d="M138.446 143.836C138.023 143.836 137.681 143.492 137.681 143.068C137.681 142.644 138.024 142.299 138.446 142.299C138.868 142.299 139.21 142.644 139.21 143.068C139.21 143.492 138.867 143.836 138.446 143.836Z" fill="#86A2BC"/>
<path d="M138.446 150.046C138.023 150.046 137.681 149.701 137.681 149.278C137.681 148.854 138.024 148.509 138.446 148.509C138.868 148.509 139.21 148.854 139.21 149.278C139.21 149.701 138.867 150.046 138.446 150.046Z" fill="#86A2BC"/>
<path d="M133.918 153.428H116.551C115.097 153.428 113.919 152.254 113.919 150.805V155.774C113.919 157.229 115.093 158.407 116.539 158.407H133.93C135.377 158.407 136.549 157.228 136.549 155.774V150.805C136.549 152.254 135.372 153.428 133.918 153.428Z" fill="#768BA5"/>
<path opacity="0.3" d="M136.549 155.775V150.806C136.549 152.255 135.371 153.429 133.918 153.429H116.551C115.097 153.429 113.919 152.255 113.919 150.806V155.775C113.919 156.524 114.235 157.197 114.734 157.677C114.856 156.586 115.199 154.659 116.121 154.659C117.405 154.659 133.369 154.659 134.104 154.659C135.082 154.659 135.51 156.06 135.874 157.527C136.289 157.06 136.549 156.45 136.549 155.775Z" fill="#5C708E"/>
<path d="M136.12 152.235V155.484C136.12 157.219 134.992 157.88 133.6 157.88H116.869C115.478 157.88 114.349 157.117 114.349 155.484V152.235C114.079 151.823 113.919 151.334 113.919 150.805V155.774C113.919 157.229 115.093 158.407 116.539 158.407H133.93C135.377 158.407 136.549 157.228 136.549 155.774V150.805C136.549 151.333 136.39 151.822 136.12 152.235Z" fill="#99BBCE"/>
<path d="M137.376 144.943H113.094V146.357H137.376V144.943Z" fill="#99BBCE"/>
<path d="M137.376 133.567H113.094V134.981H137.376V133.567Z" fill="#99BBCE"/>
<path opacity="0.2" d="M136.55 134.981H113.919V135.964H136.55V134.981Z" fill="#5C708E"/>
<path opacity="0.2" d="M136.55 146.295H113.919V147.279H136.55V146.295Z" fill="#5C708E"/>
<path opacity="0.2" d="M104.132 123.943C104.132 125.981 102.489 127.633 100.462 127.633C98.4361 127.633 96.7925 125.981 96.7925 123.943C96.7925 121.905 98.4351 120.254 100.462 120.254C102.49 120.255 104.132 121.906 104.132 123.943Z" fill="#8E260E"/>
<path d="M104.132 122.376C104.132 124.414 102.489 126.065 100.462 126.065C98.4361 126.065 96.7925 124.414 96.7925 122.376C96.7925 120.339 98.4351 118.686 100.462 118.686C102.49 118.686 104.132 120.339 104.132 122.376Z" fill="#5C708E"/>
<path opacity="0.3" d="M100.463 125.765C102.325 125.765 103.834 124.248 103.834 122.376C103.834 120.504 102.325 118.986 100.463 118.986C98.6006 118.986 97.0911 120.504 97.0911 122.376C97.0911 124.248 98.6006 125.765 100.463 125.765Z" fill="#5C708E"/>
<path d="M103.521 122.376C103.521 124.074 102.152 125.45 100.463 125.45C98.7738 125.45 97.4043 124.074 97.4043 122.376C97.4043 120.678 98.7738 119.301 100.463 119.301C102.153 119.301 103.521 120.678 103.521 122.376Z" fill="#F4E2DC"/>
<path opacity="0.5" d="M98.5026 124.38L102.457 120.404C101.949 119.885 101.245 119.562 100.464 119.562C98.918 119.562 97.6655 120.821 97.6655 122.375C97.6645 123.161 97.986 123.87 98.5026 124.38Z" fill="#F4E2DC"/>
<path d="M100.662 119.793H100.264V120.623H100.662V119.793Z" fill="#665166"/>
<path d="M101.927 121.448L101.685 121.131L102.346 120.63L102.588 120.948L101.927 121.448Z" fill="#665166"/>
<path d="M102.07 122.971L102.173 122.585L102.95 122.801L102.846 123.186L102.07 122.971Z" fill="#665166"/>
<path d="M98.9938 121.448L99.2352 121.131L98.5742 120.63L98.3328 120.948L98.9938 121.448Z" fill="#665166"/>
<path d="M98.8505 122.971L98.7472 122.585L97.9702 122.801L98.0746 123.186L98.8505 122.971Z" fill="#665166"/>
<path d="M100.799 122.376C100.799 122.562 100.648 122.714 100.462 122.714C100.277 122.714 100.126 122.562 100.126 122.376C100.126 122.189 100.277 122.037 100.462 122.037C100.649 122.037 100.799 122.189 100.799 122.376Z" fill="#665166"/>
<path d="M100.631 121.591C100.631 120.997 100.555 120.223 100.462 120.223C100.37 120.223 100.295 120.997 100.295 121.591C100.295 122.186 100.37 122.376 100.462 122.376C100.555 122.376 100.631 122.186 100.631 121.591Z" fill="#665166"/>
</svg>
