<svg width="250" height="250" viewBox="0 0 250 250" fill="none" xmlns="http://www.w3.org/2000/svg">
<path d="M114.836 87.362C114.846 87.3681 114.857 87.3698 114.867 87.3751L121.548 91.0543C121.794 91.1946 122.446 90.0973 122.645 89.7411C122.841 89.3911 123.408 88.2947 123.172 88.1606L116.586 84.3132C116.575 84.3071 116.568 84.2993 116.558 84.2932C114.904 83.3553 114.591 80.0304 111.794 78.4429C109.433 77.1035 100.656 72.1171 98.1998 70.8161C97.3197 70.3502 95.447 73.3624 95.0217 74.1192C94.5972 74.8759 93.0215 78.0127 93.8696 78.5282C96.224 79.9573 104.891 84.867 107.391 86.2856C109.935 87.7286 113.182 86.4241 114.836 87.362Z" fill="#380019"/>
<path d="M114.865 86.9615C116.235 87.7374 118.655 89.0201 120.643 90.1478C120.876 90.2802 121.397 89.412 121.555 89.1299C121.711 88.8521 122.155 87.9786 121.932 87.8523L116.059 84.436C114.645 83.634 114.176 80.4372 111.531 78.9367C109.299 77.6705 100.546 72.6771 98.2249 71.4423C97.415 71.0112 96.1018 72.9906 95.3967 74.2481C94.6907 75.5056 93.6278 77.7515 94.4161 78.227C96.6457 79.5742 105.35 84.5057 107.714 85.8468C110.119 87.2123 113.302 86.0741 114.865 86.9615Z" fill="#450720"/>
<path d="M120.179 90.511L122.001 87.2662C122.046 87.1852 122.148 87.1565 122.229 87.2026L122.924 87.5971C123.004 87.6424 123.032 87.7452 122.987 87.8262L121.165 91.0709C121.12 91.1519 121.018 91.1806 120.937 91.1345L120.243 90.74C120.163 90.6938 120.134 90.592 120.179 90.511Z" fill="#380019"/>
<path d="M97.5734 71.6643C96.5487 72.5073 95.4867 74.2855 94.9028 75.6248C97.8099 77.4118 108.058 83.4868 109.375 84.0955C110.973 84.834 114.202 85.6534 115.181 86.0975C116.162 86.5417 120.519 89.0836 120.519 89.0836L121.202 87.9376C121.202 87.9376 116.685 85.3208 115.79 84.8131C114.391 84.0197 113.645 81.166 111.905 79.6864C111.379 79.3155 97.5734 71.6643 97.5734 71.6643Z" fill="#520E27"/>
<path d="M112.227 79.6516C112.652 79.7222 115.4 83.3988 114.879 84.3419C114.357 85.2851 109.926 83.4319 109.748 83.1245C109.572 82.8171 111.58 79.5445 112.227 79.6516Z" fill="#733C46"/>
<path opacity="0.2" d="M112.293 78.7643C112.136 78.6511 111.969 78.5439 111.793 78.4438C109.432 77.1044 100.655 72.118 98.1988 70.817C97.3196 70.3511 95.5351 73.2031 95.057 74.0556C94.5788 74.9082 93.0127 78.0084 93.8694 78.5283C96.2238 79.9573 104.891 84.8671 107.391 86.2857C107.553 86.3771 107.718 86.4581 107.885 86.5286C109.251 81.5536 112.293 78.7643 112.293 78.7643Z" fill="#380019"/>
<path d="M115.887 84.8418C115.993 84.7033 120.728 87.4186 120.728 87.4186C120.739 87.6459 120.457 88.0517 120.327 88.0334C120.197 88.016 115.61 85.2067 115.887 84.8418Z" fill="#733C46"/>
<path d="M94.3276 77.8682C94.3276 77.8682 95.3567 77.8272 96.7938 78.7765C98.2309 79.7257 102.845 83.0305 102.845 83.0305C102.845 83.0305 94.481 78.0441 94.3276 77.8682Z" fill="#591628"/>
<path d="M108.432 85.8503C108.432 85.8503 110.415 85.0796 113.736 86.3319C113.736 86.3319 109.87 86.4982 108.432 85.8503Z" fill="#591628"/>
<path d="M110.822 79.2267C110.625 79.8459 106.171 79.4191 103.925 78.5361C101.688 77.6566 97.7753 72.3906 98.0499 72.0092C98.3244 71.6278 111.046 78.5274 110.822 79.2267Z" fill="#733C46"/>
<path d="M121.259 90.9186L122.247 89.1599L121.5 88.7361L120.512 90.4948L121.259 90.9186Z" fill="#450720"/>
<path d="M122.754 87.7183C122.576 87.6338 121.078 90.329 121.227 90.4762C121.375 90.6225 122.985 87.828 122.754 87.7183Z" fill="#591628"/>
<path d="M121.788 90.9638C122.085 90.7026 122.494 90.0111 122.645 89.742C122.704 89.6375 122.795 89.4625 122.89 89.27L122.476 89.0349L121.488 90.794L121.788 90.9638Z" fill="#450720"/>
<path d="M123.088 88.5037C122.955 88.4402 121.83 90.4657 121.941 90.5763C122.051 90.6869 123.262 88.5865 123.088 88.5037Z" fill="#591628"/>
<path opacity="0.2" d="M121.911 87.4273L120.27 90.3498L119.56 89.9475C119.56 89.9475 120.648 88.906 121.584 87.2383L121.911 87.4273Z" fill="#380019"/>
<path d="M110.154 102.084C110.164 102.091 110.174 102.092 110.185 102.098L116.866 105.778C117.112 105.917 117.763 104.821 117.963 104.464C118.159 104.114 118.726 103.018 118.49 102.884L111.903 99.0365C111.893 99.0304 111.886 99.0226 111.876 99.0165C110.222 98.0786 109.909 94.7537 107.111 93.1662C104.751 91.8268 95.9744 86.8404 93.5178 85.5394C92.6377 85.0735 90.7649 88.0857 90.3396 88.8425C89.9151 89.5993 88.3394 92.736 89.1875 93.2515C91.5419 94.6806 100.209 99.5904 102.709 101.008C105.253 102.451 108.5 101.147 110.154 102.084Z" fill="#380019"/>
<path d="M110.183 101.684C111.553 102.461 113.973 103.742 115.961 104.87C116.194 105.003 116.714 104.134 116.873 103.852C117.029 103.574 117.473 102.701 117.25 102.575L111.377 99.1584C109.963 98.3564 109.494 95.1595 106.849 93.6591C104.617 92.3929 95.8634 87.4003 93.5427 86.1655C92.7328 85.7344 91.4196 87.7139 90.7145 88.9713C90.0085 90.2288 88.9457 92.4747 89.7339 92.9502C91.9636 94.2974 100.668 99.2289 103.032 100.57C105.437 101.935 108.619 100.796 110.183 101.684Z" fill="#450720"/>
<path d="M115.498 105.233L117.32 101.989C117.365 101.908 117.467 101.879 117.548 101.925L118.243 102.32C118.323 102.365 118.352 102.468 118.306 102.549L116.484 105.793C116.439 105.874 116.337 105.902 116.256 105.857L115.562 105.462C115.481 105.416 115.453 105.314 115.498 105.233Z" fill="#380019"/>
<path d="M92.8915 86.3867C91.8668 87.2297 90.8048 89.0079 90.2209 90.3473C93.128 92.1342 103.376 98.2092 104.693 98.8179C106.291 99.5555 109.52 100.376 110.499 100.82C111.48 101.264 115.837 103.806 115.837 103.806L116.52 102.66C116.52 102.66 112.003 100.043 111.108 99.5355C109.709 98.7421 108.964 95.8884 107.223 94.4089C106.698 94.0379 92.8915 86.3867 92.8915 86.3867Z" fill="#520E27"/>
<path d="M107.545 94.374C107.97 94.4446 110.719 98.1213 110.197 99.0644C109.676 100.007 105.244 98.1543 105.066 97.8469C104.89 97.5395 106.898 94.2669 107.545 94.374Z" fill="#733C46"/>
<path opacity="0.2" d="M107.612 93.4866C107.454 93.3734 107.288 93.2663 107.111 93.1661C104.751 91.8268 95.9743 86.8404 93.5176 85.5394C92.6384 85.0735 90.854 87.9255 90.3758 88.778C89.8977 89.6305 88.3315 92.7307 89.1882 93.2506C91.5426 94.6797 100.21 99.5894 102.71 101.007C102.872 101.099 103.037 101.18 103.204 101.25C104.57 96.2759 107.61 93.4875 107.612 93.4866Z" fill="#380019"/>
<path d="M111.205 99.5642C111.31 99.4257 116.046 102.141 116.046 102.141C116.057 102.368 115.775 102.774 115.645 102.757C115.515 102.738 110.928 99.9291 111.205 99.5642Z" fill="#733C46"/>
<path d="M89.6465 92.5914C89.6465 92.5914 90.6756 92.5505 92.1126 93.4997C93.5497 94.4489 98.1641 97.7537 98.1641 97.7537C98.1641 97.7537 89.7989 92.7673 89.6465 92.5914Z" fill="#591628"/>
<path d="M103.75 100.573C103.75 100.573 105.734 99.8019 109.055 101.054C109.055 101.054 105.189 101.221 103.75 100.573Z" fill="#591628"/>
<path d="M106.141 93.9491C105.944 94.5683 101.49 94.1416 99.2435 93.2585C97.0068 92.379 93.0941 87.113 93.3687 86.7316C93.6433 86.3502 106.364 93.2507 106.141 93.9491Z" fill="#733C46"/>
<path d="M116.564 105.618L117.552 103.859L116.805 103.435L115.818 105.194L116.564 105.618Z" fill="#450720"/>
<path d="M118.072 102.441C117.894 102.356 116.397 105.051 116.545 105.199C116.693 105.346 118.303 102.551 118.072 102.441Z" fill="#591628"/>
<path d="M117.106 105.686C117.403 105.425 117.812 104.733 117.963 104.464C118.021 104.359 118.113 104.185 118.208 103.992L117.794 103.757L116.806 105.516L117.106 105.686Z" fill="#450720"/>
<path d="M118.406 103.226C118.273 103.163 117.148 105.188 117.259 105.299C117.37 105.409 118.581 103.309 118.406 103.226Z" fill="#591628"/>
<path opacity="0.2" d="M117.229 102.15L115.588 105.072L114.879 104.67C114.879 104.67 115.967 103.628 116.903 101.961L117.229 102.15Z" fill="#380019"/>
<path d="M105.472 116.808C105.482 116.814 105.493 116.816 105.503 116.821L112.184 120.5C112.43 120.639 113.082 119.543 113.281 119.187C113.477 118.837 114.044 117.74 113.808 117.606L107.222 113.759C107.211 113.753 107.204 113.745 107.194 113.739C105.54 112.801 105.227 109.476 102.43 107.889C100.069 106.549 91.2924 101.563 88.8358 100.262C87.9557 99.7959 86.0829 102.808 85.6576 103.565C85.2332 104.322 83.6575 107.458 84.5056 107.974C86.86 109.403 95.5275 114.313 98.0274 115.73C100.572 117.173 103.819 115.869 105.472 116.808Z" fill="#380019"/>
<path d="M105.501 116.406C106.871 117.183 109.292 118.465 111.279 119.593C111.512 119.725 112.033 118.857 112.191 118.574C112.347 118.296 112.792 117.422 112.568 117.296L106.695 113.88C105.281 113.078 104.812 109.881 102.167 108.381C99.935 107.114 91.1818 102.122 88.8611 100.887C88.0512 100.456 86.738 102.435 86.0329 103.693C85.3269 104.95 84.264 107.196 85.0523 107.672C87.282 109.019 95.9867 113.95 98.3506 115.292C100.756 116.657 103.939 115.52 105.501 116.406Z" fill="#450720"/>
<path d="M110.817 119.956L112.638 116.711C112.683 116.63 112.785 116.602 112.866 116.647L113.561 117.042C113.641 117.087 113.669 117.19 113.624 117.271L111.802 120.516C111.757 120.597 111.655 120.625 111.574 120.579L110.88 120.185C110.8 120.139 110.771 120.037 110.817 119.956Z" fill="#380019"/>
<path d="M88.2104 101.11C87.1856 101.953 86.1236 103.731 85.5398 105.071C88.4469 106.858 98.6952 112.933 100.012 113.541C101.61 114.279 104.839 115.099 105.819 115.543C106.8 115.987 111.157 118.529 111.157 118.529L111.839 117.383C111.839 117.383 107.323 114.766 106.428 114.259C105.029 113.465 104.283 110.612 102.543 109.132C102.015 108.761 88.2104 101.11 88.2104 101.11Z" fill="#520E27"/>
<path d="M102.863 109.096C103.288 109.167 106.037 112.844 105.515 113.787C104.994 114.73 100.562 112.877 100.384 112.569C100.209 112.262 102.216 108.989 102.863 109.096Z" fill="#733C46"/>
<path opacity="0.2" d="M102.93 108.209C102.772 108.096 102.606 107.989 102.429 107.889C100.069 106.549 91.2922 101.563 88.8356 100.262C87.9564 99.7959 86.172 102.648 85.6938 103.5C85.2148 104.353 83.6495 107.453 84.5062 107.973C86.8606 109.402 95.5281 114.312 98.028 115.73C98.19 115.821 98.3546 115.902 98.5218 115.973C99.8878 110.998 102.93 108.209 102.93 108.209Z" fill="#380019"/>
<path d="M106.524 114.287C106.629 114.148 111.365 116.863 111.365 116.863C111.376 117.091 111.094 117.496 110.964 117.478C110.834 117.462 106.246 114.651 106.524 114.287Z" fill="#733C46"/>
<path d="M84.9648 107.314C84.9648 107.314 85.994 107.273 87.431 108.222C88.8681 109.171 93.4825 112.476 93.4825 112.476C93.4825 112.476 85.1182 107.49 84.9648 107.314Z" fill="#591628"/>
<path d="M99.0686 115.296C99.0686 115.296 101.052 114.525 104.373 115.777C104.373 115.777 100.507 115.944 99.0686 115.296Z" fill="#591628"/>
<path d="M101.459 108.671C101.262 109.291 96.8078 108.864 94.5616 107.981C92.325 107.101 88.4122 101.835 88.6868 101.455C88.9623 101.073 101.682 107.973 101.459 108.671Z" fill="#733C46"/>
<path d="M111.883 120.341L112.87 118.582L112.123 118.158L111.136 119.917L111.883 120.341Z" fill="#450720"/>
<path d="M113.391 117.163C113.213 117.078 111.715 119.774 111.864 119.921C112.011 120.068 113.622 117.274 113.391 117.163Z" fill="#591628"/>
<path d="M112.424 120.409C112.721 120.148 113.13 119.457 113.281 119.188C113.34 119.083 113.432 118.908 113.526 118.716L113.112 118.481L112.125 120.24L112.424 120.409Z" fill="#450720"/>
<path d="M113.725 117.948C113.592 117.885 112.467 119.91 112.577 120.021C112.688 120.132 113.899 118.032 113.725 117.948Z" fill="#591628"/>
<path opacity="0.2" d="M112.548 116.872L110.907 119.795L110.198 119.392C110.198 119.392 111.286 118.35 112.222 116.683L112.548 116.872Z" fill="#380019"/>
<path d="M100.791 131.53C100.801 131.536 100.812 131.538 100.822 131.543L107.502 135.222C107.749 135.363 108.4 134.265 108.599 133.909C108.795 133.559 109.362 132.463 109.126 132.329L102.54 128.481C102.529 128.475 102.522 128.467 102.512 128.461C100.858 127.523 100.546 124.198 97.7477 122.611C95.3872 121.272 86.6106 116.285 84.154 114.984C83.2739 114.518 81.4011 117.53 80.9758 118.287C80.5513 119.044 78.9756 122.181 79.8237 122.696C82.1781 124.125 90.8456 129.035 93.3455 130.454C95.8896 131.897 99.1371 130.592 100.791 131.53Z" fill="#380019"/>
<path d="M100.82 131.129C102.189 131.905 104.61 133.187 106.598 134.315C106.831 134.447 107.351 133.579 107.51 133.297C107.666 133.019 108.11 132.146 107.887 132.019L102.014 128.603C100.6 127.801 100.13 124.604 97.4858 123.104C95.2536 121.838 86.5003 116.845 84.1797 115.61C83.3706 115.179 82.0566 117.159 81.3515 118.416C80.6455 119.674 79.5826 121.92 80.3709 122.395C82.6006 123.742 91.3053 128.674 93.6692 130.015C96.0739 131.379 99.2564 130.242 100.82 131.129Z" fill="#450720"/>
<path d="M106.135 134.678L107.957 131.433C108.002 131.352 108.104 131.324 108.185 131.37L108.879 131.764C108.96 131.81 108.988 131.912 108.943 131.993L107.121 135.238C107.076 135.319 106.974 135.348 106.893 135.302L106.198 134.908C106.118 134.862 106.089 134.759 106.135 134.678Z" fill="#380019"/>
<path d="M83.5285 115.832C82.5038 116.675 81.4417 118.454 80.8579 119.793C83.765 121.58 94.0133 127.655 95.33 128.264C96.9282 129.001 100.157 129.821 101.137 130.266C102.118 130.71 106.475 133.252 106.475 133.252L107.157 132.106C107.157 132.106 102.641 129.489 101.746 128.981C100.347 128.188 99.6013 125.334 97.8611 123.854C97.3344 123.484 83.5285 115.832 83.5285 115.832Z" fill="#520E27"/>
<path d="M98.1816 123.82C98.6069 123.89 101.355 127.567 100.834 128.51C100.313 129.453 95.8809 127.6 95.7033 127.293C95.5266 126.985 97.5354 123.712 98.1816 123.82Z" fill="#733C46"/>
<path opacity="0.2" d="M98.2485 122.932C98.0909 122.819 97.9246 122.712 97.7478 122.612C95.3874 121.272 86.6107 116.286 84.1541 114.985C83.2749 114.519 81.4904 117.371 81.0123 118.224C80.5341 119.076 78.968 122.176 79.8247 122.696C82.1791 124.125 90.8466 129.035 93.3465 130.454C93.5085 130.545 93.6731 130.625 93.8403 130.697C95.2063 125.721 98.2485 122.932 98.2485 122.932Z" fill="#380019"/>
<path d="M101.842 129.01C101.947 128.871 106.683 131.587 106.683 131.587C106.694 131.814 106.412 132.22 106.282 132.201C106.152 132.184 101.565 129.374 101.842 129.01Z" fill="#733C46"/>
<path d="M80.2837 122.036C80.2837 122.036 81.3128 121.995 82.7498 122.944C84.1869 123.894 88.8013 127.198 88.8013 127.198C88.8013 127.198 80.4361 122.212 80.2837 122.036Z" fill="#591628"/>
<path d="M94.3867 130.018C94.3867 130.018 96.3704 129.248 99.6915 130.5C99.6915 130.5 95.8255 130.666 94.3867 130.018Z" fill="#591628"/>
<path d="M96.7775 123.395C96.58 124.014 92.1258 123.587 89.8797 122.704C87.6431 121.825 83.7303 116.559 84.0049 116.177C84.2804 115.796 97.001 122.695 96.7775 123.395Z" fill="#733C46"/>
<path d="M107.206 135.073L108.194 133.314L107.447 132.89L106.459 134.649L107.206 135.073Z" fill="#450720"/>
<path d="M108.709 131.885C108.531 131.801 107.034 134.496 107.182 134.643C107.33 134.79 108.94 131.996 108.709 131.885Z" fill="#591628"/>
<path d="M107.743 135.132C108.04 134.871 108.449 134.179 108.6 133.91C108.659 133.805 108.751 133.63 108.844 133.438L108.43 133.203L107.443 134.962L107.743 135.132Z" fill="#450720"/>
<path d="M109.043 132.672C108.91 132.608 107.785 134.634 107.896 134.744C108.007 134.855 109.217 132.754 109.043 132.672Z" fill="#591628"/>
<path opacity="0.2" d="M107.866 131.595L106.225 134.518L105.515 134.115C105.515 134.115 106.603 133.073 107.54 131.406L107.866 131.595Z" fill="#380019"/>
<path d="M96.1086 146.252C96.119 146.259 96.1294 146.26 96.1398 146.265L102.82 149.945C103.066 150.084 103.718 148.988 103.917 148.632C104.113 148.281 104.68 147.185 104.444 147.051L97.8576 143.204C97.8472 143.198 97.8402 143.19 97.8298 143.184C96.1762 142.246 95.8626 138.921 93.0655 137.333C90.7051 135.994 81.9284 131.008 79.4718 129.707C78.5917 129.241 76.7189 132.253 76.2936 133.01C75.8692 133.766 74.2935 136.903 75.1416 137.419C77.496 138.848 86.1634 143.757 88.6634 145.176C91.2084 146.619 94.455 145.315 96.1086 146.252Z" fill="#380019"/>
<path d="M96.1379 145.852C97.5074 146.629 99.9276 147.91 101.916 149.038C102.149 149.171 102.669 148.302 102.828 148.02C102.984 147.742 103.428 146.869 103.205 146.743L97.3315 143.326C95.9179 142.524 95.4483 139.327 92.8037 137.827C90.5714 136.561 81.8182 131.567 79.4976 130.333C78.6877 129.902 77.3745 131.882 76.6694 133.139C75.9634 134.397 74.9005 136.643 75.6888 137.118C77.9184 138.465 86.6232 143.397 88.9872 144.738C91.3927 146.102 94.5743 144.964 96.1379 145.852Z" fill="#450720"/>
<path d="M101.453 149.401L103.275 146.157C103.32 146.076 103.422 146.048 103.503 146.093L104.197 146.487C104.278 146.532 104.306 146.635 104.261 146.716L102.439 149.96C102.394 150.041 102.292 150.069 102.211 150.024L101.516 149.63C101.436 149.584 101.408 149.482 101.453 149.401Z" fill="#380019"/>
<path d="M78.8473 130.555C77.8225 131.398 76.7606 133.176 76.1768 134.515C79.0838 136.302 89.3322 142.378 90.6488 142.986C92.247 143.724 95.4755 144.544 96.4552 144.988C97.4357 145.432 101.793 147.974 101.793 147.974L102.475 146.828C102.475 146.828 97.9589 144.211 97.0641 143.704C95.6652 142.91 94.9193 140.056 93.1791 138.577C92.6524 138.206 78.8473 130.555 78.8473 130.555Z" fill="#520E27"/>
<path d="M93.4995 138.542C93.9248 138.613 96.6734 142.289 96.1519 143.232C95.6305 144.175 91.1988 142.322 91.0212 142.015C90.8445 141.707 92.8533 138.435 93.4995 138.542Z" fill="#733C46"/>
<path opacity="0.2" d="M93.5669 137.655C93.4093 137.541 93.243 137.434 93.0662 137.334C90.7058 135.995 81.9291 131.008 79.4725 129.707C78.5933 129.241 76.8089 132.093 76.3307 132.946C75.8525 133.799 74.2864 136.899 75.1431 137.419C77.4975 138.848 86.165 143.757 88.6649 145.176C88.8269 145.268 88.9915 145.348 89.1587 145.419C90.5247 140.443 93.5652 137.656 93.5669 137.655Z" fill="#380019"/>
<path d="M97.1603 143.732C97.2659 143.594 102.001 146.309 102.001 146.309C102.012 146.536 101.73 146.942 101.6 146.924C101.471 146.906 96.8831 144.096 97.1603 143.732Z" fill="#733C46"/>
<path d="M75.6016 136.759C75.6016 136.759 76.6306 136.718 78.0677 137.667C79.5048 138.616 84.1192 141.921 84.1192 141.921C84.1192 141.921 75.754 136.935 75.6016 136.759Z" fill="#591628"/>
<path d="M89.7053 144.741C89.7053 144.741 91.689 143.97 95.0101 145.222C95.0101 145.222 91.1441 145.388 89.7053 144.741Z" fill="#591628"/>
<path d="M92.0963 138.117C91.8988 138.736 87.4447 138.31 85.1985 137.427C82.9619 136.547 79.0492 131.281 79.3238 130.9C79.5992 130.518 92.3189 137.418 92.0963 138.117Z" fill="#733C46"/>
<path d="M102.523 149.793L103.51 148.034L102.763 147.61L101.776 149.369L102.523 149.793Z" fill="#450720"/>
<path d="M104.027 146.608C103.849 146.523 102.352 149.218 102.5 149.366C102.648 149.513 104.259 146.718 104.027 146.608Z" fill="#591628"/>
<path d="M103.061 149.854C103.358 149.593 103.767 148.901 103.918 148.632C103.977 148.528 104.068 148.353 104.162 148.16L103.748 147.925L102.76 149.684L103.061 149.854Z" fill="#450720"/>
<path d="M104.361 147.394C104.228 147.33 103.103 149.356 103.213 149.467C103.325 149.577 104.535 147.477 104.361 147.394Z" fill="#591628"/>
<path opacity="0.2" d="M103.184 146.318L101.544 149.24L100.833 148.838C100.833 148.838 101.921 147.796 102.858 146.129L103.184 146.318Z" fill="#380019"/>
<path d="M91.4265 160.975C91.4369 160.981 91.4473 160.983 91.4577 160.988L98.138 164.667C98.3841 164.807 99.0355 163.71 99.2347 163.354C99.4313 163.004 99.9978 161.907 99.7622 161.773L93.1754 157.926C93.165 157.92 93.1581 157.912 93.1477 157.906C91.4941 156.968 91.1805 153.643 88.3835 152.056C86.023 150.716 77.2464 145.73 74.7897 144.429C73.9096 143.963 72.0368 146.975 71.6115 147.732C71.1871 148.489 69.6114 151.625 70.4594 152.14C72.8138 153.569 81.4813 158.479 83.9812 159.897C86.5262 161.341 89.7738 160.037 91.4265 160.975Z" fill="#380019"/>
<path d="M91.4572 160.574C92.8267 161.35 95.247 162.633 97.235 163.76C97.468 163.893 97.9886 163.025 98.1471 162.742C98.303 162.465 98.7474 161.591 98.5239 161.465L92.6509 158.049C91.2372 157.247 90.7685 154.05 88.1231 152.549C85.8908 151.283 77.1376 146.291 74.8169 145.056C74.007 144.625 72.6938 146.604 71.9887 147.862C71.2827 149.119 70.2198 151.365 71.0081 151.84C73.2378 153.188 81.9425 158.119 84.3064 159.46C86.7111 160.825 89.8936 159.687 91.4572 160.574Z" fill="#450720"/>
<path d="M96.7714 164.124L98.5931 160.879C98.6381 160.798 98.7403 160.769 98.8209 160.815L99.5156 161.21C99.5962 161.255 99.6247 161.358 99.5788 161.439L97.7571 164.684C97.7121 164.765 97.6099 164.793 97.5293 164.747L96.8346 164.353C96.7549 164.307 96.7263 164.205 96.7714 164.124Z" fill="#380019"/>
<path d="M74.1655 145.277C73.1407 146.12 72.0787 147.898 71.4949 149.238C74.4019 151.025 84.6503 157.099 85.967 157.708C87.5652 158.447 90.7936 159.266 91.7733 159.71C92.7539 160.154 97.111 162.696 97.111 162.696L97.7936 161.55C97.7936 161.55 93.277 158.933 92.3822 158.426C90.9833 157.632 90.2375 154.779 88.4972 153.299C87.9705 152.928 74.1655 145.277 74.1655 145.277Z" fill="#520E27"/>
<path d="M88.8184 153.264C89.2437 153.335 91.9922 157.012 91.4708 157.955C90.9493 158.898 86.5176 157.045 86.3401 156.737C86.1634 156.43 88.1713 153.157 88.8184 153.264Z" fill="#733C46"/>
<path opacity="0.2" d="M88.8852 152.377C88.7276 152.264 88.5613 152.157 88.3846 152.056C86.0241 150.717 77.2475 145.731 74.7908 144.43C73.9116 143.964 72.1272 146.816 71.649 147.668C71.1708 148.521 69.6047 151.621 70.4614 152.141C72.8158 153.57 81.4833 158.48 83.9833 159.897C84.1452 159.989 84.3098 160.07 84.477 160.14C85.8431 155.166 88.8852 152.377 88.8852 152.377Z" fill="#380019"/>
<path d="M92.4792 158.455C92.5849 158.316 97.3197 161.031 97.3197 161.031C97.3309 161.259 97.0485 161.664 96.9186 161.647C96.7887 161.629 92.2011 158.819 92.4792 158.455Z" fill="#733C46"/>
<path d="M70.9197 151.482C70.9197 151.482 71.9487 151.441 73.3858 152.39C74.8229 153.339 79.4373 156.644 79.4373 156.644C79.4373 156.644 71.073 151.658 70.9197 151.482Z" fill="#591628"/>
<path d="M85.0237 159.463C85.0237 159.463 87.0074 158.692 90.3285 159.945C90.3285 159.945 86.4625 160.111 85.0237 159.463Z" fill="#591628"/>
<path d="M87.4144 152.839C87.2169 153.458 82.7628 153.032 80.5166 152.149C78.28 151.269 74.3673 146.003 74.6419 145.622C74.9165 145.24 87.6371 152.141 87.4144 152.839Z" fill="#733C46"/>
<path d="M97.8376 164.507L98.825 162.748L98.0781 162.324L97.0908 164.083L97.8376 164.507Z" fill="#450720"/>
<path d="M99.3458 161.331C99.1682 161.246 97.6705 163.942 97.8186 164.089C97.9668 164.236 99.5771 161.441 99.3458 161.331Z" fill="#591628"/>
<path d="M98.38 164.576C98.6772 164.315 99.086 163.624 99.2368 163.355C99.2957 163.249 99.3875 163.075 99.4819 162.883L99.0678 162.647L98.0803 164.407L98.38 164.576Z" fill="#450720"/>
<path d="M99.6803 162.116C99.5469 162.053 98.4217 164.078 98.5326 164.189C98.6435 164.3 99.8545 162.199 99.6803 162.116Z" fill="#591628"/>
<path opacity="0.2" d="M98.5032 161.04L96.8625 163.963L96.1531 163.56C96.1531 163.56 97.241 162.518 98.1774 160.851L98.5032 161.04Z" fill="#380019"/>
<path d="M86.7456 175.697C86.756 175.703 86.7664 175.705 86.7768 175.71L93.4571 179.389C93.7031 179.529 94.3545 178.432 94.5538 178.076C94.7495 177.726 95.3169 176.63 95.0813 176.496L88.4945 172.648C88.4841 172.642 88.4772 172.634 88.4668 172.628C86.8132 171.69 86.5005 168.365 83.7025 166.778C81.3421 165.439 72.5654 160.452 70.1088 159.151C69.2287 158.685 67.3551 161.697 66.9306 162.454C66.5062 163.211 64.9305 166.348 65.7785 166.863C68.1329 168.292 76.8004 173.202 79.3003 174.62C81.8445 176.064 85.092 174.759 86.7456 175.697Z" fill="#380019"/>
<path d="M86.7751 175.297C88.1446 176.073 90.5648 177.355 92.5528 178.483C92.7858 178.615 93.3064 177.747 93.4649 177.465C93.6208 177.187 94.0653 176.314 93.8418 176.187L87.9687 172.771C86.555 171.969 86.0855 168.772 83.4409 167.272C81.2087 166.006 72.4554 161.013 70.1348 159.778C69.3248 159.347 68.0116 161.327 67.3065 162.584C66.6005 163.842 65.5377 166.087 66.326 166.563C68.5557 167.91 77.2604 172.842 79.6243 174.183C82.029 175.547 85.2115 174.41 86.7751 175.297Z" fill="#450720"/>
<path d="M92.0903 178.846L93.912 175.601C93.957 175.52 94.0593 175.492 94.1398 175.538L94.8345 175.932C94.9151 175.978 94.9428 176.08 94.8978 176.161L93.0761 179.406C93.031 179.487 92.9288 179.515 92.8482 179.47L92.1535 179.075C92.073 179.03 92.0444 178.927 92.0903 178.846Z" fill="#380019"/>
<path d="M69.4833 159.999C68.4585 160.842 67.3966 162.621 66.8127 163.96C69.7198 165.747 79.9681 171.823 81.2848 172.431C82.883 173.168 86.1114 173.989 87.092 174.433C88.0726 174.877 92.4297 177.419 92.4297 177.419L93.1123 176.273C93.1123 176.273 88.5958 173.656 87.701 173.148C86.302 172.355 85.5562 169.501 83.8159 168.022C83.2893 167.651 69.4833 159.999 69.4833 159.999Z" fill="#520E27"/>
<path d="M84.1364 167.987C84.5617 168.057 87.3103 171.734 86.7888 172.677C86.2674 173.62 81.8358 171.767 81.6582 171.46C81.4815 171.152 83.4902 167.88 84.1364 167.987Z" fill="#733C46"/>
<path opacity="0.2" d="M84.2039 167.099C84.0463 166.986 83.88 166.879 83.7032 166.779C81.3428 165.44 72.5661 160.453 70.1095 159.152C69.2303 158.686 67.4459 161.538 66.9677 162.391C66.4887 163.243 64.9234 166.343 65.7801 166.863C68.1345 168.292 76.802 173.202 79.3019 174.62C79.4639 174.711 79.6285 174.792 79.7957 174.863C81.1609 169.889 84.2022 167.1 84.2039 167.099Z" fill="#380019"/>
<path d="M87.797 173.177C87.9018 173.038 92.6375 175.754 92.6375 175.754C92.6487 175.981 92.3663 176.387 92.2364 176.369C92.1065 176.351 87.5198 173.542 87.797 173.177Z" fill="#733C46"/>
<path d="M66.2385 166.204C66.2385 166.204 67.2676 166.163 68.7047 167.113C70.1417 168.062 74.7562 171.367 74.7562 171.367C74.7562 171.367 66.391 166.38 66.2385 166.204Z" fill="#591628"/>
<path d="M80.3416 174.185C80.3416 174.185 82.3252 173.415 85.6463 174.667C85.6463 174.667 81.7812 174.833 80.3416 174.185Z" fill="#591628"/>
<path d="M82.7322 167.562C82.5347 168.181 78.0814 167.754 75.8352 166.871C73.5986 165.992 69.6859 160.726 69.9605 160.344C70.2351 159.964 82.9557 166.863 82.7322 167.562Z" fill="#733C46"/>
<path d="M93.156 179.229L94.1433 177.47L93.3965 177.046L92.4092 178.805L93.156 179.229Z" fill="#450720"/>
<path d="M94.6637 176.053C94.4861 175.969 92.9884 178.664 93.1365 178.811C93.2846 178.958 94.895 176.164 94.6637 176.053Z" fill="#591628"/>
<path d="M93.698 179.299C93.9951 179.038 94.404 178.346 94.5547 178.077C94.6136 177.972 94.7055 177.798 94.799 177.605L94.3849 177.37L93.3975 179.129L93.698 179.299Z" fill="#450720"/>
<path d="M94.998 176.839C94.8646 176.775 93.7393 178.801 93.8502 178.911C93.9619 179.022 95.1721 176.922 94.998 176.839Z" fill="#591628"/>
<path opacity="0.2" d="M93.821 175.762L92.1804 178.685L91.4709 178.283C91.4709 178.283 92.5589 177.24 93.4953 175.573L93.821 175.762Z" fill="#380019"/>
<path d="M82.0637 190.421C82.0741 190.427 82.0845 190.428 82.0949 190.434L88.7753 194.114C89.0213 194.254 89.6727 193.157 89.8719 192.8C90.0685 192.45 90.6351 191.354 90.3994 191.22L83.8126 187.373C83.8022 187.366 83.7953 187.359 83.7849 187.353C82.1312 186.415 81.8185 183.09 79.0206 181.502C76.6601 180.163 67.8835 175.177 65.4269 173.875C64.5468 173.41 62.6731 176.422 62.2487 177.179C61.8242 177.935 60.2486 181.072 61.0966 181.588C63.4511 183.017 72.1185 187.926 74.6185 189.344C77.1634 190.786 80.4109 189.483 82.0637 190.421Z" fill="#380019"/>
<path d="M82.0929 190.019C83.4624 190.795 85.8827 192.078 87.8707 193.205C88.1037 193.338 88.6243 192.469 88.7828 192.187C88.9387 191.909 89.3831 191.036 89.1596 190.91L83.2866 187.493C81.8729 186.691 81.4034 183.495 78.7588 181.994C76.5265 180.728 67.7733 175.735 65.4527 174.501C64.6428 174.07 63.3295 176.049 62.6244 177.306C61.9185 178.564 60.8556 180.81 61.6438 181.285C63.8735 182.632 72.5782 187.564 74.9422 188.905C77.3477 190.27 80.5302 189.132 82.0929 190.019Z" fill="#450720"/>
<path d="M87.4083 193.568L89.2299 190.324C89.275 190.243 89.3772 190.215 89.4577 190.26L90.1525 190.655C90.233 190.7 90.2607 190.803 90.2157 190.884L88.394 194.128C88.349 194.209 88.2468 194.238 88.1662 194.192L87.4715 193.798C87.3909 193.752 87.3632 193.649 87.4083 193.568Z" fill="#380019"/>
<path d="M64.8024 174.723C63.7777 175.566 62.7157 177.344 62.1318 178.683C65.0389 180.47 75.2873 186.546 76.604 187.154C78.2021 187.891 81.4306 188.712 82.4111 189.156C83.3917 189.6 87.7488 192.142 87.7488 192.142L88.4314 190.996C88.4314 190.996 83.9149 188.379 83.0201 187.871C81.6211 187.078 80.8753 184.224 79.1351 182.745C78.6075 182.374 64.8024 174.723 64.8024 174.723Z" fill="#520E27"/>
<path d="M79.4547 182.709C79.8801 182.78 82.6286 186.456 82.1071 187.399C81.5856 188.342 77.154 186.489 76.9764 186.182C76.8006 185.875 78.8085 182.602 79.4547 182.709Z" fill="#733C46"/>
<path opacity="0.2" d="M79.5223 181.822C79.3646 181.708 79.1983 181.601 79.0216 181.501C76.6611 180.162 67.8845 175.175 65.4278 173.874C64.5486 173.409 62.7642 176.261 62.286 177.113C61.8079 177.966 60.2417 181.066 61.0984 181.586C63.4528 183.015 72.1203 187.924 74.6203 189.342C74.7822 189.435 74.9468 189.515 75.114 189.585C76.48 184.611 79.5205 181.823 79.5223 181.822Z" fill="#380019"/>
<path d="M83.1161 187.899C83.221 187.761 87.9566 190.476 87.9566 190.476C87.9679 190.703 87.6855 191.109 87.5556 191.091C87.4256 191.074 82.8381 188.264 83.1161 187.899Z" fill="#733C46"/>
<path d="M61.5566 180.927C61.5566 180.927 62.5858 180.886 64.0228 181.835C65.4599 182.784 70.0743 186.089 70.0743 186.089C70.0743 186.089 61.7091 181.102 61.5566 180.927Z" fill="#591628"/>
<path d="M75.6604 188.909C75.6604 188.909 77.644 188.138 80.9652 189.39C80.9652 189.39 77.0992 189.556 75.6604 188.909Z" fill="#591628"/>
<path d="M78.0513 182.285C77.8538 182.904 73.4005 182.477 71.1543 181.594C68.9177 180.715 65.005 175.449 65.2796 175.068C65.5542 174.686 78.2739 181.586 78.0513 182.285Z" fill="#733C46"/>
<path d="M88.4848 193.98L89.4722 192.221L88.7253 191.797L87.738 193.556L88.4848 193.98Z" fill="#450720"/>
<path d="M89.9818 190.776C89.8042 190.691 88.3065 193.386 88.4546 193.534C88.6027 193.681 90.2139 190.886 89.9818 190.776Z" fill="#591628"/>
<path d="M89.016 194.022C89.3131 193.761 89.722 193.069 89.8727 192.8C89.9316 192.696 90.0235 192.521 90.1179 192.328L89.7038 192.094L88.7163 193.853L89.016 194.022Z" fill="#450720"/>
<path d="M90.3171 191.561C90.1837 191.498 89.0584 193.523 89.1693 193.634C89.2802 193.745 90.4903 191.645 90.3171 191.561Z" fill="#591628"/>
<path opacity="0.2" d="M89.139 190.485L87.4983 193.407L86.7881 193.005C86.7881 193.005 87.876 191.963 88.8124 190.296L89.139 190.485Z" fill="#380019"/>
<path d="M136.488 87.362C136.478 87.3681 136.467 87.3698 136.457 87.3751L129.776 91.0543C129.53 91.1946 128.878 90.0973 128.679 89.7411C128.483 89.3911 127.916 88.2947 128.152 88.1606L134.738 84.3132C134.749 84.3071 134.756 84.2993 134.766 84.2932C136.42 83.3553 136.732 80.0304 139.53 78.4429C141.891 77.1035 150.667 72.1171 153.124 70.8161C154.004 70.3502 155.877 73.3624 156.302 74.1192C156.727 74.8759 158.302 78.0127 157.454 78.5282C155.1 79.9573 146.432 84.867 143.933 86.2856C141.388 87.7286 138.141 86.4241 136.488 87.362Z" fill="#380019"/>
<path d="M136.458 86.9615C135.088 87.7374 132.668 89.0201 130.68 90.1478C130.447 90.2802 129.926 89.412 129.768 89.1299C129.612 88.8521 129.167 87.9786 129.391 87.8523L135.264 84.436C136.678 83.634 137.147 80.4372 139.792 78.9367C142.024 77.6705 150.777 72.6771 153.098 71.4423C153.908 71.0112 155.221 72.9906 155.926 74.2481C156.632 75.5056 157.695 77.7515 156.907 78.227C154.677 79.5742 145.972 84.5057 143.608 85.8468C141.204 87.2123 138.021 86.0741 136.458 86.9615Z" fill="#450720"/>
<path d="M131.143 90.511L129.322 87.2662C129.276 87.1852 129.174 87.1565 129.094 87.2026L128.399 87.5971C128.318 87.6424 128.291 87.7452 128.336 87.8262L130.157 91.0709C130.202 91.1519 130.305 91.1806 130.385 91.1345L131.08 90.74C131.16 90.6938 131.188 90.592 131.143 90.511Z" fill="#380019"/>
<path d="M153.749 71.6643C154.774 72.5073 155.836 74.2855 156.42 75.6248C153.513 77.4118 143.264 83.4868 141.948 84.0955C140.35 84.834 137.121 85.6534 136.141 86.0975C135.161 86.5417 130.804 89.0836 130.804 89.0836L130.121 87.9376C130.121 87.9376 134.638 85.3208 135.532 84.8131C136.931 84.0197 137.677 81.166 139.417 79.6864C139.944 79.3155 153.749 71.6643 153.749 71.6643Z" fill="#520E27"/>
<path d="M139.096 79.6516C138.671 79.7222 135.922 83.3988 136.444 84.3419C136.965 85.2851 141.397 83.4319 141.574 83.1245C141.751 82.8171 139.743 79.5445 139.096 79.6516Z" fill="#733C46"/>
<path opacity="0.2" d="M139.03 78.7643C139.187 78.6511 139.354 78.5439 139.53 78.4438C141.891 77.1044 150.667 72.118 153.124 70.817C154.003 70.3511 155.788 73.2031 156.266 74.0556C156.744 74.9082 158.31 78.0084 157.453 78.5283C155.099 79.9573 146.431 84.8671 143.932 86.2857C143.77 86.3771 143.605 86.4581 143.438 86.5286C142.072 81.5536 139.031 78.7651 139.03 78.7643Z" fill="#380019"/>
<path d="M135.435 84.8418C135.33 84.7033 130.594 87.4186 130.594 87.4186C130.583 87.6459 130.865 88.0517 130.995 88.0334C131.126 88.016 135.713 85.2067 135.435 84.8418Z" fill="#733C46"/>
<path d="M156.995 77.8682C156.995 77.8682 155.966 77.8272 154.529 78.7765C153.092 79.7257 148.477 83.0305 148.477 83.0305C148.477 83.0305 156.842 78.0441 156.995 77.8682Z" fill="#591628"/>
<path d="M142.891 85.8503C142.891 85.8503 140.908 85.0796 137.586 86.3319C137.586 86.3319 141.452 86.4982 142.891 85.8503Z" fill="#591628"/>
<path d="M140.5 79.2267C140.698 79.8459 145.152 79.4191 147.398 78.5361C149.635 77.6566 153.548 72.3906 153.273 72.0092C152.998 71.6278 140.278 78.5274 140.5 79.2267Z" fill="#733C46"/>
<path d="M130.791 90.4865L129.804 88.7277L129.057 89.1515L130.044 90.9102L130.791 90.4865Z" fill="#450720"/>
<path d="M128.569 87.7183C128.746 87.6338 130.244 90.329 130.096 90.4762C129.949 90.6225 128.338 87.828 128.569 87.7183Z" fill="#591628"/>
<path d="M129.536 90.9638C129.238 90.7026 128.83 90.0111 128.679 89.742C128.62 89.6375 128.528 89.4625 128.435 89.27L128.849 89.0349L129.836 90.794L129.536 90.9638Z" fill="#450720"/>
<path d="M128.234 88.5037C128.368 88.4402 129.493 90.4657 129.382 90.5763C129.271 90.6869 128.061 88.5865 128.234 88.5037Z" fill="#591628"/>
<path opacity="0.2" d="M129.413 87.4273L131.053 90.3498L131.763 89.9475C131.763 89.9475 130.675 88.906 129.738 87.2383L129.413 87.4273Z" fill="#380019"/>
<path d="M141.169 102.085C141.159 102.091 141.148 102.092 141.138 102.098L134.457 105.778C134.211 105.917 133.559 104.821 133.36 104.465C133.163 104.114 132.597 103.018 132.833 102.884L139.419 99.0366C139.43 99.0305 139.437 99.0227 139.447 99.0166C141.101 98.0787 141.414 94.7539 144.211 93.1663C146.572 91.827 155.348 86.8406 157.805 85.5395C158.685 85.0736 160.558 88.0859 160.983 88.8426C161.408 89.5994 162.983 92.7361 162.135 93.2517C159.781 94.6807 151.113 99.5905 148.613 101.008C146.07 102.451 142.823 101.147 141.169 102.085Z" fill="#380019"/>
<path d="M141.14 101.684C139.77 102.461 137.35 103.742 135.362 104.87C135.129 105.003 134.608 104.134 134.45 103.852C134.294 103.574 133.85 102.701 134.073 102.575L139.946 99.1584C141.36 98.3564 141.828 95.1595 144.474 93.6591C146.706 92.3929 155.459 87.4003 157.78 86.1655C158.59 85.7344 159.903 87.7139 160.608 88.9713C161.314 90.2288 162.377 92.4747 161.589 92.9502C159.359 94.2974 150.654 99.2289 148.29 100.57C145.886 101.935 142.703 100.796 141.14 101.684Z" fill="#450720"/>
<path d="M135.824 105.233L134.003 101.989C133.958 101.908 133.855 101.879 133.775 101.925L133.08 102.32C132.999 102.365 132.971 102.468 133.017 102.549L134.838 105.793C134.883 105.874 134.986 105.902 135.066 105.857L135.761 105.462C135.842 105.416 135.87 105.314 135.824 105.233Z" fill="#380019"/>
<path d="M158.431 86.3867C159.456 87.2297 160.518 89.0079 161.102 90.3473C158.195 92.1342 147.946 98.2092 146.629 98.8179C145.031 99.5555 141.803 100.376 140.822 100.82C139.842 101.264 135.485 103.806 135.485 103.806L134.802 102.66C134.802 102.66 139.319 100.043 140.213 99.5355C141.612 98.7421 142.358 95.8884 144.098 94.4089C144.625 94.0379 158.431 86.3867 158.431 86.3867Z" fill="#520E27"/>
<path d="M143.778 94.374C143.353 94.4446 140.604 98.1213 141.126 99.0644C141.647 100.007 146.079 98.1543 146.255 97.8469C146.433 97.5395 144.424 94.2669 143.778 94.374Z" fill="#733C46"/>
<path opacity="0.2" d="M143.71 93.4866C143.868 93.3734 144.034 93.2663 144.211 93.1661C146.572 91.8268 155.348 86.8404 157.805 85.5394C158.684 85.0735 160.469 87.9255 160.947 88.778C161.426 89.6305 162.991 92.7307 162.134 93.2506C159.78 94.6797 151.112 99.5894 148.612 101.007C148.45 101.099 148.286 101.18 148.119 101.25C146.754 96.2759 143.712 93.4875 143.71 93.4866Z" fill="#380019"/>
<path d="M140.117 99.5642C140.012 99.4257 135.277 102.141 135.277 102.141C135.266 102.368 135.548 102.774 135.678 102.757C135.808 102.738 140.395 99.9291 140.117 99.5642Z" fill="#733C46"/>
<path d="M161.676 92.5914C161.676 92.5914 160.647 92.5505 159.21 93.4997C157.773 94.4489 153.158 97.7537 153.158 97.7537C153.158 97.7537 161.524 92.7673 161.676 92.5914Z" fill="#591628"/>
<path d="M147.573 100.573C147.573 100.573 145.589 99.8019 142.268 101.054C142.268 101.054 146.134 101.221 147.573 100.573Z" fill="#591628"/>
<path d="M145.182 93.9491C145.38 94.5683 149.834 94.1416 152.08 93.2585C154.317 92.379 158.229 87.113 157.955 86.7316C157.679 86.3502 144.959 93.2507 145.182 93.9491Z" fill="#733C46"/>
<path d="M135.498 105.211L134.51 103.452L133.763 103.876L134.751 105.634L135.498 105.211Z" fill="#450720"/>
<path d="M133.251 102.441C133.428 102.356 134.926 105.051 134.778 105.199C134.63 105.346 133.019 102.551 133.251 102.441Z" fill="#591628"/>
<path d="M134.216 105.686C133.919 105.425 133.51 104.733 133.36 104.464C133.301 104.359 133.209 104.185 133.115 103.992L133.529 103.757L134.516 105.516L134.216 105.686Z" fill="#450720"/>
<path d="M132.916 103.226C133.05 103.163 134.175 105.188 134.064 105.299C133.953 105.409 132.742 103.309 132.916 103.226Z" fill="#591628"/>
<path opacity="0.2" d="M134.094 102.15L135.734 105.072L136.444 104.67C136.444 104.67 135.356 103.628 134.419 101.961L134.094 102.15Z" fill="#380019"/>
<path d="M145.851 116.808C145.841 116.814 145.83 116.816 145.82 116.821L139.139 120.5C138.893 120.639 138.241 119.543 138.042 119.187C137.845 118.837 137.279 117.74 137.514 117.606L144.101 113.759C144.112 113.753 144.119 113.745 144.129 113.739C145.783 112.801 146.095 109.476 148.893 107.889C151.254 106.549 160.03 101.563 162.487 100.262C163.367 99.796 165.24 102.808 165.665 103.565C166.09 104.322 167.665 107.458 166.817 107.974C164.463 109.403 155.795 114.313 153.295 115.731C150.751 117.174 147.504 115.869 145.851 116.808Z" fill="#380019"/>
<path d="M145.821 116.406C144.452 117.183 142.032 118.465 140.044 119.593C139.811 119.725 139.29 118.857 139.132 118.574C138.976 118.296 138.531 117.422 138.755 117.296L144.628 113.88C146.041 113.078 146.51 109.881 149.156 108.381C151.388 107.114 160.141 102.122 162.462 100.887C163.272 100.456 164.585 102.435 165.29 103.693C165.996 104.95 167.059 107.196 166.27 107.672C164.041 109.019 155.336 113.95 152.972 115.292C150.567 116.657 147.385 115.52 145.821 116.406Z" fill="#450720"/>
<path d="M140.506 119.956L138.685 116.711C138.64 116.63 138.537 116.602 138.457 116.647L137.762 117.042C137.681 117.087 137.654 117.19 137.699 117.271L139.52 120.516C139.566 120.597 139.668 120.625 139.748 120.579L140.443 120.185C140.524 120.139 140.551 120.037 140.506 119.956Z" fill="#380019"/>
<path d="M163.112 101.11C164.137 101.953 165.199 103.731 165.783 105.071C162.876 106.858 152.628 112.933 151.311 113.541C149.713 114.279 146.484 115.099 145.504 115.543C144.523 115.987 140.166 118.529 140.166 118.529L139.483 117.383C139.483 117.383 144 114.766 144.895 114.259C146.294 113.465 147.04 110.612 148.78 109.132C149.307 108.761 163.112 101.11 163.112 101.11Z" fill="#520E27"/>
<path d="M148.46 109.096C148.035 109.167 145.286 112.844 145.808 113.787C146.329 114.73 150.761 112.877 150.938 112.569C151.115 112.262 149.106 108.989 148.46 109.096Z" fill="#733C46"/>
<path opacity="0.2" d="M148.392 108.209C148.55 108.096 148.716 107.989 148.893 107.889C151.253 106.549 160.03 101.563 162.487 100.262C163.366 99.7959 165.15 102.648 165.629 103.5C166.108 104.353 167.673 107.453 166.816 107.973C164.462 109.402 155.794 114.312 153.294 115.73C153.132 115.821 152.968 115.902 152.801 115.973C151.435 110.998 148.394 108.21 148.392 108.209Z" fill="#380019"/>
<path d="M144.799 114.287C144.695 114.148 139.959 116.863 139.959 116.863C139.948 117.091 140.23 117.496 140.36 117.478C140.489 117.462 145.077 114.651 144.799 114.287Z" fill="#733C46"/>
<path d="M166.358 107.314C166.358 107.314 165.329 107.273 163.892 108.222C162.455 109.171 157.84 112.476 157.84 112.476C157.84 112.476 166.206 107.49 166.358 107.314Z" fill="#591628"/>
<path d="M152.254 115.296C152.254 115.296 150.27 114.525 146.949 115.777C146.949 115.777 150.815 115.944 152.254 115.296Z" fill="#591628"/>
<path d="M149.863 108.671C150.061 109.291 154.515 108.864 156.76 107.981C158.997 107.101 162.91 101.835 162.635 101.455C162.36 101.073 149.641 107.973 149.863 108.671Z" fill="#733C46"/>
<path d="M140.176 119.933L139.188 118.174L138.442 118.598L139.429 120.356L140.176 119.933Z" fill="#450720"/>
<path d="M137.933 117.163C138.11 117.078 139.608 119.774 139.46 119.921C139.312 120.068 137.7 117.274 137.933 117.163Z" fill="#591628"/>
<path d="M138.899 120.409C138.601 120.148 138.193 119.457 138.042 119.188C137.983 119.083 137.891 118.908 137.798 118.716L138.212 118.481L139.199 120.24L138.899 120.409Z" fill="#450720"/>
<path d="M137.598 117.948C137.732 117.885 138.857 119.91 138.746 120.021C138.634 120.132 137.424 118.032 137.598 117.948Z" fill="#591628"/>
<path opacity="0.2" d="M138.775 116.872L140.416 119.795L141.125 119.392C141.125 119.392 140.037 118.35 139.101 116.683L138.775 116.872Z" fill="#380019"/>
<path d="M150.533 131.53C150.522 131.536 150.512 131.538 150.502 131.543L143.821 135.222C143.574 135.363 142.924 134.265 142.725 133.909C142.528 133.559 141.961 132.463 142.197 132.329L148.784 128.481C148.794 128.475 148.801 128.467 148.812 128.461C150.465 127.523 150.778 124.199 153.576 122.611C155.936 121.272 164.713 116.285 167.17 114.984C168.05 114.518 169.922 117.531 170.348 118.287C170.772 119.044 172.348 122.181 171.5 122.696C169.145 124.125 160.478 129.035 157.978 130.454C155.433 131.897 152.185 130.592 150.533 131.53Z" fill="#380019"/>
<path d="M150.503 131.129C149.133 131.905 146.712 133.187 144.725 134.315C144.492 134.447 143.971 133.579 143.813 133.297C143.657 133.019 143.212 132.146 143.436 132.019L149.309 128.603C150.723 127.801 151.191 124.604 153.837 123.104C156.069 121.838 164.822 116.845 167.143 115.61C167.953 115.179 169.266 117.159 169.971 118.416C170.677 119.674 171.74 121.92 170.952 122.395C168.722 123.742 160.017 128.674 157.653 130.015C155.249 131.379 152.066 130.242 150.503 131.129Z" fill="#450720"/>
<path d="M145.188 134.678L143.367 131.433C143.322 131.352 143.219 131.324 143.139 131.37L142.444 131.764C142.363 131.81 142.335 131.912 142.381 131.993L144.203 135.238C144.248 135.319 144.35 135.348 144.43 135.302L145.125 134.908C145.205 134.862 145.233 134.759 145.188 134.678Z" fill="#380019"/>
<path d="M167.794 115.832C168.819 116.675 169.881 118.454 170.465 119.793C167.558 121.58 157.309 127.655 155.993 128.264C154.395 129.001 151.166 129.821 150.186 130.266C149.205 130.71 144.848 133.252 144.848 133.252L144.165 132.106C144.165 132.106 148.682 129.489 149.577 128.981C150.976 128.188 151.721 125.334 153.462 123.854C153.989 123.484 167.794 115.832 167.794 115.832Z" fill="#520E27"/>
<path d="M153.141 123.82C152.716 123.89 149.967 127.567 150.489 128.51C151.01 129.453 155.442 127.6 155.619 127.293C155.796 126.985 153.788 123.712 153.141 123.82Z" fill="#733C46"/>
<path opacity="0.2" d="M153.074 122.932C153.232 122.819 153.398 122.712 153.575 122.612C155.936 121.272 164.712 116.286 167.169 114.985C168.048 114.519 169.833 117.371 170.311 118.224C170.789 119.076 172.355 122.176 171.498 122.696C169.144 124.125 160.476 129.035 157.976 130.454C157.814 130.545 157.65 130.625 157.483 130.697C156.117 125.721 153.074 122.932 153.074 122.932Z" fill="#380019"/>
<path d="M149.48 129.01C149.376 128.871 144.64 131.587 144.64 131.587C144.629 131.814 144.911 132.22 145.041 132.201C145.171 132.184 149.759 129.374 149.48 129.01Z" fill="#733C46"/>
<path d="M171.04 122.036C171.04 122.036 170.011 121.995 168.574 122.944C167.137 123.894 162.522 127.198 162.522 127.198C162.522 127.198 170.887 122.212 171.04 122.036Z" fill="#591628"/>
<path d="M156.936 130.018C156.936 130.018 154.952 129.248 151.631 130.5C151.631 130.5 155.497 130.666 156.936 130.018Z" fill="#591628"/>
<path d="M154.545 123.395C154.743 124.014 159.197 123.587 161.442 122.704C163.679 121.825 167.591 116.559 167.317 116.177C167.042 115.796 154.322 122.695 154.545 123.395Z" fill="#733C46"/>
<path d="M144.85 134.655L143.862 132.896L143.115 133.32L144.103 135.079L144.85 134.655Z" fill="#450720"/>
<path d="M142.614 131.885C142.791 131.801 144.289 134.496 144.141 134.643C143.994 134.79 142.382 131.996 142.614 131.885Z" fill="#591628"/>
<path d="M143.58 135.132C143.282 134.871 142.874 134.179 142.723 133.91C142.664 133.805 142.572 133.63 142.478 133.438L142.892 133.203L143.879 134.962L143.58 135.132Z" fill="#450720"/>
<path d="M142.28 132.672C142.413 132.608 143.538 134.634 143.427 134.744C143.316 134.855 142.105 132.754 142.28 132.672Z" fill="#591628"/>
<path opacity="0.2" d="M143.457 131.595L145.097 134.518L145.807 134.115C145.807 134.115 144.719 133.073 143.782 131.406L143.457 131.595Z" fill="#380019"/>
<path d="M155.214 146.252C155.203 146.259 155.193 146.26 155.183 146.266L148.502 149.945C148.255 150.084 147.605 148.988 147.406 148.632C147.21 148.282 146.642 147.185 146.878 147.051L153.465 143.204C153.475 143.198 153.482 143.19 153.493 143.184C155.146 142.246 155.459 138.921 158.257 137.333C160.617 135.994 169.394 131.008 171.851 129.707C172.731 129.241 174.603 132.253 175.029 133.01C175.453 133.766 177.029 136.903 176.18 137.419C173.826 138.848 165.158 143.758 162.658 145.176C160.115 146.619 156.867 145.315 155.214 146.252Z" fill="#380019"/>
<path d="M155.185 145.852C153.815 146.629 151.395 147.91 149.407 149.038C149.174 149.171 148.653 148.302 148.495 148.02C148.339 147.742 147.894 146.869 148.118 146.743L153.991 143.326C155.405 142.524 155.873 139.327 158.519 137.827C160.751 136.561 169.504 131.567 171.825 130.333C172.635 129.902 173.948 131.882 174.653 133.139C175.359 134.397 176.422 136.643 175.634 137.118C173.404 138.465 164.699 143.397 162.335 144.738C159.931 146.102 156.748 144.964 155.185 145.852Z" fill="#450720"/>
<path d="M149.869 149.401L148.048 146.157C148.003 146.076 147.9 146.048 147.82 146.093L147.125 146.487C147.045 146.532 147.016 146.635 147.062 146.716L148.884 149.96C148.929 150.041 149.031 150.069 149.111 150.024L149.806 149.63C149.887 149.584 149.915 149.482 149.869 149.401Z" fill="#380019"/>
<path d="M172.476 130.555C173.501 131.398 174.563 133.176 175.147 134.515C172.24 136.302 161.991 142.378 160.675 142.986C159.076 143.724 155.848 144.544 154.868 144.988C153.888 145.432 149.53 147.974 149.53 147.974L148.848 146.828C148.848 146.828 153.364 144.211 154.259 143.704C155.658 142.91 156.404 140.056 158.144 138.577C158.67 138.206 172.476 130.555 172.476 130.555Z" fill="#520E27"/>
<path d="M157.823 138.542C157.398 138.613 154.649 142.289 155.171 143.232C155.692 144.175 160.124 142.322 160.301 142.015C160.478 141.707 158.469 138.435 157.823 138.542Z" fill="#733C46"/>
<path opacity="0.2" d="M157.756 137.655C157.913 137.541 158.08 137.434 158.256 137.334C160.617 135.995 169.393 131.008 171.85 129.707C172.729 129.241 174.514 132.093 174.992 132.946C175.47 133.799 177.036 136.899 176.179 137.419C173.825 138.848 165.158 143.757 162.658 145.176C162.496 145.268 162.331 145.348 162.164 145.419C160.799 140.443 157.757 137.656 157.756 137.655Z" fill="#380019"/>
<path d="M154.162 143.732C154.057 143.594 149.321 146.309 149.321 146.309C149.31 146.536 149.592 146.942 149.722 146.924C149.853 146.906 154.44 144.096 154.162 143.732Z" fill="#733C46"/>
<path d="M175.721 136.759C175.721 136.759 174.692 136.718 173.255 137.667C171.818 138.616 167.204 141.921 167.204 141.921C167.204 141.921 175.569 136.935 175.721 136.759Z" fill="#591628"/>
<path d="M161.617 144.741C161.617 144.741 159.634 143.97 156.312 145.222C156.312 145.222 160.178 145.388 161.617 144.741Z" fill="#591628"/>
<path d="M159.227 138.117C159.425 138.736 163.879 138.31 166.124 137.427C168.361 136.547 172.274 131.281 171.999 130.9C171.724 130.518 159.004 137.418 159.227 138.117Z" fill="#733C46"/>
<path d="M149.531 149.377L148.544 147.619L147.797 148.042L148.784 149.801L149.531 149.377Z" fill="#450720"/>
<path d="M147.296 146.608C147.473 146.523 148.971 149.218 148.823 149.366C148.675 149.513 147.064 146.718 147.296 146.608Z" fill="#591628"/>
<path d="M148.262 149.854C147.964 149.593 147.556 148.901 147.405 148.632C147.346 148.528 147.254 148.353 147.16 148.16L147.574 147.925L148.561 149.684L148.262 149.854Z" fill="#450720"/>
<path d="M146.961 147.394C147.095 147.33 148.22 149.356 148.109 149.467C147.997 149.577 146.787 147.477 146.961 147.394Z" fill="#591628"/>
<path opacity="0.2" d="M148.139 146.318L149.779 149.24L150.49 148.838C150.49 148.838 149.402 147.796 148.465 146.129L148.139 146.318Z" fill="#380019"/>
<path d="M159.896 160.975C159.886 160.981 159.875 160.983 159.865 160.988L153.184 164.667C152.938 164.807 152.287 163.71 152.088 163.354C151.891 163.004 151.325 161.907 151.56 161.773L158.147 157.926C158.157 157.92 158.164 157.912 158.175 157.906C159.828 156.968 160.142 153.643 162.939 152.056C165.3 150.716 174.076 145.73 176.533 144.429C177.413 143.963 179.286 146.975 179.711 147.732C180.135 148.489 181.711 151.625 180.863 152.14C178.509 153.569 169.841 158.479 167.341 159.897C164.796 161.341 161.549 160.037 159.896 160.975Z" fill="#380019"/>
<path d="M159.867 160.574C158.497 161.35 156.077 162.633 154.089 163.76C153.856 163.893 153.335 163.025 153.177 162.742C153.021 162.465 152.576 161.591 152.8 161.465L158.673 158.049C160.087 157.247 160.555 154.05 163.201 152.549C165.433 151.283 174.186 146.291 176.507 145.056C177.317 144.625 178.63 146.604 179.335 147.862C180.041 149.119 181.104 151.365 180.316 151.84C178.086 153.188 169.381 158.119 167.017 159.46C164.612 160.825 161.429 159.687 159.867 160.574Z" fill="#450720"/>
<path d="M154.551 164.124L152.73 160.879C152.685 160.798 152.582 160.769 152.502 160.815L151.807 161.21C151.727 161.255 151.698 161.358 151.744 161.439L153.566 164.684C153.611 164.765 153.713 164.793 153.793 164.747L154.488 164.353C154.568 164.307 154.596 164.205 154.551 164.124Z" fill="#380019"/>
<path d="M177.157 145.277C178.182 146.12 179.244 147.898 179.828 149.238C176.921 151.025 166.673 157.099 165.356 157.708C163.758 158.447 160.529 159.266 159.55 159.71C158.569 160.154 154.212 162.696 154.212 162.696L153.529 161.55C153.529 161.55 158.046 158.933 158.941 158.426C160.34 157.632 161.085 154.779 162.826 153.299C163.352 152.928 177.157 145.277 177.157 145.277Z" fill="#520E27"/>
<path d="M162.505 153.264C162.08 153.335 159.331 157.012 159.853 157.955C160.374 158.898 164.806 157.045 164.984 156.737C165.16 156.43 163.152 153.157 162.505 153.264Z" fill="#733C46"/>
<path opacity="0.2" d="M162.438 152.377C162.595 152.264 162.761 152.157 162.938 152.056C165.299 150.717 174.075 145.731 176.532 144.43C177.411 143.964 179.196 146.816 179.674 147.668C180.152 148.521 181.718 151.621 180.861 152.141C178.507 153.57 169.839 158.48 167.339 159.897C167.178 159.989 167.013 160.07 166.846 160.14C165.48 155.166 162.439 152.378 162.438 152.377Z" fill="#380019"/>
<path d="M158.844 158.455C158.738 158.316 154.003 161.031 154.003 161.031C153.992 161.259 154.274 161.664 154.404 161.647C154.534 161.629 159.122 158.819 158.844 158.455Z" fill="#733C46"/>
<path d="M180.403 151.482C180.403 151.482 179.374 151.441 177.937 152.39C176.5 153.339 171.885 156.644 171.885 156.644C171.885 156.644 180.25 151.658 180.403 151.482Z" fill="#591628"/>
<path d="M166.299 159.463C166.299 159.463 164.316 158.692 160.994 159.945C160.994 159.945 164.86 160.111 166.299 159.463Z" fill="#591628"/>
<path d="M163.908 152.839C164.106 153.458 168.56 153.032 170.805 152.149C173.042 151.269 176.954 146.003 176.68 145.622C176.405 145.24 163.686 152.141 163.908 152.839Z" fill="#733C46"/>
<path d="M154.2 164.1L153.213 162.341L152.466 162.765L153.453 164.523L154.2 164.1Z" fill="#450720"/>
<path d="M151.977 161.331C152.155 161.246 153.652 163.942 153.504 164.089C153.357 164.236 151.746 161.441 151.977 161.331Z" fill="#591628"/>
<path d="M152.944 164.576C152.647 164.315 152.238 163.624 152.087 163.355C152.028 163.249 151.936 163.075 151.842 162.883L152.256 162.647L153.243 164.407L152.944 164.576Z" fill="#450720"/>
<path d="M151.644 162.116C151.777 162.053 152.902 164.078 152.791 164.189C152.68 164.3 151.469 162.199 151.644 162.116Z" fill="#591628"/>
<path opacity="0.2" d="M152.821 161.04L154.461 163.963L155.171 163.56C155.171 163.56 154.083 162.518 153.146 160.851L152.821 161.04Z" fill="#380019"/>
<path d="M164.578 175.697C164.567 175.703 164.557 175.705 164.547 175.71L157.866 179.389C157.62 179.529 156.969 178.432 156.77 178.076C156.573 177.726 156.007 176.63 156.242 176.496L162.829 172.648C162.839 172.642 162.846 172.634 162.857 172.628C164.51 171.69 164.824 168.365 167.621 166.778C169.981 165.439 178.758 160.452 181.215 159.151C182.095 158.685 183.968 161.697 184.393 162.454C184.817 163.211 186.393 166.348 185.545 166.863C183.191 168.292 174.523 173.202 172.023 174.62C169.478 176.064 166.231 174.759 164.578 175.697Z" fill="#380019"/>
<path d="M164.548 175.297C163.178 176.073 160.758 177.355 158.77 178.483C158.537 178.615 158.016 177.747 157.858 177.465C157.702 177.187 157.257 176.314 157.481 176.187L163.354 172.771C164.768 171.969 165.236 168.772 167.882 167.272C170.114 166.006 178.867 161.013 181.188 159.778C181.998 159.347 183.311 161.327 184.016 162.584C184.722 163.842 185.785 166.087 184.997 166.563C182.767 167.91 174.062 172.842 171.698 174.183C169.294 175.547 166.111 174.41 164.548 175.297Z" fill="#450720"/>
<path d="M159.233 178.846L157.412 175.601C157.367 175.52 157.264 175.492 157.184 175.538L156.489 175.932C156.409 175.978 156.38 176.08 156.426 176.161L158.248 179.406C158.293 179.487 158.395 179.515 158.476 179.47L159.17 179.075C159.25 179.03 159.278 178.927 159.233 178.846Z" fill="#380019"/>
<path d="M181.84 159.999C182.864 160.842 183.926 162.621 184.51 163.96C181.603 165.747 171.355 171.823 170.038 172.431C168.44 173.168 165.211 173.989 164.232 174.433C163.252 174.877 158.894 177.419 158.894 177.419L158.211 176.273C158.211 176.273 162.728 173.656 163.623 173.148C165.022 172.355 165.768 169.501 167.508 168.022C168.034 167.651 181.84 159.999 181.84 159.999Z" fill="#520E27"/>
<path d="M167.186 167.987C166.761 168.057 164.013 171.734 164.534 172.677C165.056 173.62 169.487 171.767 169.665 171.46C169.841 171.152 167.834 167.88 167.186 167.987Z" fill="#733C46"/>
<path opacity="0.2" d="M167.119 167.099C167.277 166.986 167.443 166.879 167.62 166.779C169.981 165.44 178.757 160.453 181.214 159.152C182.093 158.686 183.877 161.538 184.356 162.391C184.835 163.243 186.4 166.343 185.543 166.863C183.189 168.292 174.521 173.202 172.021 174.62C171.859 174.711 171.695 174.792 171.528 174.863C170.162 169.889 167.119 167.099 167.119 167.099Z" fill="#380019"/>
<path d="M163.526 173.177C163.42 173.038 158.685 175.754 158.685 175.754C158.674 175.981 158.956 176.387 159.086 176.369C159.216 176.351 163.803 173.542 163.526 173.177Z" fill="#733C46"/>
<path d="M185.084 166.204C185.084 166.204 184.055 166.163 182.618 167.113C181.181 168.062 176.567 171.367 176.567 171.367C176.567 171.367 184.932 166.38 185.084 166.204Z" fill="#591628"/>
<path d="M170.981 174.185C170.981 174.185 168.997 173.415 165.676 174.667C165.676 174.667 169.542 174.833 170.981 174.185Z" fill="#591628"/>
<path d="M168.591 167.562C168.788 168.181 173.242 167.754 175.487 166.871C177.724 165.992 181.637 160.726 181.362 160.344C181.088 159.964 168.367 166.863 168.591 167.562Z" fill="#733C46"/>
<path d="M158.906 178.825L157.918 177.066L157.172 177.49L158.159 179.249L158.906 178.825Z" fill="#450720"/>
<path d="M156.659 176.053C156.837 175.969 158.334 178.664 158.186 178.811C158.038 178.958 156.428 176.164 156.659 176.053Z" fill="#591628"/>
<path d="M157.625 179.299C157.328 179.038 156.919 178.346 156.768 178.077C156.709 177.972 156.617 177.798 156.523 177.605L156.937 177.37L157.924 179.129L157.625 179.299Z" fill="#450720"/>
<path d="M156.324 176.839C156.458 176.775 157.583 178.801 157.472 178.911C157.361 179.022 156.15 176.922 156.324 176.839Z" fill="#591628"/>
<path opacity="0.2" d="M157.502 175.762L159.142 178.685L159.852 178.283C159.852 178.283 158.764 177.24 157.827 175.573L157.502 175.762Z" fill="#380019"/>
<path d="M169.259 190.42C169.248 190.426 169.238 190.428 169.228 190.433L162.547 194.114C162.301 194.254 161.65 193.157 161.451 192.8C161.254 192.45 160.687 191.354 160.923 191.22L167.51 187.372C167.52 187.366 167.527 187.359 167.538 187.352C169.19 186.415 169.504 183.09 172.302 181.502C174.662 180.163 183.439 175.176 185.896 173.875C186.776 173.409 188.649 176.422 189.074 177.178C189.498 177.935 191.074 181.072 190.226 181.587C187.871 183.017 179.204 187.926 176.704 189.344C174.159 190.786 170.912 189.483 169.259 190.42Z" fill="#380019"/>
<path d="M169.229 190.019C167.86 190.795 165.44 192.078 163.452 193.205C163.219 193.338 162.698 192.469 162.54 192.187C162.384 191.909 161.939 191.036 162.163 190.91L168.036 187.493C169.449 186.691 169.919 183.495 172.564 181.994C174.796 180.728 183.549 175.735 185.87 174.501C186.68 174.07 187.992 176.049 188.698 177.306C189.404 178.564 190.467 180.81 189.678 181.285C187.449 182.632 178.744 187.564 176.38 188.905C173.976 190.27 170.793 189.132 169.229 190.019Z" fill="#450720"/>
<path d="M163.914 193.568L162.093 190.324C162.048 190.243 161.946 190.215 161.865 190.26L161.17 190.655C161.09 190.7 161.062 190.803 161.107 190.884L162.929 194.128C162.974 194.209 163.076 194.238 163.157 194.192L163.851 193.798C163.932 193.752 163.96 193.649 163.914 193.568Z" fill="#380019"/>
<path d="M186.521 174.723C187.546 175.566 188.608 177.344 189.192 178.683C186.285 180.47 176.036 186.546 174.72 187.154C173.121 187.891 169.893 188.712 168.912 189.156C167.932 189.6 163.575 192.142 163.575 192.142L162.892 190.996C162.892 190.996 167.409 188.379 168.303 187.871C169.702 187.078 170.448 184.224 172.188 182.745C172.715 182.374 186.521 174.723 186.521 174.723Z" fill="#520E27"/>
<path d="M171.868 182.709C171.443 182.78 168.694 186.456 169.216 187.399C169.737 188.342 174.169 186.489 174.346 186.182C174.523 185.875 172.514 182.602 171.868 182.709Z" fill="#733C46"/>
<path opacity="0.2" d="M171.8 181.822C171.958 181.708 172.124 181.601 172.301 181.501C174.661 180.162 183.438 175.175 185.895 173.874C186.774 173.409 188.558 176.261 189.037 177.113C189.515 177.966 191.081 181.066 190.224 181.586C187.87 183.015 179.202 187.924 176.702 189.342C176.54 189.435 176.376 189.515 176.209 189.585C174.842 184.611 171.802 181.823 171.8 181.822Z" fill="#380019"/>
<path d="M168.207 187.899C168.102 187.761 163.367 190.476 163.367 190.476C163.356 190.703 163.638 191.109 163.768 191.091C163.897 191.074 168.484 188.264 168.207 187.899Z" fill="#733C46"/>
<path d="M189.766 180.927C189.766 180.927 188.737 180.886 187.3 181.835C185.863 182.784 181.249 186.089 181.249 186.089C181.249 186.089 189.614 181.102 189.766 180.927Z" fill="#591628"/>
<path d="M175.662 188.909C175.662 188.909 173.679 188.138 170.357 189.39C170.357 189.39 174.223 189.556 175.662 188.909Z" fill="#591628"/>
<path d="M173.272 182.285C173.47 182.904 177.924 182.477 180.17 181.594C182.407 180.715 186.32 175.449 186.045 175.068C185.77 174.686 173.049 181.586 173.272 182.285Z" fill="#733C46"/>
<path d="M163.559 193.544L162.571 191.785L161.824 192.209L162.812 193.968L163.559 193.544Z" fill="#450720"/>
<path d="M161.341 190.776C161.519 190.691 163.016 193.386 162.868 193.534C162.72 193.681 161.109 190.886 161.341 190.776Z" fill="#591628"/>
<path d="M162.307 194.022C162.009 193.761 161.601 193.069 161.45 192.8C161.391 192.696 161.299 192.521 161.206 192.328L161.62 192.094L162.607 193.853L162.307 194.022Z" fill="#450720"/>
<path d="M161.006 191.561C161.14 191.498 162.265 193.523 162.154 193.634C162.043 193.744 160.832 191.645 161.006 191.561Z" fill="#591628"/>
<path opacity="0.2" d="M162.184 190.485L163.824 193.407L164.534 193.005C164.534 193.005 163.446 191.963 162.509 190.296L162.184 190.485Z" fill="#380019"/>
<path d="M117.263 76.1212L115.997 75.2791L118.661 67.1542L119.927 67.9955L117.263 76.1212Z" fill="#AF6F2F"/>
<path d="M79.7784 213.808H74.9744L80.3631 197.329H85.1682L79.7784 213.808Z" fill="#AF6F2F"/>
<path d="M81.2295 209.372L75.0386 205.246L119.666 68.7897L125.857 72.9157L81.2295 209.372Z" fill="#BF8237"/>
<g opacity="0.1">
<path d="M104.361 126.436C103.4 129.374 102.416 132.292 101.434 135.204C100.456 138.104 99.4799 140.999 98.5297 143.905C94.7468 155.47 90.8367 168.637 89.637 183.663L114.514 107.598C114.838 105.645 115.156 103.695 115.465 101.78C117.176 91.1928 118.957 80.2725 122.046 70.3755L119.666 68.7888L114.02 86.054C112.712 95.1708 109.733 110.009 104.361 126.436Z" fill="#BF8237"/>
<path d="M78.2436 206.66C81.7501 195.939 83.9036 185.645 84.7585 175.525L75.0386 205.246L78.0461 207.25C78.1111 207.054 78.1795 206.856 78.2436 206.66Z" fill="#BF8237"/>
</g>
<path d="M114.514 107.598L116.64 101.098C118.287 90.9185 120.042 80.4842 122.998 71.0103L122.045 70.3755C118.956 80.2725 117.175 91.1928 115.464 101.78C115.156 103.696 114.838 105.646 114.514 107.598Z" fill="#AF6F2F"/>
<path d="M100.484 134.564C99.505 137.466 98.5287 140.363 97.5776 143.27C93.4275 155.96 89.1258 170.576 88.3904 187.478L89.6378 183.664C90.8375 168.637 94.7485 155.47 98.5305 143.905C99.4807 141 100.457 138.106 101.435 135.205C102.417 132.293 103.4 129.375 104.362 126.437C109.734 110.01 112.712 95.1717 114.019 86.0558L111.883 92.5906C110.263 101.44 107.551 113.139 103.409 125.802C102.448 128.737 101.465 131.654 100.484 134.564Z" fill="#AF6F2F"/>
<path d="M86.0404 171.605L84.7584 175.524C83.9035 185.644 81.75 195.938 78.2435 206.659C78.1794 206.855 78.1101 207.053 78.0452 207.249L78.998 207.884C79.063 207.687 79.1323 207.49 79.1964 207.294C83.2269 194.971 85.4887 183.2 86.0404 171.605Z" fill="#AF6F2F"/>
<path d="M75.0887 205.265L73.8223 204.423L76.4859 196.298L77.7523 197.14L75.0887 205.265Z" fill="#AF6F2F"/>
<path d="M171.685 213.808H176.49L171.102 197.329H166.297L171.685 213.808Z" fill="#AF6F2F"/>
<path d="M170.235 209.372L176.426 205.246L131.799 68.7897L125.607 72.9157L170.235 209.372Z" fill="#BF8237"/>
<g opacity="0.1">
<path d="M147.104 126.436C148.064 129.374 149.048 132.292 150.031 135.204C151.009 138.104 151.985 140.999 152.935 143.905C156.718 155.47 160.628 168.637 161.828 183.663L136.951 107.598C136.627 105.645 136.309 103.695 135.999 101.78C134.289 91.1928 132.508 80.2725 129.419 70.3755L131.799 68.7888L137.445 86.054C138.753 95.1708 141.731 110.009 147.104 126.436Z" fill="#BF8237"/>
<path d="M173.22 206.66C169.714 195.939 167.56 185.645 166.705 175.525L176.425 205.246L173.418 207.25C173.354 207.054 173.285 206.856 173.22 206.66Z" fill="#BF8237"/>
</g>
<path d="M136.951 107.598L134.825 101.098C133.178 90.9185 131.422 80.4842 128.467 71.0103L129.42 70.3755C132.509 80.2725 134.29 91.1928 136 101.78C136.309 103.696 136.626 105.646 136.951 107.598Z" fill="#AF6F2F"/>
<path d="M150.981 134.564C151.96 137.466 152.936 140.363 153.887 143.27C158.037 155.96 162.339 170.576 163.074 187.478L161.827 183.664C160.627 168.637 156.716 155.47 152.934 143.905C151.984 141 151.008 138.106 150.03 135.205C149.047 132.293 148.064 129.375 147.103 126.437C141.73 110.01 138.752 95.1717 137.444 86.0558L139.581 92.5906C141.201 101.44 143.913 113.139 148.055 125.802C149.016 128.737 149.999 131.654 150.981 134.564Z" fill="#AF6F2F"/>
<path d="M165.425 171.605L166.707 175.524C167.562 185.644 169.715 195.938 173.222 206.659C173.286 206.855 173.355 207.053 173.42 207.249L172.467 207.884C172.402 207.687 172.333 207.49 172.269 207.294C168.238 194.971 165.976 183.2 165.425 171.605Z" fill="#AF6F2F"/>
<path d="M134.201 76.1212L135.468 75.2791L132.805 67.1542L131.538 67.9955L134.201 76.1212Z" fill="#AF6F2F"/>
<path d="M176.385 205.265L177.651 204.423L174.988 196.298L173.721 197.14L176.385 205.265Z" fill="#AF6F2F"/>
<path d="M126.162 176.012C104.897 176.012 89.7003 172.095 89.4734 172.035L89.8164 170.723C90.1534 170.812 124.031 179.531 161.455 170.719L161.764 172.04C149.117 175.019 136.869 176.012 126.162 176.012Z" fill="#FFAF3B"/>
<path d="M90.5926 170.689C91.0985 171.391 91.0846 172.269 90.5614 172.649C90.0382 173.031 89.204 172.771 88.6981 172.07C88.1923 171.369 88.2061 170.491 88.7293 170.109C89.2525 169.728 90.0867 169.987 90.5926 170.689Z" fill="#FFC043"/>
<path d="M160.662 170.689C160.156 171.391 160.17 172.269 160.693 172.649C161.216 173.031 162.05 172.771 162.556 172.07C163.062 171.369 163.048 170.491 162.525 170.109C162.003 169.728 161.168 169.987 160.662 170.689Z" fill="#FFC043"/>
<path d="M47.2754 91.7191L57.0686 91.7553C57.0686 91.7553 53.1375 89.4242 47.2754 91.7191Z" fill="#CEC7E2"/>
<path d="M53.8895 78.9364L50.5469 78.9237C52.1271 80.9306 51.9108 88.2999 50.6141 91.104L53.7337 91.1158C52.4623 88.3645 52.2986 80.9276 53.8895 78.9364Z" fill="#CEC7E2"/>
<path opacity="0.4" d="M57.3171 60.5758L47.254 60.5386C47.254 60.5386 43.1582 71.1499 44.5212 73.5564C45.8842 75.9629 50.6619 78.1989 50.6619 78.1989C51.7541 78.5828 52.7907 78.5662 53.7805 78.2107C53.7805 78.2107 58.8437 75.8277 59.9554 73.6142C61.066 71.3996 57.3171 60.5758 57.3171 60.5758Z" fill="#CEC7E2"/>
<path d="M57.697 59.9892L46.8857 59.949C46.8857 59.949 42.485 71.3497 43.9493 73.9364C45.4136 76.5221 50.547 78.9237 50.547 78.9237C51.721 79.337 52.8345 79.3184 53.8974 78.9364C53.8974 78.9364 59.3377 76.3762 60.5321 73.9981C61.7246 71.619 57.697 59.9892 57.697 59.9892ZM59.9554 73.6132C58.8447 75.8267 53.7805 78.2097 53.7805 78.2097C52.7916 78.5662 51.755 78.5829 50.6619 78.1979C50.6619 78.1979 45.8842 75.9629 44.5212 73.5554C43.1582 71.1479 47.254 60.5377 47.254 60.5377L57.3171 60.5749C57.3171 60.5749 61.066 71.3996 59.9554 73.6132Z" fill="#CEC7E2"/>
<path opacity="0.6" d="M47.7293 61.3242C47.7293 61.3242 46.2299 65.5446 45.5382 68.0715C44.8455 70.5985 44.713 72.6347 44.8942 73.1196C45.0754 73.6044 46.2504 74.8267 47.589 75.6113C47.589 75.6113 46.1695 72.0187 51.186 61.2987L47.7293 61.3242Z" fill="white"/>
<path opacity="0.6" d="M51.7764 61.2537C51.7764 61.2537 56.7919 61.0019 56.7861 61.2145C56.7802 61.426 53.7532 61.5749 53.7532 61.5749L51.1373 64.144L50.4563 64.1557C50.4563 64.1557 51.2152 62.3213 51.7764 61.2537Z" fill="white"/>
<path d="M44.3466 70.7523C44.1897 71.9726 44.2033 72.9932 44.5219 73.5564C45.8849 75.9629 50.6627 78.1989 50.6627 78.1989C51.7549 78.5829 52.7914 78.5662 53.7813 78.2107C53.7813 78.2107 58.8445 75.8277 59.9561 73.6142C60.226 73.0765 60.2055 72.0265 60.0253 70.7532H44.3466V70.7523Z" fill="#75234E"/>
<path opacity="0.2" d="M60.0243 70.7523H59.5498C59.7057 71.9021 59.7193 72.8502 59.4738 73.3399C58.4314 75.4163 53.6829 77.6514 53.6829 77.6514C52.7554 77.9854 51.7831 78.0011 50.7581 77.6406C50.7581 77.6406 46.2776 75.5446 44.9984 73.287C44.708 72.7748 44.6915 71.8532 44.825 70.7532H44.3466C44.1897 71.9736 44.2033 72.9942 44.5219 73.5574C45.8849 75.9638 50.6627 78.1999 50.6627 78.1999C51.7549 78.5839 52.7914 78.5672 53.7813 78.2117C53.7813 78.2117 58.8445 75.8287 59.9561 73.6152C60.225 73.0765 60.2045 72.0265 60.0243 70.7523Z" fill="#75234E"/>
<path opacity="0.2" d="M52.204 73.6318C49.5287 73.6318 47.1271 74.0559 45.4475 74.7268C47.3415 76.6407 50.6617 78.198 50.6617 78.198C51.7539 78.5819 52.7905 78.5653 53.7803 78.2097C53.7803 78.2097 57.2331 76.5819 59.0608 74.768C57.3783 74.0726 54.9338 73.6318 52.204 73.6318Z" fill="#75234E"/>
<path opacity="0.2" d="M53.7307 77.8042C53.7307 77.8042 56.5784 76.4604 58.3613 74.8865C58.5708 74.6896 58.7559 74.5084 58.9264 74.338C59.1934 74.048 59.4164 73.7542 59.5626 73.4643C60.1013 72.3908 59.3288 68.9608 58.5309 66.047C58.4861 65.9265 58.4587 65.8541 58.4587 65.8541L57.5458 66.5534C56.1458 74.8629 52.6931 78.0069 52.6931 78.0069C52.8159 78.0118 52.9425 77.9962 53.0682 77.9854C53.2903 77.9403 53.5115 77.8825 53.7307 77.8042Z" fill="white"/>
<path opacity="0.4" d="M58.3604 74.8854C58.5699 74.6886 58.755 74.5074 58.9255 74.337C59.1924 74.047 59.4156 73.7532 59.5617 73.4633C59.9056 72.7777 59.7127 71.1303 59.323 69.2713C58.3429 72.8825 56.1313 75.9707 55.4036 76.9197C56.334 76.3879 57.4777 75.6661 58.3604 74.8854Z" fill="#724C9E"/>
<path opacity="0.2" d="M55.0324 59.9794C55.0324 59.9794 56.938 69.1675 54.7723 73.5721C54.1906 74.7543 51.7823 78.6181 50.4758 78.8894C50.5206 78.911 50.5479 78.9237 50.5479 78.9237C50.7671 79.2019 50.9474 79.5927 51.0994 80.0501C51.113 80.0922 51.1344 80.1363 51.1461 80.1774L52.3211 80.2744C52.3211 80.2744 51.9927 86.5575 52.3922 90.7446C52.3922 90.7446 52.6591 91.2177 52.9037 91.7397L57.0696 91.7554C57.0696 91.7554 55.7865 90.9992 53.5993 90.774C52.4575 87.8014 52.36 80.8581 53.8896 78.9394C53.8925 78.9384 53.8955 78.9384 53.8984 78.9374C53.8984 78.9374 59.3386 76.3772 60.5331 73.9981C61.7265 71.6201 57.699 59.9902 57.699 59.9902L55.0324 59.9794Z" fill="#75234E"/>
<path opacity="0.4" d="M51.0942 90.8111C51.0942 90.8111 51.6047 88.0002 51.7947 87.9727C51.9837 87.9453 52.0617 90.8229 52.0617 90.8229C52.0617 90.8229 51.4401 90.771 51.0942 90.8111Z" fill="white"/>
<path opacity="0.4" d="M49.3572 91.3097C49.3825 91.1912 50.5078 90.8836 51.8737 91.0159L52.0266 91.392C52.0266 91.392 49.3279 91.4458 49.3572 91.3097Z" fill="white"/>
<path d="M78.5312 41.4765C78.5312 41.451 78.5234 41.4294 78.5224 41.405L78.3207 25.2658C78.3207 24.6663 75.6435 24.6007 74.7871 24.6017C73.9444 24.6027 71.3558 24.6918 71.3558 25.2658L71.1541 41.405C71.1531 41.4304 71.1453 41.451 71.1453 41.4765C71.1453 45.499 65.4001 49.5206 65.4001 56.3277C65.4001 62.0701 65.3875 83.4317 65.557 89.3113C65.6174 91.419 73.0578 91.754 74.8787 91.754C76.6996 91.754 84.0591 91.4112 84.1205 89.3123C84.291 83.4865 84.2763 62.409 84.2763 56.3267C84.2763 50.1396 78.5312 45.498 78.5312 41.4765Z" fill="#380019"/>
<path d="M77.7684 41.8372C77.7674 38.5052 77.6017 32.7108 77.6017 27.8743C77.6017 27.3072 75.4769 27.2456 74.7978 27.2465C74.1295 27.2475 72.0748 27.3317 72.0748 27.8743L71.9219 42.2506C71.9219 45.6904 66.5712 49.8667 66.5712 56.3016C66.5712 61.7316 66.5235 83.0559 66.6726 88.6162C66.7242 90.5565 71.6988 90.9297 74.7248 90.9297C77.7518 90.9297 82.9524 90.5643 83.005 88.6182C83.155 83.1088 83.1424 61.9383 83.1424 56.187C83.1424 50.3349 77.7684 45.6404 77.7684 41.8372Z" fill="#450720"/>
<path d="M78.7437 28.3533H70.933C70.7382 28.3533 70.5813 28.1946 70.5813 27.9997V26.3102C70.5813 26.1143 70.7392 25.9566 70.933 25.9566H78.7437C78.9385 25.9566 79.0953 26.1153 79.0953 26.3102V27.9997C79.0953 28.1946 78.9385 28.3533 78.7437 28.3533Z" fill="#380019"/>
<path d="M67.7522 89.5888C70.3525 90.6074 74.6996 90.723 77.75 90.4135C78.0014 83.198 78.4778 57.995 78.2245 54.9353C77.9166 51.2222 76.0704 44.4151 75.8648 42.1467C75.6593 39.8774 75.7878 29.2034 75.7878 29.2034L72.9888 29.131C72.9888 29.131 72.8894 40.1761 72.8894 42.3524C72.8894 45.756 68.4527 50.088 67.5544 54.8315C67.4209 56.189 67.7522 89.5888 67.7522 89.5888Z" fill="#520E27"/>
<path d="M67.1559 54.2781C66.8442 53.4201 70.7101 44.5395 72.9723 44.5248C75.2345 44.5091 76.4416 54.6071 76.0636 55.2526C75.6856 55.8971 67.6294 55.5817 67.1559 54.2781Z" fill="#733C46"/>
<path opacity="0.2" d="M65.4664 55.0724C65.4235 55.4798 65.4001 55.8981 65.4001 56.3271C65.4001 62.0695 65.3875 83.4311 65.557 89.3106C65.6174 91.4155 72.673 91.7533 74.7248 91.7533C76.7775 91.7533 84.0591 91.4311 84.1205 89.3116C84.291 83.4859 84.2763 62.4084 84.2763 56.3261C84.2763 55.9323 84.252 55.5454 84.2081 55.1635C73.7095 57.7972 65.4693 55.0743 65.4664 55.0724Z" fill="#380019"/>
<path d="M72.8399 42.1458C72.4785 42.0948 72.5301 30.5443 72.5301 30.5443C72.9335 30.2877 73.9662 30.3896 74.0695 30.6472C74.1718 30.9057 73.7937 42.2809 72.8399 42.1458Z" fill="#733C46"/>
<path d="M82.4409 89.151C82.4409 89.151 81.3001 87.295 81.5446 83.6593C81.7892 80.0236 83.043 68.0862 83.043 68.0862C83.043 68.0862 82.6036 88.6867 82.4409 89.151Z" fill="#591628"/>
<path d="M82.4039 54.8579C82.4039 54.8579 78.9414 51.996 77.7869 44.5699C77.7869 44.5699 82.096 51.5317 82.4039 54.8579Z" fill="#591628"/>
<path d="M67.835 57.3084C69.1707 57.0313 73.0044 65.6915 73.7185 70.7512C74.4287 75.7895 68.8687 88.4634 67.8876 88.3518C66.9065 88.2391 66.3278 57.6209 67.835 57.3084Z" fill="#733C46"/>
<path d="M78.3286 25.9556H74.0945V27.7735H78.3286V25.9556Z" fill="#450720"/>
<path d="M70.9789 26.4963C71.0082 26.9115 77.4801 26.8831 77.5961 26.4581C77.711 26.032 70.94 25.9556 70.9789 26.4963Z" fill="#591628"/>
<path d="M77.905 24.9164C77.1208 24.6383 75.4343 24.6011 74.7864 24.6011C74.5341 24.6011 74.12 24.6118 73.6709 24.6383V25.6451H77.905V24.9164Z" fill="#450720"/>
<path d="M72.067 25.0653C72.0894 25.3778 76.9529 25.3562 77.0396 25.036C77.1263 24.7167 72.0378 24.6589 72.067 25.0653Z" fill="#591628"/>
<path opacity="0.2" d="M71.3208 28.3533H78.3549V30.0801C78.3549 30.0801 75.325 29.1516 71.311 29.1516L71.3208 28.3533Z" fill="#380019"/>
<path d="M83.3998 61.0714H66.3015V81.7865H83.3998V61.0714Z" fill="#F7D7BA"/>
<path d="M83.3998 61.0714H78.2849V81.7865H83.3998V61.0714Z" fill="#E5BD9E"/>
<path d="M67.4872 61.0714H66.3015V81.7865H67.4872V61.0714Z" fill="#E5BD9E"/>
</svg>
