<svg width="250" height="250" viewBox="0 0 250 250" fill="none" xmlns="http://www.w3.org/2000/svg">
<path d="M61.2429 70.4315C61.2429 70.4315 61.4661 69.7566 62.2369 69.4313L62.2441 69.7494C62.2441 69.7494 62.7594 69.2565 63.7283 69.3061L63.627 69.5151C63.627 69.5151 64.0778 69.3628 64.474 69.4304L64.3494 69.5475L64.6801 70.6729L64.9212 70.6549C64.9212 70.6549 64.7321 71.2352 64.379 71.4821L64.5484 71.5794C64.5484 71.5794 64.3082 72.4705 63.7525 72.5291L61.2429 70.4315Z" fill="#688C29"/>
<path d="M55.7954 73.7302C55.7954 73.7302 57.1407 71.7055 59.2873 71.656C59.2873 71.656 58.011 71.9056 57.4141 70.7063C56.8172 69.507 57.4302 67.4572 57.0995 66.3903C57.0995 66.3903 59.9998 67.0319 60.7957 68.4564C61.458 69.6431 61.1282 70.5738 61.1282 70.5738C61.1282 70.5738 61.5414 69.9314 62.5865 69.6314C63.6306 69.3313 64.2517 69.7314 65.122 69.4313C64.7742 70.1314 64.7536 70.6585 64.3808 71.4839C64.068 72.1759 63.8448 72.5102 63.1986 72.5895C62.5533 72.6679 57.8506 75.9963 55.7954 73.7302Z" fill="#688C29"/>
<path d="M60.7805 73.3941C60.7805 73.3941 60.8513 73.049 61.0592 72.6309C61.2618 72.202 61.6239 71.6848 62.0684 71.2631C62.5103 70.836 63.0319 70.5189 63.437 70.3305C63.8404 70.135 64.1218 70.0422 64.1218 70.0422C64.1298 70.0395 64.1388 70.0431 64.1415 70.0512C64.1442 70.0584 64.1406 70.0665 64.1334 70.0701C64.1334 70.0701 63.8655 70.1981 63.498 70.4396C63.1278 70.6729 62.6689 71.0433 62.3104 71.492C61.9492 71.9371 61.6857 72.4444 61.5575 72.8408C61.4213 73.2445 61.4079 73.4923 61.4079 73.4923C61.398 73.6689 61.2474 73.804 61.0718 73.7941C60.8961 73.7842 60.7616 73.6329 60.7715 73.4562C60.7724 73.4409 60.7742 73.4265 60.7769 73.4112L60.7805 73.3941Z" fill="#5B821D"/>
<path d="M60.9983 73.5833C60.9983 73.5833 60.8011 73.468 60.4291 73.3509C60.0662 73.2319 59.5526 73.1373 59.0274 73.1256C57.968 73.0796 56.9391 73.4698 56.9391 73.4698C56.931 73.4725 56.922 73.4689 56.9194 73.4608C56.9167 73.4536 56.9203 73.4455 56.9265 73.4419C56.9265 73.4419 57.89 72.9057 59.0103 72.7922C59.5624 72.7264 60.1298 72.749 60.5519 72.8229C60.9687 72.8886 61.2627 73.004 61.2627 73.004L61.2735 73.0085C61.4375 73.0724 61.519 73.2581 61.4554 73.4229C61.3917 73.5878 61.2071 73.6698 61.0431 73.6059C61.0279 73.5986 61.0126 73.5905 60.9983 73.5833Z" fill="#5B821D"/>
<path d="M58.9475 71.6749C58.9475 71.6749 58.2842 71.9308 57.4892 71.2802L57.7088 71.1343C57.7088 71.1343 56.9676 70.4549 56.843 70.0053L57.206 70.0278C57.206 70.0278 56.9425 69.1304 56.8681 68.7303L57.1496 68.706C57.1496 68.706 56.9927 67.9554 56.9927 67.431L57.2015 67.5571L58.4868 66.8237L58.3344 66.6057C58.3344 66.6057 59.1545 66.9264 59.3293 67.203L59.3544 66.9805C59.3544 66.9805 60.1054 67.5481 60.4514 68.0014L60.6477 67.7554C60.6477 67.7554 60.9883 68.6735 61.0887 69.1475L61.319 69.0303C61.319 69.0303 61.561 70.2161 61.129 70.5729C60.697 70.9297 61.0206 70.6297 61.0206 70.6297L58.9475 71.6749Z" fill="#688C29"/>
<path d="M58.2529 67.4986C58.2529 67.4986 58.5711 67.9509 58.9977 68.6627C59.4253 69.3737 59.9594 70.345 60.4479 71.3397C61.4383 73.3256 62.1947 75.4223 62.1947 75.4223C62.2566 75.5872 62.1741 75.7719 62.0101 75.8341C61.8461 75.8963 61.6624 75.8134 61.6005 75.6485C61.5978 75.6422 61.5942 75.6305 61.5924 75.6242C61.5924 75.6242 60.9857 73.513 60.1369 71.4812C59.7192 70.4639 59.2523 69.4655 58.8749 68.7312C58.4976 67.996 58.2117 67.5247 58.2117 67.5247C58.2045 67.513 58.2081 67.4977 58.2198 67.4905C58.2305 67.4842 58.2449 67.4878 58.2529 67.4986Z" fill="#5B821D"/>
<path d="M58.9474 71.6749C58.9474 71.6749 58.0914 71.6289 57.1907 71.9551L57.3878 72.1524C57.3878 72.1524 56.6547 72.5183 56.3948 72.8048L56.6135 72.8516C56.6135 72.8516 58.8067 72.7156 58.9474 71.6749Z" fill="#688C29"/>
<path d="M91.0072 73.7032C91.0072 73.7032 91.5253 73.5599 92.0541 73.9113L91.8578 74.0501C91.8578 74.0501 92.3848 74.1681 92.763 74.8042L92.5891 74.8285C92.5891 74.8285 92.875 75.0502 92.9996 75.3295L92.8733 75.3007L92.3068 75.9855L92.4197 76.1306C92.4197 76.1306 91.9761 76.2558 91.6714 76.136L91.6821 76.2846C91.6821 76.2846 91.0216 76.509 90.75 76.181L91.0072 73.7032Z" fill="#688C29"/>
<path d="M86.6369 71.6425C86.6369 71.6425 88.4752 71.6407 89.4127 72.9805C89.4127 72.9805 88.7171 72.2768 89.2173 71.392C89.7183 70.5071 91.2626 70.0305 91.7914 69.3691C91.7914 69.3691 92.6141 71.4794 92.0566 72.585C91.5924 73.5067 90.8691 73.6896 90.8691 73.6896C90.8691 73.6896 91.4472 73.6806 92.0764 74.2158C92.7055 74.751 92.7172 75.3142 93.2729 75.7395C92.6867 75.8143 92.3471 76.0242 91.6722 76.1369C91.1057 76.2306 90.8019 76.2306 90.4792 75.8548C90.1566 75.4791 86.083 73.9032 86.6369 71.6425Z" fill="#688C29"/>
<path d="M88.9197 74.5916C88.9197 74.5916 89.1797 74.4898 89.5364 74.451C89.8985 74.4033 90.3842 74.424 90.8396 74.5375C91.2975 74.6475 91.7161 74.8538 92.0029 75.0376C92.2933 75.2169 92.4681 75.3602 92.4681 75.3602C92.4753 75.3656 92.4762 75.3746 92.4717 75.3818C92.4672 75.3881 92.4582 75.389 92.452 75.3863C92.452 75.3863 91.657 74.9133 90.7858 74.8673C90.3574 74.8358 89.9352 74.8925 89.6413 74.9844C89.3374 75.0745 89.1895 75.1701 89.1895 75.1701C89.0407 75.2656 88.8427 75.2223 88.7477 75.0728C88.6527 74.9232 88.6957 74.724 88.8454 74.6285C88.8633 74.6168 88.8812 74.6078 88.9 74.6006L88.9197 74.5916Z" fill="#5B821D"/>
<path d="M88.8508 74.8916C88.8508 74.8916 88.8463 74.7276 88.7702 74.4438C88.6994 74.1663 88.5524 73.8013 88.348 73.4607C87.9492 72.7651 87.2806 72.2614 87.2806 72.2614C87.2734 72.256 87.2725 72.247 87.2779 72.2398C87.2823 72.2335 87.2913 72.2326 87.2976 72.2353C87.2976 72.2353 88.0514 72.603 88.616 73.2607C88.9001 73.5806 89.1367 73.95 89.2766 74.2518C89.4191 74.5447 89.4782 74.7898 89.4782 74.7898L89.4818 74.8069C89.523 74.9799 89.4173 75.1538 89.2461 75.1952C89.074 75.2367 88.9019 75.1304 88.8598 74.9583C88.8544 74.9366 88.8517 74.9132 88.8508 74.8916Z" fill="#5B821D"/>
<path d="M89.2566 72.7733C89.2566 72.7733 88.8166 72.4606 88.8883 71.6821L89.072 71.7596C89.072 71.7596 89.1849 71.0027 89.4144 70.7342L89.5533 70.9739C89.5533 70.9739 90.005 70.4279 90.2246 70.2116L90.3591 70.3792C90.3591 70.3792 90.7633 69.9629 91.0922 69.7413L91.1012 69.9269L92.1041 70.4324L92.1767 70.2441C92.1767 70.2441 92.3219 70.8991 92.2215 71.1271L92.3721 71.0487C92.3721 71.0487 92.3336 71.765 92.1946 72.175L92.4321 72.1957C92.4321 72.1957 92.0001 72.7994 91.7456 73.0634L91.9159 73.1598C91.9159 73.1598 91.2742 73.814 90.8681 73.6914C90.4621 73.5689 90.7866 73.6473 90.7866 73.6473L89.2566 72.7733Z" fill="#688C29"/>
<path d="M91.5888 70.5711C91.5888 70.5711 91.4436 70.9658 91.1828 71.5406C90.9229 72.1155 90.5464 72.8687 90.1359 73.6049C89.3221 75.0826 88.338 76.4621 88.338 76.4621C88.2376 76.6072 88.0396 76.6432 87.8953 76.5423C87.751 76.4414 87.7151 76.2422 87.8155 76.0972C87.8209 76.09 87.8298 76.0783 87.8352 76.0711C87.8352 76.0711 88.9152 74.8087 89.8447 73.4229C90.3134 72.7336 90.7499 72.0218 91.0573 71.4758C91.3647 70.9297 91.5431 70.5513 91.5431 70.5513C91.5485 70.5387 91.5637 70.5333 91.5754 70.5396C91.5879 70.545 91.5933 70.5594 91.5888 70.5711Z" fill="#5B821D"/>
<path d="M89.2567 72.7733C89.2567 72.7733 88.9242 72.211 88.339 71.7776L88.2986 71.9858C88.2986 71.9858 87.7591 71.6749 87.4705 71.6317L87.5341 71.7902C87.5341 71.7902 88.5442 73.1238 89.2567 72.7733Z" fill="#688C29"/>
<path d="M64.2266 72.2552C64.2266 72.2552 66.9118 69.9053 71.3869 69.8052C75.862 69.7052 80.7888 72.876 80.7888 72.876C80.7888 72.876 67.1108 76.6549 64.2266 72.2552Z" fill="#841A3E"/>
<path d="M77.4017 70.7234C77.7405 71.3929 77.5568 72.1705 76.9894 72.4597C76.423 72.749 75.6881 72.4408 75.3493 71.7713C75.0105 71.1019 75.1942 70.3243 75.7615 70.035C76.3289 69.7458 77.0629 70.054 77.4017 70.7234Z" fill="#89113A"/>
<path opacity="0.3" d="M75.7618 70.035C75.7564 70.0377 75.752 70.0422 75.7466 70.0458C76.2252 69.9476 76.763 70.2305 77.0319 70.7613C77.3456 71.3812 77.1752 72.1011 76.65 72.3687C76.4573 72.4669 76.244 72.4894 76.0361 72.4498C76.3462 72.5958 76.6904 72.6129 76.9897 72.4606C77.5561 72.1714 77.7408 71.3938 77.402 70.7243C77.0632 70.0539 76.3292 69.7458 75.7618 70.035Z" fill="#89113A"/>
<path opacity="0.2" d="M76.449 70.9027C76.5296 71.3091 76.3647 71.701 76.0806 71.7785C75.7965 71.856 75.5016 71.5902 75.4218 71.1847C75.3412 70.7784 75.5061 70.3864 75.7902 70.3089C76.0734 70.2305 76.3683 70.4963 76.449 70.9027Z" fill="#E8E8D4"/>
<path d="M73.8661 70.5972C73.6457 71.1649 73.0335 71.4857 72.4697 71.282C71.8621 71.0622 71.5815 70.3404 71.8746 69.7106C72.156 69.106 72.8372 68.8772 73.3696 69.1574C73.8662 69.4196 74.0786 70.0494 73.8661 70.5972Z" fill="#89113A"/>
<path opacity="0.3" d="M73.3694 69.1574C73.364 69.1547 73.3587 69.1538 73.3533 69.1511C73.6867 69.4412 73.8122 69.9368 73.6374 70.3765C73.4268 70.9054 72.8442 71.1955 72.3109 70.9946C72.1056 70.9171 71.9407 70.7783 71.8242 70.6035C71.9282 70.9135 72.1541 71.1676 72.4687 71.282C73.0324 71.4866 73.6455 71.1658 73.865 70.5981C74.0784 70.0494 73.866 69.4196 73.3694 69.1574Z" fill="#89113A"/>
<path opacity="0.2" d="M73.21 70.0557C72.9877 70.3206 72.6104 70.4162 72.3684 70.2567C72.1184 70.0927 72.1201 69.7296 72.3693 69.4601C72.6104 69.1997 72.9859 69.1358 73.2082 69.3043C73.4251 69.4683 73.426 69.7998 73.21 70.0557Z" fill="#E8E8D4"/>
<path d="M69.2707 71.1298C69.0502 71.6974 68.438 72.0182 67.8743 71.8145C67.2666 71.5947 66.9861 70.873 67.2792 70.2431C67.5606 69.6385 68.2409 69.4097 68.7741 69.6908C69.2716 69.9521 69.4831 70.5819 69.2707 71.1298Z" fill="#89113A"/>
<path opacity="0.3" d="M68.7742 69.6899C68.7688 69.6872 68.7634 69.6863 68.758 69.6836C69.0923 69.9737 69.2169 70.4693 69.0422 70.909C68.8315 71.4379 68.249 71.728 67.7157 71.5271C67.5104 71.4496 67.3455 71.3109 67.229 71.1361C67.333 71.446 67.5588 71.7001 67.8734 71.8145C68.4372 72.0191 69.0502 71.6983 69.2698 71.1307C69.4831 70.5819 69.2716 69.9521 68.7742 69.6899Z" fill="#89113A"/>
<path opacity="0.2" d="M68.6155 70.5883C68.3923 70.8532 68.0159 70.9487 67.7739 70.7892C67.5248 70.6252 67.5248 70.2621 67.7748 69.9927C68.0159 69.7323 68.3914 69.6683 68.6137 69.8368C68.8297 70.0008 68.8306 70.3324 68.6155 70.5883Z" fill="#E8E8D4"/>
<path d="M71.0931 70.7895C71.4319 71.459 71.2482 72.2366 70.6809 72.5259C70.1144 72.8151 69.3795 72.5069 69.0407 71.8375C68.7019 71.168 68.8856 70.3904 69.4529 70.1012C70.0194 69.811 70.7535 70.1192 71.0931 70.7895Z" fill="#89113A"/>
<path opacity="0.3" d="M69.453 70.0999C69.4476 70.1026 69.4431 70.1071 69.4377 70.1107C69.9164 70.0125 70.4541 70.2954 70.723 70.8261C71.0367 71.4461 70.8664 72.166 70.3421 72.4336C70.1494 72.5318 69.9361 72.5543 69.7281 72.5147C70.0383 72.6607 70.3824 72.6778 70.6818 72.5255C71.2482 72.2363 71.4329 71.4587 71.0941 70.7892C70.7535 70.1188 70.0194 69.8107 69.453 70.0999Z" fill="#89113A"/>
<path opacity="0.2" d="M70.1394 70.9676C70.2201 71.374 70.0551 71.766 69.771 71.8434C69.4869 71.9209 69.192 71.6551 69.1123 71.2496C69.0316 70.8433 69.1965 70.4513 69.4806 70.3738C69.7647 70.2963 70.0596 70.5622 70.1394 70.9676Z" fill="#E8E8D4"/>
<path d="M53.0288 75.1223C53.0288 75.1223 54.8787 73.2554 56.5189 73.0049C58.16 72.7553 61.642 73.5004 61.642 73.5004C61.642 73.5004 55.1575 77.0893 53.0288 75.1223Z" fill="#841A3E"/>
<path d="M56.2687 73.8644C56.6075 74.5339 56.4228 75.3115 55.8564 75.6007C55.2899 75.89 54.5559 75.5818 54.2162 74.9123C53.8774 74.2429 54.0612 73.4653 54.6285 73.176C55.1958 72.8868 55.9299 73.195 56.2687 73.8644Z" fill="#89113A"/>
<path opacity="0.3" d="M54.6285 73.1761C54.6231 73.1788 54.6187 73.1833 54.6133 73.1869C55.0919 73.0887 55.6296 73.3716 55.8985 73.9032C56.2122 74.5231 56.0419 75.243 55.5167 75.5107C55.324 75.6089 55.1116 75.6314 54.9028 75.5917C55.2129 75.7377 55.557 75.7548 55.8564 75.6026C56.4228 75.3133 56.6075 74.5357 56.2687 73.8663C55.9299 73.195 55.1959 72.8868 54.6285 73.1761Z" fill="#89113A"/>
<path opacity="0.2" d="M55.3161 74.0437C55.3959 74.4501 55.2309 74.842 54.9477 74.9195C54.6645 74.997 54.3687 74.7312 54.289 74.3257C54.2083 73.9194 54.3741 73.5274 54.6573 73.4499C54.9405 73.3715 55.2354 73.6374 55.3161 74.0437Z" fill="#E8E8D4"/>
<path d="M77.7856 73.2806C77.7856 73.2806 80.8347 71.2055 83.2215 71.0559C85.6082 70.9063 90.5673 73.2607 91.028 73.8554C91.4887 74.4501 89.5151 76.7559 82.9212 76.4459C76.3273 76.1351 77.7856 73.2806 77.7856 73.2806Z" fill="#841A3E"/>
<path d="M49.6076 77.7876C49.6076 77.7876 49.2096 75.7881 51.9943 75.2547C54.779 74.7213 56.5026 75.7881 56.5026 75.7881C56.5026 75.7881 57.5853 72.5498 63.1323 72.0551C68.3701 71.5884 70.0936 74.1212 70.0936 74.1212C70.0936 74.1212 71.4856 71.9218 75.0662 72.3218C78.6468 72.7219 80.105 75.7881 80.105 75.7881C80.105 75.7881 82.7571 74.588 85.0112 74.588C87.2653 74.588 88.5918 75.6548 88.5918 75.6548C88.5918 75.6548 89.93 73.4004 92.8357 72.9264C96.946 72.2561 98.5369 74.7222 98.5369 74.7222C98.5369 74.7222 100.26 74.4555 101.454 75.1223C102.648 75.789 102.117 77.7885 102.117 77.7885L49.6076 77.7876Z" fill="#8E1E43"/>
<path d="M57.5467 76.9289C57.1514 77.9696 56.2211 78.5787 55.4691 78.2894C54.7171 78.0002 54.4267 76.9235 54.8211 75.8828C55.2155 74.8421 56.1467 74.2329 56.8987 74.5222C57.6515 74.8105 57.941 75.8882 57.5467 76.9289Z" fill="#A02851"/>
<path opacity="0.3" d="M56.8988 74.5222C56.8917 74.5195 56.8836 74.5195 56.8755 74.5168C57.3649 74.9114 57.5199 75.7584 57.2062 76.5847C56.8406 77.5479 55.9792 78.111 55.2828 77.8443C55.0274 77.7461 54.8311 77.5488 54.7012 77.292C54.8078 77.7623 55.0713 78.1381 55.4693 78.2903C56.2221 78.5796 57.1525 77.9696 57.5468 76.9298C57.9412 75.8882 57.6517 74.8105 56.8988 74.5222Z" fill="#A02851"/>
<path opacity="0.2" d="M56.5885 76.126C56.247 76.627 55.7191 76.8595 55.409 76.6468C55.0998 76.4333 55.1258 75.8539 55.4673 75.3538C55.8087 74.8528 56.3367 74.6195 56.6468 74.833C56.9569 75.0466 56.9309 75.625 56.5885 76.126Z" fill="#FFFFEB"/>
<path d="M91.0612 76.6784C90.6659 77.7191 89.7356 78.3282 88.9836 78.0389C88.2308 77.7506 87.9413 76.673 88.3365 75.6323C88.7318 74.5916 89.6621 73.9825 90.4141 74.2717C91.1661 74.5609 91.4564 75.6386 91.0612 76.6784Z" fill="#A02851"/>
<path opacity="0.3" d="M90.4139 74.2717C90.4067 74.269 90.3987 74.269 90.3906 74.2663C90.88 74.661 91.035 75.5079 90.7213 76.3342C90.3556 77.2974 89.4943 77.8614 88.7979 77.5938C88.5425 77.4956 88.3462 77.2983 88.2153 77.0415C88.322 77.5118 88.5855 77.8867 88.9834 78.0399C89.7363 78.3291 90.6666 77.7191 91.061 76.6793C91.4562 75.6386 91.1659 74.5609 90.4139 74.2717Z" fill="#A02851"/>
<path opacity="0.2" d="M90.1037 75.8764C89.7622 76.3774 89.2343 76.6099 88.9242 76.3972C88.6149 76.1837 88.6409 75.6043 88.9824 75.1042C89.3239 74.6032 89.8518 74.3708 90.1619 74.5834C90.4711 74.7961 90.4451 75.3754 90.1037 75.8764Z" fill="#FFFFEB"/>
<path d="M66.6538 76.1035C67.0302 77.0325 66.79 78.0092 66.1178 78.284C65.4456 78.5589 64.5959 78.0291 64.2195 77.1001C63.8431 76.1711 64.0833 75.1944 64.7555 74.9196C65.4277 74.6438 66.2773 75.1746 66.6538 76.1035Z" fill="#A02851"/>
<path opacity="0.3" d="M64.7554 74.9196C64.7482 74.9223 64.7437 74.9277 64.7366 74.9304C65.2994 74.888 65.9205 75.3502 66.219 76.0873C66.5668 76.9478 66.3454 77.8506 65.7225 78.1056C65.4939 78.1993 65.2439 78.1903 65.001 78.102C65.3586 78.3462 65.7619 78.43 66.1168 78.2849C66.789 78.0101 67.0292 77.0334 66.6528 76.1044C66.2773 75.1745 65.4276 74.6438 64.7554 74.9196Z" fill="#A02851"/>
<path opacity="0.2" d="M65.5327 76.1675C65.6142 76.7081 65.409 77.1884 65.0747 77.2388C64.7404 77.2893 64.4034 76.8919 64.3218 76.3513C64.2403 75.8107 64.4455 75.3304 64.7798 75.28C65.1141 75.2286 65.4511 75.626 65.5327 76.1675Z" fill="#FFFFEB"/>
<path d="M72.813 73.6166C73.531 74.3141 73.7039 75.3043 73.1993 75.8287C72.6947 76.3531 71.7043 76.2135 70.9864 75.5169C70.2685 74.8195 70.0955 73.8293 70.6001 73.3049C71.1047 72.7805 72.0951 72.9201 72.813 73.6166Z" fill="#A02851"/>
<path opacity="0.3" d="M70.6009 73.3049C70.5956 73.3103 70.5929 73.3166 70.5884 73.322C71.0867 73.0544 71.8396 73.2247 72.4096 73.7779C73.0738 74.4231 73.2342 75.3403 72.7672 75.826C72.596 76.0044 72.3639 76.0981 72.1058 76.1152C72.5315 76.1927 72.9339 76.1062 73.2001 75.8287C73.7047 75.3043 73.5317 74.3131 72.8138 73.6166C72.095 72.9201 71.1046 72.7805 70.6009 73.3049Z" fill="#A02851"/>
<path opacity="0.2" d="M71.8128 74.1303C72.105 74.5925 72.1104 75.1142 71.8245 75.2971C71.5395 75.4791 71.0707 75.253 70.7794 74.7907C70.4873 74.3285 70.4828 73.8068 70.7678 73.6248C71.0528 73.4419 71.5215 73.6689 71.8128 74.1303Z" fill="#FFFFEB"/>
<path d="M68.8354 76.0982C68.1991 77.0569 67.1209 77.456 66.4272 76.9902C65.7343 76.5243 65.6877 75.3701 66.325 74.4123C66.9613 73.4536 68.0396 73.0544 68.7333 73.5203C69.4261 73.9852 69.4727 75.1394 68.8354 76.0982Z" fill="#A02851"/>
<path opacity="0.3" d="M68.733 73.5194C68.7259 73.5149 68.7178 73.5131 68.7106 73.5085C69.1139 74.0194 69.0763 74.9106 68.5708 75.671C67.9811 76.5586 66.9835 76.928 66.3418 76.4973C66.1061 76.3396 65.9537 76.0945 65.8811 75.8053C65.8811 76.3045 66.0613 76.7442 66.4269 76.9902C67.1198 77.456 68.1989 77.0559 68.8352 76.0981C69.4725 75.1394 69.4259 73.9852 68.733 73.5194Z" fill="#A02851"/>
<path opacity="0.2" d="M68.053 75.0664C67.5932 75.4926 67.007 75.6053 66.7435 75.3187C66.48 75.0322 66.6387 74.4537 67.0984 74.0275C67.5582 73.6014 68.1444 73.4878 68.4079 73.7753C68.6714 74.0618 68.5128 74.6403 68.053 75.0664Z" fill="#FFFFEB"/>
<path d="M51.7926 77.1586C51.2548 77.9678 50.3442 78.3057 49.7589 77.9119C49.1736 77.5191 49.1351 76.5441 49.6729 75.735C50.2106 74.9259 51.1213 74.588 51.7065 74.9817C52.2918 75.3746 52.3303 76.3495 51.7926 77.1586Z" fill="#A02851"/>
<path opacity="0.3" d="M51.7066 74.9817C51.7004 74.9781 51.6941 74.9763 51.6878 74.9727C52.0284 75.4043 51.9961 76.1567 51.5695 76.7991C51.0721 77.5479 50.2296 77.8605 49.6873 77.4965C49.4884 77.3632 49.3593 77.1559 49.2983 76.9118C49.2983 77.3334 49.4507 77.7047 49.759 77.9119C50.3443 78.3048 51.2549 77.9678 51.7927 77.1586C52.3304 76.3495 52.2919 75.3746 51.7066 74.9817Z" fill="#A02851"/>
<path opacity="0.2" d="M51.1323 76.2882C50.7442 76.6486 50.2494 76.7432 50.0272 76.5009C49.8049 76.2585 49.9393 75.7701 50.3274 75.4106C50.7155 75.0502 51.2102 74.9556 51.4325 75.1971C51.6548 75.4394 51.5203 75.9278 51.1323 76.2882Z" fill="#FFFFEB"/>
<path d="M68.9544 78.5679C67.9721 78.3922 67.2784 77.6678 67.4057 76.9496C67.533 76.2315 68.4319 75.7909 69.4142 75.9666C70.3965 76.1423 71.0903 76.8667 70.9639 77.5849C70.8366 78.303 69.9367 78.7436 68.9544 78.5679Z" fill="#A02851"/>
<path opacity="0.3" d="M70.964 77.5849C70.9649 77.5776 70.964 77.5704 70.9649 77.5632C70.7005 78.0651 69.9808 78.3462 69.201 78.2066C68.2913 78.0444 67.6496 77.374 67.767 76.709C67.81 76.4649 67.9507 76.2567 68.155 76.0981C67.7589 76.2729 67.473 76.5703 67.4067 76.9496C67.2794 77.6677 67.9731 78.3922 68.9554 78.5679C69.9377 78.7436 70.8367 78.303 70.964 77.5849Z" fill="#A02851"/>
<path opacity="0.2" d="M69.4996 77.5803C69.0012 77.3614 68.7064 76.9307 68.8417 76.6198C68.977 76.3081 69.4915 76.2342 69.9898 76.4531C70.4881 76.6721 70.783 77.1028 70.6477 77.4137C70.5123 77.7254 69.9979 77.7993 69.4996 77.5803Z" fill="#FFFFEB"/>
<path d="M63.4614 79.8546C62.489 80.0789 61.5685 79.6843 61.4072 78.9724C61.245 78.2615 61.9019 77.5029 62.8744 77.2785C63.8468 77.0541 64.7673 77.4488 64.9295 78.1606C65.0917 78.8724 64.4339 79.6302 63.4614 79.8546Z" fill="#931B44"/>
<path opacity="0.3" d="M64.9294 78.1615C64.9276 78.1543 64.9231 78.148 64.9213 78.1417C64.8729 78.7075 64.319 79.2491 63.5473 79.4266C62.6475 79.6338 61.796 79.2689 61.6454 78.6102C61.5908 78.3687 61.6392 78.1219 61.7646 77.8957C61.468 78.212 61.3201 78.5985 61.4061 78.9733C61.5684 79.6843 62.4879 80.0798 63.4604 79.8555C64.4337 79.6302 65.0916 78.8724 64.9294 78.1615Z" fill="#931B44"/>
<path opacity="0.2" d="M63.5786 78.7318C63.0346 78.7255 62.5963 78.4453 62.5999 78.1056C62.6035 77.7659 63.048 77.4947 63.592 77.501C64.1361 77.5073 64.5744 77.7876 64.5708 78.1273C64.5672 78.4669 64.1235 78.7381 63.5786 78.7318Z" fill="#F2F2DE"/>
<path d="M60.8271 76.955C61.1658 77.6245 60.9812 78.4021 60.4148 78.6913C59.8483 78.9805 59.1134 78.6724 58.7746 78.0029C58.4358 77.3334 58.6204 76.5558 59.1869 76.2666C59.7533 75.9774 60.4883 76.2855 60.8271 76.955Z" fill="#931B44"/>
<path opacity="0.3" d="M59.1871 76.2666C59.1817 76.2693 59.1773 76.2738 59.1719 76.2774C59.6505 76.1792 60.1882 76.4621 60.4571 76.9928C60.7708 77.6127 60.6005 78.3327 60.0753 78.6003C59.8826 78.6985 59.6702 78.721 59.4614 78.6814C59.7715 78.8273 60.1156 78.8445 60.415 78.6922C60.9814 78.403 61.1661 77.6254 60.8273 76.9559C60.4885 76.2855 59.7536 75.9774 59.1871 76.2666Z" fill="#931B44"/>
<path opacity="0.2" d="M59.8734 77.1343C59.9541 77.5407 59.7882 77.9326 59.505 78.0101C59.2218 78.0876 58.9269 77.8218 58.8463 77.4163C58.7665 77.01 58.9314 76.618 59.2146 76.5405C59.4987 76.463 59.7936 76.7288 59.8734 77.1343Z" fill="#F2F2DE"/>
<path d="M77.0372 76.5306C77.376 77.2001 77.1923 77.9777 76.6249 78.2669C76.0576 78.5562 75.3235 78.248 74.9848 77.5785C74.646 76.9091 74.8297 76.1315 75.3971 75.8422C75.9644 75.553 76.6984 75.8612 77.0372 76.5306Z" fill="#A02851"/>
<path opacity="0.3" d="M75.3973 75.8422C75.3919 75.8449 75.3875 75.8494 75.3821 75.853C75.8607 75.7548 76.3984 76.0377 76.6673 76.5684C76.981 77.1884 76.8107 77.9083 76.2855 78.1759C76.0928 78.2741 75.8804 78.2966 75.6716 78.257C75.9817 78.403 76.3258 78.4201 76.6252 78.2678C77.1916 77.9786 77.3763 77.201 77.0375 76.5315C76.6987 75.8611 75.9647 75.553 75.3973 75.8422Z" fill="#A02851"/>
<path opacity="0.2" d="M76.0845 76.7099C76.1651 77.1163 76.0002 77.5082 75.7161 77.5857C75.4329 77.6632 75.138 77.3974 75.0573 76.9919C74.9767 76.5856 75.1416 76.1936 75.4257 76.1161C75.7089 76.0377 76.0038 76.3036 76.0845 76.7099Z" fill="#FFFFEB"/>
<path d="M59.9504 73.8095C59.9656 74.561 59.4619 75.18 58.8265 75.1917C58.191 75.2043 57.664 74.6042 57.6488 73.8536C57.6335 73.1022 58.1372 72.4832 58.7727 72.4714C59.4082 72.4588 59.9352 73.058 59.9504 73.8095Z" fill="#931B44"/>
<path opacity="0.3" d="M58.7728 72.4714C58.7665 72.4714 58.7602 72.4742 58.754 72.4742C59.2272 72.5958 59.5884 73.0851 59.6001 73.6815C59.6135 74.3771 59.1483 74.9502 58.5604 74.961C58.3444 74.9655 58.1427 74.8916 57.9724 74.7646C58.1884 75.0313 58.4905 75.198 58.8266 75.1917C59.462 75.1791 59.9648 74.5601 59.9505 73.8095C59.9361 73.0589 59.4082 72.4588 58.7728 72.4714Z" fill="#931B44"/>
<path opacity="0.2" d="M59.0149 73.5536C58.911 73.9546 58.5928 74.2348 58.3033 74.1807C58.0138 74.1267 57.8641 73.7581 57.9681 73.3572C58.072 72.9562 58.3902 72.676 58.6797 72.7301C58.9683 72.7841 59.1189 73.1527 59.0149 73.5536Z" fill="#F2F2DE"/>
<path d="M62.2612 73.186C61.7449 73.8563 60.9329 74.0933 60.448 73.7158C59.9631 73.3382 59.9891 72.4886 60.5053 71.8182C61.0216 71.1478 61.8336 70.9108 62.3185 71.2884C62.8034 71.6668 62.7783 72.5156 62.2612 73.186Z" fill="#A02851"/>
<path opacity="0.3" d="M62.3184 71.2884C62.3139 71.2848 62.3077 71.283 62.3023 71.2794C62.5721 71.6758 62.4986 72.3273 62.089 72.8589C61.6112 73.4797 60.8593 73.6986 60.4112 73.349C60.2462 73.2211 60.1467 73.0328 60.1082 72.8174C60.0822 73.1842 60.1925 73.5157 60.4479 73.7149C60.9328 74.0924 61.7448 73.8554 62.2611 73.1851C62.7782 72.5156 62.8033 71.6668 62.3184 71.2884Z" fill="#A02851"/>
<path opacity="0.2" d="M61.7403 72.3885C61.3809 72.6778 60.9453 72.73 60.7669 72.5057C60.5886 72.2813 60.7347 71.865 61.0941 71.5758C61.4535 71.2865 61.8891 71.2343 62.0674 71.4586C62.2458 71.6839 62.0997 72.1002 61.7403 72.3885Z" fill="#FFFFEB"/>
<path d="M62.194 75.1668C62.5812 75.9642 62.3473 76.8788 61.6724 77.2086C60.9975 77.5383 60.1371 77.1599 59.7499 76.3625C59.3627 75.5651 59.5966 74.6505 60.2715 74.3207C60.9464 73.99 61.8077 74.3685 62.194 75.1668Z" fill="#A02851"/>
<path opacity="0.3" d="M60.2713 74.3195C60.265 74.3231 60.2596 74.3276 60.2524 74.3312C60.8198 74.2249 61.449 74.57 61.7555 75.2025C62.114 75.9405 61.8971 76.7865 61.2724 77.0929C61.043 77.2046 60.7911 77.2271 60.5455 77.1758C60.9085 77.3542 61.3154 77.3821 61.6712 77.2073C62.3461 76.8775 62.5801 75.963 62.1929 75.1656C61.8075 74.3681 60.9462 73.9897 60.2713 74.3195Z" fill="#A02851"/>
<path opacity="0.2" d="M61.0645 75.3584C61.1505 75.8396 60.9489 76.2991 60.6119 76.3856C60.2758 76.4721 59.9325 76.1513 59.8464 75.6711C59.7604 75.1908 59.963 74.7304 60.2991 74.6439C60.6352 74.5574 60.9784 74.8772 61.0645 75.3584Z" fill="#FFFFEB"/>
<path d="M74.3465 72.0741C74.8251 72.8192 74.7023 73.7554 74.0713 74.1645C73.4403 74.5736 72.5405 74.3005 72.0618 73.5545C71.5832 72.8093 71.706 71.8732 72.337 71.4641C72.9689 71.0559 73.8678 71.3289 74.3465 72.0741Z" fill="#A02851"/>
<path opacity="0.3" d="M72.3381 71.4651C72.3318 71.4696 72.3273 71.475 72.321 71.4795C72.8714 71.3065 73.5364 71.5732 73.9164 72.1643C74.3601 72.8545 74.2453 73.7204 73.6619 74.0989C73.4477 74.2376 73.2003 74.2899 72.9502 74.2683C73.332 74.4016 73.739 74.3809 74.0715 74.1646C74.7024 73.7556 74.8252 72.8203 74.3466 72.0742C73.868 71.3291 72.9691 71.056 72.3381 71.4651Z" fill="#A02851"/>
<path opacity="0.2" d="M73.2485 72.4003C73.391 72.867 73.245 73.3482 72.9214 73.4743C72.5979 73.6004 72.2196 73.3238 72.0762 72.8562C71.9328 72.3885 72.0798 71.9083 72.4034 71.7821C72.7269 71.6569 73.106 71.9335 73.2485 72.4003Z" fill="#FFFFEB"/>
<path d="M82.6541 75.7245C83.1327 76.4696 83.0099 77.4058 82.3789 77.8149C81.7479 78.224 80.8481 77.951 80.3695 77.2049C79.8909 76.4597 80.0136 75.5236 80.6446 75.1154C81.2756 74.7063 82.1754 74.9793 82.6541 75.7245Z" fill="#A02851"/>
<path opacity="0.3" d="M80.6454 75.1142C80.6392 75.1187 80.6347 75.1241 80.6284 75.1286C81.1787 74.9547 81.8447 75.2223 82.2238 75.8134C82.6674 76.5036 82.5527 77.3695 81.9692 77.7479C81.755 77.8867 81.5077 77.939 81.2576 77.9173C81.6394 78.0507 82.0463 78.03 82.3788 77.8137C83.0098 77.4046 83.1335 76.4694 82.654 75.7233C82.1754 74.979 81.2755 74.706 80.6454 75.1142Z" fill="#A02851"/>
<path opacity="0.2" d="M81.5561 76.0504C81.6995 76.5171 81.5526 76.9983 81.229 77.1244C80.9054 77.2506 80.5263 76.974 80.3838 76.5063C80.2404 76.0396 80.3874 75.5584 80.711 75.4323C81.0345 75.307 81.4127 75.5837 81.5561 76.0504Z" fill="#FFFFEB"/>
<path d="M66.8302 73.368C66.3767 74.0384 65.5494 74.2672 64.983 73.8789C64.4165 73.4905 64.3242 72.6327 64.7777 71.9624C65.2312 71.292 66.0585 71.0631 66.6249 71.4515C67.1914 71.8398 67.2828 72.6976 66.8302 73.368Z" fill="#A02851"/>
<path opacity="0.3" d="M66.625 71.4515C66.6196 71.4479 66.6124 71.4461 66.6071 71.4416C66.9485 71.8453 66.962 72.503 66.6017 73.0355C66.1822 73.6563 65.4168 73.8681 64.8916 73.5086C64.6989 73.377 64.5671 73.186 64.4963 72.967C64.5205 73.3374 64.6828 73.6744 64.9821 73.8789C65.5486 74.2672 66.3758 74.0384 66.8293 73.368C67.2828 72.6976 67.1914 71.8398 66.625 71.4515Z" fill="#A02851"/>
<path opacity="0.2" d="M66.1659 72.5552C65.8263 72.8427 65.371 72.8895 65.1505 72.6607C64.93 72.4318 65.0268 72.0128 65.3665 71.7254C65.7062 71.4379 66.1615 71.3911 66.3819 71.62C66.6024 71.8497 66.5056 72.2678 66.1659 72.5552Z" fill="#FFFFEB"/>
<path d="M63.7793 74.4637C63.7945 75.2151 63.2908 75.8342 62.6553 75.8459C62.0199 75.8585 61.4929 75.2584 61.4776 74.5078C61.4624 73.7564 61.9661 73.1373 62.6016 73.1256C63.237 73.113 63.764 73.7122 63.7793 74.4637Z" fill="#A02851"/>
<path opacity="0.3" d="M62.6016 73.1247C62.5954 73.1247 62.5891 73.1274 62.5828 73.1274C63.0561 73.249 63.4173 73.7383 63.4289 74.3348C63.4424 75.0304 62.9772 75.6034 62.3892 75.6143C62.1732 75.6188 61.9716 75.5449 61.8013 75.4178C62.0173 75.6845 62.3193 75.8512 62.6554 75.8449C63.2909 75.8332 63.7937 75.2142 63.7793 74.4627C63.7641 73.7122 63.2371 73.113 62.6016 73.1247Z" fill="#A02851"/>
<path opacity="0.2" d="M62.8437 74.2068C62.7397 74.6078 62.4215 74.888 62.132 74.8339C61.8434 74.7799 61.6929 74.4113 61.7968 74.0104C61.9008 73.6094 62.219 73.3292 62.5085 73.3833C62.7971 73.4382 62.9476 73.8068 62.8437 74.2068Z" fill="#FFFFEB"/>
<path d="M74.9219 75.6016C74.9371 76.3531 74.4334 76.9721 73.7979 76.9838C73.1625 76.9964 72.6354 76.3973 72.6202 75.6458C72.605 74.8943 73.1087 74.2753 73.7442 74.2636C74.3796 74.2519 74.9066 74.8511 74.9219 75.6016Z" fill="#931B44"/>
<path opacity="0.3" d="M73.744 74.2636C73.7377 74.2636 73.7314 74.2663 73.7251 74.2663C74.1984 74.3879 74.5596 74.8772 74.5712 75.4737C74.5847 76.1693 74.1195 76.7424 73.5316 76.7532C73.3156 76.7577 73.1139 76.6838 72.9436 76.5567C73.1596 76.8234 73.4617 76.9901 73.7978 76.9838C74.4332 76.9721 74.936 76.3522 74.9217 75.6016C74.9064 74.8511 74.3794 74.2519 73.744 74.2636Z" fill="#931B44"/>
<path opacity="0.2" d="M73.986 75.3457C73.882 75.7467 73.5639 76.0269 73.2744 75.9729C72.9858 75.9188 72.8352 75.5503 72.9392 75.1493C73.0431 74.7483 73.3613 74.4681 73.6508 74.5222C73.9394 74.5762 74.09 74.9448 73.986 75.3457Z" fill="#F2F2DE"/>
<path d="M87.8005 75.9017C87.8157 76.6532 87.312 77.2722 86.6766 77.2839C86.0411 77.2965 85.5141 76.6973 85.4989 75.9459C85.4836 75.1944 85.9873 74.5754 86.6228 74.5637C87.2583 74.5511 87.7862 75.1512 87.8005 75.9017Z" fill="#931B44"/>
<path opacity="0.3" d="M86.6226 74.5637C86.6164 74.5637 86.6101 74.5664 86.6038 74.5664C87.0771 74.688 87.4383 75.1773 87.4499 75.7738C87.4633 76.4694 86.9982 77.0424 86.4102 77.0532C86.1942 77.0577 85.9926 76.9839 85.8223 76.8568C86.0383 77.1235 86.3403 77.2902 86.6764 77.2839C87.3119 77.2713 87.8147 76.6523 87.8003 75.9017C87.786 75.1512 87.2581 74.5511 86.6226 74.5637Z" fill="#931B44"/>
<path opacity="0.2" d="M86.8644 75.6458C86.7605 76.0468 86.4423 76.327 86.1528 76.273C85.8642 76.2189 85.7136 75.8504 85.8176 75.4494C85.9216 75.0484 86.2397 74.7682 86.5292 74.8223C86.8187 74.8764 86.9684 75.2449 86.8644 75.6458Z" fill="#F2F2DE"/>
<path d="M80.7889 72.8769C80.5173 73.577 79.8174 73.9554 79.2249 73.723C78.6334 73.4905 78.3735 72.7336 78.645 72.0335C78.9166 71.3334 79.6166 70.955 80.209 71.1874C80.8006 71.4208 81.0605 72.1768 80.7889 72.8769Z" fill="#89113A"/>
<path opacity="0.3" d="M80.209 71.1874C80.2027 71.1847 80.1964 71.1847 80.1911 71.1829C80.5827 71.4767 80.7306 72.0686 80.5146 72.6237C80.2628 73.2715 79.6148 73.622 79.0671 73.4067C78.8664 73.3274 78.7077 73.1823 78.5984 72.9994C78.6961 73.3292 78.9121 73.5995 79.2249 73.722C79.8164 73.9545 80.5173 73.5761 80.7889 72.876C81.0604 72.1768 80.8005 71.4199 80.209 71.1874Z" fill="#89113A"/>
<path opacity="0.2" d="M80.0217 72.2804C79.7734 72.6111 79.3728 72.748 79.1263 72.5867C78.8798 72.4255 78.8808 72.0272 79.129 71.6974C79.3773 71.3667 79.7779 71.2298 80.0244 71.3911C80.2709 71.5524 80.27 71.9506 80.0217 72.2804Z" fill="#E8E8D4"/>
<path d="M85.5678 71.8632C85.3473 72.4309 84.7352 72.7517 84.1714 72.548C83.5637 72.3282 83.2832 71.6064 83.5763 70.9766C83.8577 70.372 84.538 70.1432 85.0713 70.4234C85.5678 70.6865 85.7802 71.3163 85.5678 71.8632Z" fill="#89113A"/>
<path opacity="0.3" d="M85.0711 70.4243C85.0657 70.4216 85.0603 70.4207 85.0549 70.418C85.3884 70.7081 85.5138 71.2037 85.339 71.6425C85.1284 72.1714 84.5459 72.4615 84.0126 72.2606C83.8073 72.1831 83.6424 72.0443 83.5259 71.8695C83.6298 72.1795 83.8557 72.4336 84.1703 72.548C84.7341 72.7526 85.3471 72.4318 85.5667 71.8641C85.78 71.3163 85.5676 70.6865 85.0711 70.4243Z" fill="#89113A"/>
<path opacity="0.2" d="M84.9118 71.3226C84.6895 71.5875 84.3122 71.683 84.0702 71.5236C83.8201 71.3596 83.821 70.9965 84.071 70.7271C84.3121 70.4667 84.6877 70.4027 84.91 70.5712C85.1269 70.7343 85.1278 71.0658 84.9118 71.3226Z" fill="#E8E8D4"/>
<path d="M89.7785 73.4635C89.558 74.0311 88.9458 74.3519 88.3821 74.1474C87.7744 73.9275 87.4939 73.2058 87.787 72.576C88.0684 71.9714 88.7496 71.7425 89.2819 72.0236C89.7785 72.2858 89.9909 72.9156 89.7785 73.4635Z" fill="#89113A"/>
<path opacity="0.3" d="M89.281 72.0236C89.2756 72.0209 89.2703 72.02 89.2649 72.0173C89.5983 72.3075 89.7238 72.803 89.549 73.2427C89.3384 73.7717 88.7558 74.0618 88.2225 73.8609C88.0173 73.7834 87.8524 73.6446 87.7358 73.4698C87.8398 73.7798 88.0657 74.0339 88.3803 74.1483C88.944 74.3528 89.5571 74.0321 89.7767 73.4644C89.9909 72.9157 89.7784 72.2858 89.281 72.0236Z" fill="#89113A"/>
<path opacity="0.2" d="M89.1222 72.9219C88.8999 73.1868 88.5226 73.2824 88.2806 73.1229C88.0306 72.958 88.0314 72.5958 88.2815 72.3264C88.5226 72.066 88.8981 72.002 89.1204 72.1705C89.3364 72.3345 89.3373 72.6651 89.1222 72.9219Z" fill="#E8E8D4"/>
<path d="M76.8945 72.0074C77.2521 72.667 77.089 73.45 76.5306 73.7545C75.9722 74.06 75.2292 73.7726 74.8725 73.1121C74.5149 72.4525 74.678 71.6695 75.2364 71.365C75.7938 71.0595 76.5369 71.3479 76.8945 72.0074Z" fill="#931B44"/>
<path opacity="0.3" d="M75.2357 71.365C75.2303 71.3677 75.2258 71.3722 75.2205 71.3758C75.6964 71.2641 76.2413 71.5317 76.5255 72.0552C76.8562 72.6661 76.7056 73.3905 76.1884 73.6725C75.9984 73.7762 75.786 73.8041 75.5772 73.7708C75.8909 73.9077 76.2359 73.9158 76.5308 73.7545C77.0892 73.4491 77.2523 72.667 76.8947 72.0074C76.5371 71.3479 75.7941 71.0595 75.2357 71.365Z" fill="#931B44"/>
<path opacity="0.2" d="M75.9463 72.2129C76.0377 72.6165 75.8836 73.013 75.6021 73.0986C75.3207 73.1842 75.0186 72.9265 74.9272 72.5228C74.8358 72.1192 74.99 71.7227 75.2714 71.6362C75.5528 71.5524 75.8549 71.8092 75.9463 72.2129Z" fill="#F2F2DE"/>
<path d="M85.1679 75.2332C85.1831 75.9847 84.6794 76.6037 84.044 76.6154C83.4085 76.6271 82.8815 76.0279 82.8663 75.2773C82.8519 74.5259 83.3547 73.9069 83.9902 73.8952C84.6256 73.8825 85.1527 74.4817 85.1679 75.2332Z" fill="#A02851"/>
<path opacity="0.3" d="M83.9902 73.8942C83.9839 73.8942 83.9777 73.8969 83.9714 73.8969C84.4446 74.0185 84.8058 74.5078 84.8175 75.1043C84.8309 75.7999 84.3658 76.373 83.7769 76.3838C83.5609 76.3883 83.3593 76.3144 83.189 76.1874C83.405 76.4541 83.707 76.6208 84.0422 76.6144C84.6777 76.6027 85.1814 75.9837 85.1661 75.2323C85.1527 74.4817 84.6257 73.8825 83.9902 73.8942Z" fill="#A02851"/>
<path opacity="0.2" d="M84.2321 74.9763C84.1281 75.3773 83.81 75.6575 83.5205 75.6035C83.2319 75.5494 83.0813 75.1809 83.1853 74.7799C83.2892 74.379 83.6074 74.0987 83.8969 74.1528C84.1855 74.2078 84.3361 74.5763 84.2321 74.9763Z" fill="#FFFFEB"/>
<path d="M93.7839 72.7201C94.1415 73.3797 93.9783 74.1627 93.42 74.4672C92.8616 74.7727 92.1195 74.4843 91.7619 73.8248C91.4043 73.1652 91.5674 72.3822 92.1258 72.0777C92.6832 71.7731 93.4262 72.0605 93.7839 72.7201Z" fill="#A02851"/>
<path opacity="0.3" d="M92.1251 72.0787C92.1197 72.0815 92.1152 72.086 92.1099 72.0896C92.5858 71.9778 93.1307 72.2454 93.4148 72.7689C93.7456 73.3798 93.595 74.1043 93.0778 74.3863C92.8878 74.4899 92.6754 74.5179 92.4666 74.4845C92.7803 74.6215 93.1253 74.6296 93.4202 74.4683C93.9786 74.1628 94.1417 73.3807 93.7841 72.7212C93.4265 72.0607 92.6835 71.7733 92.1251 72.0787Z" fill="#A02851"/>
<path opacity="0.2" d="M92.8357 72.9265C92.9271 73.3301 92.773 73.7266 92.4915 73.8122C92.2101 73.8978 91.908 73.6401 91.8166 73.2364C91.7252 72.8328 91.8794 72.4363 92.1608 72.3507C92.4422 72.2651 92.7443 72.5228 92.8357 72.9265Z" fill="#FFFFEB"/>
<path d="M101.587 75.0024C101.945 75.662 101.782 76.445 101.223 76.7495C100.665 77.055 99.9218 76.7667 99.5651 76.1071C99.2075 75.4475 99.3706 74.6645 99.929 74.36C100.486 74.0545 101.229 74.342 101.587 75.0024Z" fill="#A02851"/>
<path opacity="0.3" d="M99.9281 74.36C99.9227 74.3627 99.9182 74.3681 99.9128 74.3708C100.389 74.2591 100.934 74.5267 101.218 75.0502C101.549 75.6611 101.398 76.3855 100.881 76.6676C100.691 76.7712 100.478 76.7991 100.27 76.7658C100.583 76.9027 100.928 76.9108 101.223 76.7495C101.782 76.4441 101.945 75.662 101.587 75.0024C101.229 74.342 100.486 74.0545 99.9281 74.36Z" fill="#A02851"/>
<path opacity="0.2" d="M100.639 75.2079C100.73 75.6116 100.576 76.008 100.295 76.0936C100.013 76.1792 99.7113 75.9215 99.6198 75.5178C99.5284 75.1142 99.6826 74.7177 99.964 74.6321C100.245 74.5465 100.547 74.8042 100.639 75.2079Z" fill="#FFFFEB"/>
<path d="M79.1972 74.7988C79.5548 75.4584 79.3917 76.2414 78.8333 76.546C78.2749 76.8514 77.5319 76.5631 77.1752 75.9035C76.8176 75.244 76.9807 74.461 77.5391 74.1564C78.0966 73.8518 78.8396 74.1393 79.1972 74.7988Z" fill="#A02851"/>
<path opacity="0.3" d="M77.5382 74.1564C77.5328 74.1591 77.5283 74.1636 77.5229 74.1672C77.9989 74.0555 78.5438 74.3231 78.8279 74.8466C79.1587 75.4575 79.0081 76.1819 78.4909 76.464C78.3009 76.5676 78.0885 76.5955 77.8797 76.5622C78.1934 76.6991 78.5384 76.7072 78.8333 76.546C79.3917 76.2405 79.5548 75.4584 79.1972 74.7988C78.8396 74.1393 78.0966 73.8518 77.5382 74.1564Z" fill="#A02851"/>
<path opacity="0.2" d="M78.249 75.0052C78.3404 75.4089 78.1863 75.8053 77.9049 75.8909C77.6234 75.9765 77.3214 75.7188 77.23 75.3152C77.1385 74.9115 77.2927 74.515 77.5741 74.4294C77.8556 74.3438 78.1576 74.6015 78.249 75.0052Z" fill="#FFFFEB"/>
<path d="M76.9189 73.9762C77.2523 74.8006 77.0398 75.6674 76.4429 75.9116C75.846 76.1558 75.0922 75.6854 74.7579 74.8601C74.4236 74.0347 74.6369 73.1688 75.2339 72.9247C75.8308 72.6805 76.5845 73.1517 76.9189 73.9762Z" fill="#A02851"/>
<path opacity="0.3" d="M75.2339 72.9247C75.2276 72.9274 75.2232 72.9319 75.2178 72.9346C75.7179 72.8967 76.2682 73.3067 76.5335 73.9618C76.8427 74.7249 76.6455 75.5269 76.0934 75.753C75.8909 75.8359 75.6686 75.8278 75.4535 75.7494C75.7717 75.9657 76.1293 76.0405 76.4439 75.9116C77.0408 75.6674 77.2532 74.8006 76.9198 73.9762C76.5846 73.1517 75.8308 72.6805 75.2339 72.9247Z" fill="#A02851"/>
<path opacity="0.2" d="M75.9231 74.033C75.9957 74.5132 75.8128 74.9385 75.5161 74.9836C75.2195 75.0286 74.9201 74.6763 74.8484 74.1961C74.7758 73.7158 74.9587 73.2896 75.2553 73.2455C75.552 73.1995 75.8514 73.5527 75.9231 74.033Z" fill="#FFFFEB"/>
<path d="M92.8805 76.5252C93.2139 77.3497 93.0015 78.2165 92.4046 78.4607C91.8077 78.7048 91.0539 78.2336 90.7196 77.4091C90.3853 76.5847 90.5986 75.7179 91.1955 75.4737C91.7924 75.2304 92.5462 75.7008 92.8805 76.5252Z" fill="#931B44"/>
<path opacity="0.3" d="M91.1958 75.4746C91.1896 75.4773 91.1851 75.4818 91.1797 75.4845C91.6798 75.4467 92.2301 75.8566 92.4954 76.5117C92.8046 77.2749 92.6075 78.0768 92.0554 78.303C91.8528 78.3859 91.6305 78.3777 91.4154 78.2994C91.7336 78.5156 92.0912 78.5904 92.4058 78.4615C93.0027 78.2174 93.2151 77.3515 92.8817 76.5261C92.5465 75.7008 91.7927 75.2304 91.1958 75.4746Z" fill="#931B44"/>
<path opacity="0.2" d="M91.8849 76.582C91.9575 77.0623 91.7747 77.4885 91.478 77.5335C91.1813 77.5786 90.882 77.2263 90.8103 76.746C90.7386 76.2657 90.9205 75.8405 91.2172 75.7954C91.5139 75.7495 91.8132 76.1018 91.8849 76.582Z" fill="#F2F2DE"/>
<path d="M97.863 74.87C97.4677 75.9107 96.5374 76.5198 95.7854 76.2306C95.0326 75.9414 94.7431 74.8646 95.1374 73.8239C95.5327 72.7832 96.463 72.1741 97.215 72.4633C97.9679 72.7526 98.2573 73.8293 97.863 74.87Z" fill="#931B44"/>
<path opacity="0.3" d="M97.215 72.4634C97.2078 72.4606 97.1998 72.4606 97.1917 72.4579C97.6802 72.8526 97.8361 73.6996 97.5224 74.5249C97.1567 75.4881 96.2954 76.0522 95.599 75.7846C95.3436 75.6864 95.1473 75.4891 95.0173 75.2323C95.124 75.7026 95.3875 76.0783 95.7854 76.2306C96.5383 76.5189 97.4686 75.9098 97.863 74.87C98.2573 73.8302 97.9679 72.7526 97.215 72.4634Z" fill="#931B44"/>
<path opacity="0.2" d="M96.9049 74.0672C96.5634 74.5682 96.0355 74.8007 95.7254 74.588C95.4162 74.3745 95.4422 73.7951 95.7837 73.295C96.1252 72.794 96.653 72.5616 96.9632 72.7742C97.2733 72.9878 97.2473 73.5671 96.9049 74.0672Z" fill="#F2F2DE"/>
<path d="M95.5227 75.425C95.8991 76.354 95.6589 77.3307 94.9867 77.6055C94.3145 77.8803 93.4648 77.3505 93.0884 76.4207C92.712 75.4917 92.9522 74.515 93.6244 74.2401C94.2966 73.9653 95.1462 74.496 95.5227 75.425Z" fill="#A02851"/>
<path opacity="0.3" d="M93.6243 74.241C93.6171 74.2437 93.6126 74.2491 93.6055 74.2518C94.1683 74.2095 94.7895 74.6717 95.0879 75.4088C95.4357 76.2693 95.2143 77.1721 94.5914 77.4271C94.3628 77.5208 94.1128 77.5118 93.8699 77.4235C94.2284 77.6677 94.6308 77.7515 94.9857 77.6064C95.6579 77.3316 95.8981 76.3549 95.5217 75.4259C95.1462 74.496 94.2965 73.9653 93.6243 74.241Z" fill="#A02851"/>
<path opacity="0.2" d="M94.4016 75.489C94.4831 76.0296 94.2779 76.5099 93.9436 76.5603C93.6093 76.6108 93.2723 76.2134 93.1907 75.6728C93.1092 75.1322 93.3144 74.6519 93.6487 74.6015C93.983 74.5501 94.32 74.9475 94.4016 75.489Z" fill="#FFFFEB"/>
<path d="M130.891 129.51H84.0171V150.439H130.891V129.51Z" fill="#546886"/>
<path d="M196.336 183.505C196.336 186.078 194.26 188.165 191.7 188.165C189.141 188.165 187.065 186.078 187.065 183.505C187.065 180.931 189.141 178.845 191.7 178.845C194.26 178.845 196.336 180.931 196.336 183.505Z" fill="#394A63"/>
<path d="M192.955 176.433H190.17V183.432H192.955V176.433Z" fill="#546886"/>
<path d="M191.701 185.826C192.976 185.826 194.01 184.787 194.01 183.505C194.01 182.223 192.976 181.184 191.701 181.184C190.426 181.184 189.392 182.223 189.392 183.505C189.392 184.787 190.426 185.826 191.701 185.826Z" fill="#768BA5"/>
<path d="M130.891 127.844H91.6418V148.173H130.891V127.844Z" fill="#768BA5"/>
<path d="M130.891 127.844H91.6418V134.042H130.891V127.844Z" fill="#546886"/>
<path opacity="0.3" d="M130.891 146.24H91.6418V148.173H130.891V146.24Z" fill="#5D608C"/>
<path d="M120.747 129.51H117.697V143.773H120.747V129.51Z" fill="#86A2BC"/>
<path d="M104.836 129.51H101.786V143.773H104.836V129.51Z" fill="#86A2BC"/>
<path d="M125.94 146.941C127.176 146.941 128.178 145.933 128.178 144.691C128.178 143.448 127.176 142.441 125.94 142.441C124.704 142.441 123.702 143.448 123.702 144.691C123.702 145.933 124.704 146.941 125.94 146.941Z" fill="#B4CDD8"/>
<path d="M126.885 136.842H124.996V143.94H126.885V136.842Z" fill="#B4CDD8"/>
<path d="M125.94 145.94C126.627 145.94 127.184 145.381 127.184 144.691C127.184 144.001 126.627 143.441 125.94 143.441C125.254 143.441 124.697 144.001 124.697 144.691C124.697 145.381 125.254 145.94 125.94 145.94Z" fill="#768BA5"/>
<path d="M96.5927 146.941C97.8287 146.941 98.8307 145.933 98.8307 144.691C98.8307 143.448 97.8287 142.441 96.5927 142.441C95.3567 142.441 94.3547 143.448 94.3547 144.691C94.3547 145.933 95.3567 146.941 96.5927 146.941Z" fill="#B4CDD8"/>
<path d="M97.5373 136.842H95.6479V143.94H97.5373V136.842Z" fill="#B4CDD8"/>
<path d="M96.5927 145.94C97.2793 145.94 97.8359 145.381 97.8359 144.691C97.8359 144.001 97.2793 143.441 96.5927 143.441C95.9062 143.441 95.3496 144.001 95.3496 144.691C95.3496 145.381 95.9062 145.94 96.5927 145.94Z" fill="#768BA5"/>
<path d="M105.382 132.943H101.404V136.942H105.382V132.943Z" fill="#546886"/>
<path d="M104.935 135.126H101.852V136.326H104.935V135.126Z" fill="#86A2BC"/>
<path d="M104.935 133.559H101.852V134.759H104.935V133.559Z" fill="#86A2BC"/>
<path d="M121.211 132.943H117.233V136.942H121.211V132.943Z" fill="#546886"/>
<path d="M120.764 135.126H117.681V136.326H120.764V135.126Z" fill="#86A2BC"/>
<path d="M120.764 133.559H117.681V134.759H120.764V133.559Z" fill="#86A2BC"/>
<g opacity="0.3">
<path d="M120.747 129.51H117.697V131.976H120.747V129.51Z" fill="#5D608C"/>
<path d="M104.836 129.51H101.786V131.976H104.836V129.51Z" fill="#5D608C"/>
</g>
<path d="M182.34 147.906H86.0723V151.905H182.34V147.906Z" fill="#768BA5"/>
<path d="M182.34 147.906H86.0723V148.84H182.34V147.906Z" fill="#86A2BC"/>
<path d="M147.457 177.234H104.951L86.3242 155.838H166.083L147.457 177.234Z" fill="#768BA5"/>
<path d="M97.86 180.833H96.5676V184.832H97.86V180.833Z" fill="#768BA5"/>
<path d="M102.236 180.833H100.943V184.832H102.236V180.833Z" fill="#768BA5"/>
<path d="M101.043 180.833H97.8599V188.165H101.043V180.833Z" fill="#394A63"/>
<path d="M151.364 180.833H150.072V184.832H151.364V180.833Z" fill="#768BA5"/>
<path d="M155.74 180.833H154.448V184.832H155.74V180.833Z" fill="#768BA5"/>
<path d="M154.547 180.833H151.365V188.165H154.547V180.833Z" fill="#394A63"/>
<path d="M209.656 114.58H64.3262V129.51H209.656V114.58Z" fill="#768BA5"/>
<path d="M79.4427 180.967H64.3262V114.58H105.432L87.9286 147.64L79.4427 180.967Z" fill="#768BA5"/>
<path d="M97.5277 129.51L87.9286 147.64L79.4427 180.967H78.637L87.2394 147.64L96.6538 129.51H97.5277Z" fill="#546886"/>
<path d="M187.644 177.934H195.6V121.511H175.445L187.644 177.934Z" fill="#768BA5"/>
<path d="M51.9941 97.8502H64.8566V156.704L51.9941 144.707V97.8502Z" fill="#768BA5"/>
<path d="M204.352 88.9857H64.3262V114.581H204.352V88.9857Z" fill="#768BA5"/>
<path opacity="0.3" d="M204.252 106.648H64.3262V114.58H204.252V106.648Z" fill="#5D608C"/>
<path opacity="0.3" d="M102.78 100.983H64.3262V114.58H102.78V100.983Z" fill="#5D608C"/>
<path d="M167.078 154.238H85.3303V157.638H167.078V154.238Z" fill="#86A2BC"/>
<path opacity="0.3" d="M87.8909 157.638L90.992 161.2H161.399L164.517 157.638H87.8909Z" fill="#5D608C"/>
<path d="M167.078 154.238H85.3303V155.138H167.078V154.238Z" fill="#A3C5D8"/>
<path d="M136.049 167.436H116.358L94.2393 177.575V180.833H158.169V177.575L136.049 167.436Z" fill="#86A2BC"/>
<path d="M136.049 167.436H116.358L94.2393 177.574V178.28L116.358 168.141H136.049L158.169 178.28V177.574L136.049 167.436Z" fill="#A3C5D8"/>
<path opacity="0.3" d="M101.043 184.732H97.8601V188.165H101.043V184.732Z" fill="#5D608C"/>
<path opacity="0.3" d="M154.548 184.732H151.365V188.165H154.548V184.732Z" fill="#5D608C"/>
<path d="M209.656 104.648H205.943V114.58H209.656V104.648Z" fill="#546886"/>
<path d="M201.965 91.0518H105.498V98.2502H201.965V91.0518Z" fill="#86A2BC"/>
<path d="M63.4055 97.8168V155.327L64.326 156.221V97.8168H63.4055Z" fill="#4C5F7C"/>
<path d="M102.515 100.983H64.3262L47.3535 77.7876H102.515V100.983Z" fill="#768BA5"/>
<path d="M103.841 77.7876H47.3535V80.4538H103.841V77.7876Z" fill="#86A2BC"/>
<path d="M204.352 113.447H64.3262V114.581H204.352V113.447Z" fill="#4C5F7C"/>
<path d="M177.376 130.443H195.6V129.51H177.174L177.376 130.443Z" fill="#4C5F7C"/>
<path d="M71.6191 181.532C71.2713 181.532 70.989 181.816 70.989 182.166C70.989 182.515 71.2713 182.799 71.6191 182.799C71.9668 182.799 72.2492 182.515 72.2492 182.166C72.2492 181.816 71.9668 181.532 71.6191 181.532Z" fill="#768BA5"/>
<path opacity="0.3" d="M100.128 177.9L115.775 170.569H125.72V177.9H100.128Z" fill="#86A2BC"/>
<path opacity="0.3" d="M130.361 170.569H127.41V177.834H130.361V170.569Z" fill="#86A2BC"/>
<path opacity="0.2" d="M49.3037 80.4538H102.514V93.3846C102.514 93.3846 95.2215 83.2533 77.9835 83.2533C60.7455 83.2533 58.8257 93.3846 58.8257 93.3846L49.3037 80.4538Z" fill="#5D608C"/>
<path d="M61.4088 98.7169H53.1873V135.642H61.4088V98.7169Z" fill="#86A2BC"/>
<path d="M75.3046 151.239H66.9119V117.446H93.0059L75.3046 151.239Z" fill="#86A2BC"/>
<path d="M62.3345 128.039C63.4601 128.039 64.3726 127.12 64.3726 125.986C64.3726 124.852 63.4601 123.933 62.3345 123.933C61.2089 123.933 60.2964 124.852 60.2964 125.986C60.2964 127.12 61.2089 128.039 62.3345 128.039Z" fill="#394A63"/>
<path d="M62.3346 119.18C58.6026 119.18 55.5776 122.227 55.5776 125.986C55.5776 129.745 58.6026 132.792 62.3346 132.792C66.0667 132.792 69.0916 129.745 69.0916 125.986C69.0916 122.227 66.0667 119.18 62.3346 119.18ZM62.3346 131.488C59.3178 131.488 56.8728 129.024 56.8728 125.986C56.8728 122.948 59.3178 120.484 62.3346 120.484C65.3515 120.484 67.7965 122.948 67.7965 125.986C67.7965 129.024 65.3515 131.488 62.3346 131.488Z" fill="#394A63"/>
<path d="M63.1609 119.891H61.509V125.051H63.1609V119.891Z" fill="#394A63"/>
<path d="M67.3693 129.701L68.1497 128.237L63.6263 125.8L62.8459 127.264L67.3693 129.701Z" fill="#394A63"/>
<path d="M56.5363 128.175L57.3149 129.639L61.8409 127.207L61.0622 125.743L56.5363 128.175Z" fill="#394A63"/>
<path d="M62.3346 127.1C62.9449 127.1 63.4397 126.601 63.4397 125.986C63.4397 125.371 62.9449 124.872 62.3346 124.872C61.7243 124.872 61.2295 125.371 61.2295 125.986C61.2295 126.601 61.7243 127.1 62.3346 127.1Z" fill="#86A2BC"/>
<path d="M70.8895 173.035H66.9119V154.038H75.3046L70.8895 173.035Z" fill="#86A2BC"/>
<path d="M205.413 122.845H99.9287L102.78 117.446H205.413V122.845Z" fill="#86A2BC"/>
<path d="M103.841 77.7876H47.3535V78.6544H103.841V77.7876Z" fill="#A3C5D8"/>
<path d="M60.7859 92.8512L65.9171 99.7496H88.7908C88.7908 99.7496 74.6091 82.7532 60.7859 92.8512Z" fill="#86A2BC"/>
<path opacity="0.2" d="M62.0335 97.8502L64.3262 100.983V107.948L56.949 97.8502H62.0335Z" fill="#5D608C"/>
<path opacity="0.3" d="M181.152 147.906L182.017 151.905H179.357L178.429 147.906H181.152Z" fill="#5D608C"/>
<path d="M79.4427 180.233H64.3262V180.967H79.4427V180.233Z" fill="#546886"/>
<path d="M71.619 188.165C74.9147 188.165 77.5864 185.479 77.5864 182.166C77.5864 178.853 74.9147 176.167 71.619 176.167C68.3233 176.167 65.6516 178.853 65.6516 182.166C65.6516 185.479 68.3233 188.165 71.619 188.165Z" fill="#394A63"/>
<path d="M71.619 185.365C73.3767 185.365 74.8016 183.933 74.8016 182.166C74.8016 180.399 73.3767 178.966 71.619 178.966C69.8612 178.966 68.4363 180.399 68.4363 182.166C68.4363 183.933 69.8612 185.365 71.619 185.365Z" fill="#546886"/>
<path d="M71.619 178.966C69.8614 178.966 68.4363 180.399 68.4363 182.166C68.4363 183.933 69.8614 185.365 71.619 185.365C73.3766 185.365 74.8016 183.933 74.8016 182.166C74.8016 180.399 73.3766 178.966 71.619 178.966ZM71.619 184.965C70.081 184.965 68.8342 183.712 68.8342 182.166C68.8342 180.62 70.081 179.366 71.619 179.366C73.157 179.366 74.4037 180.62 74.4037 182.166C74.4037 183.712 73.157 184.965 71.619 184.965Z" fill="#768BA5"/>
<path d="M71.7687 179.1H71.4702V185.165H71.7687V179.1Z" fill="#768BA5"/>
<path d="M73.5607 179.812L73.3225 179.631L69.686 184.472L69.9242 184.653L73.5607 179.812Z" fill="#768BA5"/>
<path d="M74.5529 181.424L74.4712 181.136L68.668 182.795L68.7496 183.084L74.5529 181.424Z" fill="#768BA5"/>
<path d="M74.3722 183.382L74.48 183.103L68.8529 180.913L68.7452 181.193L74.3722 183.382Z" fill="#768BA5"/>
<path d="M73.0844 184.797L73.3381 184.639L70.1608 179.483L69.907 179.641L73.0844 184.797Z" fill="#768BA5"/>
<path d="M187.479 177.166H195.601V177.934H187.644L187.479 177.166Z" fill="#546886"/>
<path d="M195.6 129.51H194.672V177.899H195.6V129.51Z" fill="#546886"/>
<path d="M98.5495 77.6173C98.3084 78.4742 97.6111 79.0256 96.9909 78.8499C96.3716 78.6733 96.0642 77.8362 96.3044 76.9794C96.5455 76.1225 97.2427 75.571 97.863 75.7467C98.4832 75.9233 98.7906 76.7604 98.5495 77.6173Z" fill="#A02851"/>
<path opacity="0.3" d="M97.8627 75.7467C97.8564 75.7449 97.8502 75.7458 97.8439 75.744C98.2616 76.0233 98.4453 76.6874 98.2535 77.3668C98.0303 78.1597 97.385 78.6706 96.8114 78.5075C96.6008 78.448 96.4305 78.3048 96.3086 78.1092C96.4269 78.4769 96.6635 78.7562 96.9906 78.849C97.6109 79.0247 98.3082 78.4733 98.5493 77.6164C98.7904 76.7604 98.4829 75.9233 97.8627 75.7467Z" fill="#A02851"/>
<path opacity="0.2" d="M97.7291 77.0469C97.4924 77.4704 97.0882 77.6939 96.8265 77.5461C96.5648 77.3983 96.5451 76.9352 96.7817 76.5117C97.0183 76.0882 97.4225 75.8648 97.6843 76.0125C97.946 76.1603 97.9666 76.6234 97.7291 77.0469Z" fill="#FFFFEB"/>
<path d="M84.9162 77.3515C84.9315 78.103 84.4278 78.722 83.7923 78.7337C83.1569 78.7463 82.6298 78.1462 82.6146 77.3956C82.5994 76.6442 83.1031 76.0252 83.7385 76.0134C84.3749 76.0008 84.9019 76.6 84.9162 77.3515Z" fill="#A02851"/>
<path opacity="0.3" d="M83.7392 76.0134C83.733 76.0134 83.7267 76.0161 83.7204 76.0161C84.1937 76.1378 84.5549 76.627 84.5665 77.2235C84.5799 77.9191 84.1148 78.4922 83.5259 78.503C83.3099 78.5075 83.1083 78.4336 82.938 78.3066C83.154 78.5733 83.456 78.74 83.7921 78.7337C84.4276 78.7211 84.9304 78.1021 84.9161 77.3515C84.9017 76.6009 84.3738 76.0008 83.7392 76.0134Z" fill="#A02851"/>
<path opacity="0.2" d="M83.9802 77.0956C83.8762 77.4966 83.558 77.7768 83.2685 77.7227C82.9799 77.6687 82.8293 77.3001 82.9333 76.8992C83.0373 76.4982 83.3555 76.218 83.645 76.2721C83.9345 76.3261 84.0841 76.6946 83.9802 77.0956Z" fill="#FFFFEB"/>
<path d="M73.0531 78.8904C72.5897 79.5878 71.8046 79.8789 71.3 79.5401C70.7954 79.2013 70.7622 78.3606 71.2256 77.6632C71.689 76.9658 72.4741 76.6748 72.9787 77.0136C73.4833 77.3524 73.5165 78.193 73.0531 78.8904Z" fill="#A02851"/>
<path opacity="0.3" d="M72.9789 77.0135C72.9735 77.0099 72.9681 77.009 72.9627 77.0054C73.2558 77.3776 73.2289 78.0263 72.8614 78.5796C72.4321 79.2256 71.7061 79.4941 71.2383 79.1805C71.0671 79.0652 70.956 78.8868 70.9031 78.6769C70.9031 79.0409 71.0339 79.3608 71.3001 79.5392C71.8047 79.878 72.5898 79.5869 73.0532 78.8895C73.5166 78.193 73.4835 77.3523 72.9789 77.0135Z" fill="#A02851"/>
<path opacity="0.2" d="M72.4831 78.1399C72.1488 78.4498 71.7222 78.5327 71.5304 78.3237C71.3386 78.1146 71.4542 77.6938 71.7885 77.383C72.1228 77.073 72.5494 76.9901 72.7412 77.1992C72.9339 77.4091 72.8183 77.8299 72.4831 78.1399Z" fill="#FFFFEB"/>
<path d="M55.0095 76.8009C55.3859 77.7299 55.1457 78.7066 54.4735 78.9815C53.8013 79.2563 52.9517 78.7265 52.5752 77.7966C52.1988 76.8676 52.439 75.8909 53.1112 75.6161C53.7843 75.3413 54.634 75.8711 55.0095 76.8009Z" fill="#A02851"/>
<path opacity="0.3" d="M53.1121 75.6161C53.1049 75.6188 53.1004 75.6242 53.0933 75.6269C53.6561 75.5845 54.2772 76.0468 54.5757 76.7838C54.9234 77.6443 54.7021 78.5471 54.0792 78.8021C53.8506 78.8959 53.6006 78.8868 53.3577 78.7985C53.7162 79.0427 54.1186 79.1265 54.4735 78.9815C55.1457 78.7066 55.3859 77.7299 55.0095 76.8009C54.634 75.8711 53.7843 75.3413 53.1121 75.6161Z" fill="#A02851"/>
<path opacity="0.2" d="M53.8882 76.864C53.9697 77.4047 53.7645 77.8849 53.4302 77.9354C53.0959 77.9858 52.7589 77.5885 52.6773 77.0479C52.5957 76.5063 52.801 76.027 53.1353 75.9765C53.4705 75.9251 53.8075 76.3234 53.8882 76.864Z" fill="#FFFFEB"/>
<path d="M82.8717 72.7228C83.2105 73.3923 83.0268 74.1699 82.4595 74.4591C81.893 74.7484 81.159 74.4402 80.8193 73.7707C80.4805 73.1013 80.6651 72.3237 81.2315 72.0344C81.798 71.7452 82.533 72.0534 82.8717 72.7228Z" fill="#89113A"/>
<path opacity="0.3" d="M81.2315 72.0345C81.2262 72.0372 81.2217 72.0417 81.2163 72.0453C81.6949 71.9471 82.2327 72.23 82.5016 72.7616C82.8153 73.3815 82.645 74.1014 82.1197 74.3691C81.927 74.4673 81.7146 74.4898 81.5058 74.4501C81.8159 74.5961 82.1601 74.6132 82.4595 74.461C83.0259 74.1717 83.2105 73.3941 82.8717 72.7247C82.5329 72.0534 81.798 71.7452 81.2315 72.0345Z" fill="#89113A"/>
<path opacity="0.2" d="M81.9181 72.9021C81.9988 73.3085 81.833 73.7004 81.5498 73.7779C81.2665 73.8554 80.9708 73.5896 80.891 73.1841C80.8112 72.7778 80.9752 72.3858 81.2594 72.3083C81.5435 72.2299 81.8384 72.4957 81.9181 72.9021Z" fill="#E8E8D4"/>
<path d="M87.0626 72.1525C87.4014 72.8219 87.2177 73.5995 86.6503 73.8888C86.0839 74.178 85.3489 73.8699 85.0101 73.2004C84.6714 72.5309 84.8551 71.7533 85.4224 71.4641C85.9889 71.1739 86.7238 71.4821 87.0626 72.1525Z" fill="#89113A"/>
<path opacity="0.3" d="M85.4227 71.4641C85.4173 71.4668 85.4128 71.4713 85.4075 71.4749C85.8861 71.3767 86.4238 71.6596 86.6927 72.1903C87.0064 72.8102 86.8361 73.5301 86.3109 73.7977C86.1182 73.896 85.9058 73.9185 85.697 73.8788C86.0071 74.0248 86.3512 74.0419 86.6506 73.8897C87.217 73.6004 87.4017 72.8228 87.0629 72.1534C86.7241 71.4821 85.9891 71.1739 85.4227 71.4641Z" fill="#89113A"/>
<path opacity="0.2" d="M86.109 72.3318C86.1896 72.7382 86.0247 73.1301 85.7406 73.2076C85.4565 73.2851 85.1625 73.0193 85.0819 72.6138C85.0021 72.2075 85.167 71.8155 85.4502 71.738C85.7343 71.6596 86.0292 71.9254 86.109 72.3318Z" fill="#E8E8D4"/>
</svg>
