<svg width="55" height="54" viewBox="0 0 55 54" fill="none" xmlns="http://www.w3.org/2000/svg">
<mask id="mask0_56_1324" style="mask-type:alpha" maskUnits="userSpaceOnUse" x="0" y="0" width="55" height="54">
<rect x="0.967285" width="53.3828" height="53.3828" fill="#D9D9D9"/>
</mask>
<g mask="url(#mask0_56_1324)">
<path d="M25.4344 37.813H29.883V28.9159H38.7801V24.4673H29.883V15.5701H25.4344V24.4673H16.5373V28.9159H25.4344V37.813ZM27.6587 48.9344C24.5818 48.9344 21.6902 48.3505 18.984 47.1828C16.2778 46.015 13.9238 44.4302 11.9219 42.4284C9.92007 40.4265 8.33527 38.0725 7.16752 35.3663C5.99977 32.6601 5.41589 29.7685 5.41589 26.6916C5.41589 23.6146 5.99977 20.7231 7.16752 18.0169C8.33527 15.3106 9.92007 12.9566 11.9219 10.9548C13.9238 8.9529 16.2778 7.3681 18.984 6.20035C21.6902 5.0326 24.5818 4.44873 27.6587 4.44873C30.7357 4.44873 33.6272 5.0326 36.3334 6.20035C39.0396 7.3681 41.3937 8.9529 43.3955 10.9548C45.3974 12.9566 46.9822 15.3106 48.1499 18.0169C49.3177 20.7231 49.9016 23.6146 49.9016 26.6916C49.9016 29.7685 49.3177 32.6601 48.1499 35.3663C46.9822 38.0725 45.3974 40.4265 43.3955 42.4284C41.3937 44.4302 39.0396 46.015 36.3334 47.1828C33.6272 48.3505 30.7357 48.9344 27.6587 48.9344ZM27.6587 44.4858C32.6263 44.4858 36.8339 42.762 40.2815 39.3144C43.7292 35.8667 45.453 31.6591 45.453 26.6916C45.453 21.724 43.7292 17.5164 40.2815 14.0688C36.8339 10.6211 32.6263 8.8973 27.6587 8.8973C22.6912 8.8973 18.4836 10.6211 15.0359 14.0688C11.5883 17.5164 9.86446 21.724 9.86446 26.6916C9.86446 31.6591 11.5883 35.8667 15.0359 39.3144C18.4836 42.762 22.6912 44.4858 27.6587 44.4858Z" fill="white"/>
</g>
</svg>
