<svg width="140" height="112" viewBox="0 0 140 112" fill="none" xmlns="http://www.w3.org/2000/svg">
<mask id="mask0_127_177" style="mask-type:alpha" maskUnits="userSpaceOnUse" x="-18" y="-54" width="205" height="204">
<rect x="38.1914" y="-54" width="158.298" height="158.298" transform="rotate(20.4053 38.1914 -54)" fill="#D9D9D9"/>
</mask>
<g mask="url(#mask0_127_177)">
<g filter="url(#filter0_i_127_177)">
<path d="M118.788 97.0056C120.194 98.5845 121.816 98.9533 123.654 98.1122C125.492 97.271 126.273 95.8022 125.997 93.7058L123.242 73.6802L110.542 87.9566L118.788 97.0056ZM90.0632 79.6346L97.4814 82.3941L126.001 51.1313C126.617 50.422 126.798 49.6978 126.545 48.9587C126.292 48.2196 125.914 47.5804 125.411 47.0414L114.887 37.4966C114.075 36.8425 113.135 36.6102 112.068 36.7996C111 36.989 110.191 37.5089 109.64 38.3596L90.0632 79.6346ZM44.3175 62.6171L51.7357 65.3767L63.8942 21.3421C64.1098 20.1321 63.8563 19.1581 63.1339 18.4202C62.4114 17.6823 61.5291 17.2954 60.4868 17.2596L46.2834 17.6058C45.3441 17.6082 44.5888 17.8257 44.0174 18.2582C43.446 18.6908 43.1615 19.3766 43.164 20.3159L44.3175 62.6171ZM18.6418 59.7511L30.7965 58.291L30.5147 39.1854L15.3419 52.5419C13.763 53.9484 13.3942 55.5705 14.2353 57.4082C15.0765 59.2459 16.5453 60.0268 18.6418 59.7511ZM64.0994 69.976L77.6995 75.0352L101.768 24.5233C102.319 23.6727 102.384 22.788 101.964 21.8691C101.543 20.9503 100.869 20.3184 99.9419 19.9735L83.2509 13.7644C82.4266 13.4578 81.5551 13.5148 80.6363 13.9353C79.7174 14.3559 79.137 15.049 78.8951 16.0146L64.0994 69.976ZM11.1456 71.3891C6.81832 69.7793 3.8159 66.8151 2.13836 62.4965C0.460817 58.1778 0.44609 53.8033 2.09418 49.373C2.55411 48.1366 3.18477 46.9931 3.98614 45.9424C4.78752 44.8917 5.65659 43.8955 6.59334 42.9538L29.852 22.0492C29.9427 17.3914 31.5081 13.3409 34.5484 9.89758C37.5886 6.45429 41.3729 4.63663 45.9013 4.44458L60.1048 4.09842C61.7388 4.11985 63.3154 4.29583 64.8345 4.62636C66.3536 4.95688 67.7769 5.54498 69.1043 6.39066C71.6583 3.93935 74.5968 2.18825 77.92 1.13733C81.2431 0.0864234 84.5532 0.174211 87.8502 1.4007L104.541 7.60977C107.838 8.83626 110.401 10.9331 112.229 13.9004C114.058 16.8677 115.137 20.1136 115.468 23.6381C116.987 23.9686 118.439 24.4795 119.824 25.1706C121.209 25.8617 122.527 26.7332 123.778 27.7849L134.302 37.3297C137.81 40.5113 139.641 44.4178 139.794 49.0493C139.948 53.6807 138.369 57.6091 135.058 60.8344L139 91.8574C139.197 93.2207 139.219 94.578 139.069 95.9294C138.918 97.2807 138.593 98.6261 138.095 99.9655C136.37 104.602 133.352 107.907 129.041 109.88C124.729 111.854 120.255 111.978 115.619 110.253C114.486 109.832 113.4 109.281 112.363 108.602C111.325 107.923 110.335 107.115 109.394 106.178L101.537 97.9774L30.7545 71.6463L20.3751 73.0631C18.7674 73.2861 17.1879 73.197 15.6364 72.7958C14.085 72.3946 12.5881 71.9257 11.1456 71.3891Z" fill="white"/>
</g>
</g>
<defs>
<filter id="filter0_i_127_177" x="0.869141" y="-3.58984" width="142.936" height="115.05" filterUnits="userSpaceOnUse" color-interpolation-filters="sRGB">
<feFlood flood-opacity="0" result="BackgroundImageFix"/>
<feBlend mode="normal" in="SourceGraphic" in2="BackgroundImageFix" result="shape"/>
<feColorMatrix in="SourceAlpha" type="matrix" values="0 0 0 0 0 0 0 0 0 0 0 0 0 0 0 0 0 0 127 0" result="hardAlpha"/>
<feOffset dx="4" dy="-4"/>
<feGaussianBlur stdDeviation="2"/>
<feComposite in2="hardAlpha" operator="arithmetic" k2="-1" k3="1"/>
<feColorMatrix type="matrix" values="0 0 0 0 0 0 0 0 0 0 0 0 0 0 0 0 0 0 0.25 0"/>
<feBlend mode="normal" in2="shape" result="effect1_innerShadow_127_177"/>
</filter>
</defs>
</svg>
