<svg width="108" height="108" viewBox="0 0 108 108" fill="none" xmlns="http://www.w3.org/2000/svg">
<g filter="url(#filter0_i_70_147)">
<path d="M69.187 97.875H60.7495V73.1552C75.1924 69.8034 85.6507 56.2992 84.248 40.6371L80.8835 3.06914C80.7274 1.33102 79.2909 0 77.5697 0H30.4294C28.7102 0 27.2716 1.33102 27.1177 3.06914L23.7511 40.6392C22.3484 56.3013 32.8066 69.8055 47.2495 73.1573V97.875H38.812C34.1524 97.875 30.3745 101.653 30.3745 106.312C30.3745 107.245 31.1297 108 32.062 108H75.937C76.8694 108 77.6245 107.245 77.6245 106.312C77.6245 101.653 73.8466 97.875 69.187 97.875ZM36.6499 10.125H71.3491L72.8616 27H35.1375L36.6499 10.125Z" fill="white"/>
</g>
<defs>
<filter id="filter0_i_70_147" x="20.625" y="-3" width="63.749" height="111" filterUnits="userSpaceOnUse" color-interpolation-filters="sRGB">
<feFlood flood-opacity="0" result="BackgroundImageFix"/>
<feBlend mode="normal" in="SourceGraphic" in2="BackgroundImageFix" result="shape"/>
<feColorMatrix in="SourceAlpha" type="matrix" values="0 0 0 0 0 0 0 0 0 0 0 0 0 0 0 0 0 0 127 0" result="hardAlpha"/>
<feOffset dx="-3" dy="-3"/>
<feGaussianBlur stdDeviation="2"/>
<feComposite in2="hardAlpha" operator="arithmetic" k2="-1" k3="1"/>
<feColorMatrix type="matrix" values="0 0 0 0 0 0 0 0 0 0 0 0 0 0 0 0 0 0 0.25 0"/>
<feBlend mode="normal" in2="shape" result="effect1_innerShadow_70_147"/>
</filter>
</defs>
</svg>
