<svg width="125" height="125" viewBox="0 0 125 125" fill="none" xmlns="http://www.w3.org/2000/svg">
<g filter="url(#filter0_i_74_767)">
<path d="M32.6448 15.6342C30.0486 13.038 30.0486 8.81277 32.6448 6.21656C34.0672 4.79416 34.0672 2.4892 32.6448 1.0668C31.2224 -0.3556 28.9175 -0.3556 27.4951 1.0668C22.057 6.50119 22.057 15.3496 27.4951 20.784C30.0913 23.3802 30.0913 27.6055 27.4951 30.2017C26.0727 31.6241 26.0727 33.9291 27.4951 35.3515C28.9175 36.7746 31.2224 36.7746 32.6448 35.3515C38.0821 29.9171 38.0821 21.0686 32.6448 15.6342Z" fill="white"/>
<path d="M54.4939 15.6343C51.8977 13.038 51.8977 8.81277 54.4939 6.21656C55.9163 4.79416 55.9163 2.4892 54.4939 1.0668C53.0715 -0.3556 50.7666 -0.3556 49.3442 1.0668C43.9061 6.50119 43.9061 15.3496 49.3442 20.784C51.9404 23.3802 51.9404 27.6055 49.3442 30.2017C47.9218 31.6241 47.9218 33.9291 49.3442 35.3515C50.0554 36.0627 50.9872 36.4186 51.919 36.4186C52.8509 36.4186 53.7827 36.0627 54.4939 35.3515C59.932 29.9171 59.932 21.0686 54.4939 15.6343Z" fill="white"/>
<path d="M76.3479 15.6342C73.7517 13.038 73.7517 8.81277 76.3479 6.21656C77.7703 4.79416 77.7703 2.4892 76.3479 1.0668C74.9255 -0.3556 72.6205 -0.3556 71.1981 1.0668C65.7608 6.50119 65.7608 15.3496 71.1981 20.784C73.7943 23.3802 73.7943 27.6055 71.1981 30.2017C69.7757 31.6241 69.7757 33.9291 71.1981 35.3515C72.6212 36.7746 74.9255 36.7746 76.3479 35.3515C81.7852 29.9171 81.7852 21.0686 76.3479 15.6342Z" fill="white"/>
<path d="M114.074 51.2289H102.993C103.04 50.0132 103.148 48.8151 103.148 47.5869C103.148 45.5739 101.519 43.9448 99.5064 43.9448H4.33444C2.32146 43.9448 0.692383 45.5739 0.692383 47.5869C0.692383 69.2928 8.15519 89.5035 20.5199 102.457H83.321C85.431 100.247 87.3396 97.5231 89.1518 94.9305H92.2231C110.297 94.9305 124.999 80.2278 124.999 62.1543C124.999 56.1301 120.098 51.2289 114.074 51.2289ZM93.6609 87.5015C98.1561 78.9517 101.181 69.0832 102.43 58.5123H114.073C116.082 58.5123 117.715 60.145 117.715 62.1543C117.716 75.7171 107.036 86.7389 93.6609 87.5015Z" fill="white"/>
<path d="M94.007 109.74H9.83758C6.52503 109.74 4.93936 113.802 7.33552 116.09C12.7824 121.289 20.0555 124.308 27.9044 124.308H75.9401C83.7891 124.308 91.0629 121.289 96.509 116.09C98.9059 113.802 97.3203 109.74 94.007 109.74Z" fill="white"/>
</g>
<defs>
<filter id="filter0_i_74_767" x="-2.30762" y="-3" width="127.307" height="127.308" filterUnits="userSpaceOnUse" color-interpolation-filters="sRGB">
<feFlood flood-opacity="0" result="BackgroundImageFix"/>
<feBlend mode="normal" in="SourceGraphic" in2="BackgroundImageFix" result="shape"/>
<feColorMatrix in="SourceAlpha" type="matrix" values="0 0 0 0 0 0 0 0 0 0 0 0 0 0 0 0 0 0 127 0" result="hardAlpha"/>
<feOffset dx="-3" dy="-3"/>
<feGaussianBlur stdDeviation="2"/>
<feComposite in2="hardAlpha" operator="arithmetic" k2="-1" k3="1"/>
<feColorMatrix type="matrix" values="0 0 0 0 0 0 0 0 0 0 0 0 0 0 0 0 0 0 0.25 0"/>
<feBlend mode="normal" in2="shape" result="effect1_innerShadow_74_767"/>
</filter>
</defs>
</svg>
