<svg width="1000" height="1010" viewBox="0 0 1000 1010" fill="none" xmlns="http://www.w3.org/2000/svg">
<path d="M0 30C0 13.4315 13.4315 0 30 0H730V70H30C13.4315 70 0 56.5685 0 40V30Z" fill="white"/>
<path d="M1000 970C1000 953.431 986.569 940 970 940H270V1010H970C986.569 1010 1000 996.569 1000 980V970Z" fill="white"/>
<path d="M270 470H730V540H270V470Z" fill="white"/>
<path d="M730 540C765.457 540 800.567 533.016 833.325 519.447C866.082 505.879 895.847 485.991 920.919 460.919C945.991 435.847 965.879 406.082 979.447 373.325C993.016 340.567 1000 305.457 1000 270C1000 234.543 993.016 199.433 979.447 166.675C965.879 133.918 945.991 104.153 920.919 79.0812C895.847 54.0093 866.082 34.1213 833.325 20.5525C800.567 6.98375 765.457 -3.09974e-06 730 0L730 70.0411C756.259 70.0411 782.261 75.2132 806.521 85.2621C830.781 95.311 852.824 110.04 871.392 128.608C889.96 147.176 904.689 169.219 914.738 193.479C924.787 217.739 929.959 243.741 929.959 270C929.959 296.259 924.787 322.261 914.738 346.521C904.689 370.781 889.96 392.824 871.392 411.392C852.824 429.96 830.781 444.689 806.521 454.738C782.261 464.787 756.259 469.959 730 469.959V540Z" fill="white"/>
<path d="M270 1010C234.543 1010 199.433 1003.02 166.675 989.447C133.918 975.879 104.153 955.991 79.0812 930.919C54.0093 905.847 34.1213 876.082 20.5525 843.325C6.98375 810.567 -1.54987e-06 775.457 0 740C1.54987e-06 704.543 6.98376 669.433 20.5525 636.675C34.1213 603.918 54.0094 574.153 79.0812 549.081C104.153 524.009 133.918 504.121 166.675 490.553C199.433 476.984 234.543 470 270 470L270 540.041C243.741 540.041 217.739 545.213 193.479 555.262C169.219 565.311 147.176 580.04 128.608 598.608C110.04 617.176 95.311 639.219 85.2621 663.479C75.2132 687.739 70.0411 713.741 70.0411 740C70.0411 766.259 75.2132 792.261 85.2621 816.521C95.311 840.781 110.04 862.824 128.608 881.392C147.176 899.96 169.219 914.689 193.479 924.738C217.739 934.787 243.741 939.959 270 939.959V1010Z" fill="white"/>
</svg>
